<svg xmlns="http://www.w3.org/2000/svg" viewBox="0 0 2021.84 924.36"><defs><style>.cls-1{fill:red;}.cls-2{fill:#fff;}</style></defs><g id="Layer_2" data-name="Layer 2"><g id="Layer_1-2" data-name="Layer 1"><path class="cls-1" d="M194.47,391.94q-13.17-13-32-9.05l-83.7,17.46C62,403.84,51.53,416.4,47.09,438q-.62,5.4-3.43,29.74t-6.23,53.84Q34,551,28.93,595.32L155.09,581c18.23-2.06,30.1-14.31,35.38-36.83.33-1.52.75-4.18,1.29-8s1.05-7.55,1.54-11.22.8-6,.9-7l0-.29q1.73-17.88-9.42-30.84a11,11,0,0,0-2-1.82c-.92-.69-1.82-1.34-2.69-1.94s-1.43-.87-1.7-.83q4.56-2.2,11.21-8.31a44.68,44.68,0,0,0,10.63-15,37.77,37.77,0,0,0,2.16-7.83q1-5.25,1.76-10.92c.51-3.78.89-7.07,1.16-9.87s.39-4.29.37-4.49Q207.9,404.9,194.47,391.94ZM149.11,523.35l-.21,2.06c-.1.88-.24,1.84-.41,2.87s-.29,1.93-.36,2.66a4.27,4.27,0,0,1-.21,1.26,5,5,0,0,1-.51,1.73,11.86,11.86,0,0,1-1.42,2.51,3.13,3.13,0,0,1-2.17,1.37l-70.95,9.57q.1-1.54.68-6.15c.38-3.08.78-6.41,1.2-10s1-8.05,1.64-13.38L135.56,509q6.3-.94,10.22,3.39A13.25,13.25,0,0,1,149.11,523.35Zm11.42-87.71c0,.59-.17,1.62-.4,3.08s-.47,3-.73,4.6-.6,3.63-1,6a14.19,14.19,0,0,1-3.82,8.12,13.36,13.36,0,0,1-7.59,4.08L81.55,472.8l2.75-25.17a7.62,7.62,0,0,1,1.79-3.73,5,5,0,0,1,2.71-1.78l66-12.31a4.43,4.43,0,0,1,4.12,1.28A5.66,5.66,0,0,1,160.53,435.64Z"/><path class="cls-1" d="M222.25,404.22c5.63-23.66,18.3-37.6,38.25-41.76L404,332.53l-7.8,52.25-85.1,15.87-38.77,7.23a6.28,6.28,0,0,0-3.24,2A8,8,0,0,0,266.8,414l-3.89,28.1L345,428l-6.8,50.2-81.85,12.25L252.73,516a5.86,5.86,0,0,0,1.73,4.78,4.92,4.92,0,0,0,4.5,1.53l118.7-15.85q-3.32,23.07-7.53,50.27L250.7,570.22c-13.43,1.52-24.54-2.45-33.42-11.86-8.89-9.23-12.53-20.69-11-34.48Z"/><polygon class="cls-1" points="670.4 276.99 554.68 432.95 537.88 537.73 477.13 544.6 493.93 437.96 419.64 329.28 484.11 315.83 527.6 378.24 589.84 293.79 670.4 276.99"/><path class="cls-1" d="M959.29,238.19c-16.86-10.81-37.49-13.62-61.68-8.57L738,262.89c-31.34,6.53-51.65,24.5-61.43,53.81q-1,5.7-5,28.34t-9,49.86q-4.92,27.19-12.16,67.93-3.28,25.08,16.9,41.29c13.77,11,31.21,15.43,52.47,13l154.76-17.51C911.06,495.5,934.9,478,945.42,447q1.47-6.4,6.89-32.67t12.19-57.92q6.76-31.68,11.35-53.53l4-19.35C983.25,264.13,976.34,249,959.29,238.19Zm-67.93,63.56q-1,5.16-5.08,25.69t-9.17,45.13q-5.08,24.57-12.38,61.58-2,6.72-9.32,7.7L733.54,458.28a10.14,10.14,0,0,1-7.27-1.61,6,6,0,0,1-2.65-5.75q1.08-4.77,4.59-23.85t7.9-42.4q4.39-23.35,7.71-40.75t3.45-18.4q1.63-6.52,8.62-7.83l124.57-23.23c3.67-.69,6.48-.29,8.41,1.2A6.38,6.38,0,0,1,891.36,301.75Z"/><path class="cls-1" d="M1021.52,250.25c12.39-33.48,36.46-54.07,72.77-61.64l24.13-5,191,119.93,37.78-167.64,108.23-22.56-83.26,330-101,11.43,13.79-58L1099.16,273.28l-44.85,206-83.59,9.46Z"/><path class="cls-1" d="M1987,31.6C1958,18.15,1922.29,16,1880.15,24.75l-301.89,63A113.94,113.94,0,0,0,1533.92,107q-19.2,13.71-23.92,30.7a.92.92,0,0,0-.3.79c-.35,1.53-4.17,16.52-11.4,44.84s-15.6,61-25.2,98.49q-14.28,55.77-25.76,100.49-11.41,44.49-14,54.1l395.1-44.71c60.26-6.82,101.4-31.48,122.14-74.21q19.13-62.35,31.94-104.26,12.85-42.06,23.67-77t13.46-43.95C2027,65.42,2016,45.11,1987,31.6Zm-119.3,91.31q-16.14,54.45-26.63,89.94l-19,64.23q-8.49,28.77-10.86,35.87l-238.79,32.2q14.26-52.53,24-87.84T1614,192.59q7.92-29.4,10-36.83l225.46-42.06c5.24-1,9.71-.56,13.44,1.24S1868.24,119.41,1867.66,122.91Z"/><path class="cls-1" d="M46.93,688.45q2.25-17,13.51-28a43.07,43.07,0,0,1,27.4-12.53l14.86-1.24L80.47,815.82a7.49,7.49,0,0,0,1.86,5.53,6.37,6.37,0,0,0,5,2.36L217,824.5c-.31,1.78-.68,4.1-1.13,7q-1.22,8-2.67,18.15T210.44,868q-1.26,8.31-1.7,11.12l-130.08-4q-21.75-.67-36.2-18.26a50.07,50.07,0,0,1-11.93-39.48Z"/><path class="cls-1" d="M264.82,674.41c8-28.14,24.5-43.35,49.74-45.45L331,627.58l-39.7,254.09-58.13-1.78Z"/><path class="cls-1" d="M608.1,891.37l-26.46-.81-25-.77-11.43-.35q2.1-10.41,7-34.52t10.38-51.64q5.52-27.54,13.43-68.2-17.5,26.48-39.16,57.5C522.62,813,505,838.11,484.14,867.74a50.68,50.68,0,0,1-28.49-9.36,45.44,45.44,0,0,1-17.47-23.56q-1.15-3.36-5.56-18.64t-9.86-34.07q-5.43-18.78-13.58-47.2-1.8,10.46-5.93,34.4t-8.67,50.42q-4.53,26.47-11.1,64.76l-11.69-.36-21.65-.66-20.46-.63-9.42-.29h-.2q1.28-7.42,6.82-41.57,5.58-34.35,12.49-77,7-42.91,17.71-109.24c5.91-20,18.45-30.9,37.84-32.52l7.67-.64,13.18-1.1,12.59-1,6.07-.51.43,0,.22,0q1.21,4.1,7.79,26.11t14.92,49.83q8.34,27.84,21.13,70.57L588,606.14l17.23-1.44,30.89-2.58,29.85-2.49,14.14-1.18c-1.36,6.44-5.06,25-11.07,55.5q-9,45.45-19.79,100.84-10.74,54.91-26.88,137Z"/><path class="cls-1" d="M725.27,644.73c12.45-34.31,37-53.14,74.41-56.26l24.5-2.05L759.57,896l-85-2.6Z"/><polygon class="cls-1" points="999.09 647.85 859.59 655.84 875.75 582.12 1289.95 547.54 1267.17 632.49 1106.41 641.7 1039.88 904.58 936.68 901.42 999.09 647.85"/><path class="cls-1" d="M1479.68,620.88a22.67,22.67,0,0,0-10.48,2.9,15.44,15.44,0,0,0-5.69,6.05q-3.08,10.47-4.9,17.42t-3.51,12.88c-1.13,4-1.91,6.69-2.36,8.23-.56,3.63.87,6.71,4.33,9.22s7.84,3.69,13.15,3.48l32.88-1.3,72.66-2.87,80-3.16,45.94-1.81c46.11-1.82,84.83,7.71,115.61,28.87,31.24,21.28,42.62,46.68,33.83,75.79a1.67,1.67,0,0,1-.46,1q0,.63-3.64,11.59t-8.63,25.76q-4.93,14.8-9.24,27.34t-5,16.27c-7.85,20.54-25,37-51.29,49.41-25.89,12-56.35,17.39-91.15,16.32l-1.49-.05L1607.93,922l-144.75-4.43-139-4.25-69.61-2.13q5.73-22.63,9.82-37.85t7.46-28.15q3.36-12.93,4.19-16.95l52,.22,117.08.51,131.73.57,74.84.33q13.76.06,18.45-8.65,3.51-10.83,5.61-18.08t4-13.46q2-6.21,2.73-8.65,3-5.47-2.87-10t-14.79-4.34h.49l-1.48,0-36.44.49-75.11,1-75.32,1-39.91.54c-38.84.52-70-8.55-94-27-23.89-18.2-32.54-40-26.17-65.74l-.07-.82.59-2.48q1.88-6.37,6.06-21.38t8.05-29.44q3.85-14.43,5.12-18.93c19.85-41.72,58-65.14,115.66-70l1.32-.11,66.93-5.59,151.41-12.63,173.07-14.45,99.76-8.33q-9.14,28.68-15.54,47.62t-11.6,34.87q-5.19,15.93-6.45,20.86l-72.89,4.17-146.58,8.37-141.12,8.06Z"/><path class="cls-2" d="M165.53,372.45q-13.17-13-32-9.05l-83.7,17.45c-16.76,3.5-27.27,16.06-31.71,37.62q-.6,5.4-3.42,29.74T8.49,502.05Q5.08,531.53,0,575.82l126.16-14.27c18.23-2.06,30.1-14.31,35.38-36.84q.48-2.26,1.28-8t1.55-11.22q.75-5.5.9-7l0-.29q1.73-17.88-9.42-30.84a10.69,10.69,0,0,0-2-1.82c-.92-.69-1.82-1.34-2.69-1.94s-1.43-.88-1.7-.83q4.56-2.21,11.21-8.31a44.78,44.78,0,0,0,10.63-15,37.77,37.77,0,0,0,2.16-7.83q1-5.25,1.76-10.92c.5-3.79.89-7.07,1.16-9.87s.39-4.29.37-4.49C178.21,392.4,174.46,381.06,165.53,372.45Zm-45.35,131.4c-.05.5-.12,1.18-.22,2.06s-.23,1.84-.4,2.88-.29,1.92-.36,2.66a4.11,4.11,0,0,1-.22,1.26,4.77,4.77,0,0,1-.5,1.73,11.79,11.79,0,0,1-1.42,2.5,3.18,3.18,0,0,1-2.17,1.38l-70.95,9.57q.11-1.54.68-6.16t1.2-10q.63-5.4,1.64-13.38l59.17-8.85q6.3-.93,10.22,3.4A13.3,13.3,0,0,1,120.18,503.85Zm11.42-87.7c0,.59-.17,1.62-.4,3.07s-.48,3-.73,4.61-.6,3.62-1,6a14.25,14.25,0,0,1-3.82,8.12,13.42,13.42,0,0,1-7.59,4.08L52.62,453.31l2.75-25.18a7.7,7.7,0,0,1,1.78-3.72,5.07,5.07,0,0,1,2.72-1.78l66-12.31A4.39,4.39,0,0,1,130,411.6,5.62,5.62,0,0,1,131.6,416.15Z"/><path class="cls-2" d="M193.31,384.73c5.64-23.66,18.31-37.61,38.26-41.77L375.08,313l-7.79,52.25-85.1,15.87-38.77,7.23a6.26,6.26,0,0,0-3.25,2,8,8,0,0,0-2.3,4.13L234,422.61l82-14.07-6.8,50.2L227.38,471l-3.58,25.5a5.87,5.87,0,0,0,1.73,4.78,4.89,4.89,0,0,0,4.5,1.52l118.7-15.85Q345.4,510,341.2,537.22L221.76,550.73q-20.13,2.28-33.41-11.86Q175,525,177.38,504.39Z"/><polygon class="cls-2" points="641.46 257.5 525.75 413.46 508.95 518.23 448.2 525.11 464.99 418.47 390.7 309.78 455.18 296.34 498.67 358.75 560.91 274.29 641.46 257.5"/><path class="cls-2" d="M930.36,218.7c-16.87-10.81-37.49-13.62-61.68-8.58L709.1,243.4c-31.34,6.53-51.66,24.5-61.43,53.8q-1,5.7-5,28.35t-9,49.86q-4.92,27.19-12.17,67.93c-2.18,16.72,3.42,30.45,16.91,41.29,13.77,11.05,31.2,15.42,52.46,13L845.6,480.14c36.52-4.14,60.37-21.65,70.89-52.67,1-4.28,3.27-15.15,6.89-32.68s7.7-36.88,12.19-57.91,8.3-39,11.35-53.54L951,264C954.31,244.64,947.41,229.49,930.36,218.7Zm-67.93,63.56q-1,5.16-5.09,25.69t-9.16,45.13q-5.08,24.57-12.39,61.58-2,6.72-9.31,7.69L704.61,438.79a10.13,10.13,0,0,1-7.27-1.62,6,6,0,0,1-2.66-5.75q1.1-4.77,4.6-23.84t7.9-42.4q4.4-23.35,7.71-40.75T718.34,306q1.63-6.51,8.62-7.82L851.52,275q5.52-1,8.42,1.21A6.4,6.4,0,0,1,862.43,282.26Z"/><path class="cls-2" d="M992.58,230.76c12.4-33.48,36.47-54.08,72.77-61.65l24.14-5,191,119.93,37.78-167.64L1426.54,93.8l-83.25,330-101,11.42,13.79-58L1070.23,253.79l-44.85,206-83.59,9.46Z"/><path class="cls-2" d="M1958,12.11c-28.94-13.45-64.68-15.64-106.81-6.85L1549.33,68.2A114,114,0,0,0,1505,87.5q-19.2,13.71-23.92,30.7a.9.9,0,0,0-.3.79c-.36,1.53-4.17,16.52-11.4,44.84q-10.8,42.25-25.2,98.49-14.28,55.77-25.76,100.49c-7.61,29.66-12.27,47.65-14,54.09l395.1-44.71c60.26-6.82,101.4-31.47,122.14-74.2q19.13-62.35,31.94-104.26,12.86-42.06,23.67-77,10.85-35.08,13.46-43.95C1998,45.93,1987.06,25.62,1958,12.11Zm-119.31,91.3q-16.12,54.47-26.62,90l-19,64.23q-8.49,28.77-10.86,35.87l-238.79,32.2q14.27-52.53,24-87.84t17.65-64.72q7.92-29.41,10-36.84l225.46-42q7.86-1.47,13.43,1.24T1838.72,103.41Z"/><path class="cls-2" d="M18,669q2.25-17,13.52-28a43,43,0,0,1,27.4-12.53l14.85-1.24L51.54,796.33a7.45,7.45,0,0,0,1.86,5.52,6.37,6.37,0,0,0,5,2.37L188,805q-.47,2.67-1.13,7-1.21,8-2.67,18.14t-2.71,18.43q-1.26,8.29-1.7,11.12l-130.08-4Q28,855,13.53,837.41A50.1,50.1,0,0,1,1.6,797.92Z"/><path class="cls-2" d="M235.88,654.91c8.05-28.13,24.51-43.34,49.75-45.45l16.48-1.37L262.4,862.18l-58.12-1.78Z"/><path class="cls-2" d="M579.17,871.87l-26.46-.81-25-.76L516.31,870q2.09-10.43,7-34.52t10.38-51.64q5.52-27.56,13.43-68.21-17.51,26.49-39.16,57.51c-14.24,20.39-31.87,45.52-52.72,75.15a50.67,50.67,0,0,1-28.49-9.35,45.55,45.55,0,0,1-17.48-23.56q-1.14-3.36-5.56-18.65l-9.85-34.07q-5.43-18.76-13.58-47.19l-5.93,34.4q-4.12,23.83-8.67,50.42T354.54,865l-11.68-.36L321.21,864l-20.46-.63-9.43-.29h-.19q1.26-7.42,6.81-41.57,5.6-34.37,12.5-77,7-42.9,17.71-109.24c5.9-20,18.44-30.89,37.84-32.51l7.67-.64,13.18-1.1,12.59-1,6.07-.51.43,0h.21q1.23,4.1,7.8,26.11t14.92,49.83q8.34,27.84,21.13,70.57L559,586.64l17.23-1.43,30.89-2.58L637,580.14,651.15,579c-1.36,6.45-5.06,25-11.07,55.5q-9,45.46-19.79,100.85c-7.16,36.6-16.14,82.37-26.88,137Z"/><path class="cls-2" d="M696.33,625.24c12.45-34.31,37-53.15,74.42-56.27l24.5-2L730.64,876.51l-85-2.6Z"/><polygon class="cls-2" points="970.16 628.36 830.65 636.35 846.82 562.62 1261.01 528.05 1238.24 612.99 1077.48 622.21 1010.95 885.09 907.75 881.93 970.16 628.36"/><path class="cls-2" d="M1450.75,601.39a22.67,22.67,0,0,0-10.48,2.9,15.34,15.34,0,0,0-5.7,6.05q-3.08,10.47-4.89,17.42t-3.51,12.87q-1.7,5.93-2.37,8.24-.84,5.45,4.34,9.22t13.15,3.47l32.88-1.29,72.66-2.87,80-3.16,46-1.82c46.11-1.82,84.82,7.72,115.6,28.88,31.25,21.28,42.63,46.67,33.84,75.79a1.69,1.69,0,0,1-.47,1c0,.42-1.18,4.28-3.63,11.58s-5.34,15.88-8.63,25.77-6.38,19-9.24,27.34a167.68,167.68,0,0,0-5,16.27c-7.85,20.54-25,37-51.29,49.41-25.89,12-56.35,17.38-91.16,16.32l-1.49,0L1579,902.48l-144.75-4.43-139-4.26-69.61-2.13q5.73-22.62,9.82-37.84t7.46-28.15q3.36-12.95,4.18-17l52,.23,117.08.51L1548,810l74.84.33q13.76.06,18.45-8.65,3.51-10.85,5.61-18.09t4.05-13.46q1.93-6.21,2.73-8.64,3-5.47-2.87-10T1636,747.21h.49l-1.48,0-36.44.48-75.11,1-75.32,1-39.91.53c-38.84.52-70-8.55-94-27-23.88-18.2-32.53-40-26.16-65.74l-.07-.82.59-2.49q1.88-6.37,6.05-21.37t8-29.44q3.87-14.43,5.13-18.94c19.85-41.71,58-65.14,115.66-70l1.32-.11,66.93-5.59,151.4-12.64,173.08-14.44,99.75-8.33q-9.12,28.68-15.54,47.62t-11.59,34.86q-5.19,15.93-6.46,20.87l-72.88,4.16-146.58,8.38-141.12,8.06Z"/></g></g></svg>