<svg xmlns="http://www.w3.org/2000/svg" viewBox="0 0 2401.15 1180.26"><defs><style>.cls-1{fill:red;stroke:#000;}.cls-1,.cls-10,.cls-11,.cls-12,.cls-13,.cls-14,.cls-15,.cls-16,.cls-17,.cls-18,.cls-19,.cls-2,.cls-20,.cls-21,.cls-3,.cls-4,.cls-5,.cls-6,.cls-7,.cls-8,.cls-9{stroke-miterlimit:10;}.cls-2{fill:#ff0d0d;stroke:#0d0000;}.cls-3{fill:#ff1a1a;stroke:#1a0000;}.cls-4{fill:#ff2626;stroke:#260000;}.cls-5{fill:#f33;stroke:#300;}.cls-6{fill:#ff4040;stroke:#400000;}.cls-7{fill:#ff4d4d;stroke:#4d0000;}.cls-8{fill:#ff5959;stroke:#590000;}.cls-9{fill:#f66;stroke:#600;}.cls-10{fill:#ff7373;stroke:#730000;}.cls-11{fill:#ff7f7f;stroke:#7f0000;}.cls-12{fill:#ff8c8c;stroke:#8c0000;}.cls-13{fill:#f99;stroke:#900;}.cls-14{fill:#ffa6a6;stroke:#a60000;}.cls-15{fill:#ffb2b2;stroke:#b20000;}.cls-16{fill:#ffbfbf;stroke:#bf0000;}.cls-17{fill:#fcc;stroke:#c00;}.cls-18{fill:#ffd9d9;stroke:#d90000;}.cls-19{fill:#ffe5e5;stroke:#e50000;}.cls-20{fill:#fff2f2;stroke:#f20000;}.cls-21{fill:#fff;stroke:red;}</style></defs><g id="Layer_2" data-name="Layer 2"><g id="Layer_1-2" data-name="Layer 1"><path class="cls-1" d="M396.65,245.57,716.82,51.1l311.71,53.36L807.92,258.62l249.94,26.64,186.23-143.9,218.23,37.35L1283.57,332.05,1125,390.23,974.79,379.75,814.32,505.44,449,496.81,650.07,357.09,474.51,344.84Z"/><path class="cls-1" d="M1487,436.85l151.7,9.17,132.86-140.38-132.86-17.85Zm-237.31,8.68c80-71.29,154.34-138.3,225-200.75l120.53-43.31,304.47,52.12,24.3,55.64c-50.29,57.23-102.83,117.69-158.93,181.55l-84.68,35.11-386.94-9.14Z"/><path class="cls-1" d="M1835,475.59l173-203.47,109,18.66L1978.32,466.55l95,5.75,124.91-167.61,87.75,15-121.1,172.82-64.94,43.27-239-5.64Z"/><path class="cls-1" d="M249.36,732.05l131.09-5.81,121.7-91-121.7,2.21ZM1.75,792.23,289.8,593.62l336.39-1.75,24.29,30.57s-101.63,78.75-154.4,120L418,768.36Z"/><path class="cls-1" d="M705.72,711.81l99.87-4.43L899.18,628l-93.59,1.71Zm-143,16.7C609.25,691.8,654,656.15,698,621.72l78.32-30.63L995.43,590l19,27c-39,34.1-78.65,69.16-119.89,105.25l-60.15,22.24L588,758.61Z"/><path class="cls-1" d="M912.72,740l138.8-123.56,61.56-27.08,174.19-.9,15.2,24.21-113.9,111.5-91.26,5.24L1210.42,622.3l-74.2,1.35L1016.33,734Z"/><path class="cls-1" d="M1376.07,616l-48.37.81,34.36-34.29,74.39-.21-48.88,50-28.51.68Z"/><path class="cls-1" d="M1431.93,618.27l29.59-30.74,213.69-1.11-24.35,27.86-64.18,1.17L1505.06,706l-70,4,86.89-93.38Z"/><path class="cls-1" d="M1677,696.13l75.65-90.23,34.18-20.06,98.93-.51,8.79,18.44-65.25,83.62-51.26,3,63.67-79.54-41.92.76L1733.3,692.9Z"/><path class="cls-1" d="M1847.87,686.33l64-82.82L1941,585l91.15-.47-16.77,23.07L1952,608.79l-9.13,12.13,60.43-1.49L1986,643.36l-61.8,2.34-9.41,12.5,65.91-2.92-17.77,24.45Z"/><path class="cls-1" d="M1978.85,678.82l55.78-77.15,25.4-17.25,80-.41-14.75,21.62-55.59,1-8,11.33,53-1.31-15.21,22.4-54.12,2-8.22,11.66,57.69-2.55-15.58,22.84Z"/><path class="cls-1" d="M2144.42,648l28.7-1.28,27.72-42.48-27.72.5Zm-51.22,24.24,60-88.32,77.06-.4,5.89,15.11s-24.34,37.85-36.67,57.22l-17.88,11.32Z"/><path class="cls-1" d="M143.07,1108.28l326-262.12,229.58-18.77L445.79,1043.8l23.28,24.55,21.07-3.13,150.69-62L850.22,815l181.2-14.81L832,989.55l34.73,19.61,31-4.61,87.79-48.3,167.76-166,146.06-11.94L1096.9,989.7l-108.64,63.7L716.08,1100,681,1071.4l-112,53.76-318.79,54.57Z"/><path class="cls-1" d="M1107,1033.08l243.22-258.95,125.5-10.26-217.61,243.34Z"/><path class="cls-1" d="M1310.63,998.22l172.5-196.35,74-44.66,201.8-16.5L1776.07,773,1646,940.81l-107.65,18.43,133-164.28-86.68,9-144.5,172.07Z"/><path class="cls-1" d="M1683.74,934.35l125.65-164.63,54.76-37.61,180.34-14.74L2016,759.09l-131.38,13.67L1814.83,868l49.32-7.34,30.48-17.17c4-6,3.43-5.18,6.54-9.32l-30,4.13,26.84-46,88.14-10.16,3.38,23.6-4.8,6.74-38.49,56.38-41.71,27.62Z"/><path class="cls-1" d="M1983.36,842.94l128.81-19.17L2125,803.38l-86.12,11.86-18.59-27,34.17-50.82,41.88-24.27,149.83-12.25L2224,737.44l-111.79,11.64-13.06,20.12,85.34-9.84,14.64,19.08c-11.29,18.18-22.51,36.8-33.89,55.46l-27.27,22.7-185.46,31.75Z"/><polygon class="cls-2" points="402.37 243.04 722.53 48.57 1034.24 101.93 813.64 256.09 1063.58 282.74 1249.8 138.83 1468.03 176.19 1289.28 329.52 1130.66 387.7 980.51 377.22 820.03 502.91 454.67 494.28 655.78 354.56 480.22 342.31 402.37 243.04"/><path class="cls-2" d="M1492.69,434.32l151.69,9.17,132.87-140.38-132.87-17.85ZM1255.37,443c80-71.29,154.35-138.3,225.05-200.76L1601,198.94l304.48,52.12,24.29,55.64c-50.29,57.23-102.82,117.69-158.93,181.55l-84.67,35.11-386.94-9.13Z"/><path class="cls-2" d="M1840.7,473.06l173-203.47,109,18.66L1984,464l95,5.74L2204,302.16l87.75,15L2170.6,490l-64.95,43.27-239-5.64Z"/><path class="cls-2" d="M255.07,729.52l131.09-5.81,121.7-91-121.7,2.22ZM7.47,789.71l288-198.62,336.39-1.75,24.29,30.57S554.57,698.66,501.79,740l-78.12,25.87Z"/><path class="cls-2" d="M711.43,709.28l99.88-4.43,93.58-79.41-93.58,1.71Zm-143,16.7c46.55-36.71,91.27-72.36,135.24-106.79L782,588.56l219.15-1.13,19,27c-39,34.1-78.66,69.16-119.9,105.25l-60.14,22.24L593.69,756.08Z"/><path class="cls-2" d="M918.44,737.45l138.79-123.56,61.57-27.08,174.19-.9,15.2,24.21-113.91,111.5L1103,726.86l113.11-107.09-74.19,1.36L1022.05,731.5Z"/><path class="cls-2" d="M1381.78,613.44l-48.36.82,34.36-34.3,74.38-.21-48.87,50-28.52.68Z"/><path class="cls-2" d="M1437.64,615.74,1467.23,585l213.7-1.11-24.36,27.86-64.18,1.17-81.61,90.55-70,4,86.88-93.38Z"/><path class="cls-2" d="M1682.74,693.6l75.64-90.23,34.19-20.06,98.93-.51,8.79,18.44L1835,684.87l-51.27,2.94,63.67-79.54-41.92.77L1739,690.37Z"/><path class="cls-2" d="M1853.58,683.8l64-82.82,29.07-18.47,91.15-.47-16.76,23.07-63.36,1.15-9.12,12.13L2009,616.9l-17.33,23.93-61.8,2.34-9.41,12.5,65.92-2.92-17.77,24.45Z"/><path class="cls-2" d="M1984.57,676.29l55.77-77.15,25.4-17.25,80-.41L2131,603.11l-55.58,1-8,11.33,53-1.31-15.21,22.4-54.11,2-8.22,11.66,57.68-2.55L2085,670.53Z"/><path class="cls-2" d="M2150.13,645.49l28.71-1.28,27.72-42.48-27.72.5Zm-51.21,24.24,59.95-88.32,77.05-.4,5.89,15.11s-24.33,37.85-36.66,57.22l-17.88,11.32Z"/><path class="cls-2" d="M148.79,1105.75l326-262.12,229.57-18.77L451.5,1041.27l23.29,24.56,21.06-3.14,150.7-62L855.93,812.47l181.21-14.81L837.71,987l34.73,19.61,31-4.61,87.79-48.3L1159,787.7l146.06-11.94L1102.61,987.17,994,1050.87l-272.18,46.59-35-28.59-112,53.76L256,1177.2Z"/><polygon class="cls-2" points="1112.69 1030.55 1355.9 771.6 1481.41 761.34 1263.79 1004.68 1112.69 1030.55"/><path class="cls-2" d="M1316.34,995.69l172.51-196.35,74.05-44.66,201.79-16.5,17.09,32.29L1651.71,938.28l-107.65,18.43,133-164.28-86.68,9L1445.86,973.52Z"/><path class="cls-2" d="M1689.46,931.82,1815.1,767.19l54.76-37.61,180.34-14.74-28.52,41.72-131.39,13.67-69.74,95.27,49.31-7.34L1900.34,841c4.06-6,3.44-5.19,6.54-9.32l-30,4.12,26.85-46,88.13-10.16,3.39,23.6-4.8,6.74L1952,866.4,1910.29,894Z"/><path class="cls-2" d="M1989.07,840.42l128.81-19.18,12.86-20.39-86.12,11.86-18.58-27,34.16-50.82,41.89-24.27,149.82-12.25-22.24,36.56-111.79,11.64-13.06,20.12,85.35-9.83,14.63,19.07c-11.28,18.18-22.5,36.8-33.88,55.47l-27.28,22.69-185.45,31.75Z"/><polygon class="cls-3" points="408.08 240.51 728.25 46.04 1039.96 99.4 819.35 253.56 1069.29 280.21 1255.52 136.3 1473.75 173.66 1295 326.99 1136.38 385.17 986.23 374.69 825.75 500.38 460.39 491.75 661.5 352.04 485.94 339.79 408.08 240.51"/><path class="cls-3" d="M1498.4,431.79,1650.1,441,1783,300.58,1650.1,282.73Zm-237.31,8.69c80-71.29,154.34-138.3,225.05-200.76l120.53-43.31,304.47,52.12,24.3,55.64c-50.29,57.23-102.83,117.69-158.93,181.55l-84.68,35.11-386.94-9.13Z"/><path class="cls-3" d="M1846.42,470.53l173-203.47,109,18.66L1989.75,461.5l95,5.74,124.91-167.61,87.75,15-121.1,172.83-64.94,43.26-239-5.64Z"/><path class="cls-3" d="M260.79,727l131.09-5.81,121.7-91-121.7,2.22ZM13.18,787.18,301.23,588.56l336.39-1.74,24.29,30.56s-101.63,78.75-154.4,120.06L429.38,763.3Z"/><path class="cls-3" d="M717.15,706.75,817,702.33l93.59-79.41L817,624.62Zm-143,16.7c46.55-36.71,91.28-72.36,135.25-106.78L787.7,586l219.16-1.14,18.95,27c-39,34.1-78.65,69.16-119.89,105.25l-60.15,22.24L599.41,753.55Z"/><path class="cls-3" d="M924.15,734.92,1063,611.36l61.56-27.08,174.2-.9,15.2,24.22L1200,719.09l-91.26,5.24,113.11-107.08-74.2,1.35L1027.76,729Z"/><path class="cls-3" d="M1387.5,610.91l-48.37.82,34.36-34.3,74.39-.21-48.88,50-28.51.68Z"/><path class="cls-3" d="M1443.36,613.21,1473,582.47l213.69-1.11-24.35,27.86-64.18,1.17-81.62,90.55-70,4,86.89-93.39Z"/><path class="cls-3" d="M1688.45,691.07l75.65-90.23,34.18-20.06,98.93-.51,8.8,18.44-65.26,83.63-51.26,2.94,63.67-79.54-41.92.77-66.51,81.34Z"/><path class="cls-3" d="M1859.3,681.27l64-82.82L1952.41,580l91.15-.47-16.77,23.07-63.35,1.15-9.13,12.13,60.43-1.49-17.33,23.93-61.8,2.34-9.41,12.5,65.91-2.92-17.77,24.45Z"/><path class="cls-3" d="M1990.28,673.76l55.78-77.15,25.4-17.25,80-.41-14.75,21.63-55.59,1-8,11.34,53-1.32L2110.89,634l-54.12,2-8.21,11.66,57.68-2.56L2090.66,668Z"/><path class="cls-3" d="M2155.85,643l28.71-1.27,27.71-42.49-27.71.5Zm-51.22,24.24,59.95-88.32,77.06-.4,5.89,15.11s-24.34,37.85-36.67,57.22L2193,662.13Z"/><path class="cls-3" d="M154.5,1103.23l326-262.13,229.57-18.77L457.22,1038.74l23.29,24.56,21.06-3.14,150.69-62L861.65,809.94l181.2-14.81L843.43,984.5l34.72,19.6,31-4.61,87.79-48.3,167.76-166,146.06-11.94L1108.33,984.64l-108.64,63.7-272.18,46.6-35.06-28.6-112,53.76-318.8,54.57Z"/><polygon class="cls-3" points="1118.4 1028.02 1361.62 769.07 1487.12 758.81 1269.51 1002.16 1118.4 1028.02"/><path class="cls-3" d="M1322.06,993.16l172.5-196.35,74-44.66,201.8-16.5,17.09,32.29L1657.43,935.75l-107.65,18.43,133-164.28-86.68,9L1451.57,971Z"/><path class="cls-3" d="M1695.17,929.29l125.65-164.63,54.76-37.61,180.34-14.74L2027.39,754,1896,767.7,1826.26,863l49.32-7.34,30.48-17.16c4-6,3.43-5.19,6.54-9.32l-29.95,4.12,26.84-46,88.14-10.16,3.39,23.6-4.81,6.75-38.49,56.38L1916,891.49Z"/><path class="cls-3" d="M1994.79,837.89l128.81-19.18,12.86-20.39-86.12,11.86-18.59-27,34.17-50.82,41.88-24.27,149.83-12.25-22.24,36.56L2123.6,744l-13.06,20.12,85.34-9.83,14.64,19.07c-11.29,18.18-22.51,36.8-33.89,55.47l-27.27,22.69-185.45,31.75Z"/><polygon class="cls-4" points="413.8 237.98 733.96 43.51 1045.67 96.87 825.07 251.03 1075.01 277.68 1261.23 133.77 1479.46 171.13 1300.71 324.46 1142.09 382.64 991.94 372.16 831.46 497.85 466.1 489.22 667.22 349.51 491.65 337.26 413.8 237.98"/><path class="cls-4" d="M1504.12,429.26l151.69,9.18,132.87-140.39L1655.81,280.2ZM1266.8,438c80-71.29,154.35-138.3,225-200.76l120.53-43.31L1916.86,246l24.29,55.64c-50.29,57.23-102.82,117.69-158.93,181.55l-84.67,35.12-386.94-9.14Z"/><path class="cls-4" d="M1852.13,468l173-203.48,109,18.66L1995.47,459l95,5.74L2215.38,297.1l87.75,15L2182,485l-65,43.26-239-5.64Z"/><path class="cls-4" d="M266.5,724.46l131.09-5.81,121.7-91-121.7,2.22ZM18.9,784.65,306.94,586l336.39-1.74,24.29,30.56S566,693.61,513.22,734.91L435.1,760.77Z"/><path class="cls-4" d="M722.87,704.23l99.87-4.43,93.58-79.41-93.58,1.7Zm-143,16.69c46.55-36.71,91.27-72.36,135.24-106.78l78.33-30.63,219.15-1.14,19,27c-39,34.1-78.65,69.17-119.9,105.26l-60.14,22.24L605.12,751Z"/><path class="cls-4" d="M929.87,732.39l138.79-123.56,61.57-27.07,174.19-.91,15.2,24.22-113.91,111.5-91.26,5.23,113.12-107.08-74.2,1.35L1033.48,726.45Z"/><path class="cls-4" d="M1393.22,608.38l-48.37.82,34.36-34.3,74.38-.21-48.87,50-28.51.67Z"/><path class="cls-4" d="M1449.07,610.68,1478.66,580l213.7-1.11L1668,606.69l-64.17,1.17-81.62,90.55-70,4L1539.06,609Z"/><path class="cls-4" d="M1694.17,688.54l75.64-90.23L1804,578.25l98.93-.51,8.79,18.44-65.25,83.63-51.27,2.94,63.67-79.54L1817,604l-66.5,81.34Z"/><path class="cls-4" d="M1865,678.74l64-82.82,29.06-18.47,91.16-.47-16.77,23.07-63.35,1.15L1960,613.33l60.42-1.49-17.32,23.93-61.81,2.34-9.41,12.5,65.92-2.92-17.77,24.45Z"/><path class="cls-4" d="M1996,671.23l55.78-77.15,25.4-17.24,80-.42-14.75,21.63-55.58,1-8,11.34,53-1.31-15.22,22.39-54.11,2-8.22,11.66,57.69-2.56-15.58,22.84Z"/><path class="cls-4" d="M2161.56,640.43l28.71-1.27L2218,596.67l-27.72.51Zm-51.21,24.24,60-88.32,77.06-.4,5.88,15.11s-24.33,37.85-36.66,57.22L2198.7,659.6Z"/><path class="cls-4" d="M160.22,1100.7l326-262.13L715.79,819.8,462.93,1036.21l23.29,24.56,21.07-3.14,150.69-62L867.36,807.41l181.21-14.81L849.14,982l34.73,19.61,31-4.62,87.79-48.3,167.76-166,146.06-11.94L1114,982.11l-108.64,63.7-272.18,46.6-35.05-28.6-112,53.76-318.79,54.57Z"/><polygon class="cls-4" points="1124.12 1025.49 1367.33 766.54 1492.84 756.28 1275.22 999.63 1124.12 1025.49"/><path class="cls-4" d="M1327.77,990.63l172.51-196.34,74-44.67,201.79-16.5,17.09,32.29L1663.15,933.22,1555.5,951.65l133-164.28-86.68,9L1457.29,968.46Z"/><path class="cls-4" d="M1700.89,926.76l125.64-164.63,54.76-37.6,180.35-14.75-28.53,41.72-131.39,13.68L1832,860.44l49.31-7.34,30.48-17.16c4.06-6,3.44-5.19,6.54-9.32l-30,4.12,26.85-46,88.13-10.16,3.39,23.6-4.8,6.75-38.49,56.38L1921.72,889Z"/><path class="cls-4" d="M2000.5,835.36l128.81-19.18,12.86-20.39-86.12,11.86-18.58-27,34.16-50.81,41.89-24.28,149.82-12.25-22.24,36.56-111.79,11.64-13.06,20.12,85.35-9.83,14.63,19.08c-11.28,18.17-22.5,36.79-33.88,55.46L2155.08,849l-185.46,31.75Z"/><polygon class="cls-5" points="419.51 235.45 739.68 40.98 1051.39 94.34 830.78 248.5 1080.72 275.15 1266.95 131.24 1485.18 168.6 1306.43 321.93 1147.81 380.11 997.66 369.63 837.18 495.32 471.82 486.69 672.93 346.98 497.37 334.73 419.51 235.45"/><path class="cls-5" d="M1509.83,426.74l151.7,9.17L1794.4,295.52l-132.87-17.85Zm-237.31,8.68c80-71.29,154.34-138.3,225-200.76l120.53-43.31,304.47,52.12,24.3,55.64C1896.58,356.34,1844,416.8,1787.94,480.66l-84.68,35.12-386.94-9.14Z"/><path class="cls-5" d="M1857.85,465.48l173-203.48,109,18.66L2001.18,456.44l95,5.74,124.91-167.61,87.75,15-121.1,172.83-64.94,43.27-239-5.65Z"/><path class="cls-5" d="M272.22,721.93l131.09-5.81,121.7-91-121.7,2.22ZM24.61,782.12,312.66,583.51l336.39-1.75,24.29,30.56s-101.63,78.76-154.4,120.06l-78.13,25.86Z"/><path class="cls-5" d="M728.58,701.7l99.87-4.43L922,617.86l-93.59,1.7Zm-143,16.69c46.55-36.71,91.28-72.35,135.25-106.78L799.13,581l219.16-1.14,19,27c-39,34.1-78.65,69.17-119.89,105.26L857.2,734.36,610.84,748.49Z"/><path class="cls-5" d="M935.58,729.86l138.8-123.56,61.56-27.07,174.2-.91,15.2,24.22L1211.43,714l-91.26,5.23,113.11-107.08-74.2,1.35L1039.19,723.92Z"/><path class="cls-5" d="M1398.93,605.85l-48.37.82,34.36-34.29,74.39-.22-48.88,50-28.51.67Z"/><path class="cls-5" d="M1454.79,608.15l29.59-30.73,213.7-1.11-24.36,27.85-64.18,1.17-81.62,90.55-70,4,86.89-93.39Z"/><path class="cls-5" d="M1699.88,686l75.65-90.24,34.19-20,98.93-.52,8.79,18.45-65.26,83.62-51.26,2.94,63.67-79.53-41.92.76-66.51,81.34Z"/><path class="cls-5" d="M1870.73,676.22l64-82.82,29.07-18.47,91.15-.48-16.77,23.07-63.35,1.16-9.13,12.13,60.43-1.5-17.33,23.93-61.8,2.34-9.41,12.5,65.91-2.92-17.77,24.46Z"/><path class="cls-5" d="M2001.71,668.7l55.78-77.15,25.4-17.24,80-.42-14.75,21.63-55.58,1-8,11.34,53-1.31L2122.32,629l-54.12,2L2060,642.66l57.68-2.56-15.58,22.84Z"/><path class="cls-5" d="M2167.28,637.9l28.71-1.27,27.71-42.49-27.71.51Zm-51.22,24.24,60-88.32,77.06-.4,5.89,15.11s-24.34,37.85-36.67,57.22l-17.87,11.32Z"/><path class="cls-5" d="M165.93,1098.17,491.94,836l229.57-18.77L468.65,1033.68l23.29,24.56L513,1055.1l150.69-62L873.08,804.88l181.21-14.81L854.86,979.44l34.72,19.61,31-4.62,87.79-48.3,167.76-166,146.06-11.94L1119.76,979.58l-108.64,63.71-272.18,46.59-35.06-28.6-112,53.76-318.8,54.58Z"/><polygon class="cls-5" points="1129.84 1022.96 1373.05 764.01 1498.55 753.75 1280.94 997.1 1129.84 1022.96"/><path class="cls-5" d="M1333.49,988.1,1506,791.76l74.06-44.67,201.79-16.5,17.09,32.3-130.07,167.8-107.65,18.43,133-164.28-86.68,9L1463,965.93Z"/><path class="cls-5" d="M1706.6,924.23,1832.25,759.6,1887,722l180.34-14.75L2038.82,749l-131.38,13.68-69.75,95.27,49.32-7.34,30.48-17.17c4-6,3.43-5.18,6.54-9.32l-30,4.12,26.84-46,88.14-10.15,3.39,23.59-4.81,6.75-38.48,56.38-41.72,27.61Z"/><path class="cls-5" d="M2006.22,832.83,2135,813.66l12.86-20.39-86.12,11.85-18.59-27,34.17-50.81L2119.23,703l149.83-12.24-22.24,36.56L2135,739,2122,759.08l85.35-9.83L2222,768.33c-11.28,18.17-22.51,36.79-33.89,55.46l-27.27,22.69-185.45,31.75Z"/><polygon class="cls-6" points="425.23 232.92 745.39 38.45 1057.11 91.81 836.5 245.97 1086.44 272.62 1272.66 128.71 1490.89 166.07 1312.14 319.4 1153.52 377.58 1003.37 367.11 842.89 492.79 477.53 484.17 678.65 344.45 503.08 332.2 425.23 232.92"/><path class="cls-6" d="M1515.55,424.21l151.69,9.17L1800.11,293l-132.87-17.85Zm-237.31,8.68c80-71.29,154.34-138.3,225-200.76l120.54-43.31,304.47,52.12,24.29,55.64c-50.29,57.23-102.82,117.69-158.93,181.55L1709,513.25,1322,504.11Z"/><path class="cls-6" d="M1863.56,463l173-203.48,109,18.66L2006.9,453.91l95,5.74L2226.81,292l87.75,15-121.1,172.82-64.94,43.27-239-5.65Z"/><path class="cls-6" d="M277.94,719.4,409,713.59l121.71-91L409,624.78ZM30.33,779.59,318.37,581l336.39-1.75,24.29,30.56s-101.62,78.76-154.4,120.06l-78.12,25.87Z"/><path class="cls-6" d="M734.3,699.17l99.87-4.43,93.58-79.41L834.17,617Zm-143,16.69c46.55-36.71,91.28-72.35,135.24-106.78l78.33-30.63L1024,577.31l19,27c-39,34.11-78.65,69.17-119.9,105.26l-60.14,22.24L616.55,746Z"/><path class="cls-6" d="M941.3,727.33l138.8-123.55,61.56-27.08,174.19-.91,15.2,24.22-113.91,111.5-91.25,5.23L1239,609.66,1164.8,611,1044.91,721.39Z"/><path class="cls-6" d="M1404.65,603.33l-48.37.81,34.36-34.29,74.38-.22-48.87,50-28.51.68Z"/><path class="cls-6" d="M1460.5,605.62l29.59-30.73,213.7-1.11-24.36,27.85-64.17,1.17-81.62,90.55-70,4L1550.5,604Z"/><path class="cls-6" d="M1705.6,683.49l75.64-90.23,34.19-20.06,98.93-.52,8.79,18.45-65.25,83.62-51.27,2.94,63.68-79.53-41.93.76-66.5,81.34Z"/><path class="cls-6" d="M1876.45,673.69l64-82.82,29.06-18.47,91.16-.48L2043.94,595l-63.35,1.16-9.13,12.13,60.42-1.5-17.32,23.93-61.81,2.34-9.41,12.51,65.92-2.93-17.77,24.46Z"/><path class="cls-6" d="M2007.43,666.17,2063.21,589l25.4-17.25,80-.42L2153.84,593l-55.58,1-8,11.34,53-1.31L2128,626.42l-54.11,2.05-8.22,11.66,57.69-2.56-15.58,22.84Z"/><path class="cls-6" d="M2173,635.37l28.71-1.27,27.72-42.49-27.72.51Zm-51.21,24.24,59.95-88.32,77.06-.4,5.89,15.11s-24.34,37.86-36.67,57.23l-17.88,11.31Z"/><path class="cls-6" d="M171.65,1095.64l326-262.13,229.58-18.76-252.87,216.4,23.29,24.56,21.07-3.14,150.69-62L878.79,802.36,1060,787.54,860.57,976.91l34.73,19.61,31-4.62,87.79-48.3,167.76-166,146.06-11.94L1125.47,977.06l-108.64,63.7-272.18,46.59-35-28.59-112,53.76-318.79,54.57Z"/><polygon class="cls-6" points="1135.55 1020.44 1378.76 761.48 1504.27 751.22 1286.65 994.57 1135.55 1020.44"/><path class="cls-6" d="M1339.2,985.57l172.51-196.34,74-44.67,201.79-16.49,17.09,32.29-130.06,167.8-107.65,18.43,133-164.28-86.68,9L1468.72,963.4Z"/><path class="cls-6" d="M1712.32,921.7,1838,757.07l54.76-37.6,180.35-14.74-28.53,41.71-131.39,13.68-69.74,95.27,49.31-7.34,30.49-17.17c4-6,3.43-5.18,6.53-9.32l-29.94,4.13,26.84-46,88.13-10.15,3.39,23.59-4.8,6.75-38.49,56.38-41.72,27.61Z"/><path class="cls-6" d="M2011.94,830.3l128.81-19.17,12.86-20.39-86.13,11.86-18.58-27,34.16-50.81L2125,700.48l149.82-12.24-22.23,36.56-111.79,11.63-13.07,20.13,85.35-9.84,14.64,19.08c-11.29,18.18-22.51,36.79-33.89,55.46L2166.51,844,1981.05,875.7Z"/><polygon class="cls-7" points="430.94 230.39 751.11 35.93 1062.82 89.28 842.22 243.45 1092.15 270.09 1278.38 126.19 1496.61 163.54 1317.86 316.88 1159.24 375.05 1009.09 364.58 848.61 490.27 483.25 481.64 684.36 341.92 508.8 329.67 430.94 230.39"/><path class="cls-7" d="M1521.26,421.68l151.7,9.17,132.87-140.39L1673,272.61ZM1284,430.36c80-71.29,154.34-138.3,225-200.75l120.53-43.31L1934,238.41l24.3,55.65c-50.29,57.23-102.83,117.68-158.93,181.55l-84.68,35.11-386.94-9.14Z"/><path class="cls-7" d="M1869.28,460.42l173-203.48,109,18.66L2012.61,451.38l95,5.75,124.91-167.61,87.76,15L2199.17,477.36l-64.94,43.27-239-5.65Z"/><path class="cls-7" d="M283.65,716.88l131.09-5.82,121.7-91-121.7,2.21ZM36.05,777.06l288-198.61,336.39-1.75,24.29,30.56S583.15,686,530.37,727.32l-78.12,25.87Z"/><path class="cls-7" d="M740,696.64l99.87-4.43,93.59-79.41-93.59,1.71ZM597,713.33c46.56-36.7,91.28-72.35,135.25-106.78l78.32-30.63,219.16-1.14,19,27C1009.7,635.91,970,671,928.78,707.06L868.63,729.3,622.27,743.43Z"/><path class="cls-7" d="M947,724.8l138.8-123.55,61.57-27.08,174.19-.91,15.2,24.22L1222.86,709l-91.26,5.23,113.11-107.08-74.2,1.35L1050.63,718.86Z"/><path class="cls-7" d="M1410.36,600.8l-48.36.81,34.35-34.29,74.39-.22-48.88,50-28.51.68Z"/><path class="cls-7" d="M1466.22,603.09l29.59-30.73,213.7-1.11-24.36,27.86L1621,600.28l-81.62,90.54-70,4,86.89-93.38Z"/><path class="cls-7" d="M1711.31,681,1787,590.73l34.19-20.06,98.93-.52,8.79,18.45-65.26,83.62-51.26,2.94L1876,595.63l-41.92.76-66.5,81.34Z"/><path class="cls-7" d="M1882.16,671.16l64-82.82,29.07-18.47,91.15-.48-16.76,23.07-63.36,1.16-9.13,12.13,60.43-1.5-17.33,23.94-61.8,2.33L1949.06,643,2015,640.1l-17.77,24.46Z"/><path class="cls-7" d="M2013.14,663.64l55.78-77.14,25.4-17.25,80-.42-14.75,21.63-55.58,1-8,11.34,53-1.31-15.21,22.39-54.12,2.05-8.21,11.66L2129.1,635l-15.58,22.85Z"/><path class="cls-7" d="M2178.71,632.84l28.71-1.27,27.71-42.48-27.71.5Zm-51.21,24.24,59.94-88.31,77.06-.41,5.89,15.11s-24.33,37.86-36.66,57.23L2215.85,652Z"/><path class="cls-7" d="M177.36,1093.11,503.37,831l229.57-18.76-252.86,216.4,23.29,24.56,21.06-3.13,150.69-62L884.51,799.83,1065.72,785,866.29,974.38,901,994l31-4.61,87.8-48.31,167.76-166,146-11.94L1131.19,974.53l-108.64,63.7-272.18,46.59-35.06-28.59L603.36,1110l-318.8,54.57Z"/><polygon class="cls-7" points="1141.27 1017.91 1384.48 758.96 1509.98 748.7 1292.37 992.04 1141.27 1017.91"/><path class="cls-7" d="M1344.92,983.05,1517.43,786.7l74-44.67,201.79-16.49,17.09,32.29L1680.29,925.64l-107.65,18.42,133-164.28-86.68,9-144.5,172.07Z"/><path class="cls-7" d="M1718,919.18l125.64-164.64,54.76-37.6,180.34-14.74-28.53,41.72-131.38,13.67-69.74,95.27,49.31-7.34,30.48-17.17c4-6,3.43-5.18,6.54-9.32l-30,4.13,26.84-46L2020.49,767l3.39,23.59-4.81,6.75-38.48,56.38-41.72,27.61Z"/><path class="cls-7" d="M2017.65,827.77l128.81-19.17,12.86-20.39-86.12,11.86-18.59-27,34.17-50.81L2130.66,698l149.83-12.25-22.24,36.56L2146.46,733.9,2133.4,754l85.35-9.84,14.63,19.08c-11.28,18.18-22.51,36.79-33.89,55.46l-27.27,22.7-185.45,31.74Z"/><polygon class="cls-8" points="436.66 227.87 756.82 33.4 1068.54 86.76 847.93 240.92 1097.87 267.56 1284.09 123.66 1502.32 161.01 1323.58 314.35 1164.95 372.52 1014.8 362.05 854.32 487.74 488.96 479.11 690.08 339.39 514.52 327.14 436.66 227.87"/><path class="cls-8" d="M1527,419.15l151.69,9.17,132.87-140.38-132.87-17.85Zm-237.31,8.68c80-71.29,154.34-138.3,225-200.75l120.54-43.31,304.47,52.12L1964,291.53c-50.29,57.23-102.82,117.69-158.92,181.55l-84.68,35.11-386.94-9.14Z"/><path class="cls-8" d="M1875,457.89l173-203.47,109,18.65L2018.33,448.85l95,5.75L2238.24,287,2326,302l-121.1,172.82L2140,518.1l-239-5.64Z"/><path class="cls-8" d="M289.37,714.35l131.08-5.82,121.71-91-121.71,2.21ZM41.76,774.53l288-198.61,336.39-1.75,24.3,30.56s-101.63,78.76-154.4,120.06L458,750.66Z"/><path class="cls-8" d="M745.73,694.11l99.87-4.43,93.58-79.41L845.6,612Zm-143,16.7C649.26,674.1,694,638.45,738,604l78.33-30.63,219.16-1.14,19,27c-39,34.11-78.65,69.17-119.89,105.26l-60.15,22.24L628,740.9Z"/><path class="cls-8" d="M952.73,722.28l138.8-123.56,61.56-27.08,174.19-.9,15.2,24.21-113.91,111.5-91.25,5.24L1250.43,604.6l-74.2,1.35L1056.34,716.33Z"/><path class="cls-8" d="M1416.08,598.27l-48.37.81,34.36-34.29,74.38-.22-48.87,50-28.51.68Z"/><path class="cls-8" d="M1471.93,600.57l29.59-30.74,213.7-1.11-24.36,27.86-64.17,1.17-81.62,90.54-70,4,86.89-93.38Z"/><path class="cls-8" d="M1717,678.43l75.64-90.23,34.19-20.06,98.93-.51,8.79,18.44-65.25,83.62-51.27,2.94,63.68-79.53-41.93.76-66.5,81.34Z"/><path class="cls-8" d="M1887.88,668.63l64-82.82L1981,567.34l91.16-.47-16.77,23.07L1992,591.09l-9.13,12.13,60.42-1.49L2026,625.66,1964.18,628l-9.4,12.5,65.91-2.92L2002.92,662Z"/><path class="cls-8" d="M2018.86,661.12,2074.64,584l25.4-17.25,80-.42-14.75,21.63-55.59,1-8,11.33,53-1.31-15.22,22.39-54.11,2-8.22,11.66,57.69-2.56-15.58,22.85Z"/><path class="cls-8" d="M2184.43,630.31l28.7-1.27,27.72-42.48-27.72.5Zm-51.22,24.25,59.95-88.32,77.06-.4,5.89,15.11s-24.34,37.85-36.67,57.22l-17.88,11.32Z"/><path class="cls-8" d="M183.08,1090.58l326-262.12,229.58-18.77-252.87,216.4,23.29,24.56,21.07-3.13,150.69-62L890.22,797.3l181.21-14.82L872,971.85l34.73,19.61,31-4.61,87.79-48.3,167.76-166,146.06-11.94L1136.91,972l-108.65,63.7-272.18,46.59L721,1053.7l-112,53.76L290.28,1162Z"/><polygon class="cls-8" points="1146.98 1015.38 1390.19 756.43 1515.7 746.17 1298.09 989.51 1146.98 1015.38"/><path class="cls-8" d="M1350.63,980.52l172.51-196.35,74-44.67L1799,723l17.08,32.29L1686,923.11l-107.65,18.42,133-164.27-86.67,9-144.5,172.07Z"/><path class="cls-8" d="M1723.75,916.65,1849.39,752l54.76-37.61,180.35-14.74L2056,741.39l-131.39,13.67-69.74,95.27,49.31-7.34,30.49-17.17c4-6,3.43-5.18,6.54-9.32l-30,4.13,26.84-46,88.13-10.16,3.39,23.59-4.8,6.75-38.49,56.38-41.72,27.61Z"/><path class="cls-8" d="M2023.37,825.24l128.81-19.17L2165,785.68l-86.13,11.86-18.58-27,34.17-50.82,41.88-24.27,149.83-12.25L2264,719.74l-111.79,11.63-13.07,20.13,85.35-9.84,14.64,19.08c-11.29,18.18-22.51,36.79-33.89,55.46l-27.27,22.7-185.46,31.74Z"/><polygon class="cls-9" points="442.38 225.34 762.54 30.87 1074.25 84.23 853.65 238.39 1103.58 265.03 1289.81 121.13 1508.04 158.48 1329.29 311.82 1170.67 370 1020.52 359.52 860.04 485.21 494.68 476.58 695.79 336.86 520.23 324.61 442.38 225.34"/><path class="cls-9" d="M1532.7,416.62l151.69,9.17,132.87-140.38-132.87-17.85Zm-237.32,8.68c80-71.29,154.34-138.3,225-200.75L1641,181.24l304.47,52.12,24.3,55.64c-50.29,57.23-102.83,117.69-158.93,181.55l-84.68,35.11-386.94-9.14Z"/><path class="cls-9" d="M1880.71,455.36l173-203.47,109,18.66L2024.05,446.33l95,5.74L2244,284.46l87.76,15L2210.6,472.3l-64.94,43.27-239-5.64Z"/><path class="cls-9" d="M295.08,711.82,426.17,706l121.7-91-121.7,2.22ZM47.48,772l288-198.62,336.39-1.75,24.29,30.57S594.58,681,541.8,722.26l-78.12,25.87Z"/><path class="cls-9" d="M751.44,691.58l99.87-4.43,93.59-79.41-93.59,1.71Zm-143,16.7C655,671.57,699.7,635.92,743.67,601.49L822,570.86l219.16-1.14,19,27c-39,34.1-78.66,69.16-119.9,105.25l-60.14,22.24L633.7,738.38Z"/><path class="cls-9" d="M958.44,719.75l138.8-123.56,61.57-27.08,174.19-.9,15.2,24.21-113.91,111.5L1143,709.16l113.11-107.09-74.2,1.36L1062.06,713.8Z"/><path class="cls-9" d="M1421.79,595.74l-48.36.81,34.35-34.29,74.39-.21-48.88,50-28.51.68Z"/><path class="cls-9" d="M1477.65,598l29.59-30.74,213.7-1.11-24.36,27.86-64.18,1.17-81.62,90.55-70,4,86.89-93.38Z"/><path class="cls-9" d="M1722.74,675.9l75.65-90.23,34.19-20.06,98.93-.51,8.79,18.44L1875,667.16l-51.26,3,63.67-79.54-41.92.76L1779,672.67Z"/><path class="cls-9" d="M1893.59,666.1l64-82.82,29.07-18.47,91.15-.47-16.76,23.07-63.36,1.15-9.12,12.13L2049,599.2l-17.33,23.93-61.8,2.34-9.41,12.5,65.92-2.92-17.78,24.45Z"/><path class="cls-9" d="M2024.57,658.59l55.78-77.15,25.4-17.25,80-.41L2171,585.4l-55.58,1-8,11.33,53-1.31-15.21,22.4-54.12,2-8.21,11.66,57.68-2.55L2125,652.83Z"/><path class="cls-9" d="M2190.14,627.79l28.71-1.28L2246.56,584l-27.71.5ZM2138.93,652l59.94-88.32,77.06-.4,5.89,15.11s-24.33,37.85-36.66,57.22L2227.28,647Z"/><path class="cls-9" d="M188.79,1088.05l326-262.12,229.57-18.77L491.51,1023.57l23.29,24.55,21.06-3.13,150.69-62L895.94,794.77,1077.15,780,877.72,969.32l34.72,19.61,31-4.61,87.8-48.3L1199,770l146-11.94L1142.62,969.47,1034,1033.17,761.8,1079.76l-35.06-28.59-112,53.76L296,1159.5Z"/><polygon class="cls-9" points="1152.7 1012.85 1395.91 753.9 1521.41 743.64 1303.8 986.98 1152.7 1012.85"/><path class="cls-9" d="M1356.35,978l172.51-196.35L1602.91,737l201.79-16.5,17.09,32.29L1691.72,920.58,1584.07,939l133-164.28-86.68,9L1485.87,955.82Z"/><path class="cls-9" d="M1729.47,914.12l125.64-164.63,54.76-37.61,180.34-14.74-28.53,41.72L1930.3,752.53l-69.74,95.27,49.31-7.34,30.48-17.17c4.06-6,3.43-5.18,6.54-9.31l-30,4.12,26.84-46L2031.92,762l3.39,23.6-4.81,6.74L1992,848.7l-41.72,27.62Z"/><path class="cls-9" d="M2029.08,822.72l128.81-19.18,12.86-20.39L2084.63,795,2066,768l34.17-50.82,41.88-24.27,149.83-12.25-22.24,36.56-111.79,11.64L2144.83,749l85.35-9.84,14.63,19.08c-11.28,18.18-22.5,36.8-33.89,55.46l-27.27,22.7L1998.2,868.12Z"/><polygon class="cls-10" points="448.09 222.81 768.25 28.34 1079.97 81.7 859.36 235.86 1109.3 262.51 1295.52 118.6 1513.75 155.96 1335.01 309.29 1176.39 367.47 1026.23 356.99 865.75 482.68 500.4 474.05 701.51 334.33 525.95 322.08 448.09 222.81"/><path class="cls-10" d="M1538.41,414.09l151.69,9.17L1823,282.88,1690.1,265Zm-237.31,8.69c80-71.29,154.34-138.3,225-200.76l120.54-43.31,304.47,52.12,24.3,55.64c-50.3,57.23-102.83,117.69-158.93,181.55l-84.68,35.11L1344.9,494Z"/><path class="cls-10" d="M1886.43,452.83l173-203.47,109,18.66L2029.76,443.8l95,5.74,124.91-167.61,87.75,15-121.1,172.82L2151.38,513l-239-5.64Z"/><path class="cls-10" d="M300.8,709.29l131.08-5.81,121.71-91-121.71,2.22ZM53.19,769.48l288-198.62,336.39-1.75,24.3,30.57s-101.63,78.75-154.4,120.05L469.39,745.6Z"/><path class="cls-10" d="M757.16,689.05,857,684.63l93.58-79.41L857,606.92Zm-143,16.7C660.69,669,705.42,633.39,749.38,599l78.33-30.63,219.16-1.13,19,27c-39,34.1-78.65,69.16-119.89,105.25l-60.15,22.24L639.41,735.85Z"/><path class="cls-10" d="M964.16,717.22,1103,593.66l61.56-27.08,174.19-.9,15.2,24.22L1240,701.39l-91.25,5.24,113.11-107.09-74.2,1.36L1067.77,711.27Z"/><path class="cls-10" d="M1427.51,593.21l-48.37.82,34.36-34.3,74.38-.21-48.87,50-28.51.68Z"/><path class="cls-10" d="M1483.36,595.51,1513,564.77l213.7-1.11-24.36,27.86-64.17,1.17-81.62,90.55-70,4,86.89-93.38Z"/><path class="cls-10" d="M1728.46,673.37l75.64-90.23,34.19-20.06,98.93-.51L1946,581l-65.25,83.63-51.27,2.94L1893.17,588l-41.92.77-66.51,81.33Z"/><path class="cls-10" d="M1899.31,663.57l64-82.82,29.07-18.47,91.15-.47-16.77,23.07L2003.45,586l-9.13,12.13,60.42-1.49-17.32,23.93-61.81,2.34-9.4,12.5,65.91-2.92L2014.35,657Z"/><path class="cls-10" d="M2030.29,656.06l55.78-77.15,25.4-17.25,80-.41-14.75,21.63-55.59,1-8,11.33,53-1.31-15.21,22.4-54.12,2L2088.56,630l57.69-2.56-15.58,22.84Z"/><path class="cls-10" d="M2195.86,625.26l28.7-1.28,27.72-42.48-27.72.5Zm-51.22,24.24,60-88.32,77.06-.4,5.89,15.11s-24.34,37.85-36.67,57.22L2233,644.43Z"/><path class="cls-10" d="M194.51,1085.53l326-262.13,229.58-18.77L497.22,1021l23.29,24.56,21.07-3.14,150.69-62L901.65,792.24l181.21-14.81L883.43,966.79l34.73,19.61,31-4.61,87.79-48.3,167.76-166,146.06-11.94L1148.34,966.94l-108.65,63.7-272.18,46.59-35-28.59-112,53.76L301.71,1157Z"/><polygon class="cls-10" points="1158.41 1010.32 1401.63 751.37 1527.13 741.11 1309.52 984.46 1158.41 1010.32"/><path class="cls-10" d="M1362.07,975.46l172.5-196.35,74-44.66,201.8-16.5,17.08,32.29L1697.44,918.05l-107.65,18.43,133-164.28-86.67,9-144.5,172.07Z"/><path class="cls-10" d="M1735.18,911.59,1860.82,747l54.76-37.61,180.35-14.74-28.53,41.72L1936,750l-69.74,95.27,49.31-7.34,30.49-17.16c4-6,3.43-5.19,6.54-9.32l-29.95,4.12,26.84-46,88.14-10.16,3.38,23.6-4.8,6.75-38.49,56.37L1956,873.79Z"/><path class="cls-10" d="M2034.8,820.19,2163.61,801l12.86-20.39-86.13,11.86-18.58-27,34.17-50.82,41.88-24.27,149.83-12.25-22.24,36.56-111.79,11.64-13.06,20.12,85.34-9.83,14.64,19.07c-11.29,18.18-22.51,36.8-33.89,55.47l-27.27,22.69-185.46,31.75Z"/><polygon class="cls-11" points="453.81 220.28 773.97 25.81 1085.68 79.17 865.08 233.33 1115.01 259.98 1301.24 116.07 1519.47 153.43 1340.72 306.76 1182.1 364.94 1031.95 354.46 871.47 480.15 506.11 471.52 707.22 331.81 531.66 319.56 453.81 220.28"/><path class="cls-11" d="M1544.13,411.56l151.69,9.17,132.87-140.38L1695.82,262.5Zm-237.32,8.69c80-71.29,154.34-138.3,225-200.76l120.53-43.31,304.47,52.12,24.3,55.64c-50.29,57.23-102.83,117.69-158.93,181.55l-84.68,35.12-386.94-9.14Z"/><path class="cls-11" d="M1892.14,450.31l173-203.48,109,18.66L2035.48,441.27l95,5.74L2255.39,279.4l87.75,15L2222,467.25l-64.94,43.26-239-5.64Z"/><path class="cls-11" d="M306.51,706.76,437.6,701l121.7-91-121.7,2.22ZM58.91,767,347,568.33l336.39-1.74,24.29,30.56S606,675.91,553.23,717.21l-78.12,25.86Z"/><path class="cls-11" d="M762.87,686.52l99.87-4.42,93.59-79.41-93.59,1.7Zm-143,16.7c46.56-36.71,91.28-72.36,135.25-106.78l78.32-30.63,219.16-1.14,19,27c-39,34.1-78.66,69.16-119.9,105.25L891.5,719.19,645.13,733.32Z"/><path class="cls-11" d="M969.87,714.69l138.8-123.56,61.57-27.07,174.19-.91,15.2,24.22L1245.72,698.86l-91.26,5.24L1267.57,597l-74.19,1.35L1073.49,708.75Z"/><path class="cls-11" d="M1433.22,590.68l-48.36.82,34.35-34.3,74.39-.21-48.88,50-28.51.68Z"/><path class="cls-11" d="M1489.08,593l29.59-30.74,213.7-1.11L1708,589l-64.18,1.17-81.62,90.55-70,4,86.88-93.39Z"/><path class="cls-11" d="M1734.18,670.84l75.64-90.23L1844,560.55l98.93-.51,8.79,18.44-65.26,83.63-51.26,2.94,63.67-79.54-41.92.77-66.5,81.34Z"/><path class="cls-11" d="M1905,661l64-82.82,29.07-18.47,91.15-.47-16.76,23.07-63.36,1.15L2000,595.63l60.42-1.49-17.33,23.93-61.8,2.34-9.41,12.5,65.92-2.92-17.78,24.45Z"/><path class="cls-11" d="M2036,653.53l55.77-77.15,25.4-17.25,80-.41-14.75,21.63-55.58,1-8,11.34,53-1.31-15.21,22.39-54.11,2.05-8.22,11.66,57.68-2.56-15.58,22.84Z"/><path class="cls-11" d="M2201.57,622.73l28.71-1.27L2258,579l-27.72.51ZM2150.36,647l59.94-88.32,77.06-.4,5.89,15.11s-24.33,37.85-36.66,57.22l-17.88,11.32Z"/><path class="cls-11" d="M200.23,1083l326-262.13L755.8,802.1,502.94,1018.51l23.29,24.56,21.06-3.14,150.7-62L907.37,789.71l181.21-14.81L889.15,964.27l34.72,19.61,31-4.62,87.8-48.3,167.76-166L1356.49,753,1154.05,964.41l-108.64,63.7-272.18,46.6-35.05-28.6-112,53.76-318.8,54.57Z"/><polygon class="cls-11" points="1164.13 1007.79 1407.34 748.84 1532.85 738.58 1315.23 981.93 1164.13 1007.79"/><path class="cls-11" d="M1367.78,972.93l172.51-196.35,74-44.66,201.79-16.5,17.09,32.29L1703.15,915.52,1595.5,934l133-164.28-86.68,9L1497.3,950.76Z"/><path class="cls-11" d="M1740.9,909.06l125.64-164.63,54.76-37.61,180.34-14.74-28.53,41.72-131.38,13.67L1872,842.74l49.31-7.34,30.48-17.16c4.06-6,3.43-5.19,6.54-9.32l-30,4.12,26.84-46,88.14-10.16,3.39,23.6-4.8,6.75-38.49,56.38-41.72,27.61Z"/><path class="cls-11" d="M2040.51,817.66l128.81-19.18,12.86-20.39L2096.06,790l-18.58-27,34.16-50.82,41.88-24.27,149.83-12.25-22.24,36.56-111.79,11.64-13.06,20.12,85.35-9.83,14.63,19.07c-11.28,18.18-22.5,36.8-33.88,55.47l-27.28,22.69-185.45,31.75Z"/><polygon class="cls-12" points="459.52 217.75 779.68 23.28 1091.4 76.64 870.79 230.8 1120.73 257.45 1306.95 113.54 1525.18 150.9 1346.44 304.23 1187.82 362.41 1037.66 351.93 877.18 477.62 511.83 468.99 712.94 329.28 537.38 317.03 459.52 217.75"/><path class="cls-12" d="M1549.84,409l151.69,9.17L1834.4,277.82,1701.53,260Zm-237.31,8.68c80-71.29,154.34-138.3,225-200.76l120.54-43.31,304.47,52.12,24.3,55.64C1936.58,338.64,1884.05,399.1,1828,463l-84.68,35.12-386.94-9.14Z"/><path class="cls-12" d="M1897.86,447.78l173-203.48,109,18.66L2041.19,438.74l95,5.74L2261.1,276.87l87.75,15-121.1,172.83L2162.81,508l-239-5.64Z"/><path class="cls-12" d="M312.23,704.23l131.09-5.81,121.7-91-121.7,2.22ZM64.62,764.42,352.67,565.81l336.39-1.75,24.29,30.56S611.72,673.38,559,714.68l-78.13,25.86Z"/><path class="cls-12" d="M768.59,684l99.87-4.43,93.59-79.41-93.59,1.7Zm-143,16.69c46.55-36.71,91.28-72.36,135.25-106.78l78.32-30.63,219.16-1.14,19,27c-39,34.1-78.65,69.17-119.89,105.26l-60.15,22.24L650.85,730.79Z"/><path class="cls-12" d="M975.59,712.16l138.8-123.56L1176,561.53l174.19-.91,15.2,24.22-113.9,111.5-91.26,5.23,113.11-107.08-74.2,1.35L1079.2,706.22Z"/><path class="cls-12" d="M1438.94,588.15l-48.37.82,34.36-34.29,74.39-.22-48.88,50-28.51.67Z"/><path class="cls-12" d="M1494.8,590.45l29.59-30.73,213.69-1.11-24.36,27.85-64.17,1.17-81.62,90.55-70,4,86.89-93.39Z"/><path class="cls-12" d="M1739.89,668.32l75.64-90.24L1849.72,558l98.93-.52,8.79,18.44-65.25,83.63-51.27,2.94L1904.6,583l-41.92.77-66.51,81.34Z"/><path class="cls-12" d="M1910.74,658.51l64-82.82,29.07-18.47,91.15-.47-16.77,23.07L2014.88,581l-9.13,12.13,60.42-1.5-17.32,23.93-61.8,2.34-9.41,12.5,65.91-2.92-17.77,24.46Z"/><path class="cls-12" d="M2041.72,651l55.78-77.15,25.4-17.24,80-.42-14.75,21.63-55.59,1-8,11.34,53-1.31-15.21,22.39-54.12,2L2100,625l57.69-2.56-15.58,22.84Z"/><path class="cls-12" d="M2207.29,620.2l28.7-1.27,27.72-42.49L2236,577Zm-51.22,24.24L2216,556.12l77.06-.4,5.89,15.11s-24.34,37.85-36.67,57.22l-17.88,11.32Z"/><path class="cls-12" d="M205.94,1080.47l326-262.13,229.58-18.77L508.66,1016l23.28,24.56L553,1037.4l150.69-62L913.08,787.18l181.21-14.81L894.86,961.74l34.73,19.61,31-4.62,87.79-48.3,167.76-166,146.06-11.94L1159.77,961.88l-108.64,63.71-272.19,46.59-35.05-28.6-112,53.76-318.79,54.57Z"/><polygon class="cls-12" points="1169.84 1005.26 1413.06 746.31 1538.56 736.05 1320.95 979.4 1169.84 1005.26"/><path class="cls-12" d="M1373.5,970.4,1546,774.06l74-44.67,201.8-16.5,17.09,32.29L1708.87,913l-107.65,18.43,133-164.28-86.67,9L1503,948.23Z"/><path class="cls-12" d="M1746.61,906.53,1872.26,741.9,1927,704.3l180.34-14.75-28.53,41.72L1947.45,745l-69.75,95.27,49.32-7.35,30.48-17.16c4-6,3.43-5.19,6.54-9.32l-30,4.12,26.84-46,88.14-10.16,3.38,23.6-4.8,6.75-38.49,56.38-41.72,27.61Z"/><path class="cls-12" d="M2046.23,815.13,2175,796l12.86-20.39-86.13,11.85-18.58-27,34.17-50.81,41.88-24.28,149.83-12.25-22.24,36.57L2175,721.26,2162,741.38l85.34-9.83L2262,750.63c-11.29,18.17-22.51,36.79-33.89,55.46l-27.27,22.69-185.46,31.75Z"/><polygon class="cls-13" points="465.24 215.22 785.4 20.75 1097.11 74.11 876.51 228.27 1126.44 254.92 1312.67 111.01 1530.9 148.37 1352.15 301.7 1193.53 359.88 1043.38 349.4 882.9 475.09 517.54 466.46 718.65 326.75 543.09 314.5 465.24 215.22"/><path class="cls-13" d="M1555.56,406.51l151.69,9.17,132.87-140.39-132.87-17.85Zm-237.32,8.68c80-71.29,154.34-138.3,225-200.76l120.53-43.31,304.47,52.12,24.3,55.64c-50.29,57.23-102.83,117.69-158.93,181.55L1749,495.55l-386.93-9.14Z"/><path class="cls-13" d="M1903.57,445.25l173-203.48,109,18.66L2046.91,436.21l95,5.74,124.91-167.61,87.75,15-121.1,172.83-64.95,43.27-239-5.65Z"/><path class="cls-13" d="M317.94,701.7,449,695.89l121.7-91L449,607.08ZM70.34,761.89l288-198.61,336.39-1.75,24.29,30.56s-101.62,78.76-154.4,120.06L486.54,738Z"/><path class="cls-13" d="M774.3,681.47,874.17,677l93.59-79.41-93.59,1.7Zm-143,16.69c46.56-36.71,91.28-72.35,135.25-106.78l78.33-30.63L1064,559.61l19,27c-39,34.1-78.66,69.17-119.9,105.26l-60.14,22.24L656.56,728.26Z"/><path class="cls-13" d="M981.3,709.63l138.8-123.56L1181.67,559l174.19-.91,15.2,24.22-113.91,111.5L1165.89,699,1279,592l-74.19,1.35L1084.92,703.69Z"/><path class="cls-13" d="M1444.65,585.63l-48.36.81,34.36-34.29,74.38-.22-48.87,50-28.52.67Z"/><path class="cls-13" d="M1500.51,587.92l29.59-30.73,213.7-1.11-24.36,27.85-64.18,1.17-81.62,90.55-70,4,86.88-93.39Z"/><path class="cls-13" d="M1745.61,665.79l75.64-90.23,34.19-20.06,98.93-.52,8.79,18.45-65.26,83.62L1846.64,660l63.67-79.53-41.92.76-66.5,81.34Z"/><path class="cls-13" d="M1916.45,656l64-82.82,29.07-18.47,91.15-.48L2084,577.29l-63.36,1.16-9.12,12.13,60.42-1.5L2054.56,613l-61.8,2.34-9.41,12.5,65.92-2.92-17.77,24.46Z"/><path class="cls-13" d="M2047.44,648.47l55.77-77.14,25.4-17.25,80-.42-14.75,21.63-55.58,1-8,11.34,53-1.31L2168,608.72l-54.11,2-8.22,11.66,57.68-2.56-15.58,22.84Z"/><path class="cls-13" d="M2213,617.67l28.71-1.27,27.72-42.49-27.72.51Zm-51.21,24.24,59.95-88.32,77.05-.4,5.89,15.11s-24.33,37.85-36.66,57.22l-17.88,11.32Z"/><path class="cls-13" d="M211.66,1077.94l326-262.13L767.23,797,514.37,1013.45,537.66,1038l21.06-3.14,150.7-62L918.8,784.65,1100,769.84,900.58,959.21l34.73,19.61,31-4.62,87.79-48.3,167.76-166,146.06-11.94L1165.48,959.35l-108.64,63.71-272.18,46.59-35-28.6-112,53.76-318.8,54.58Z"/><polygon class="cls-13" points="1175.56 1002.74 1418.77 743.78 1544.28 733.52 1326.66 976.87 1175.56 1002.74"/><path class="cls-13" d="M1379.21,967.87l172.51-196.34,74-44.67,201.79-16.5,17.09,32.3-130.07,167.8-107.65,18.43,133-164.28-86.68,9L1508.73,945.7Z"/><path class="cls-13" d="M1752.33,904,1878,739.37l54.76-37.6L2113.07,687l-28.52,41.72-131.39,13.68-69.74,95.27,49.31-7.34,30.48-17.17c4.06-6,3.43-5.18,6.54-9.32l-30,4.12,26.84-46,88.14-10.15,3.39,23.59-4.8,6.75-38.49,56.38-41.72,27.61Z"/><path class="cls-13" d="M2051.94,812.6l128.81-19.17L2193.61,773l-86.12,11.86-18.58-27,34.16-50.81L2165,682.78l149.83-12.24-22.24,36.56-111.79,11.63-13.06,20.12L2253,729l14.63,19.08c-11.28,18.17-22.5,36.79-33.88,55.46l-27.28,22.7L2021.06,858Z"/><polygon class="cls-14" points="470.95 212.69 791.12 18.23 1102.83 71.58 882.22 225.75 1132.16 252.39 1318.39 108.48 1536.62 145.84 1357.87 299.17 1199.25 357.35 1049.1 346.88 888.62 472.56 523.26 463.94 724.37 324.22 548.81 311.97 470.95 212.69"/><path class="cls-14" d="M1561.27,404l151.7,9.17,132.86-140.39L1713,254.91ZM1324,412.66c80-71.29,154.34-138.3,225-200.76l120.53-43.31L1974,220.71l24.3,55.64C1948,333.58,1895.48,394,1839.38,457.9L1754.7,493l-386.94-9.14Z"/><path class="cls-14" d="M1909.29,442.72l173-203.48,109,18.66L2052.62,433.68l95,5.74,124.91-167.61,87.75,15-121.1,172.82-64.94,43.27-239-5.65Z"/><path class="cls-14" d="M323.66,699.18l131.09-5.82,121.7-91-121.7,2.22ZM76.05,759.36,364.1,560.75,700.49,559l24.29,30.56s-101.63,78.76-154.4,120.06l-78.13,25.87Z"/><path class="cls-14" d="M780,678.94l99.87-4.43,93.59-79.41-93.59,1.71ZM637,695.63c46.55-36.7,91.28-72.35,135.25-106.78l78.32-30.63,219.16-1.14,19,27c-39,34.11-78.65,69.17-119.89,105.26L908.64,711.6,662.28,725.73Z"/><path class="cls-14" d="M987,707.1l138.8-123.55,61.56-27.08,174.19-.91,15.2,24.22-113.9,111.5-91.26,5.23,113.11-107.08-74.2,1.35L1090.63,701.16Z"/><path class="cls-14" d="M1450.37,583.1l-48.37.81,34.36-34.29,74.39-.22-48.88,50-28.51.68Z"/><path class="cls-14" d="M1506.23,585.39l29.59-30.73,213.69-1.11-24.35,27.85L1661,582.57l-81.62,90.55-70,4,86.89-93.39Z"/><path class="cls-14" d="M1751.32,663.26,1827,573,1861.15,553l98.93-.52,8.79,18.45-65.25,83.62-51.26,2.94L1916,577.93l-41.92.76L1807.6,660Z"/><path class="cls-14" d="M1922.17,653.46l64-82.82,29.07-18.47,91.15-.48-16.77,23.07-63.35,1.16-9.13,12.13,60.43-1.5-17.33,23.94-61.8,2.33-9.41,12.51L2055,622.4l-17.77,24.46Z"/><path class="cls-14" d="M2053.15,645.94l55.78-77.14,25.4-17.25,80-.42-14.75,21.63-55.59,1-8,11.34,53-1.31-15.21,22.39-54.12,2-8.22,11.66,57.69-2.56-15.58,22.84Z"/><path class="cls-14" d="M2218.72,615.14l28.7-1.27,27.72-42.49-27.72.51Zm-51.22,24.24,59.95-88.32,77.06-.4,5.89,15.11s-24.34,37.86-36.67,57.23l-17.88,11.31Z"/><path class="cls-14" d="M217.37,1075.41l326-262.13L773,794.52l-252.86,216.4,23.29,24.56,21.06-3.13,150.69-62L924.52,782.13l181.2-14.82L906.29,956.68,941,976.29l31-4.62,87.79-48.3,167.76-166,146.06-11.94L1171.2,956.83l-108.64,63.7-272.18,46.59-35.06-28.59-112,53.76-318.79,54.57Z"/><polygon class="cls-14" points="1181.27 1000.21 1424.49 741.25 1549.99 730.99 1332.38 974.34 1181.27 1000.21"/><path class="cls-14" d="M1384.93,965.34,1557.43,769l74-44.67,201.8-16.49,17.09,32.29L1720.3,907.94l-107.65,18.42,133-164.28-86.68,9-144.5,172.07Z"/><path class="cls-14" d="M1758,901.47l125.65-164.63,54.76-37.6,180.34-14.74-28.53,41.71-131.38,13.68-69.75,95.27,49.32-7.34,30.48-17.17c4-6,3.43-5.18,6.54-9.32l-30,4.13,26.84-46,88.14-10.15,3.38,23.59-4.8,6.75-38.49,56.38-41.71,27.61Z"/><path class="cls-14" d="M2057.66,810.07l128.81-19.17,12.86-20.39-86.12,11.86-18.59-27,34.17-50.81,41.88-24.27L2320.5,668l-22.24,36.56L2186.47,716.2l-13.06,20.13,85.34-9.84,14.64,19.08c-11.29,18.18-22.51,36.79-33.89,55.46l-27.27,22.7-185.46,31.74Z"/><polygon class="cls-15" points="476.67 210.16 796.83 15.7 1108.54 69.06 887.94 223.22 1137.88 249.86 1324.1 105.95 1542.33 143.31 1363.58 296.65 1204.96 354.82 1054.81 344.35 894.33 470.04 528.97 461.41 730.09 321.69 554.52 309.44 476.67 210.16"/><path class="cls-15" d="M1567,401.45l151.69,9.17,132.87-140.39-132.87-17.85Zm-237.32,8.68c80-71.29,154.35-138.3,225-200.75l120.53-43.31,304.48,52.12L2004,273.83c-50.29,57.23-102.82,117.68-158.93,181.55l-84.67,35.11-386.94-9.14Z"/><path class="cls-15" d="M1915,440.19l173-203.47,109,18.65L2058.34,431.15l95,5.75,124.91-167.61,87.75,15L2244.9,457.13l-65,43.27-239-5.64Z"/><path class="cls-15" d="M329.37,696.65l131.09-5.82,121.7-91L460.46,602ZM81.77,756.83l288-198.61,336.39-1.75L730.49,587s-101.62,78.76-154.4,120.06L498,733Z"/><path class="cls-15" d="M785.73,676.41,885.61,672l93.58-79.41-93.58,1.71Zm-143,16.69C689.27,656.4,734,620.75,778,586.32l78.33-30.63,219.15-1.14,19,27c-39,34.11-78.66,69.17-119.9,105.26l-60.14,22.24L668,723.2Z"/><path class="cls-15" d="M992.74,704.57,1131.53,581l61.57-27.08,174.19-.9,15.2,24.21-113.91,111.5L1177.32,694,1290.43,586.9l-74.19,1.35L1096.35,698.63Z"/><path class="cls-15" d="M1456.08,580.57l-48.36.81,34.36-34.29,74.38-.22-48.87,50-28.52.68Z"/><path class="cls-15" d="M1511.94,582.87l29.59-30.74,213.7-1.11-24.36,27.86-64.18,1.17-81.61,90.54-70,4,86.88-93.38Z"/><path class="cls-15" d="M1757,660.73l75.64-90.23,34.19-20.06,98.93-.51,8.79,18.44L1909.34,652l-51.27,2.94,63.67-79.53-41.92.76-66.5,81.34Z"/><path class="cls-15" d="M1927.88,650.93l64-82.82L2021,549.64l91.15-.48-16.76,23.07L2032,573.39l-9.13,12.13,60.42-1.5L2066,608l-61.81,2.33-9.41,12.51,65.92-2.93-17.77,24.46Z"/><path class="cls-15" d="M2058.87,643.41l55.77-77.14L2140,549l80-.42-14.75,21.63-55.58,1-8,11.33,53-1.31-15.21,22.39-54.11,2.05-8.22,11.66,57.68-2.56-15.57,22.85Z"/><path class="cls-15" d="M2224.43,612.61l28.71-1.27,27.72-42.48-27.72.5Zm-51.21,24.24,60-88.31,77-.4,5.89,15.11s-24.33,37.85-36.66,57.22l-17.88,11.32Z"/><path class="cls-15" d="M223.09,1072.88l326-262.13L778.66,792,525.8,1008.39,549.09,1033l21.06-3.13,150.7-62L930.23,779.6l181.21-14.82L912,954.15l34.73,19.61,31-4.61,87.79-48.31,167.76-166,146.06-11.94L1176.91,954.3,1068.27,1018l-272.18,46.59L761,1036l-112,53.76-318.8,54.57Z"/><polygon class="cls-15" points="1186.99 997.68 1430.2 738.73 1555.71 728.47 1338.09 971.81 1186.99 997.68"/><path class="cls-15" d="M1390.64,962.82l172.51-196.35,74-44.67L1839,705.31l17.09,32.29L1726,905.41l-107.64,18.42,133-164.28-86.68,9L1520.16,940.65Z"/><path class="cls-15" d="M1763.76,899,1889.4,734.31l54.76-37.6L2124.5,682,2096,723.69l-131.39,13.67-69.74,95.27,49.31-7.34,30.48-17.17c4.06-6,3.44-5.18,6.54-9.32l-30,4.13,26.85-46,88.13-10.16,3.39,23.59-4.8,6.75-38.49,56.38-41.72,27.61Z"/><path class="cls-15" d="M2063.37,807.54l128.81-19.17L2205,768l-86.12,11.86-18.58-27L2134.5,702l41.89-24.27,149.82-12.25L2304,702l-111.79,11.63-13.06,20.13,85.35-9.84L2279.1,743c-11.28,18.18-22.5,36.79-33.88,55.46l-27.28,22.7-185.45,31.74Z"/><polygon class="cls-16" points="482.38 207.64 802.55 13.17 1114.26 66.53 893.65 220.69 1143.59 247.33 1329.82 103.43 1548.05 140.78 1369.3 294.12 1210.68 352.3 1060.53 341.82 900.05 467.51 534.69 458.88 735.8 319.16 560.24 306.91 482.38 207.64"/><path class="cls-16" d="M1572.7,398.92l151.7,9.17,132.87-140.38L1724.4,249.86Zm-237.31,8.68c80-71.29,154.34-138.3,225-200.75L1681,163.54l304.47,52.12,24.3,55.64c-50.29,57.23-102.83,117.69-158.93,181.55L1766.13,488l-386.94-9.14Z"/><path class="cls-16" d="M1920.72,437.66l173-203.47,109,18.66L2064.05,428.62l95,5.75L2284,266.76l87.75,15L2250.61,454.6l-64.94,43.27-239-5.64Z"/><path class="cls-16" d="M335.09,694.12l131.09-5.82,121.7-91-121.7,2.21ZM87.48,754.3l288-198.61,336.39-1.75,24.29,30.56s-101.63,78.76-154.4,120.06l-78.13,25.87Z"/><path class="cls-16" d="M791.45,673.88l99.87-4.43L984.91,590l-93.59,1.71Zm-143,16.7c46.55-36.71,91.28-72.36,135.25-106.79L862,553.16,1081.16,552l18.95,27c-39,34.1-78.65,69.16-119.89,105.25l-60.15,22.24L673.71,720.67Z"/><path class="cls-16" d="M998.45,702.05l138.8-123.56,61.56-27.08,174.2-.9,15.2,24.21L1274.3,686.22,1183,691.46l113.11-107.09-74.2,1.35L1102.06,696.1Z"/><path class="cls-16" d="M1461.8,578l-48.37.81,34.36-34.29,74.39-.22-48.88,50-28.51.68Z"/><path class="cls-16" d="M1517.66,580.34l29.59-30.74,213.69-1.11-24.35,27.86-64.18,1.17-81.62,90.55-70,4,86.89-93.38Z"/><path class="cls-16" d="M1762.75,658.2,1838.4,568l34.18-20.06,98.93-.51,8.8,18.44-65.26,83.62-51.26,2.94,63.67-79.53-41.92.76L1819,655Z"/><path class="cls-16" d="M1933.6,648.4l64-82.82,29.07-18.47,91.15-.47-16.77,23.07-63.35,1.15L2028.61,583,2089,581.5l-17.33,23.93-61.8,2.34-9.41,12.5,65.91-2.92-17.77,24.45Z"/><path class="cls-16" d="M2064.58,640.89l55.78-77.15,25.4-17.25,80-.41L2211,567.7l-55.59,1-8,11.33,53-1.31-15.21,22.39-54.12,2-8.21,11.66,57.68-2.55L2165,635.13Z"/><path class="cls-16" d="M2230.15,610.09l28.71-1.28,27.71-42.48-27.71.5Zm-51.22,24.24,60-88.32,77.06-.4,5.89,15.11s-24.34,37.85-36.67,57.22l-17.88,11.32Z"/><path class="cls-16" d="M228.8,1070.35l326-262.12,229.57-18.77L531.52,1005.87l23.29,24.55,21.06-3.13,150.69-62L936,777.07l181.2-14.82L917.73,951.62l34.72,19.61,31-4.61,87.79-48.3,167.76-166,146.06-11.94L1182.63,951.77,1074,1015.47l-272.18,46.59-35.06-28.59-112,53.76L336,1141.8Z"/><polygon class="cls-16" points="1192.7 995.15 1435.92 736.2 1561.42 725.94 1343.81 969.28 1192.7 995.15"/><path class="cls-16" d="M1396.36,960.29l172.5-196.35,74.05-44.67,201.8-16.49,17.09,32.29L1731.73,902.88l-107.65,18.43,133-164.28-86.68,9-144.5,172.07Z"/><path class="cls-16" d="M1769.47,896.42l125.65-164.63,54.76-37.61,180.34-14.74-28.53,41.72-131.38,13.67-69.75,95.27,49.32-7.34,30.48-17.17c4.05-6,3.43-5.18,6.54-9.32l-30,4.13,26.84-46,88.14-10.16,3.39,23.59-4.81,6.75L2032,831l-41.71,27.61Z"/><path class="cls-16" d="M2069.09,805l128.81-19.17,12.86-20.39-86.12,11.86-18.59-27,34.17-50.82,41.88-24.27L2331.93,663l-22.24,36.56L2197.9,711.14l-13.06,20.13,85.34-9.84,14.64,19.08c-11.29,18.18-22.51,36.79-33.89,55.46l-27.27,22.7-185.45,31.75Z"/><polygon class="cls-17" points="488.1 205.11 808.26 10.64 1119.97 64 899.37 218.16 1149.31 244.81 1335.53 100.9 1553.76 138.25 1375.01 291.59 1216.39 349.77 1066.24 339.29 905.76 464.98 540.4 456.35 741.52 316.63 565.95 304.38 488.1 205.11"/><path class="cls-17" d="M1578.42,396.39l151.69,9.17L1863,265.18l-132.87-17.85Zm-237.32,8.68c80-71.28,154.35-138.3,225.05-200.75L1686.68,161l304.48,52.12,24.29,55.64c-50.29,57.23-102.82,117.69-158.93,181.55l-84.67,35.11-386.94-9.14Z"/><path class="cls-17" d="M1926.43,435.13l173-203.47,109,18.66L2069.77,426.1l95,5.74,124.91-167.61,87.75,15-121.1,172.82-64.95,43.27-239-5.64Z"/><path class="cls-17" d="M340.8,691.59l131.09-5.81,121.7-91L471.89,597ZM93.2,751.78l288-198.62,336.39-1.75L741.92,582S640.3,660.73,587.52,702L509.4,727.9Z"/><path class="cls-17" d="M797.17,671.35,897,666.92l93.58-79.41L897,589.22Zm-143,16.7c46.55-36.71,91.27-72.36,135.24-106.79l78.33-30.63,219.15-1.14,19,27c-39,34.1-78.65,69.16-119.9,105.25L925.79,704,679.42,718.15Z"/><path class="cls-17" d="M1004.17,699.52,1143,576l61.57-27.08,174.19-.9,15.2,24.21L1280,683.69l-91.26,5.24,113.12-107.09-74.2,1.36L1107.78,693.57Z"/><path class="cls-17" d="M1467.52,575.51l-48.37.81L1453.51,542l74.38-.21-48.87,50-28.51.68Z"/><path class="cls-17" d="M1523.37,577.81,1553,547.07l213.7-1.11-24.36,27.86L1678.13,575l-81.62,90.55-70,4,86.88-93.38Z"/><path class="cls-17" d="M1768.47,655.67l75.64-90.23,34.19-20.06,98.93-.51,8.79,18.44-65.25,83.63-51.27,2.94,63.67-79.54-41.92.76-66.5,81.34Z"/><path class="cls-17" d="M1939.32,645.87l64-82.82,29.06-18.47,91.16-.47-16.77,23.07-63.35,1.15-9.13,12.13,60.42-1.49-17.32,23.93-61.81,2.34-9.41,12.5,65.92-2.92-17.77,24.45Z"/><path class="cls-17" d="M2070.3,638.36l55.78-77.15,25.4-17.25,80-.41-14.76,21.63-55.58,1-8,11.33,53-1.31-15.22,22.4-54.11,2-8.22,11.66,57.69-2.55-15.58,22.84Z"/><path class="cls-17" d="M2235.86,607.56l28.71-1.28,27.72-42.48-27.72.5Zm-51.21,24.24,59.95-88.32,77.06-.4,5.88,15.11s-24.33,37.85-36.66,57.22L2273,626.73Z"/><path class="cls-17" d="M234.52,1067.82l326-262.12,229.57-18.77L537.23,1003.34l23.29,24.55,21.07-3.13,150.69-62L941.66,774.54l181.21-14.81L923.44,949.09l34.73,19.61,31-4.61,87.79-48.3,167.76-166,146.06-11.94L1188.34,949.24l-108.64,63.7-272.18,46.59-35-28.59-112,53.76-318.79,54.57Z"/><polygon class="cls-17" points="1198.42 992.62 1441.63 733.67 1567.14 723.41 1349.52 966.75 1198.42 992.62"/><path class="cls-17" d="M1402.07,957.76l172.51-196.35,74.05-44.66,201.79-16.5,17.09,32.29L1737.45,900.35,1629.8,918.78l133-164.28-86.68,9L1531.59,935.59Z"/><path class="cls-17" d="M1775.19,893.89l125.64-164.63,54.76-37.61,180.35-14.74-28.53,41.72L1976,732.3l-69.74,95.27,49.31-7.34,30.49-17.17c4.05-6,3.43-5.18,6.53-9.31l-29.95,4.12,26.85-46,88.13-10.16,3.39,23.6-4.8,6.74-38.49,56.38L1996,856.09Z"/><path class="cls-17" d="M2074.8,802.49l128.81-19.18,12.86-20.39-86.12,11.86-18.58-27,34.16-50.82,41.89-24.27,149.82-12.25L2315.4,697l-111.79,11.64-13.06,20.12,85.35-9.83L2290.54,738c-11.29,18.18-22.51,36.8-33.89,55.46l-27.27,22.7-185.46,31.75Z"/><polygon class="cls-18" points="493.81 202.58 813.98 8.11 1125.69 61.47 905.09 215.63 1155.02 242.28 1341.25 98.37 1559.48 135.73 1380.73 289.06 1222.11 347.24 1071.96 336.76 911.48 462.45 546.12 453.82 747.23 314.1 571.67 301.86 493.81 202.58"/><path class="cls-18" d="M1584.13,393.86l151.7,9.17L1868.7,262.65,1735.83,244.8Zm-237.31,8.69c80-71.29,154.34-138.3,225-200.76l120.53-43.31,304.47,52.12,24.3,55.64c-50.29,57.23-102.83,117.69-158.93,181.55l-84.68,35.11-386.94-9.13Z"/><path class="cls-18" d="M1932.15,432.6l173-203.47,109,18.66L2075.48,423.57l95,5.74L2295.39,261.7l87.75,15L2262,449.55l-64.94,43.26-239-5.64Z"/><path class="cls-18" d="M346.52,689.06l131.09-5.81,121.7-91-121.7,2.22ZM98.91,749.25,387,550.63l336.39-1.75,24.29,30.57S646,658.2,593.24,699.5l-78.13,25.87Z"/><path class="cls-18" d="M802.88,668.82l99.87-4.42L996.34,585l-93.59,1.7Zm-143,16.7c46.55-36.71,91.28-72.36,135.25-106.78l78.32-30.64L1092.59,547l19,27c-39,34.1-78.65,69.16-119.89,105.25L931.5,701.48,685.14,715.62Z"/><path class="cls-18" d="M1009.88,697l138.8-123.56,61.56-27.08,174.2-.9,15.2,24.22L1285.73,681.16l-91.26,5.24,113.11-107.09-74.2,1.36L1113.49,691Z"/><path class="cls-18" d="M1473.23,573l-48.37.82,34.36-34.3,74.39-.21-48.88,50-28.51.68Z"/><path class="cls-18" d="M1529.09,575.28l29.59-30.74,213.7-1.11L1748,571.29l-64.18,1.17L1602.22,663l-70,4,86.89-93.39Z"/><path class="cls-18" d="M1774.18,653.14l75.65-90.23L1884,542.85l98.93-.51,8.79,18.44-65.26,83.63-51.26,2.94,63.67-79.54-41.92.77-66.51,81.33Z"/><path class="cls-18" d="M1945,643.34l64-82.82,29.07-18.47,91.15-.47-16.77,23.07-63.35,1.15L2040,577.93l60.43-1.49-17.33,23.93-61.8,2.34-9.41,12.5,65.91-2.92-17.77,24.45Z"/><path class="cls-18" d="M2076,635.83l55.78-77.15,25.4-17.25,80-.41-14.75,21.63-55.58,1-8,11.33,53-1.31-15.21,22.4-54.12,2-8.21,11.67,57.68-2.56-15.58,22.84Z"/><path class="cls-18" d="M2241.58,605l28.71-1.28L2298,561.27l-27.71.5Zm-51.22,24.24L2250.31,541l77.06-.4,5.89,15.11s-24.34,37.85-36.67,57.22l-17.87,11.32Z"/><path class="cls-18" d="M240.23,1065.3l326-262.13L795.81,784.4,543,1000.81l23.29,24.56,21.06-3.14,150.69-62L947.38,772l181.21-14.81L929.16,946.56l34.72,19.61,31-4.61,87.79-48.3,167.76-166,146.06-11.94L1194.06,946.71l-108.64,63.7L813.24,1057l-35.06-28.6-111.95,53.76-318.8,54.57Z"/><polygon class="cls-18" points="1204.13 990.09 1447.35 731.14 1572.85 720.88 1355.24 964.23 1204.13 990.09"/><path class="cls-18" d="M1407.79,955.23l172.5-196.35,74.06-44.66,201.79-16.5L1873.23,730,1743.16,897.82l-107.65,18.43,133-164.28-86.68,9L1537.3,933.06Z"/><path class="cls-18" d="M1780.91,891.36l125.64-164.63,54.76-37.61,180.34-14.74-28.53,41.72-131.38,13.67L1912,825l49.32-7.34,30.48-17.16c4-6,3.43-5.19,6.54-9.32l-29.95,4.12,26.84-46,88.14-10.16,3.39,23.6-4.81,6.75L2043.46,826l-41.72,27.61Z"/><path class="cls-18" d="M2080.52,800l128.81-19.18,12.86-20.39-86.12,11.86-18.59-27,34.17-50.82,41.88-24.27,149.83-12.25-22.24,36.56-111.79,11.64-13.06,20.12,85.35-9.83,14.63,19.07c-11.28,18.18-22.51,36.8-33.89,55.47l-27.27,22.69-185.45,31.75Z"/><polygon class="cls-19" points="499.53 200.05 819.69 5.58 1131.41 58.94 910.8 213.1 1160.74 239.75 1346.96 95.84 1565.19 133.2 1386.44 286.53 1227.83 344.71 1077.67 334.23 917.19 459.92 551.84 451.29 752.95 311.58 577.38 299.33 499.53 200.05"/><path class="cls-19" d="M1589.85,391.33l151.69,9.17,132.87-140.38-132.87-17.85ZM1352.54,400c80-71.29,154.34-138.3,225-200.76L1698.12,156l304.47,52.12,24.29,55.64C1976.59,320.94,1924.06,381.4,1868,445.26l-84.67,35.12-386.94-9.14Z"/><path class="cls-19" d="M1937.86,430.08l173-203.48,109,18.66L2081.2,421l95,5.74,124.91-167.61,87.75,15L2267.76,447l-64.94,43.26-239-5.64Z"/><path class="cls-19" d="M352.24,686.53l131.08-5.81,121.71-91-121.71,2.22ZM104.63,746.72l288-198.62,336.39-1.74,24.3,30.56S651.73,655.68,599,697l-78.12,25.86Z"/><path class="cls-19" d="M808.6,666.3l99.87-4.43,93.58-79.41-93.58,1.7ZM665.58,683c46.55-36.71,91.28-72.36,135.24-106.78l78.33-30.63,219.15-1.14,19,27c-39,34.1-78.65,69.16-119.9,105.26L937.22,699,690.85,713.09Z"/><path class="cls-19" d="M1015.6,694.46,1154.4,570.9,1216,543.83l174.19-.91,15.2,24.22-113.91,111.5-91.25,5.23L1313.3,576.79l-74.2,1.35L1119.21,688.52Z"/><path class="cls-19" d="M1479,570.45l-48.37.82,34.36-34.3,74.38-.21-48.87,50-28.51.67Z"/><path class="cls-19" d="M1534.8,572.75,1564.39,542l213.7-1.12-24.36,27.86-64.17,1.17-81.62,90.55-70,4,86.89-93.39Z"/><path class="cls-19" d="M1779.9,650.61l75.64-90.23,34.19-20.06,98.93-.51,8.79,18.44-65.25,83.63-51.27,2.94,63.68-79.54-41.93.77-66.5,81.34Z"/><path class="cls-19" d="M1950.75,640.81l64-82.82,29.06-18.47,91.16-.47-16.77,23.07-63.35,1.15-9.13,12.13,60.42-1.49-17.32,23.93-61.81,2.34-9.4,12.5,65.91-2.92-17.77,24.45Z"/><path class="cls-19" d="M2081.73,633.3l55.78-77.15,25.4-17.25,80-.41-14.76,21.63-55.58,1-8,11.34,53-1.31-15.22,22.39-54.11,2.05L2140,607.26l57.69-2.56-15.58,22.84Z"/><path class="cls-19" d="M2247.29,602.5l28.71-1.27,27.72-42.49-27.72.51Zm-51.21,24.24,60-88.32,77.06-.4,5.89,15.11s-24.34,37.85-36.67,57.22l-17.88,11.32Z"/><path class="cls-19" d="M246,1062.77,572,800.64l229.58-18.77L548.66,998.28,572,1022.84,593,1019.7l150.69-62L953.09,769.48l181.21-14.81L934.87,944l34.73,19.61,31-4.62,87.79-48.3,167.76-166,146.06-11.94L1199.77,944.18l-108.64,63.7L819,1054.48l-35.05-28.6-112,53.76-318.79,54.57Z"/><polygon class="cls-19" points="1209.85 987.56 1453.06 728.61 1578.57 718.35 1360.95 961.7 1209.85 987.56"/><path class="cls-19" d="M1413.5,952.7,1586,756.35l74-44.66,201.79-16.5,17.09,32.29L1748.88,895.29l-107.65,18.43,133-164.28-86.68,9L1543,930.53Z"/><path class="cls-19" d="M1786.62,888.83,1912.26,724.2,1967,686.6l180.35-14.75-28.53,41.72-131.39,13.67-69.74,95.27,49.31-7.34L1997.51,798c4-6,3.43-5.19,6.54-9.32l-30,4.12,26.84-46,88.13-10.16,3.39,23.6-4.8,6.75-38.49,56.38L2007.45,851Z"/><path class="cls-19" d="M2086.24,797.43l128.81-19.18,12.86-20.39-86.13,11.86-18.58-27,34.16-50.82,41.89-24.27,149.82-12.25-22.23,36.56-111.79,11.64L2202,723.68l85.35-9.83L2302,732.92c-11.29,18.18-22.51,36.8-33.89,55.47l-27.27,22.69-185.46,31.75Z"/><polygon class="cls-20" points="505.24 197.52 825.41 3.05 1137.12 56.41 916.52 210.57 1166.45 237.22 1352.68 93.31 1570.91 130.67 1392.16 284 1233.54 342.18 1083.39 331.7 922.91 457.39 557.55 448.76 758.66 309.05 583.1 296.8 505.24 197.52"/><path class="cls-20" d="M1595.56,388.81l151.7,9.17,132.87-140.39-132.87-17.85Zm-237.31,8.68c80-71.29,154.34-138.3,225-200.76l120.53-43.31,304.47,52.12,24.3,55.64c-50.29,57.23-102.83,117.69-158.93,181.55L1789,477.85l-386.94-9.14Z"/><path class="cls-20" d="M1943.58,427.55l173-203.48,109,18.66L2086.91,418.51l95,5.74,124.91-167.61,87.76,15L2273.47,444.49l-64.94,43.27-239-5.65Z"/><path class="cls-20" d="M358,684,489,678.19l121.7-91L489,589.38Zm-247.6,60.19,288-198.61,336.39-1.75,24.29,30.56s-101.62,78.76-154.4,120.06l-78.12,25.86Z"/><path class="cls-20" d="M814.31,663.77l99.87-4.43,93.59-79.41-93.59,1.7Zm-143,16.69c46.56-36.71,91.28-72.36,135.25-106.78l78.32-30.63L1104,541.91l19,27c-39,34.1-78.65,69.17-119.89,105.26l-60.15,22.24L696.57,710.56Z"/><path class="cls-20" d="M1021.31,691.93l138.8-123.56,61.57-27.07,174.19-.91,15.2,24.22-113.91,111.5-91.26,5.23L1319,574.26l-74.2,1.35L1124.93,686Z"/><path class="cls-20" d="M1484.66,567.92l-48.36.82,34.35-34.29,74.39-.22-48.88,50-28.51.67Z"/><path class="cls-20" d="M1540.52,570.22l29.59-30.73,213.7-1.11-24.36,27.85-64.18,1.17L1613.65,658l-70,4,86.89-93.39Z"/><path class="cls-20" d="M1785.61,648.09l75.65-90.24,34.19-20.05,98.93-.52,8.79,18.45-65.26,83.62-51.26,2.94,63.67-79.53-41.92.76-66.5,81.34Z"/><path class="cls-20" d="M1956.46,638.28l64-82.81L2049.57,537l91.15-.47L2124,559.59l-63.36,1.16-9.13,12.13,60.43-1.5-17.33,23.93-61.8,2.34-9.41,12.5,65.92-2.92-17.78,24.46Z"/><path class="cls-20" d="M2087.44,630.77l55.78-77.15,25.4-17.24,80-.42-14.75,21.63-55.58,1-8,11.34,53-1.31L2208.05,591l-54.12,2.05-8.21,11.66,57.68-2.56L2187.82,625Z"/><path class="cls-20" d="M2253,600l28.71-1.27,27.71-42.49-27.71.51Zm-51.21,24.24,59.94-88.32,77.06-.4,5.89,15.11s-24.33,37.85-36.66,57.22l-17.88,11.32Z"/><path class="cls-20" d="M251.66,1060.24l326-262.13,229.57-18.77L554.38,995.75l23.29,24.56,21.06-3.14,150.69-62L958.81,767,1140,752.14,940.59,941.51l34.72,19.61,31-4.62,87.8-48.3,167.76-166,146.05-11.94L1205.49,941.65l-108.64,63.71L824.67,1052l-35.06-28.6-112,53.76-318.8,54.57Z"/><polygon class="cls-20" points="1215.57 985.03 1458.78 726.08 1584.28 715.82 1366.67 959.17 1215.57 985.03"/><path class="cls-20" d="M1419.22,950.17l172.51-196.34,74-44.67,201.79-16.5,17.09,32.3-130.07,167.8-107.65,18.43,133-164.28-86.68,9L1548.73,928Z"/><path class="cls-20" d="M1792.34,886.3,1918,721.67l54.76-37.6,180.34-14.75L2124.55,711l-131.38,13.68L1923.43,820l49.31-7.35,30.48-17.16c4-6,3.43-5.19,6.54-9.32l-30,4.12,26.84-46,88.14-10.15,3.39,23.59-4.81,6.75-38.48,56.38-41.72,27.61Z"/><path class="cls-20" d="M2092,794.9l128.81-19.17,12.86-20.39-86.12,11.85-18.59-27,34.17-50.81L2205,665.08l149.83-12.25-22.24,36.57L2220.76,701l-13.06,20.12,85.35-9.83,14.63,19.08c-11.28,18.17-22.51,36.79-33.89,55.46l-27.27,22.69L2061.07,840.3Z"/><path class="cls-21" d="M511,195,831.12.52l311.72,53.36L922.23,208l249.94,26.65L1358.39,90.78l218.23,37.36L1397.88,281.47l-158.62,58.18L1089.1,329.17,928.62,454.86l-365.35-8.63L764.38,306.52,588.82,294.27Z"/><path class="cls-21" d="M1601.28,386.28,1753,395.45l132.87-140.39L1753,237.21ZM1364,395c80-71.29,154.34-138.3,225-200.76l120.54-43.31L2014,203l24.29,55.64C1988,315.88,1935.49,376.34,1879.39,440.2l-84.68,35.12-386.94-9.14Z"/><path class="cls-21" d="M1949.3,425l173-203.48,109,18.66L2092.63,416l95,5.74,124.91-167.61,87.75,15L2279.19,442l-64.94,43.27-239-5.65Z"/><path class="cls-21" d="M363.67,681.47l131.08-5.81,121.71-91-121.71,2.22ZM116.06,741.66l288-198.61,336.39-1.75,24.3,30.56s-101.63,78.76-154.4,120.06l-78.13,25.86Z"/><path class="cls-21" d="M820,661.24l99.87-4.43,93.58-79.41-93.58,1.7ZM677,677.93c46.55-36.71,91.28-72.35,135.24-106.78l78.33-30.63,219.16-1.14,19,27c-39,34.1-78.65,69.17-119.89,105.26L948.65,693.9,702.28,708Z"/><path class="cls-21" d="M1027,689.4l138.8-123.56,61.56-27.07,174.19-.91,15.2,24.22-113.91,111.5-91.25,5.23,113.11-107.08-74.2,1.35L1130.64,683.46Z"/><path class="cls-21" d="M1490.38,565.4l-48.37.81,34.36-34.29,74.38-.22-48.87,50-28.51.67Z"/><path class="cls-21" d="M1546.23,567.69,1575.82,537l213.7-1.11-24.36,27.85L1701,564.87l-81.62,90.55-70,4,86.89-93.39Z"/><path class="cls-21" d="M1791.33,645.56,1867,555.33l34.19-20.06,98.93-.52,8.79,18.45-65.25,83.62-51.27,2.94L1956,560.23l-41.93.76-66.5,81.34Z"/><path class="cls-21" d="M1962.18,635.76l64-82.82,29.06-18.47,91.16-.48-16.77,23.07-63.35,1.16-9.13,12.13,60.42-1.5-17.32,23.93-61.81,2.34-9.4,12.51L2095,604.7l-17.77,24.46Z"/><path class="cls-21" d="M2093.16,628.24l55.78-77.14,25.4-17.25,80-.42-14.75,21.63-55.59,1-8,11.34,53-1.31-15.22,22.39-54.11,2-8.22,11.66,57.69-2.56-15.58,22.84Z"/><path class="cls-21" d="M2258.73,597.44l28.7-1.27,27.72-42.49-27.72.51Zm-51.22,24.24,59.95-88.32,77.06-.4,5.89,15.11s-24.34,37.85-36.67,57.23l-17.88,11.31Z"/><path class="cls-21" d="M257.38,1057.71l326-262.13L813,776.81,560.09,993.22l23.29,24.56,21.07-3.14,150.69-62L964.52,764.42l181.21-14.81L946.3,939,981,958.59l31-4.62,87.79-48.3,167.76-166,146.06-11.94L1211.21,939.13l-108.65,63.7-272.18,46.59-35-28.59-112,53.75-318.79,54.58Z"/><path class="cls-21" d="M1221.28,982.51l243.21-259L1590,713.29,1372.38,956.64Z"/><path class="cls-21" d="M1424.93,947.64,1597.44,751.3l74-44.67,201.8-16.49,17.08,32.29-130.06,167.8-107.65,18.43,133-164.28-86.67,9-144.5,172.07Z"/><path class="cls-21" d="M1798.05,883.77l125.64-164.63,54.76-37.6L2158.8,666.8l-28.53,41.71-131.39,13.68-69.74,95.27,49.31-7.34L2008.94,793c4-6,3.43-5.18,6.54-9.32l-30,4.12,26.84-46,88.13-10.15,3.39,23.59-4.8,6.75-38.49,56.38L2018.88,846Z"/><path class="cls-21" d="M2097.67,792.37l128.81-19.17,12.86-20.39-86.13,11.86-18.58-27,34.17-50.81,41.88-24.28,149.83-12.24-22.24,36.56L2226.48,698.5l-13.07,20.13,85.35-9.84,14.64,19.08c-11.29,18.18-22.51,36.79-33.89,55.46L2252.24,806l-185.46,31.74Z"/></g></g></svg>