<svg xmlns="http://www.w3.org/2000/svg" viewBox="0 0 2209.86 1141.69"><defs><style>.cls-1{fill:red;}.cls-2{fill:#fff;}</style></defs><g id="Layer_2" data-name="Layer 2"><g id="Layer_1-2" data-name="Layer 1"><polygon class="cls-1" points="1290.84 283.99 855.06 359.16 732.02 485.42 410.38 446.28 569.67 302.4 184.2 15.13 587.97 113.23 765.16 258.88 1045.29 224.34 1290.84 283.99"/><path class="cls-1" d="M1814.31,427.33c-19.23-15.38-45.45-27.2-79.28-35.42l-281.76-68.45c-71.17-17.3-125-15.66-158.49,6.26-2.83,3.39-10.08,11.82-21.86,25.38s-25.24,29-40.09,46q-22.56,25.81-57.21,66c-12.2,17.34-.34,35.83,34.88,54.92,34.5,18.68,79.14,31.18,132.75,37.7L1649.5,597c56.1,6.83,92.84-.43,112.41-21.16,2-2.94,6.89-10.46,14.59-22.47s16-24.84,25.08-38.69,16.47-25.21,22.46-34.48l7.86-12.19C1838.87,455.71,1833.1,442.25,1814.31,427.33ZM1713,444.5l-12.23,17.85q-9.84,14.41-22.31,32-12.57,17.77-31.42,45.39c-3.07,3.21-8.58,4.22-16.59,3l-238.57-35.61a49.05,49.05,0,0,1-16.25-5.1c-4.24-2.42-5.76-4.77-4.57-7,2.55-2.8,8.31-9.87,17.17-21.16s18.54-23.46,29.16-36.76S1437,412.58,1444.74,403s11.67-14.54,12-15.09c3.39-3.35,10-4,19.84-1.85l221.78,47.68c5.56,1.19,9.59,2.82,12.12,4.89S1713.84,442.63,1713,444.5Z"/><path class="cls-1" d="M1965.82,448l22.94,5.57-54.69,90.84q-9.21,15.87-23.64,39.62l135.76,20.32q6.82,1,9.19-2.41l43.76-82L2118.22,485l66.15,16.07L2119,626.31c-4.14,7.65-12,13.36-23.76,17.13s-25.6,4.72-41.6,2.78l-266-32.37,97.26-153.41C1902.59,443.22,1929.9,439.25,1965.82,448Z"/><path class="cls-1" d="M594,568.78c-17.42-9.89-40.86-16.22-70.64-18.95L266.23,526.27a186.76,186.76,0,0,0-47.1,1.18c-14.55,2.29-24.31,6.19-29.19,11.71-.29.07-.44.19-.46.37q-.87,1.14-18.35,22.35-17.64,21.36-41.78,50.57Q105,641.92,84.76,666.3q-20.31,24.56-25,30l389.67,14.38c45.69,1.69,77.21-6.13,95.33-23.25q18.46-25.47,30.5-42.07t21.81-30q9.81-13.41,12.15-16.76C616,588.33,611,578.44,594,568.78Zm-88.82,22.93q-17,22.37-28.26,37.32t-20.76,27.48q-9.47,12.51-12,15.62L227.86,661.44q21.12-26.22,35.05-43.35t25-31c7.38-9.22,12-15,13.87-17.25L492.86,585a24.61,24.61,0,0,1,9.64,2.49C505,588.82,505.89,590.22,505.14,591.71Z"/><path class="cls-1" d="M985,602.93c-13.74-8.44-32.18-13.75-55.56-15.9L751.73,570.75c-40.62-3.72-70.38,2.13-88.52,17.75q-2.26,3.3-11.74,16.43t-21.19,29.38q-11.79,16.29-29.6,41.18-9.3,15.74,17.56,29.13c17.83,8.87,41.44,13.81,70.56,14.88l183.71,6.78c37.25,1.37,62.29-5.45,75.81-20.32q2.1-3.12,10.16-15.87t17.65-27.6q9.58-14.84,16-24.91l5.65-8.89C1002.81,619.77,998.57,611.22,985,602.93Zm-70.46,20.36q-1.62,2.52-8.19,12.61t-14.84,22.43q-8.29,12.38-20.61,31.35c-2,2.25-5.58,3.25-10.77,3l-144-7.11a24.32,24.32,0,0,1-9.12-2c-2.37-1.17-3.22-2.47-2.55-3.87,1.44-1.83,4.69-6.39,9.7-13.68s10.55-15.26,16.66-24,11.34-16.21,15.85-22.59,6.81-9.72,7-10.07c2-2.32,5.86-3.24,11.63-2.79l139.43,11c3.72.29,6.43,1,8.13,2.13S915.11,622,914.52,623.29Z"/><path class="cls-1" d="M1036.1,619.28c13.43-13.79,34.27-19.33,62.13-16.78l17.81,1.63,111.24,75.2,34-61.89,56.61,5.19-66.45,117.63-59.12-2.18,13.13-23-111.9-73.53-55.19,90.87-71.89-2.65Z"/><polygon class="cls-1" points="1374.22 657.19 1338.48 654.41 1354.88 625.66 1420.18 631.66 1404.21 659.53 1364.8 675.91 1374.22 657.19"/><polygon class="cls-1" points="1490.55 663.7 1423.15 658.37 1436.63 633.51 1605.83 649.01 1594.19 671.9 1535.59 667.26 1492.52 749.16 1445 747.4 1490.55 663.7"/><path class="cls-1" d="M1680.87,672.51c7.55-10.41,19.11-14.87,34.5-13.46l9.89.9L1787,714.69l20.3-47.22,32.67,3-39.93,90-33.7-1.24,7.76-17.43-61.86-53.71-31.68,68-39.12-1.45Z"/><path class="cls-1" d="M1848.37,686.33c6-9.53,15.82-13.65,29.2-12.42l84.14,7.71-7.79,18.88-48.37-3.83-24.38-1.93a4.75,4.75,0,0,0-2.23.43,3.44,3.44,0,0,0-1.84,1.45l-5,11.47,50.8,3.58-7.86,19.47-51.55-3-4.68,10.71a2.05,2.05,0,0,0,.73,2.25,4.2,4.2,0,0,0,2.85,1.08l72.55,3.65q-3.57,8.83-8,19.35l-74.42-2.75q-14-.51-22.21-8c-5.53-5-7.08-10.51-4.6-16.63Z"/><path class="cls-1" d="M1967.83,696.19c5.25-8.87,13.71-12.76,25.26-11.7l72.93,6.68-6.86,17.64-42-3.31-21.09-1.67a3.92,3.92,0,0,0-1.93.4,3.09,3.09,0,0,0-1.59,1.36l-4.34,10.68,44,3.1-6.9,18.15-44.58-2.58-4.09,10a2,2,0,0,0,.62,2.08,3.43,3.43,0,0,0,2.45,1l62.81,3.16q-3.15,8.25-7,18.05l-64.38-2.37c-8.06-.3-14.44-2.74-19.09-7.33s-6-9.73-3.89-15.41Z"/><path class="cls-1" d="M2156.57,705.26q-5.4-6.27-14.82-7.15l-51.64-4.73a17.07,17.07,0,0,0-9.07,1.56,10.67,10.67,0,0,0-5.73,5.69.16.16,0,0,0-.1.16q-.18.51-3.84,10t-8.65,22.39q-5,12.95-9.1,23.54t-5,13l74.91,2.76c9.46.35,16.24-3.52,20.4-11.59q4.41-12,7.29-19.81t5.25-14.26c1.59-4.28,2.57-6.94,2.95-8C2161,713.88,2160.11,709.39,2156.57,705.26Zm-19.39,12.35-6.58,17.47q-2.62,7-4.79,12.76t-2.76,7.22l-42.68-2.1q4.5-11.72,7.49-19.4t5.38-14c1.61-4.19,2.61-6.8,3-7.85l38.44,3a2.83,2.83,0,0,1,2,.94A1.93,1.93,0,0,1,2137.18,717.61Z"/><path class="cls-1" d="M276.3,805.68l10.4,227.25,217.57-155.8-6.59-70.21,183.89,1,19.36,192.61L914.78,809.24l170.25.94L776.64,1087.33l-252.47,24.33-8-96.32L376.33,1125.91l-133.67,12.88c-54.25,5.23-102,3.42-142.61-5.72-41.63-9.36-64.54-24.09-67.95-44L0,804.15Z"/><path class="cls-1" d="M1103,851.13c23.84-27.22,60.51-40.51,108.78-40.24l29.9.16L1105.83,1055.6l-130.61,12.59Z"/><path class="cls-1" d="M1273.48,849.19c20.73-25.3,52.42-37.67,94.1-37.44l26.31.15,157.55,105L1599.12,813l75.75.42-91.23,196.09-81.91,7.9,18.79-39.52-160.4-100.67-84.46,162-112.39,10.84Z"/><path class="cls-1" d="M1694.25,844.39c13.23-20.54,34.75-30.63,64-30.46L1948.79,815l-15.41,37-57.68,1-109.5,2a11.58,11.58,0,0,0-4.81,1.28,8.46,8.46,0,0,0-3.74,3.26L1718,948.59a3.69,3.69,0,0,0,1.4,4.36,9.86,9.86,0,0,0,6.52,1.41l104.6-7.65a10.83,10.83,0,0,0,4.43-1.46,4.72,4.72,0,0,0,2.66-3.22l9.82-23-101.94,5.84L1763.18,883l109.93-3.73,49.86-1.69q-3.49,8.55-10.21,25.08t-12.92,31.58q-6.19,15-7.67,18.45c-10.84,19.08-28.82,29.91-54.42,32.38l-133.58,12.88c-20.64,2-37.36-1.25-50-9.83-12.79-8.62-16.51-19.63-11.06-32.9Z"/><path class="cls-1" d="M2013.55,850.54a7.4,7.4,0,0,0-3.7,1,6.92,6.92,0,0,0-2.29,2.33c-1.11,2.76-2,5.07-2.7,6.91s-1.34,3.56-2,5.14l-1.31,3.3a3.55,3.55,0,0,0,1,3.74,5.55,5.55,0,0,0,4.31,1.45L2018,874l23.25-.78,23.73-.8,12.83-.43c12.33-.42,21.77,3,28.43,10.31s8.18,15.57,4.78,25.41a.84.84,0,0,1-.16.32c0,.15-.47,1.46-1.39,4s-2,5.44-3.26,8.84-2.43,6.56-3.52,9.47-1.75,4.81-2,5.67c-2.91,7.25-8,13.44-15.39,18.6a53.37,53.37,0,0,1-25.71,9.11l-.42,0-21.27,2-47.47,4.58-53,5.1-29.81,2.88q4.18-10.74,7.06-17.9T1920,947.3q2.35-6,3-7.83l21.77-1.59,44.6-3.25,44-3.2,22.5-1.64a6.64,6.64,0,0,0,5.74-3.58c1-2.7,1.87-4.94,2.51-6.73s1.25-3.44,1.82-5l1.21-3.18a2.83,2.83,0,0,0-.31-3.58,4.73,4.73,0,0,0-4-1.41h.14l-.42,0L2052,907l-23,1.32L2004,909.7l-14,.79c-14.21.81-25.46-2.55-33.6-10.18-8.35-7.7-10.41-17.2-6.11-28.4l0-.35.41-1.08q1.17-2.75,3.83-9.2t5.12-12.55c1.63-4.06,2.71-6.73,3.23-8,10.31-17.11,25.91-25.53,46.47-25.42h.45l22.31.12,45.27.25,44.4.25,22.67.12q-3.16,8.85-5.35,14.75t-4,10.95c-1.21,3.37-2,5.58-2.32,6.63l-17,.3-37.63.68-41.47.74Z"/><polygon class="cls-2" points="1316.33 268.86 880.55 344.03 757.51 470.28 435.86 431.15 595.16 287.26 209.68 0 613.45 98.1 790.65 243.75 1070.78 209.21 1316.33 268.86"/><path class="cls-2" d="M1839.8,412.19c-19.24-15.37-45.46-27.19-79.28-35.42l-281.76-68.45c-71.17-17.29-125-15.65-158.49,6.27-2.83,3.39-10.09,11.82-21.86,25.37s-25.24,29-40.09,46q-22.56,25.83-57.21,66c-12.2,17.33-.34,35.83,34.88,54.92,34.5,18.67,79.14,31.18,132.74,37.7L1675,581.91c56.11,6.83,92.85-.44,112.42-21.16,2-2.94,6.89-10.46,14.58-22.48s16-24.83,25.09-38.69,16.46-25.2,22.46-34.47l7.86-12.2C1864.36,440.58,1858.59,427.12,1839.8,412.19Zm-101.33,17.18-12.23,17.85q-9.85,14.41-22.31,32-12.57,17.76-31.42,45.38c-3.07,3.22-8.58,4.23-16.59,3l-238.57-35.6a49.05,49.05,0,0,1-16.25-5.11q-6.36-3.63-4.58-7c2.56-2.8,8.32-9.87,17.18-21.16s18.54-23.46,29.16-36.76,19.65-24.56,27.36-34.15,11.68-14.54,12-15.09c3.39-3.36,10-4,19.84-1.85l221.78,47.68c5.56,1.19,9.59,2.81,12.12,4.88S1739.32,427.5,1738.47,429.37Z"/><path class="cls-2" d="M1991.31,432.85l22.93,5.57-54.68,90.84q-9.22,15.86-23.64,39.62l135.76,20.31q6.83,1,9.19-2.4l43.76-82,19.08-34.88,66.15,16.07-65.37,125.24c-4.14,7.65-12,13.36-23.76,17.13s-25.6,4.72-41.6,2.77l-266-32.36,97.25-153.41C1928.08,428.09,1955.39,424.12,1991.31,432.85Z"/><path class="cls-2" d="M619.44,553.64c-17.41-9.88-40.86-16.22-70.63-18.94L291.72,511.14a186.28,186.28,0,0,0-47.1,1.18c-14.55,2.28-24.31,6.19-29.2,11.71-.28.07-.43.19-.45.37-.58.76-6.68,8.18-18.35,22.34l-41.78,50.57q-24.4,29.48-44.59,53.86-20.31,24.54-25,30l389.67,14.38c45.69,1.69,77.21-6.13,95.33-23.25q18.46-25.47,30.5-42.07t21.81-30q9.81-13.41,12.15-16.76C641.48,573.2,636.44,563.31,619.44,553.64Zm-88.81,22.94q-16.95,22.36-28.26,37.32t-20.76,27.48q-9.47,12.51-12,15.61L253.35,646.31q21.12-26.22,35-43.35t25-31q11.06-13.83,13.87-17.25l191.1,15.1a24.61,24.61,0,0,1,9.64,2.49C530.51,573.68,531.38,575.09,530.63,576.58Z"/><path class="cls-2" d="M1010.47,587.8c-13.75-8.44-32.18-13.75-55.56-15.9L777.22,555.62c-40.63-3.72-70.38,2.13-88.52,17.75q-2.28,3.28-11.74,16.43t-21.19,29.38q-11.81,16.27-29.6,41.18-9.3,15.74,17.56,29.12c17.83,8.88,41.44,13.81,70.55,14.89L898,711.15c37.25,1.37,62.29-5.45,75.81-20.32q2.1-3.12,10.16-15.87t17.65-27.6q9.58-14.83,16-24.91l5.65-8.89C1028.3,604.64,1024.06,596.08,1010.47,587.8ZM940,608.16q-1.62,2.52-8.19,12.6T917,643.2q-8.29,12.36-20.62,31.35c-2,2.25-5.57,3.25-10.76,3l-144-7.11a24.32,24.32,0,0,1-9.12-2q-3.56-1.77-2.56-3.87c1.45-1.83,4.7-6.39,9.71-13.68s10.55-15.27,16.66-24,11.34-16.21,15.84-22.6,6.81-9.71,7-10.07q3-3.48,11.63-2.78l139.42,11c3.73.29,6.44,1,8.14,2.13S940.6,606.88,940,608.16Z"/><path class="cls-2" d="M1061.59,604.15c13.42-13.79,34.26-19.33,62.13-16.78l17.81,1.63,111.24,75.2,34-61.89,56.6,5.19-66.44,117.63L1217.81,723l13.14-23-111.9-73.54-55.19,90.88L992,714.62Z"/><polygon class="cls-2" points="1399.71 642.06 1363.96 639.27 1380.37 610.53 1445.66 616.53 1429.7 644.39 1390.29 660.78 1399.71 642.06"/><polygon class="cls-2" points="1516.04 648.57 1448.64 643.24 1462.12 618.38 1631.31 633.88 1619.67 656.77 1561.07 652.13 1518 734.02 1470.49 732.27 1516.04 648.57"/><path class="cls-2" d="M1706.35,657.37c7.56-10.4,19.12-14.87,34.51-13.46l9.89.91,61.75,54.74,20.29-47.22,32.68,3-39.93,90-33.7-1.24,7.76-17.43L1737.74,673l-31.68,68-39.12-1.44Z"/><path class="cls-2" d="M1873.86,671.2c6-9.53,15.82-13.65,29.2-12.43l84.13,7.71-7.78,18.88L1931,681.54l-24.38-1.93a4.86,4.86,0,0,0-2.23.42,3.48,3.48,0,0,0-1.84,1.45l-5,11.48,50.79,3.58L1940.57,716,1889,713l-4.68,10.71a2.07,2.07,0,0,0,.72,2.25,4.22,4.22,0,0,0,2.86,1.07l72.55,3.65q-3.57,8.84-8,19.36L1878,747.31c-9.35-.35-16.77-3-22.2-8s-7.08-10.51-4.6-16.63Z"/><path class="cls-2" d="M1993.32,681.06c5.25-8.87,13.71-12.76,25.25-11.7l72.94,6.68-6.86,17.64-42-3.32-21.09-1.66a3.79,3.79,0,0,0-1.93.4,3,3,0,0,0-1.59,1.36l-4.34,10.68,43.95,3.1-6.9,18.15-44.59-2.58-4.08,10a2,2,0,0,0,.61,2.09,3.56,3.56,0,0,0,2.46,1L2068,736q-3.14,8.24-7,18l-64.38-2.38c-8.06-.29-14.44-2.73-19.09-7.32s-6-9.73-3.89-15.42Z"/><path class="cls-2" d="M2182.06,690.13c-3.6-4.18-8.53-6.58-14.83-7.15l-51.63-4.74a17.08,17.08,0,0,0-9.07,1.57,10.65,10.65,0,0,0-5.73,5.68.17.17,0,0,0-.1.17q-.18.51-3.84,10T2088.21,718q-5,12.94-9.11,23.54t-5,13l74.91,2.76c9.47.35,16.25-3.53,20.41-11.59q4.41-12,7.29-19.81t5.25-14.26c1.58-4.28,2.57-6.94,3-8C2186.52,698.75,2185.6,694.26,2182.06,690.13Zm-19.4,12.35c-2.63,7-4.82,12.83-6.58,17.47s-3.34,8.91-4.78,12.76-2.37,6.27-2.76,7.21l-42.68-2.1q4.5-11.7,7.49-19.4t5.38-14c1.61-4.18,2.61-6.79,3-7.84l38.45,3a2.91,2.91,0,0,1,2,.94A2,2,0,0,1,2162.66,702.48Z"/><path class="cls-2" d="M301.79,790.55l10.4,227.25L529.76,862l-6.59-70.21,183.89,1,19.35,192.61L940.27,794.1l170.25.95L802.13,1072.2l-252.47,24.33-8-96.32-139.8,110.57-133.67,12.88c-54.25,5.23-102,3.42-142.61-5.72-41.63-9.36-64.54-24.09-67.95-44.06L25.49,789Z"/><path class="cls-2" d="M1128.46,836c23.84-27.22,60.51-40.51,108.78-40.25l29.9.17-135.82,244.55-130.61,12.59Z"/><path class="cls-2" d="M1299,834.05c20.73-25.29,52.42-37.66,94.1-37.43l26.31.15,157.55,105,47.68-103.81,75.75.42-91.23,196.09-81.91,7.89L1546,962.8,1385.61,862.13l-84.46,162-112.39,10.83Z"/><path class="cls-2" d="M1719.73,829.26c13.24-20.54,34.76-30.63,64-30.47l190.58,1.06-15.42,37-57.67,1-109.5,2a11.39,11.39,0,0,0-4.81,1.28,8.46,8.46,0,0,0-3.74,3.26l-39.61,89.08a3.66,3.66,0,0,0,1.4,4.35,9.79,9.79,0,0,0,6.52,1.42l104.6-7.66a10.64,10.64,0,0,0,4.42-1.46,4.72,4.72,0,0,0,2.67-3.21l9.82-23L1771,909.71l17.65-41.85,109.93-3.73,49.86-1.69q-3.49,8.55-10.21,25.07t-12.92,31.59q-6.19,15-7.67,18.45c-10.85,19.08-28.83,29.91-54.42,32.38L1729.65,982.8c-20.63,2-37.35-1.24-50-9.83-12.79-8.61-16.52-19.62-11.06-32.89Z"/><path class="cls-2" d="M2039,835.4a7.51,7.51,0,0,0-3.7,1,6.92,6.92,0,0,0-2.29,2.33q-1.66,4.14-2.7,6.91c-.69,1.84-1.34,3.56-2,5.14s-1.06,2.68-1.31,3.29a3.57,3.57,0,0,0,1,3.75,5.58,5.58,0,0,0,4.31,1.45l11.1-.37,23.25-.79,23.73-.8,12.83-.43c12.33-.41,21.77,3,28.43,10.32s8.18,15.57,4.78,25.41a.84.84,0,0,1-.16.32c0,.14-.47,1.46-1.39,4s-2,5.43-3.26,8.84-2.43,6.56-3.52,9.47-1.75,4.8-2,5.67c-2.91,7.25-8,13.44-15.39,18.59a53.41,53.41,0,0,1-25.71,9.12l-.42,0-21.27,2-47.47,4.58-53,5.1-29.81,2.87q4.17-10.74,7.06-17.89t5.25-13.14q2.37-6,3-7.82l21.78-1.59,44.6-3.25,44-3.2,22.51-1.64a6.63,6.63,0,0,0,5.74-3.59c1-2.69,1.87-4.93,2.51-6.72s1.25-3.44,1.82-5l1.21-3.18a2.83,2.83,0,0,0-.31-3.58,4.67,4.67,0,0,0-3.95-1.41h.14l-.42,0-10.58.6-23,1.31-24.9,1.42-14,.8c-14.21.81-25.46-2.56-33.61-10.18-8.34-7.7-10.4-17.2-6.1-28.4l0-.36.41-1.07q1.17-2.76,3.83-9.2t5.12-12.55q2.44-6.11,3.23-8c10.31-17.11,25.91-25.53,46.46-25.42h.46l22.31.13,45.26.25,44.41.25,22.66.12q-3.15,8.85-5.35,14.75t-4,10.95q-1.83,5-2.32,6.63l-17,.3-37.63.67-41.47.75Z"/></g></g></svg>