<svg xmlns="http://www.w3.org/2000/svg" viewBox="0 0 2024.11 1339.29"><defs><style>.cls-1{fill:red;stroke:#000;}.cls-1,.cls-10,.cls-11,.cls-12,.cls-13,.cls-14,.cls-15,.cls-16,.cls-17,.cls-18,.cls-19,.cls-2,.cls-20,.cls-3,.cls-5,.cls-6,.cls-7,.cls-8,.cls-9{stroke-miterlimit:10;}.cls-2{fill:#ff0d0d;stroke:#0d0000;}.cls-3{fill:#ff1b1b;stroke:#1b0000;}.cls-4{fill:#ff2828;stroke:#280000;stroke-miterlimit:10;}.cls-5{fill:#ff3636;stroke:#360000;}.cls-6{fill:#ff4343;stroke:#430000;}.cls-7{fill:#ff5151;stroke:#510000;}.cls-8{fill:#ff5e5e;stroke:#5e0000;}.cls-9{fill:#ff6b6b;stroke:#6b0000;}.cls-10{fill:#ff7979;stroke:#790000;}.cls-11{fill:#ff8686;stroke:#860000;}.cls-12{fill:#ff9494;stroke:#940000;}.cls-13{fill:#ffa1a1;stroke:#a10000;}.cls-14{fill:#ffaeae;stroke:#ae0000;}.cls-15{fill:#ffbcbc;stroke:#bc0000;}.cls-16{fill:#ffc9c9;stroke:#c90000;}.cls-17{fill:#ffd7d7;stroke:#d70000;}.cls-18{fill:#ffe4e4;stroke:#e40000;}.cls-19{fill:#fff2f2;stroke:#f20000;}.cls-20{fill:#fff;stroke:red;}</style></defs><g id="Layer_2" data-name="Layer 2"><g id="Layer_1-2" data-name="Layer 1"><path class="cls-1" d="M211.06,613.49l31.11-6.28L257.78,582l3.48-15.51-42.39,9.45Zm-83.22,186,57.8-287L305.2,480.71l14.27,53.9-22.2,99-21.12,22.54,8.6,33.47-13.24,59.43-25.38,39Zm67.72-111.8L188,723.94l28.2-3.9,17.21-24,3.16-14.91Z"/><path class="cls-1" d="M282.87,784.54l57.77-254.87,33.58-67.28L512,425.78,489.7,515.53l-95.15,21.21-9.77,41.69,88.33-17.83-21.25,86.26-86.45,13.78L356,700.7l90.63-12.54-20.55,82.56Z"/><path class="cls-1" d="M492.47,598.36l45.61-179.49,72.6-19.28-43.2,163.86,61.77-11.81,46.2-169.25,83.36-22.14L701.48,560.59l-46.85,76.12-41.58,6.2L582.1,755.66l-69.89,6.75,28.63-108.74-31.49,4.69Z"/><path class="cls-1" d="M789.12,640.77,865,630.28l67.2-213.43-80.61,18ZM697.5,676c23.33-80.18,47-162.42,71.59-246.38l52.66-86.09,198.45-52.7L1046.07,365c-34.88,105-68.23,206.6-100.92,305l-49.66,55.44-178,17.18Z"/><path class="cls-1" d="M965.63,718.64,1088,355.16l69.72-100.86,264-70.1,33.88,85.13L1293.26,687l-125.43,12.1,134.69-364.86-106.73,23.8-124,350.33Z"/><path class="cls-1" d="M1541.43,536.68l136-18.82,129.88-296.18-147.94,33Zm-198,145.5,211.41-533.34,422-112.08,46.72,99.94s-137.25,293.21-200.69,430.21l-93.06,78Z"/><path class="cls-1" d="M151.05,1155.56l58.86-269.78,49.81-2-47.59,210.67,90.63,7.49-17.19,70.22Z"/><path class="cls-1" d="M305.45,1174.58,378.3,878.92l60.42-2.47-78.21,304.92Z"/><path class="cls-1" d="M382.13,1184l64.61-248,37.31-61.43,103.35-4.22,15.23,42.42,34.21-44.43L743.51,864l39.06,101.65-82.46,257.54-76.84-9.47,68.26-224.36-9.77-33.62H668.83l-46.57,48.76-59.14,201.82L495.24,1198l59.4-210.77-14.4-31.5H523.07l-29.29,45.78-51.68,190Z"/><path class="cls-1" d="M730.5,1227,849.9,859.69l95.78-3.9L815.54,1237.45Z"/><path class="cls-1" d="M948.24,955.91l35.17-101.66,400.45-16.32-48.7,118.18L1201.09,956,1078.8,1269.89l-105.61-13L1084.87,956Z"/><path class="cls-1" d="M1290.61,1183.55,1562.27,1206l28.36-60.23-197.94-12.32-43.1-89.82,59.55-142.11,89.24-68.26L1946.05,815,1874.76,956.4l-329.62-.17-27.59,61.59,232,4.89,51.65,80.18c-31.59,61-61.76,121.61-91.34,180.13l-72.11,55.75-392.57-48.38Z"/><path class="cls-2" d="M204.36,611.58l31.11-6.28,15.61-25.22,3.48-15.51L212.17,574Zm-83.21,186,57.79-287,119.57-31.76,14.27,53.9-22.2,99-21.12,22.54,8.59,33.48-13.24,59.42-25.37,39Zm67.72-111.8L181.33,722l28.2-3.9,17.22-24,3.15-14.91Z"/><path class="cls-2" d="M276.17,782.64,334,527.77l33.57-67.29,137.82-36.6L483,513.62l-95.14,21.22-9.78,41.68,88.33-17.82L445.17,645l-86.46,13.78-9.4,40,90.63-12.54-20.55,82.57Z"/><polygon class="cls-2" points="485.77 596.45 531.38 416.96 603.98 397.68 560.79 561.54 622.55 549.74 668.75 380.48 752.12 358.34 694.79 558.68 647.93 634.81 606.35 641 575.4 753.76 505.52 760.5 534.14 651.76 502.65 656.45 485.77 596.45"/><path class="cls-2" d="M782.43,638.86l75.82-10.49L925.46,415l-80.61,18ZM690.8,674.09c23.34-80.17,47-162.41,71.59-246.37l52.66-86.09,198.46-52.71L1039.38,363c-34.88,105-68.23,206.6-100.93,305l-49.66,55.44-178,17.17Z"/><path class="cls-2" d="M958.94,716.74l122.37-363.49L1151,252.4l264-70.11,33.88,85.13L1286.56,685.11l-125.42,12.11,134.68-364.87-106.72,23.8-124,350.34Z"/><path class="cls-2" d="M1534.74,534.77l136-18.81L1800.6,219.78l-147.94,33Zm-198,145.5,211.41-533.33,422-112.08,46.72,99.93S1879.62,428,1816.17,565l-93.06,78Z"/><path class="cls-2" d="M144.36,1153.65l58.85-269.77,49.82-2-47.6,210.67,90.63,7.49-17.18,70.22Z"/><polygon class="cls-2" points="298.76 1172.68 371.61 877.01 432.03 874.55 353.82 1179.46 298.76 1172.68"/><path class="cls-2" d="M375.43,1182.13l64.62-248,37.3-61.44,103.35-4.21,15.23,42.42,34.22-44.44,106.66-4.34,39.06,101.65-82.46,257.54-76.83-9.47,68.25-224.37-9.76-33.61H662.14l-46.57,48.76-59.14,201.81-67.89-8.36L548,985.29l-14.41-31.5H516.38l-29.29,45.79-51.68,189.95Z"/><polygon class="cls-2" points="723.81 1225.06 843.2 857.79 938.98 853.89 808.84 1235.54 723.81 1225.06"/><path class="cls-2" d="M941.54,954l35.17-101.66L1377.16,836l-48.69,118.18-134.07-.07L1072.1,1268l-105.61-13,111.68-300.89Z"/><path class="cls-2" d="M1283.91,1181.65l271.67,22.45,28.36-60.23-198-12.33-43.1-89.81,59.55-142.11,89.24-68.26,447.68-18.25-71.29,141.38-329.63-.17-27.58,61.59,232,4.89,51.65,80.18c-31.59,61-61.76,121.61-91.35,180.13L1631,1336.87l-392.56-48.38Z"/><path class="cls-3" d="M197.67,609.68l31.11-6.28,15.61-25.22,3.48-15.52-42.39,9.46Zm-83.22,186,57.79-287,119.57-31.75,14.27,53.9-22.2,99-21.12,22.54,8.59,33.47-13.23,59.43-25.38,39Zm67.72-111.8-7.53,36.23,28.2-3.9,17.21-24,3.16-14.91Z"/><path class="cls-3" d="M269.47,780.74l57.78-254.88,33.57-67.28L498.65,422l-22.34,89.74-95.15,21.22-9.78,41.68,88.34-17.83-21.25,86.26L352,656.83l-9.39,40.06,90.63-12.54L412.7,766.91Z"/><polygon class="cls-3" points="479.08 594.55 524.69 415.06 597.28 395.78 554.09 559.64 615.85 547.83 662.05 378.58 745.42 356.44 688.09 556.78 641.23 632.91 599.65 639.1 568.7 751.85 498.82 758.6 527.45 649.86 495.96 654.55 479.08 594.55"/><path class="cls-3" d="M775.73,637l75.83-10.49L918.76,413l-80.61,18Zm-91.62,35.23c23.33-80.17,47-162.41,71.59-246.37l52.66-86.1L1006.81,287l25.87,74.12c-34.88,105-68.23,206.6-100.92,305L882.09,721.6l-178,17.18Z"/><path class="cls-3" d="M952.24,714.83l122.37-363.48,69.72-100.86,264-70.1,33.87,85.13-162.3,417.69-125.43,12.1,134.69-364.86-106.73,23.8-124,350.33Z"/><path class="cls-3" d="M1528,532.87l136-18.82L1793.9,217.88l-147.94,33Zm-198,145.5L1541.42,145,1963.44,33l46.73,99.93S1872.92,426.1,1809.48,563.11l-93.06,78Z"/><path class="cls-3" d="M137.66,1151.75,196.52,882l49.81-2-47.59,210.67,90.63,7.49-17.19,70.23Z"/><polygon class="cls-3" points="292.06 1170.78 364.91 875.11 425.33 872.65 347.12 1177.56 292.06 1170.78"/><path class="cls-3" d="M368.74,1180.23l64.61-248,37.31-61.44L574,866.59,589.24,909l34.21-44.43,106.67-4.35,39.06,101.65-82.47,257.54-76.83-9.47,68.25-224.36L668.37,952H655.44l-46.57,48.75-59.14,201.82-67.88-8.37,59.4-210.77-14.4-31.5H509.68l-29.29,45.78-51.68,190Z"/><polygon class="cls-3" points="717.11 1223.16 836.5 855.89 932.29 851.98 802.14 1233.64 717.11 1223.16"/><path class="cls-3" d="M934.85,952.1,970,850.44l400.46-16.32-48.7,118.19-134.07-.07-122.3,313.84-105.6-13,111.68-300.89Z"/><path class="cls-3" d="M1277.22,1179.74l271.66,22.46,28.36-60.23-198-12.33-43.1-89.82,59.55-142.11L1485,829.45l447.67-18.24-71.29,141.38-329.62-.17L1504.16,1014l232,4.89,51.65,80.18c-31.59,61.05-61.76,121.61-91.34,180.13L1624.31,1335l-392.56-48.38Z"/><path class="cls-4" d="M191,607.78l31.11-6.28,15.61-25.23,3.48-15.51-42.39,9.45Zm-83.21,186,57.79-287L285.12,475l14.26,53.9-22.2,99-21.12,22.54,8.6,33.47-13.24,59.42-25.38,39ZM175.47,682l-7.53,36.23,28.2-3.9,17.21-24,3.16-14.91Z"/><path class="cls-4" d="M262.78,778.83,320.56,524l33.57-67.29L492,420.07l-22.34,89.74L374.47,531l-9.78,41.69L453,554.89l-21.24,86.26-86.46,13.78L335.92,695l90.63-12.54L406,765Z"/><polygon class="cls-4" points="472.38 592.64 517.99 413.16 590.59 393.88 547.4 557.74 609.16 545.93 655.36 376.67 738.72 354.53 681.39 554.88 634.54 631 592.96 637.2 562.01 749.95 492.13 756.7 520.75 647.96 489.26 652.65 472.38 592.64"/><path class="cls-4" d="M769,635.06l75.83-10.49,67.21-213.43-80.61,18Zm-91.62,35.22c23.34-80.17,47-162.41,71.59-246.37l52.66-86.09,198.46-52.71L1026,359.24c-34.88,105-68.23,206.59-100.93,305L875.4,719.7l-178,17.18Z"/><path class="cls-4" d="M945.55,712.93l122.37-363.49,69.72-100.85,264-70.1,33.88,85.13L1273.17,681.3l-125.42,12.11,134.68-364.87-106.72,23.81-124,350.33Z"/><path class="cls-4" d="M1521.35,531l136-18.81L1787.21,216l-147.94,33Zm-198,145.5,211.41-533.33,422-112.08L2003.47,131s-137.25,293.2-200.69,430.21l-93.06,78Z"/><path class="cls-4" d="M131,1149.84l58.86-269.77,49.82-2L192,1088.71l90.63,7.49-17.18,70.22Z"/><polygon class="cls-4" points="285.37 1168.87 358.22 873.21 418.64 870.74 340.43 1175.66 285.37 1168.87"/><path class="cls-4" d="M362,1178.32l64.62-248L464,868.9l103.35-4.22,15.23,42.42,34.21-44.43,106.67-4.35L762.48,960,680,1217.51,603.18,1208l68.26-224.36-9.77-33.62H648.75l-46.57,48.76L543,1200.63l-67.89-8.37,59.4-210.78L520.15,950H503l-29.3,45.78-51.68,190Z"/><polygon class="cls-4" points="710.42 1221.26 829.81 853.98 925.59 850.08 795.45 1231.73 710.42 1221.26"/><path class="cls-4" d="M928.15,950.2l35.17-101.66,400.45-16.32-48.7,118.18L1181,950.33l-122.29,313.85-105.61-13,111.68-300.89Z"/><path class="cls-4" d="M1270.52,1177.84l271.66,22.45,28.37-60.23-198-12.32-43.1-89.82,59.55-142.11,89.24-68.26L1926,809.3l-71.28,141.39-329.63-.18-27.58,61.59,232,4.89,51.65,80.18c-31.59,61-61.76,121.61-91.35,180.14l-72.11,55.75-392.56-48.38Z"/><path class="cls-5" d="M184.28,605.87l31.1-6.28L231,574.37l3.49-15.51-42.39,9.45Zm-83.22,186,57.79-287L278.42,473.1,292.69,527l-22.2,99-21.12,22.54L258,682l-13.24,59.42-25.37,39Zm67.72-111.8-7.53,36.23,28.2-3.9,17.21-24,3.16-14.91Z"/><path class="cls-5" d="M256.08,776.93l57.78-254.88,33.57-67.28,137.83-36.6-22.34,89.74-95.15,21.22L358,570.81,446.33,553l-21.25,86.27L338.62,653l-9.39,40.06,90.63-12.54L399.31,763.1Z"/><polygon class="cls-5" points="465.69 590.74 511.29 411.25 583.89 391.97 540.7 555.83 602.46 544.03 648.66 374.77 732.03 352.63 674.7 552.97 627.84 629.1 586.26 635.29 555.31 748.05 485.43 754.79 514.05 646.05 482.57 650.74 465.69 590.74"/><path class="cls-5" d="M762.34,633.15l75.83-10.49,67.2-213.42-80.61,18Zm-91.62,35.23C694.05,588.21,717.67,506,742.31,422L795,335.92l198.45-52.71,25.87,74.12c-34.88,105-68.23,206.6-100.92,305L868.7,717.8,690.74,735Z"/><path class="cls-5" d="M938.85,711l122.37-363.48,69.72-100.85,264-70.11,33.87,85.13L1266.48,679.4l-125.43,12.11,134.68-364.87L1169,350.44,1045,700.78Z"/><path class="cls-5" d="M1514.65,529.06l136-18.81,129.89-296.18-147.94,33Zm-198,145.5L1528,141.23l422-112.08,46.73,99.93S1859.53,422.29,1796.09,559.3l-93.06,78Z"/><path class="cls-5" d="M124.27,1147.94l58.85-269.77,49.82-2-47.6,210.67L276,1094.3l-17.19,70.22Z"/><polygon class="cls-5" points="278.67 1166.97 351.52 871.3 411.94 868.84 333.73 1173.75 278.67 1166.97"/><path class="cls-5" d="M355.35,1176.42l64.61-248L457.27,867l103.35-4.21,15.23,42.42,34.21-44.44,106.67-4.34,39.06,101.65L673.32,1215.6l-76.83-9.46,68.25-224.37L655,948.16H642.05l-46.57,48.76-59.14,201.81-67.89-8.36,59.41-210.78-14.41-31.5H496.29L467,993.86l-51.68,189.95Z"/><polygon class="cls-5" points="703.72 1219.35 823.11 852.08 918.89 848.17 788.75 1229.83 703.72 1219.35"/><path class="cls-5" d="M921.45,948.3l35.17-101.66,400.46-16.33-48.7,118.19-134.07-.07L1052,1262.27l-105.61-13,111.68-300.89Z"/><path class="cls-5" d="M1263.83,1175.94l271.66,22.45,28.36-60.23-197.95-12.33L1322.8,1036l59.55-142.1,89.24-68.26,447.68-18.25L1848,948.78l-329.62-.17-27.59,61.59,232,4.89,51.65,80.18c-31.59,61-61.76,121.61-91.35,180.13l-72.11,55.75-392.56-48.38Z"/><path class="cls-6" d="M177.58,604l31.11-6.28,15.61-25.22L227.78,557l-42.39,9.46ZM94.37,790l57.79-287,119.57-31.76L286,525.09l-22.2,99-21.12,22.54,8.6,33.47L238,739.55l-25.38,39Zm67.71-111.8-7.53,36.23,28.2-3.9,17.21-24,3.16-14.91Z"/><path class="cls-6" d="M249.39,775l57.78-254.87,33.57-67.28,137.82-36.61L456.22,506l-95.15,21.22-9.77,41.68,88.33-17.83-21.25,86.26-86.45,13.78-9.4,40.06,90.63-12.54L392.61,761.2Z"/><polygon class="cls-6" points="458.99 588.84 504.6 409.35 577.2 390.07 534 553.93 595.77 542.12 641.97 372.87 725.33 350.73 668 551.07 621.15 627.2 579.57 633.39 548.62 746.14 478.73 752.89 507.36 644.15 475.87 648.84 458.99 588.84"/><path class="cls-6" d="M755.64,631.25l75.83-10.49,67.2-213.43-80.61,18ZM664,666.48c23.33-80.18,47-162.42,71.59-246.37L788.27,334l198.45-52.7,25.88,74.12c-34.89,105-68.23,206.6-100.93,305L862,715.89,684,733.07Z"/><path class="cls-6" d="M932.16,709.12l122.37-363.48,69.72-100.86,264-70.1,33.88,85.13L1259.78,677.5l-125.43,12.1L1269,324.74l-106.73,23.8-124,350.33Z"/><path class="cls-6" d="M1508,527.16l136-18.82,129.88-296.18-147.94,33Zm-198,145.5,211.41-533.34,422-112.08,46.72,99.94s-137.25,293.21-200.69,430.21l-93.06,78Z"/><path class="cls-6" d="M117.57,1146l58.86-269.78,49.81-2L178.65,1084.9l90.63,7.49-17.18,70.22Z"/><polygon class="cls-6" points="271.98 1165.06 344.82 869.4 405.25 866.93 327.03 1171.85 271.98 1165.06"/><path class="cls-6" d="M348.65,1174.51l64.61-248,37.31-61.43,103.35-4.21,15.23,42.41,34.21-44.43L710,854.51l39.06,101.65L666.63,1213.7l-76.84-9.47,68.26-224.36-9.77-33.62H635.35L588.78,995l-59.13,201.82-67.89-8.37,59.4-210.77-14.4-31.5H489.6L460.3,992l-51.68,190Z"/><polygon class="cls-6" points="697.02 1217.45 816.42 850.17 912.2 846.27 782.06 1227.93 697.02 1217.45"/><path class="cls-6" d="M914.76,946.39l35.17-101.66,400.45-16.32-48.7,118.19-134.07-.07-122.29,313.84-105.61-13,111.68-300.9Z"/><path class="cls-6" d="M1257.13,1174l271.66,22.45,28.36-60.23-197.94-12.32-43.1-89.82L1375.66,892l89.24-68.26,447.67-18.25-71.29,141.39-329.62-.17-27.59,61.59,232,4.89,51.65,80.18c-31.59,61.05-61.75,121.61-91.34,180.13l-72.11,55.75-392.56-48.38Z"/><path class="cls-7" d="M170.89,602.06l31.1-6.27,15.61-25.23,3.48-15.51-42.39,9.45Zm-83.22,186,57.79-287L265,469.29l14.27,53.9-22.2,99L236,644.74l8.59,33.48-13.24,59.42-25.37,39Zm67.72-111.79-7.54,36.23,28.2-3.91,17.22-24,3.15-14.9Z"/><path class="cls-7" d="M242.69,773.12l57.78-254.87L334,451l137.82-36.6L449.53,504.1l-95.15,21.22L344.6,567l88.34-17.82-21.25,86.26-86.46,13.78-9.39,40,90.63-12.54L385.92,759.3Z"/><polygon class="cls-7" points="452.29 586.93 497.9 407.44 570.5 388.16 527.31 552.02 589.07 540.22 635.27 370.96 718.63 348.82 661.31 549.17 614.45 625.29 572.87 631.49 541.92 744.24 472.04 750.98 500.66 642.24 469.17 646.93 452.29 586.93"/><path class="cls-7" d="M749,629.35l75.82-10.5L892,405.43l-80.61,18Zm-91.63,35.22c23.34-80.17,47-162.41,71.59-246.37l52.66-86.09L980,279.4l25.87,74.12c-34.88,105-68.23,206.6-100.93,305L855.31,714l-178,17.18Z"/><path class="cls-7" d="M925.46,707.22l122.37-363.49,69.72-100.85,264-70.1,33.88,85.12L1253.08,675.59,1127.66,687.7l134.68-364.87-106.72,23.8L1031.64,697Z"/><path class="cls-7" d="M1501.26,525.25l136-18.81,129.89-296.18-147.94,33Zm-198,145.5,211.41-533.33,422-112.08,46.72,99.93S1846.14,418.48,1782.7,555.49l-93.07,78Z"/><path class="cls-7" d="M110.88,1144.13l58.85-269.77,49.82-2L172,1083l90.64,7.49-17.19,70.22Z"/><polygon class="cls-7" points="265.28 1163.16 338.13 867.49 398.55 865.03 320.34 1169.95 265.28 1163.16"/><path class="cls-7" d="M342,1172.61l64.61-248,37.31-61.44L547.22,859l15.23,42.42L596.67,857l106.66-4.35,39.06,101.65L659.93,1211.8l-76.83-9.47L651.35,978l-9.76-33.61H628.66L582.09,993.1,523,1194.92l-67.89-8.37,59.41-210.78-14.41-31.5H482.9l-29.29,45.79-51.68,190Z"/><polygon class="cls-7" points="690.33 1215.54 809.72 848.27 905.5 844.37 775.36 1226.02 690.33 1215.54"/><path class="cls-7" d="M908.06,944.49l35.17-101.66,400.45-16.32L1295,944.69l-134.07-.07-122.3,313.85-105.61-13,111.68-300.89Z"/><path class="cls-7" d="M1250.44,1172.13l271.66,22.45,28.36-60.23-198-12.32-43.1-89.82L1369,890.1l89.24-68.26,447.68-18.25L1834.59,945,1505,944.8l-27.58,61.59,232,4.89,51.65,80.18c-31.59,61-61.76,121.61-91.35,180.13l-72.11,55.76L1205,1279Z"/><path class="cls-8" d="M164.19,600.16l31.11-6.28,15.61-25.22,3.48-15.52L172,562.6ZM81,786.18l57.79-287,119.57-31.75,14.27,53.9-22.2,99-21.12,22.54,8.59,33.47-13.23,59.43-25.38,39Zm67.72-111.8-7.53,36.23,28.2-3.9,17.21-24,3.16-14.91Z"/><path class="cls-8" d="M236,771.22l57.78-254.88,33.57-67.28,137.83-36.6L442.83,502.2l-95.15,21.22L337.9,565.1l88.34-17.83L405,633.53l-86.45,13.78-9.4,40.06,90.63-12.54-20.55,82.56Z"/><polygon class="cls-8" points="445.6 585.03 491.21 405.54 563.8 386.26 520.61 550.12 582.38 538.32 628.58 369.06 711.94 346.92 654.61 547.26 607.75 623.39 566.18 629.58 535.22 742.33 465.34 749.08 493.97 640.34 462.48 645.03 445.6 585.03"/><path class="cls-8" d="M742.25,627.44,818.08,617l67.2-213.42-80.61,18Zm-91.62,35.23c23.33-80.17,47-162.41,71.59-246.37l52.66-86.1,198.45-52.7,25.87,74.12c-34.88,105-68.23,206.6-100.92,305l-49.67,55.44-178,17.18Z"/><path class="cls-8" d="M918.76,705.31l122.38-363.48L1110.86,241l264-70.11L1408.69,256l-162.3,417.69L1121,685.8l134.69-364.87-106.73,23.8-124,350.33Z"/><path class="cls-8" d="M1494.56,523.35l136-18.82,129.89-296.17-147.94,33Zm-198,145.5,211.4-533.33L1930,23.44l46.72,99.93S1839.44,416.58,1776,553.59l-93.06,78Z"/><path class="cls-8" d="M104.18,1142.23,163,872.45l49.81-2-47.59,210.67,90.63,7.49-17.19,70.23Z"/><polygon class="cls-8" points="258.58 1161.26 331.43 865.59 391.85 863.13 313.64 1168.04 258.58 1161.26"/><path class="cls-8" d="M335.26,1170.71l64.61-248,37.31-61.44,103.35-4.21,15.23,42.42L590,855.05l106.67-4.35L735.7,952.35l-82.46,257.54-76.84-9.47,68.26-224.36-9.77-33.62H622L575.39,991.2,516.25,1193l-67.88-8.36,59.4-210.78-14.4-31.5H476.2l-29.29,45.79L395.23,1178.1Z"/><polygon class="cls-8" points="683.63 1213.64 803.02 846.37 898.81 842.46 768.66 1224.12 683.63 1213.64"/><path class="cls-8" d="M901.37,942.58l35.17-101.65L1337,824.6l-48.7,118.19-134.07-.07-122.29,313.84-105.61-13L1038,942.66Z"/><path class="cls-8" d="M1243.74,1170.23l271.66,22.45,28.36-60.23-198-12.33-43.1-89.82,59.56-142.11,89.24-68.26,447.67-18.24-71.29,141.38-329.62-.17-27.59,61.59,232,4.89,51.65,80.18c-31.59,61-61.76,121.61-91.34,180.13l-72.12,55.75-392.56-48.38Z"/><path class="cls-9" d="M157.49,598.26,188.6,592l15.61-25.23,3.48-15.51-42.39,9.45Zm-83.21,186,57.79-287,119.57-31.76,14.27,53.9-22.21,99-21.11,22.54,8.59,33.47-13.24,59.43-25.38,39ZM142,672.48l-7.53,36.23,28.2-3.9,17.22-24L183,665.94Z"/><path class="cls-9" d="M229.3,769.31l57.78-254.87,33.57-67.28,137.82-36.61-22.34,89.74L341,521.51l-9.78,41.69,88.33-17.83L398.3,631.63l-86.46,13.78-9.4,40.06,90.63-12.54-20.55,82.56Z"/><polygon class="cls-9" points="438.9 583.13 484.51 403.64 557.11 384.36 513.92 548.22 575.68 536.41 621.88 367.15 705.24 345.01 647.92 545.36 601.06 621.48 559.48 627.68 528.53 740.43 458.65 747.18 487.27 638.44 455.78 643.13 438.9 583.13"/><path class="cls-9" d="M735.55,625.54l75.83-10.49,67.21-213.43L798,419.6Zm-91.62,35.22c23.34-80.17,47-162.41,71.59-246.37l52.66-86.09,198.46-52.71,25.87,74.13c-34.88,105-68.23,206.59-100.93,305l-49.66,55.44L664,727.36Z"/><path class="cls-9" d="M912.07,703.41l122.37-363.49,69.72-100.85,264-70.1L1402,254.1,1239.69,671.79l-125.42,12.1L1249,319l-106.72,23.8-124,350.33Z"/><path class="cls-9" d="M1487.87,521.44l136-18.81,129.89-296.18-147.94,33Zm-198,145.5,211.41-533.33,422-112.08L1970,121.47S1832.75,414.68,1769.3,551.68l-93.06,78Z"/><path class="cls-9" d="M97.48,1140.32l58.86-269.77,49.82-2-47.6,210.67,90.63,7.49L232,1156.9Z"/><polygon class="cls-9" points="251.89 1159.35 324.74 863.69 385.16 861.22 306.95 1166.14 251.89 1159.35"/><path class="cls-9" d="M328.56,1168.8l64.62-248,37.3-61.43,103.35-4.22,15.23,42.42,34.22-44.43,106.66-4.35L729,950.45,646.54,1208l-76.84-9.47L638,974.16l-9.76-33.62H615.27L568.7,989.29l-59.14,201.82-67.89-8.37L501.08,972l-14.41-31.5H469.51l-29.3,45.78-51.68,190Z"/><polygon class="cls-9" points="676.94 1211.74 796.33 844.46 892.11 840.56 761.97 1222.21 676.94 1211.74"/><path class="cls-9" d="M894.67,940.68,929.84,839l400.45-16.32L1281.6,940.88l-134.08-.07-122.29,313.85-105.61-13L1031.3,940.75Z"/><path class="cls-9" d="M1237,1168.32l271.66,22.45,28.37-60.23-198-12.32L1296,1028.4l59.55-142.11L1444.81,818l447.68-18.25L1821.2,941.17,1491.57,941l-27.58,61.6,232,4.89,51.65,80.18c-31.59,61-61.76,121.61-91.35,180.13l-72.11,55.75-392.56-48.38Z"/><path class="cls-10" d="M150.8,596.35l31.1-6.28,15.62-25.22L201,549.34l-42.39,9.45Zm-83.22,186,57.79-287,119.57-31.75,14.27,53.9-22.2,99L215.89,639l8.59,33.48-13.23,59.42-25.38,39Zm67.72-111.8-7.53,36.23,28.2-3.9,17.21-24L176.34,664Z"/><path class="cls-10" d="M222.6,767.41l57.78-254.87L314,445.25l137.83-36.6-22.34,89.74-95.15,21.22-9.78,41.68,88.34-17.83L391.6,629.73l-86.46,13.78-9.39,40L386.38,671l-20.55,82.56Z"/><polygon class="cls-10" points="432.21 581.22 477.81 401.73 550.41 382.45 507.22 546.31 568.98 534.51 615.18 365.25 698.55 343.11 641.22 543.46 594.36 619.58 552.78 625.77 521.83 738.53 451.95 745.27 480.58 636.53 449.09 641.22 432.21 581.22"/><path class="cls-10" d="M728.86,623.63l75.83-10.49,67.2-213.42-80.61,18Zm-91.62,35.23c23.33-80.17,47-162.41,71.59-246.37l52.66-86.09,198.45-52.71,25.87,74.12c-34.88,105-68.23,206.6-100.92,305l-49.67,55.44-178,17.17Z"/><path class="cls-10" d="M905.37,701.51,1027.74,338l69.72-100.85,264-70.11,33.87,85.13L1233,669.88,1107.57,682l134.69-364.87-106.73,23.8-124,350.34Z"/><path class="cls-10" d="M1481.17,519.54l136-18.81L1747,204.55l-147.94,33Zm-198,145.5,211.41-533.33,422-112.08,46.73,99.93s-137.25,293.21-200.69,430.22l-93.06,78Z"/><path class="cls-10" d="M90.79,1138.42l58.86-269.77,49.81-2-47.6,210.67,90.64,7.49L225.31,1155Z"/><polygon class="cls-10" points="245.19 1157.45 318.04 861.78 378.46 859.32 300.25 1164.23 245.19 1157.45"/><path class="cls-10" d="M321.87,1166.9l64.61-248,37.31-61.44,103.35-4.21,15.23,42.42,34.21-44.44,106.67-4.34,39.06,101.65-82.47,257.54L563,1196.62l68.25-224.37-9.76-33.61H608.57L562,987.39,502.86,1189.2,435,1180.84l59.4-210.78L480,938.56H462.81l-29.29,45.79-51.68,189.95Z"/><polygon class="cls-10" points="670.24 1209.83 789.63 842.56 885.42 838.66 755.27 1220.31 670.24 1209.83"/><path class="cls-10" d="M888,938.78l35.16-101.66,400.46-16.33L1274.9,939l-134.07-.07-122.3,313.85-105.61-13L1024.6,938.85Z"/><path class="cls-10" d="M1230.35,1166.42,1502,1188.87l28.36-60.23-197.95-12.33-43.1-89.82,59.55-142.1,89.24-68.26,447.68-18.25L1814.5,939.26l-329.62-.17-27.59,61.59,232,4.89,51.65,80.18c-31.59,61-61.76,121.61-91.35,180.13l-72.11,55.75-392.56-48.37Z"/><path class="cls-11" d="M144.1,594.45l31.11-6.28L190.82,563l3.48-15.52-42.39,9.46Zm-83.21,186,57.79-287,119.57-31.75,14.26,53.9-22.2,99-21.12,22.54,8.6,33.47L204.55,730l-25.38,39Zm67.71-111.8-7.53,36.23,28.2-3.9,17.21-24,3.16-14.91Z"/><path class="cls-11" d="M215.91,765.51l57.78-254.88,33.57-67.28,137.82-36.61-22.34,89.75L327.6,517.71l-9.78,41.68,88.33-17.83L384.9,627.82,298.45,641.6l-9.4,40.06,90.63-12.54-20.55,82.56Z"/><polygon class="cls-11" points="425.51 579.32 471.12 399.83 543.72 380.55 500.53 544.41 562.29 532.6 608.49 363.35 691.85 341.21 634.52 541.55 587.67 617.68 546.09 623.87 515.14 736.62 445.25 743.37 473.88 634.63 442.39 639.32 425.51 579.32"/><path class="cls-11" d="M722.16,621.73,798,611.24l67.2-213.43-80.6,18ZM630.54,657c23.33-80.18,47-162.41,71.59-246.37l52.66-86.1,198.45-52.7,25.88,74.12c-34.88,105-68.23,206.6-100.93,305l-49.66,55.44-178,17.18Z"/><path class="cls-11" d="M898.68,699.6l122.37-363.48,69.72-100.86,264-70.1,33.88,85.13L1226.3,668l-125.42,12.1,134.68-364.86L1128.84,339l-124,350.33Z"/><path class="cls-11" d="M1474.47,517.64l136-18.82,129.89-296.17-147.94,33Zm-198,145.5,211.41-533.33,422-112.09,46.72,99.94s-137.25,293.21-200.69,430.21l-93.06,78Z"/><path class="cls-11" d="M84.09,1136.52,143,866.74l49.81-2-47.59,210.67,90.63,7.49-17.18,70.23Z"/><polygon class="cls-11" points="238.5 1155.55 311.35 859.88 371.76 857.42 293.56 1162.33 238.5 1155.55"/><path class="cls-11" d="M315.17,1165l64.61-248,37.31-61.44,103.35-4.21,15.23,42.41,34.21-44.43L676.55,845l39.06,101.65-82.46,257.54-76.84-9.47,68.26-224.36-9.77-33.62H601.87L555.3,985.48,496.17,1187.3l-67.89-8.37,59.4-210.77-14.4-31.5H456.12l-29.3,45.78-51.68,190Z"/><polygon class="cls-11" points="663.54 1207.93 782.94 840.66 878.72 836.75 748.58 1218.41 663.54 1207.93"/><path class="cls-11" d="M881.28,936.87l35.17-101.66,400.45-16.32-48.7,118.19L1134.13,937l-122.29,313.84-105.61-13,111.68-300.9Z"/><path class="cls-11" d="M1223.65,1164.51,1495.31,1187l28.37-60.24-198-12.32-43.1-89.82,59.55-142.11,89.24-68.26L1879.09,796l-71.28,141.38-329.63-.17-27.58,61.59,232,4.89,51.65,80.18c-31.59,61.05-61.75,121.61-91.34,180.13l-72.11,55.75-392.56-48.38Z"/><path class="cls-12" d="M137.41,592.54l31.1-6.27L184.12,561l3.48-15.51L145.21,555Zm-83.22,186,57.79-287,119.57-31.76,14.27,53.9-22.2,99L202.5,635.23l8.59,33.47-13.24,59.42-25.37,39Zm67.72-111.8L114.38,703l28.19-3.91,17.22-24L163,660.23Z"/><path class="cls-12" d="M209.21,763.6,267,508.73l33.57-67.29,137.82-36.6-22.33,89.74L320.9,515.8l-9.78,41.69,88.34-17.83-21.25,86.26L291.75,639.7l-9.39,40L373,667.21l-20.55,82.57Z"/><polygon class="cls-12" points="418.81 577.41 464.42 397.93 537.02 378.64 493.83 542.5 555.59 530.7 601.79 361.44 685.16 339.3 627.83 539.65 580.97 615.77 539.39 621.97 508.44 734.72 438.56 741.46 467.18 632.73 435.69 637.42 418.81 577.41"/><path class="cls-12" d="M715.47,619.83l75.83-10.5,67.2-213.42-80.61,18Zm-91.63,35.22c23.34-80.17,47-162.41,71.59-246.37l52.66-86.09,198.46-52.71L972.42,344C937.54,449,904.19,550.6,871.5,649l-49.67,55.44-178,17.18Z"/><path class="cls-12" d="M892,697.7l122.37-363.49,69.72-100.85,264-70.1,33.88,85.13L1219.6,666.07l-125.42,12.11,134.68-364.87-106.72,23.8-124,350.34Z"/><path class="cls-12" d="M1467.78,515.73l136-18.81,129.89-296.18-147.94,33Zm-198,145.5L1481.16,127.9l422-112.08,46.72,99.93S1812.66,409,1749.22,546l-93.07,78Z"/><path class="cls-12" d="M77.4,1134.61l58.85-269.77,49.82-2-47.6,210.67,90.64,7.49-17.19,70.22Z"/><polygon class="cls-12" points="231.8 1153.64 304.65 857.98 365.07 855.51 286.86 1160.43 231.8 1153.64"/><path class="cls-12" d="M308.48,1163.09l64.61-248,37.31-61.44,103.34-4.21L529,891.87l34.21-44.43,106.67-4.35,39,101.65-82.46,257.54-76.83-9.47,68.25-224.36-9.76-33.62H595.18l-46.57,48.76L489.47,1185.4,421.58,1177,481,966.25l-14.41-31.5H449.42l-29.29,45.78-51.68,190Z"/><polygon class="cls-12" points="656.85 1206.02 776.24 838.75 872.02 834.85 741.88 1216.5 656.85 1206.02"/><path class="cls-12" d="M874.58,935l35.17-101.66L1310.2,817l-48.69,118.18-134.07-.07L1005.14,1249l-105.61-13L1011.21,935Z"/><path class="cls-12" d="M1217,1162.61l271.66,22.45,28.36-60.23-198-12.32-43.1-89.82,59.55-142.11,89.24-68.26,447.68-18.25-71.29,141.39-329.63-.18-27.58,61.59,232,4.89,51.65,80.18c-31.59,61-61.76,121.61-91.35,180.14l-72.11,55.75-392.56-48.38Z"/><path class="cls-13" d="M130.71,590.64l31.11-6.28,15.61-25.22,3.48-15.51-42.39,9.45Zm-83.22,186,57.8-287,119.56-31.75,14.27,53.9-22.2,99L195.8,633.32l8.6,33.47-13.24,59.43-25.38,39Zm67.72-111.8-7.53,36.23,28.2-3.9,17.21-24,3.16-14.91Z"/><path class="cls-13" d="M202.52,761.7l57.77-254.88,33.57-67.28,137.83-36.6-22.34,89.74L314.2,513.9l-9.77,41.68,88.33-17.83L371.51,624l-86.45,13.78-9.4,40.06,90.63-12.54-20.55,82.56Z"/><polygon class="cls-13" points="412.12 575.51 457.73 396.02 530.33 376.74 487.13 540.6 548.89 528.8 595.1 359.54 678.46 337.4 621.13 537.74 574.27 613.87 532.7 620.06 501.75 732.82 431.86 739.56 460.49 630.82 429 635.51 412.12 575.51"/><path class="cls-13" d="M708.77,617.92l75.83-10.49L851.8,394l-80.61,18Zm-91.62,35.23c23.33-80.17,47-162.41,71.59-246.37l52.66-86.1L939.85,268l25.87,74.12c-34.88,105-68.23,206.6-100.92,305l-49.66,55.45-178,17.17Z"/><path class="cls-13" d="M885.28,695.79l122.38-363.48,69.72-100.85,264-70.11,33.88,85.13L1212.91,664.17l-125.43,12.11,134.69-364.87-106.73,23.8-124,350.34Z"/><path class="cls-13" d="M1461.08,513.83l136-18.81,129.88-296.18-147.94,33Zm-198,145.5L1474.46,126l422-112.08,46.72,99.93S1806,407.06,1742.52,544.07l-93.06,78Z"/><path class="cls-13" d="M70.7,1132.71l58.86-269.77,49.81-2-47.59,210.67,90.63,7.5-17.19,70.22Z"/><polygon class="cls-13" points="225.1 1151.74 297.95 856.07 358.37 853.61 280.16 1158.52 225.1 1151.74"/><path class="cls-13" d="M301.78,1161.19l64.61-248,37.31-61.44,103.35-4.21L522.28,890l34.21-44.44,106.67-4.34,39.06,101.65-82.46,257.53-76.84-9.46,68.26-224.37-9.77-33.61H588.48l-46.57,48.76-59.14,201.81-67.88-8.36,59.4-210.78-14.4-31.5H442.72l-29.29,45.79-51.68,189.95Z"/><polygon class="cls-13" points="650.15 1204.12 769.54 836.85 865.33 832.94 735.19 1214.6 650.15 1204.12"/><path class="cls-13" d="M867.89,933.07l35.17-101.66,400.45-16.33-48.7,118.19-134.07-.07L998.45,1247l-105.61-13,111.68-300.89Z"/><path class="cls-13" d="M1210.26,1160.71l271.66,22.45,28.36-60.23-197.94-12.33-43.1-89.82,59.55-142.1L1418,810.42l447.67-18.25-71.29,141.38-329.62-.17L1437.2,995l232,4.89,51.65,80.18c-31.59,61-61.76,121.61-91.34,180.13l-72.11,55.75-392.57-48.38Z"/><path class="cls-14" d="M124,588.74l31.11-6.28,15.61-25.23,3.48-15.51-42.39,9.46Zm-83.21,186,57.79-287L218.16,456l14.27,53.9-22.2,99-21.12,22.54,8.59,33.47-13.24,59.43-25.37,39ZM108.52,663,101,699.19l28.2-3.9,17.22-24,3.15-14.91Z"/><path class="cls-14" d="M195.82,759.79,253.6,504.92l33.57-67.28L425,401l-22.34,89.75L307.51,512l-9.78,41.69,88.33-17.83-21.24,86.26-86.46,13.78L269,676l90.63-12.54L339,746Z"/><polygon class="cls-14" points="405.42 573.61 451.03 394.12 523.63 374.84 480.44 538.7 542.2 526.89 588.4 357.64 671.76 335.5 614.44 535.84 567.58 611.97 526 618.16 495.05 730.91 425.17 737.66 453.79 628.92 422.3 633.61 405.42 573.61"/><path class="cls-14" d="M702.08,616l75.82-10.49L845.11,392.1l-80.61,18Zm-91.63,35.23c23.34-80.18,47-162.42,71.59-246.37l52.66-86.1,198.46-52.7L959,340.2c-34.88,105-68.23,206.6-100.93,305l-49.66,55.44-178,17.18Z"/><path class="cls-14" d="M878.59,693.89,1001,330.41l69.72-100.86,264-70.1,33.88,85.13L1206.21,662.27l-125.42,12.1,134.68-364.86-106.72,23.8-124,350.33Z"/><path class="cls-14" d="M1454.39,511.93l136-18.82,129.89-296.18-147.94,33Zm-198,145.5,211.41-533.34L1889.79,12,1936.51,112s-137.24,293.21-200.69,430.21l-93.06,78Z"/><path class="cls-14" d="M64,1130.81,122.86,861l49.82-2-47.6,210.67,90.63,7.49-17.18,70.22Z"/><polygon class="cls-14" points="218.41 1149.83 291.26 854.17 351.68 851.71 273.47 1156.62 218.41 1149.83"/><path class="cls-14" d="M295.08,1159.28l64.62-248L397,849.86l103.35-4.22,15.23,42.42,34.22-44.43,106.66-4.35,39.06,101.65-82.46,257.54L536.23,1189l68.25-224.36L594.72,931H581.79l-46.57,48.76-59.14,201.82-67.89-8.37L467.6,962.45,453.19,931H436l-29.3,45.78-51.67,190Z"/><polygon class="cls-14" points="643.46 1202.22 762.85 834.95 858.63 831.04 728.49 1212.7 643.46 1202.22"/><path class="cls-14" d="M861.19,931.16,896.36,829.5l400.45-16.32-48.69,118.19-134.07-.08-122.3,313.85-105.61-13L997.82,931.23Z"/><path class="cls-14" d="M1203.56,1158.8l271.66,22.45,28.37-60.23-197.95-12.32-43.1-89.82,59.55-142.11,89.24-68.26L1859,790.26l-71.29,141.39-329.63-.17-27.58,61.59,232,4.89,51.65,80.18c-31.59,61-61.76,121.61-91.35,180.13L1550.66,1314l-392.56-48.38Z"/><path class="cls-15" d="M117.32,586.83l31.11-6.27L164,555.33l3.48-15.51-42.39,9.45Zm-83.22,186,57.79-287,119.57-31.76L225.73,508l-22.2,99-21.12,22.54L191,663l-13.23,59.42-25.38,39Zm67.72-111.79-7.53,36.23,28.2-3.91,17.21-24,3.16-14.91Z"/><path class="cls-15" d="M189.12,757.89,246.9,503l33.57-67.29,137.83-36.6L396,488.87l-95.15,21.22L291,551.77,379.37,534l-21.25,86.26L271.66,634l-9.39,40L352.9,661.5l-20.55,82.57Z"/><polygon class="cls-15" points="398.73 571.7 444.33 392.21 516.93 372.93 473.74 536.79 535.5 524.99 581.71 355.73 665.07 333.59 607.74 533.94 560.88 610.06 519.3 616.25 488.35 729.01 418.47 735.75 447.1 627.01 415.61 631.71 398.73 571.7"/><path class="cls-15" d="M695.38,614.12l75.83-10.5,67.2-213.42-80.61,18Zm-91.62,35.22c23.33-80.17,47-162.41,71.59-246.37L728,316.88l198.45-52.71,25.87,74.12c-34.88,105-68.23,206.6-100.92,305l-49.67,55.44-178,17.18Z"/><path class="cls-15" d="M871.89,692,994.26,328.5,1064,227.65l264-70.1,33.87,85.12-162.3,417.69-125.43,12.11L1208.78,307.6l-106.73,23.8-124,350.34Z"/><path class="cls-15" d="M1447.69,510l136-18.81L1713.55,195l-147.94,33Zm-198,145.5,211.41-533.33,422-112.08L1929.82,110s-137.25,293.21-200.69,430.22l-93.06,78Z"/><path class="cls-15" d="M57.31,1128.9l58.86-269.77,49.81-2-47.59,210.67,90.63,7.49-17.19,70.22Z"/><polygon class="cls-15" points="211.71 1147.93 284.56 852.26 344.98 849.8 266.77 1154.71 211.71 1147.93"/><path class="cls-15" d="M288.39,1157.38l64.61-248L390.31,848l103.35-4.21,15.23,42.42,34.21-44.43,106.67-4.35L688.83,939l-82.47,257.54-76.83-9.47,68.25-224.37L588,929.12H575.09l-46.57,48.76-59.14,201.82-67.88-8.37,59.4-210.78L446.5,929H429.33L400,974.82l-51.68,189.95Z"/><polygon class="cls-15" points="636.76 1200.31 756.15 833.04 851.94 829.14 721.79 1210.79 636.76 1200.31"/><path class="cls-15" d="M854.5,929.26,889.66,827.6l400.46-16.32-48.7,118.18-134.07-.07-122.3,313.85-105.6-13L991.13,929.33Z"/><path class="cls-15" d="M1196.87,1156.9l271.66,22.45,28.36-60.23-198-12.32-43.1-89.82,59.55-142.11,89.25-68.26,447.67-18.25L1781,929.75l-329.62-.18-27.59,61.59,232,4.89,51.65,80.18c-31.59,61-61.76,121.61-91.34,180.13L1544,1312.12l-392.56-48.38Z"/><path class="cls-16" d="M110.62,584.93l31.11-6.28,15.61-25.22,3.48-15.52-42.39,9.46ZM27.41,771l57.79-287,119.57-31.75L219,506.06l-22.2,99-21.12,22.54,8.6,33.47-13.24,59.43-25.38,39Zm67.71-111.8-7.53,36.23,28.2-3.9,17.21-24,3.16-14.91Z"/><path class="cls-16" d="M182.43,756l57.78-254.88,33.57-67.28,137.82-36.6L389.26,487l-95.14,21.22-9.78,41.68L372.67,532,351.43,618.3,265,632.08l-9.4,40.06L346.2,659.6l-20.55,82.56Z"/><polygon class="cls-16" points="392.03 569.8 437.64 390.31 510.24 371.03 467.05 534.89 528.81 523.09 575.01 353.83 658.37 331.69 601.04 532.03 554.19 608.16 512.61 614.35 481.66 727.1 411.77 733.85 440.4 625.11 408.91 629.8 392.03 569.8"/><path class="cls-16" d="M688.68,612.21l75.83-10.49L831.72,388.3l-80.61,18Zm-91.62,35.23C620.4,567.27,644,485,668.65,401.07L721.31,315l198.46-52.7,25.87,74.12c-34.88,105-68.23,206.6-100.93,305l-49.66,55.44L617.09,714Z"/><path class="cls-16" d="M865.2,690.08,987.57,326.6l69.72-100.86,264-70.1,33.88,85.13L1192.82,658.46,1067.4,670.57,1202.08,305.7l-106.72,23.8-124,350.33Z"/><path class="cls-16" d="M1441,508.12l136-18.82,129.89-296.17-147.94,33Zm-198,145.5,211.41-533.33,422-112.08,46.72,99.93s-137.25,293.21-200.69,430.22l-93.06,78Z"/><path class="cls-16" d="M50.61,1127l58.86-269.78,49.82-2-47.6,210.67,90.63,7.49-17.18,70.23Z"/><polygon class="cls-16" points="205.02 1146.03 277.87 850.36 338.29 847.9 260.07 1152.81 205.02 1146.03"/><path class="cls-16" d="M281.69,1155.48l64.62-248,37.3-61.44L487,841.84l15.23,42.41,34.21-44.43,106.67-4.35,39.06,101.65-82.46,257.54-76.84-9.47,68.26-224.36-9.77-33.62H568.4L521.83,976l-59.14,201.82-67.89-8.36,59.4-210.78-14.4-31.5H422.64l-29.3,45.78-51.68,190Z"/><polygon class="cls-16" points="630.07 1198.41 749.46 831.14 845.24 827.23 715.1 1208.89 630.07 1198.41"/><path class="cls-16" d="M847.8,927.35,883,825.7l400.45-16.33-48.7,118.19-134.07-.07L978.36,1241.33l-105.61-13L984.43,927.43Z"/><path class="cls-16" d="M1190.17,1155l271.66,22.46,28.37-60.23-198-12.33-43.1-89.82L1308.7,873l89.24-68.26,447.67-18.24-71.28,141.38-329.63-.17-27.58,61.59,232,4.89,51.65,80.18c-31.58,61.05-61.75,121.61-91.34,180.13l-72.11,55.75-392.56-48.38Z"/><path class="cls-17" d="M103.93,583l31.1-6.28,15.61-25.23L154.13,536l-42.39,9.45Zm-83.22,186L78.5,482l119.57-31.76,14.27,53.9-22.2,99L169,625.71l8.59,33.47-13.24,59.43-25.37,39Zm67.72-111.8L80.9,693.48l28.2-3.9,17.21-24,3.16-14.91Z"/><path class="cls-17" d="M175.73,754.08l57.78-254.87,33.57-67.28,137.83-36.61-22.34,89.74-95.15,21.22L277.64,548,366,530.14,344.73,616.4l-86.46,13.78-9.39,40.06,90.63-12.54L319,740.26Z"/><polygon class="cls-17" points="385.33 567.89 430.94 388.41 503.54 369.13 460.35 532.99 522.11 521.18 568.31 351.92 651.68 329.79 594.35 530.13 547.49 606.25 505.91 612.45 474.96 725.2 405.08 731.95 433.7 623.21 402.22 627.9 385.33 567.89"/><path class="cls-17" d="M682,610.31l75.83-10.49L825,386.39l-80.61,18Zm-91.62,35.22c23.33-80.17,47-162.41,71.59-246.37l52.66-86.09,198.45-52.71,25.87,74.13c-34.88,105-68.23,206.59-100.92,305L788.35,695l-178,17.18Z"/><path class="cls-17" d="M858.5,688.18,980.87,324.69l69.72-100.85,264-70.1,33.87,85.13-162.3,417.68L1060.7,668.66l134.68-364.87L1088.66,327.6l-124,350.33Z"/><path class="cls-17" d="M1434.3,506.21l136-18.81,129.89-296.18-147.94,33Zm-198,145.5,211.41-533.33L1869.7,6.3l46.72,99.94s-137.24,293.21-200.68,430.21l-93.06,78Z"/><path class="cls-17" d="M43.92,1125.09l58.85-269.77,49.82-2L105,1064l90.64,7.49-17.19,70.22Z"/><polygon class="cls-17" points="198.32 1144.12 271.17 848.46 331.59 845.99 253.38 1150.91 198.32 1144.12"/><path class="cls-17" d="M275,1153.57l64.61-248,37.31-61.43,103.35-4.22,15.23,42.42,34.21-44.43,106.67-4.35,39.06,101.65L593,1192.76l-76.83-9.47,68.25-224.36-9.76-33.62H561.7l-46.57,48.76L456,1175.88l-67.89-8.37,59.41-210.78L433.1,925.24H415.94L386.65,971,335,1161Z"/><polygon class="cls-17" points="623.37 1196.51 742.76 829.23 838.54 825.33 708.4 1206.98 623.37 1196.51"/><path class="cls-17" d="M841.1,925.45l35.17-101.66,400.45-16.32L1228,925.65,1094,925.58l-122.3,313.85-105.61-13L977.73,925.52Z"/><path class="cls-17" d="M1183.48,1153.09l271.66,22.45,28.36-60.23-198-12.32-43.1-89.82L1302,871.06l89.24-68.26,447.68-18.25-71.29,141.39L1438,925.76l-27.58,61.59,232,4.89,51.65,80.18c-31.59,61-61.76,121.62-91.35,180.14l-72.11,55.75L1138,1259.93Z"/><path class="cls-18" d="M97.23,581.12l31.11-6.28L144,549.62l3.48-15.51L105,543.56ZM14,767.14l57.8-287,119.56-31.75,14.27,53.9-22.2,99L162.32,623.8l8.6,33.48L157.68,716.7l-25.38,39Zm67.72-111.8L74.2,691.57l28.2-3.9,17.21-24,3.16-14.91Z"/><path class="cls-18" d="M169,752.18l57.78-254.87L260.39,430l137.82-36.6-22.34,89.74-95.15,21.22L271,546.06l88.33-17.83L338,614.5l-86.45,13.77-9.4,40.06,90.63-12.54-20.55,82.56Z"/><polygon class="cls-18" points="378.64 565.99 424.25 386.5 496.85 367.22 453.65 531.08 515.42 519.28 561.62 350.02 644.98 327.88 587.65 528.22 540.8 604.35 499.22 610.54 468.27 723.3 398.38 730.04 427.01 621.3 395.52 625.99 378.64 565.99"/><path class="cls-18" d="M675.29,608.4l75.83-10.49,67.2-213.42-80.61,18Zm-91.62,35.23c23.33-80.17,47-162.41,71.59-246.37l52.66-86.09,198.45-52.71,25.87,74.12c-34.88,105-68.23,206.6-100.92,305l-49.66,55.44-178,17.17Z"/><path class="cls-18" d="M851.81,686.27,974.18,322.79l69.72-100.85,264-70.11L1341.74,237,1179.43,654.65,1054,666.76l134.69-364.87L1082,325.69,958,676Z"/><path class="cls-18" d="M1427.6,504.31l136-18.81,129.88-296.18-147.94,33Zm-198,145.5L1441,116.48,1863,4.4l46.72,99.93S1772.48,397.54,1709,534.55l-93.06,78Z"/><path class="cls-18" d="M37.22,1123.19,96.08,853.42l49.81-2L98.3,1062.06l90.63,7.49-17.18,70.22Z"/><polygon class="cls-18" points="191.63 1142.22 264.47 846.55 324.89 844.09 246.68 1149 191.63 1142.22"/><path class="cls-18" d="M268.3,1151.67l64.61-248,37.31-61.44L473.57,838l15.23,42.42L523,836l106.67-4.34,39.06,101.65-82.46,257.54-76.84-9.47L577.7,957l-9.77-33.61H555l-46.57,48.76L449.3,1174l-67.89-8.36,59.4-210.78-14.4-31.5H409.25L380,969.11l-51.68,189.95Z"/><polygon class="cls-18" points="616.67 1194.6 736.07 827.33 831.85 823.42 701.71 1205.08 616.67 1194.6"/><path class="cls-18" d="M834.41,923.55l35.17-101.66L1270,805.56l-48.7,118.19-134.07-.07L965,1237.52l-105.61-13L971,923.62Z"/><path class="cls-18" d="M1176.78,1151.19l271.66,22.45,28.36-60.23-197.94-12.33-43.1-89.82,59.55-142.1,89.24-68.26,447.67-18.25L1760.93,924l-329.62-.17-27.59,61.59,232,4.89,51.65,80.18c-31.59,61-61.75,121.61-91.34,180.13l-72.11,55.75L1131.31,1258Z"/><path class="cls-19" d="M90.53,579.22l31.11-6.28,15.61-25.22,3.48-15.52-42.39,9.46Zm-83.21,186,57.79-287,119.57-31.75L199,500.35l-22.2,99L155.63,621.9l8.59,33.47L151,714.8l-25.37,39ZM75,653.44,67.5,689.67l28.2-3.9,17.22-24,3.15-14.91Z"/><path class="cls-19" d="M162.34,750.28,220.12,495.4l33.57-67.28,137.82-36.61-22.33,89.75L274,502.48l-9.78,41.68,88.34-17.83-21.25,86.26-86.46,13.78-9.4,40.06,90.63-12.54-20.54,82.56Z"/><polygon class="cls-19" points="371.94 564.09 417.55 384.6 490.15 365.32 446.96 529.18 508.72 517.37 554.92 348.12 638.28 325.98 580.96 526.32 534.1 602.45 492.52 608.64 461.57 721.39 391.69 728.14 420.31 619.4 388.82 624.09 371.94 564.09"/><path class="cls-19" d="M668.6,606.5,744.42,596l67.21-213.43-80.61,18ZM577,641.73c23.34-80.18,47-162.41,71.59-246.37l52.66-86.1,198.46-52.7,25.87,74.12c-34.88,105-68.23,206.6-100.93,305L775,691.14,597,708.32Z"/><path class="cls-19" d="M845.11,684.37,967.48,320.89,1037.2,220l264-70.1L1335,235.06,1172.73,652.75l-125.42,12.1L1182,300l-106.72,23.8-124,350.33Z"/><path class="cls-19" d="M1420.91,502.41l136-18.82,129.89-296.18-147.94,33Zm-198,145.5,211.41-533.34,422-112.08L1903,102.43s-137.24,293.21-200.68,430.21l-93.07,78Z"/><path class="cls-19" d="M30.53,1121.29,89.38,851.51l49.82-2L91.6,1060.15l90.64,7.49-17.19,70.22Z"/><polygon class="cls-19" points="184.93 1140.32 257.78 844.65 318.2 842.19 239.99 1147.1 184.93 1140.32"/><path class="cls-19" d="M261.61,1149.76l64.61-248,37.3-61.43,103.35-4.21,15.23,42.41,34.22-44.43L623,829.76,662,931.41,579.58,1189l-76.83-9.47L571,955.12l-9.76-33.62H548.31l-46.57,48.75L442.6,1172.07l-67.89-8.37,59.41-210.77-14.41-31.5H402.55L373.26,967.2l-51.68,190Z"/><polygon class="cls-19" points="609.98 1192.7 729.37 825.43 825.15 821.52 695.01 1203.18 609.98 1192.7"/><path class="cls-19" d="M827.71,921.64,862.88,820l400.45-16.32-48.69,118.19-134.07-.07-122.3,313.84-105.61-13,111.68-300.9Z"/><path class="cls-19" d="M1170.09,1149.28l271.66,22.45,28.36-60.23-197.95-12.32-43.1-89.82,59.55-142.11L1377.85,799l447.68-18.25-71.29,141.39L1424.61,922,1397,983.55l232,4.89,51.65,80.18c-31.59,61.05-61.76,121.61-91.35,180.13l-72.11,55.75-392.56-48.38Z"/><path class="cls-20" d="M83.84,577.31,115,571l15.61-25.23L134,530.3l-42.39,9.45ZM.62,763.33l57.79-287L178,444.54l14.27,53.9-22.2,99L148.93,620l8.59,33.48-13.23,59.42-25.38,39ZM68.34,651.54l-7.53,36.23L89,683.86l17.21-24,3.16-14.9Z"/><path class="cls-20" d="M155.64,748.37,213.42,493.5,247,426.21l137.83-36.6-22.34,89.74-95.15,21.22-9.78,41.68,88.34-17.82-21.25,86.26-86.45,13.78-9.4,40L319.42,652l-20.55,82.57Z"/><path class="cls-20" d="M365.25,562.18,410.86,382.7l72.59-19.29L440.26,527.27,502,515.47l46.21-169.26,83.36-22.14L574.26,524.42,527.4,600.54l-41.57,6.2-31,112.75L385,726.23l28.63-108.74-31.49,4.7Z"/><path class="cls-20" d="M661.9,604.6l75.83-10.5,67.2-213.42-80.61,18Zm-91.62,35.22c23.33-80.17,47-162.41,71.59-246.37l52.66-86.09L893,254.65l25.87,74.12c-34.88,105-68.23,206.6-100.92,305l-49.67,55.44-178,17.18Z"/><path class="cls-20" d="M838.41,682.47,960.79,319l69.71-100.85,264-70.1,33.87,85.12L1166,650.84,1040.61,663,1175.3,298.08l-106.73,23.8-124,350.34Z"/><path class="cls-20" d="M1414.21,500.5l136-18.81,129.89-296.18-147.94,33Zm-198,145.5,211.41-533.33L1849.61.59l46.73,99.93s-137.25,293.21-200.69,430.22l-93.06,78Z"/><path class="cls-20" d="M23.83,1119.38,82.69,849.61l49.81-2L84.91,1058.25l90.63,7.49L158.35,1136Z"/><path class="cls-20" d="M178.23,1138.41l72.85-295.67,60.42-2.46L233.29,1145.2Z"/><path class="cls-20" d="M254.91,1147.86l64.61-248,37.31-61.44,103.35-4.21,15.23,42.42,34.21-44.43,106.67-4.35,39.06,101.65-82.46,257.54-76.84-9.47L564.3,953.21l-9.76-33.61H541.61L495,968.35,435.9,1170.17,368,1161.8,427.42,951,413,919.52H395.85L366.56,965.3l-51.68,190Z"/><path class="cls-20" d="M603.28,1190.79,722.67,823.52l95.79-3.9L688.31,1201.27Z"/><path class="cls-20" d="M821,919.74l35.16-101.66,400.46-16.32-48.7,118.18-134.07-.07-122.3,313.85-105.6-13L957.65,919.81Z"/><path class="cls-20" d="M1163.39,1147.38l271.66,22.45,28.36-60.23-198-12.32-43.1-89.82,59.56-142.11,89.24-68.26,447.67-18.25-71.29,141.39-329.62-.18-27.59,61.59,232,4.89,51.65,80.18c-31.59,61-61.76,121.61-91.34,180.14l-72.12,55.75-392.56-48.38Z"/></g></g></svg>