<svg xmlns="http://www.w3.org/2000/svg" viewBox="0 0 1022.97 648.07"><defs><style>.cls-1{fill:#fff;}.cls-2{fill:red;}</style></defs><g id="Layer_2" data-name="Layer 2"><g id="Layer_1-2" data-name="Layer 1"><path class="cls-1" d="M259.56,645.62,167.5,492.23h35l48.41,92.23q3.45,6.39,6.58,12.78t5.39,12.26q-.72-5.93-1-12.37a88.46,88.46,0,0,1,.42-12.67l7.48-92.23h27.54l46.05,92.23a161.43,161.43,0,0,1,10.32,25q-.19-5.93.07-12.26t1-12.78l9.84-92.23h35L371.7,645.62H347.91l-43.28-81a174.92,174.92,0,0,1-11.4-26.18q.36,6.75.31,13.37a124.15,124.15,0,0,1-.77,12.81l-9.42,81Z"/><path class="cls-1" d="M423.61,645.62l-15-153.39h30.61L450,645.62Z"/><path class="cls-1" d="M468.91,645.62,461,492.23h23.17l71.19,94.15c1.53,2,3,4,4.46,6s2.84,4.09,4.21,6.17c-.26-3.06-.37-6.73-.31-11s.18-8.75.37-13.24l3.57-82.08h28L585.2,645.62H568l-68.4-86.8c-1.69-2.09-3.35-4.24-5-6.43s-3.25-4.46-4.83-6.75q.75,5,1.14,12t.56,13.66l1.94,74.37Z"/><path class="cls-1" d="M667.88,648.07a64.33,64.33,0,0,1-26.55-5.3,58,58,0,0,1-20.4-15.08,64.23,64.23,0,0,1-12.76-23.2,77.15,77.15,0,0,1-2.94-29.74,92.73,92.73,0,0,1,8.36-31.65,98.69,98.69,0,0,1,18.91-27.52,92.3,92.3,0,0,1,27.27-19.43,76.24,76.24,0,0,1,32.59-7.23q19.51,0,31.89,7.23a48.17,48.17,0,0,1,18.87,20.16L718,536.82a32.36,32.36,0,0,0-12.31-11.47,37.9,37.9,0,0,0-18.24-4.2,45.74,45.74,0,0,0-25.81,7.65,58.59,58.59,0,0,0-18.48,19.82,66.1,66.1,0,0,0-8.51,26.13,53.88,53.88,0,0,0,2.57,24.88A36.58,36.58,0,0,0,650,617c5.83,4.26,13,6.37,21.66,6.37q16,0,27.29-7.88c7.61-5.33,13.3-13.63,17.08-25.05l-45.95.42,4-27.32h74.72c-.24,2.37-.63,5.2-1.14,8.5s-1,6.13-1.58,8.58a94.08,94.08,0,0,1-15.74,35.87,77.65,77.65,0,0,1-27,23.34C692.88,645.33,681.06,648.07,667.88,648.07Z"/><path class="cls-1" d="M784.25,648.07q-15.63,0-27.07-6.73c-7.72-4.54-13.36-12-16.9-22.56l27.31-15.63c1.71,7.37,4.8,12.66,9.28,15.93A25.57,25.57,0,0,0,792.4,624a28.78,28.78,0,0,0,16.13-4.37,20.76,20.76,0,0,0,8.89-11.71c1.41-4.79,1.11-8.65-.94-11.57a21.71,21.71,0,0,0-9.6-7.15A137,137,0,0,0,792.35,584q-15.11-4.5-22.28-15.09c-4.84-7.17-5.91-16.74-3.12-28.86a63.24,63.24,0,0,1,12.68-26.2,66.19,66.19,0,0,1,23.13-18.11,68.92,68.92,0,0,1,30-6.6c12,0,21.13,2.89,27.4,8.61s10.47,13.57,12.81,23.61l-30.8,17.53c-1.6-6.41-3.86-11.15-6.79-14.17s-7.2-4.57-12.75-4.57a27.47,27.47,0,0,0-16.14,5.05,22.64,22.64,0,0,0-9.25,13.22q-2.32,9,3.37,13a61.47,61.47,0,0,0,14.26,7.13q5.75,2.25,12.76,5.25A46.4,46.4,0,0,1,840.41,572a25.41,25.41,0,0,1,7.67,13.51c1.29,5.52.59,12.44-2.09,20.7a57.75,57.75,0,0,1-13.15,22.25A61.73,61.73,0,0,1,811.58,643,70.42,70.42,0,0,1,784.25,648.07Z"/><path class="cls-1" d="M107,216.84,85,142,0,14.36H30.83l40.59,63.9q4.62,7.3,9.44,15.11a142.63,142.63,0,0,1,8.29,15.4,106.79,106.79,0,0,1-.64-15.25q.22-7.65.6-15.26l3.18-63.9h30.63L111,142.88l20.46,74Z"/><path class="cls-1" d="M230.09,220.12a56,56,0,0,1-26.8-7.08,95,95,0,0,1-25.16-20.1,148.31,148.31,0,0,1-21.37-30.85,176.15,176.15,0,0,1-14.93-39.37A161.43,161.43,0,0,1,136.59,81q.28-20.25,6.14-36.11,6-16,17.07-25.41t26.89-9.43c10.43,0,20.68,3.15,30.68,9.43s19.06,14.72,27.38,25.41a162.81,162.81,0,0,1,21,36.11,177.69,177.69,0,0,1,12,41.72,144.06,144.06,0,0,1,1.36,39.37c-1.36,11.82-4.21,22.08-8.53,30.85s-9.82,15.35-16.67,20.1A40.59,40.59,0,0,1,230.09,220.12Zm-6.92-33.48q12.15,0,19.21-8.36c4.76-5.62,7.86-13.23,9.3-22.9s1.13-20.67-1-32.66a126.92,126.92,0,0,0-11.24-34.46c-5.36-10.71-11.8-19.42-19.33-26s-15.84-10-24.7-10-15.78,3.36-20.74,10-7.83,15.33-8.75,26,.1,22.08,3,34.46a124.23,124.23,0,0,0,12.48,32.66c5.44,9.67,11.75,17.28,19,22.9S215.07,186.64,223.17,186.64Z"/><path class="cls-1" d="M354.16,220.12A46,46,0,0,1,327,211.39q-12.5-8.82-21.09-24.88c-5.82-10.9-9.88-23.64-12.12-38.33L273.26,14.36h28L318.87,144c1.86,13.67,5.44,24.25,10.72,31.88s12.11,11.29,20.68,11.29,14.57-3.74,18-11.29,4.57-18.21,3.2-31.88l-13-129.64h28l11,133.82c1.22,14.69.17,27.43-3.09,38.33-3.21,10.73-8.25,19-15.13,24.88S364.16,220.12,354.16,220.12Z"/><path class="cls-2" d="M447.69,216.84,437.41,14.36h50c16.15,0,29.54,5.07,40.06,15.09s18,23.16,22.79,39.6c4.71,16.1,6.77,34,6.28,53.67-.48,18.94-3.3,35.5-8.39,49.8-5,14-12.21,24.9-21.65,32.73s-21,11.59-35.13,11.59ZM484.94,55H466.79l4.3,129.24h16.65q14.85,0,23.94-7.85c6.12-5.28,10.59-12.5,13.41-21.72a111.67,111.67,0,0,0,4.43-32A120.06,120.06,0,0,0,525.38,89c-2.91-10.2-7.65-18.43-14.25-24.62S495.73,55,484.94,55Z"/><path class="cls-2" d="M626.54,220.12a45.36,45.36,0,0,1-24.8-7.08,62.7,62.7,0,0,1-19.45-20.1,103.94,103.94,0,0,1-12.61-30.85,145.41,145.41,0,0,1-3.76-39.37A163.85,163.85,0,0,1,572.51,81,136.74,136.74,0,0,1,588.9,44.89q10.5-16,24.28-25.41a51.75,51.75,0,0,1,29.56-9.43,45,45,0,0,1,28,9.43Q683,28.83,690.92,44.89A119.58,119.58,0,0,1,701.64,81a157.63,157.63,0,0,1,.17,41.72A157.72,157.72,0,0,1,692,162.09a126.56,126.56,0,0,1-17.28,30.85A78.23,78.23,0,0,1,652.34,213,50.53,50.53,0,0,1,626.54,220.12Zm2.58-33.48a31.59,31.59,0,0,0,21.58-8.36c6.35-5.62,11.61-13.23,15.8-22.9a111,111,0,0,0,8.24-32.66,109.4,109.4,0,0,0-1.46-34.46c-2.32-10.71-6.29-19.42-11.94-26a27.48,27.48,0,0,0-21.85-10q-13.29,0-23.59,10c-6.8,6.62-12.18,15.33-16.14,26A115,115,0,0,0,593,122.72a102.23,102.23,0,0,0,3.21,32.66c2.69,9.67,6.84,17.28,12.45,22.9A27.75,27.75,0,0,0,629.12,186.64Z"/><path class="cls-2" d="M703.4,216.84,730.09,14.36h21.22L796.36,138.1q1.47,3.94,2.82,8t2.55,8.18q.62-6.08,2.09-14.62T807,122.14L827.78,14.36h25.63L811.14,216.84H795.22L750.94,101.7q-1.63-4.14-3.17-8.48t-3-8.88c-.27,4.43-.8,9.68-1.56,15.73s-1.59,12-2.48,18l-14.62,98.74Z"/><path class="cls-2" d="M859.2,91.57l-.67-20.36,6.1-3.09A45,45,0,0,0,875.36,61a31.1,31.1,0,0,0,6.8-10,13.75,13.75,0,0,1-4.72.95q-5.85,0-8.89-7.46t-.72-18.22a41.6,41.6,0,0,1,8.94-18.31C881.23,2.64,885.69,0,890.14,0c6.06,0,10.11,3.48,12.16,10.38s1.62,16.14-1.21,27.79c-3,12.33-7.72,22.8-14.19,31.49s-13.62,14.88-21.68,18.91Z"/><path class="cls-2" d="M899.81,216.84,943.84,55h-39l10-40.66H1023L1010.18,55h-39L924.3,216.84Z"/><path class="cls-1" d="M144.86,427.06l-45-143.15h17.65l79.2,86.75c1.72,1.87,3.43,3.76,5.11,5.68s3.32,3.86,5,5.83q-1.56-4.34-3.26-10.41t-3.3-12.42l-19.09-75.43h21.31l34,143.15H222.9L146.22,344.9c-1.84-1.94-3.67-3.94-5.5-6s-3.64-4.12-5.45-6.24q1.88,4.67,3.94,11.07c1.37,4.23,2.68,8.48,3.95,12.72l21,70.58Z"/><path class="cls-1" d="M251.29,427.06,219.12,283.91H517.83l0,28.25H248.29l7,33.58H517.08l0,24.92H260.41l6.83,32.95h251v23.45Z"/><path class="cls-1" d="M527,427.06l1-143.15H826.65l-6.53,28.25H550.57l-.82,33.58H811.58l-5.74,24.92H549.14l-.8,32.95h251l-5.42,23.45Z"/><path class="cls-1" d="M802.63,427.06l34.14-143.15H878.4c13.43,0,23.55,3.51,30.31,10.46s10.37,16.11,11.11,27.6c.73,11.29-1.13,23.91-5.49,37.78a127.25,127.25,0,0,1-17.18,35.45,80.49,80.49,0,0,1-25.09,23.5,62.57,62.57,0,0,1-32.27,8.36ZM868,312.16H852.85l-23.41,91.45h14.1q12.59,0,21.91-5.63a49,49,0,0,0,15.83-15.52,86.58,86.58,0,0,0,10.27-22.71c2.6-8.75,3.73-16.69,3.37-23.77s-2.67-12.93-6.93-17.26S877,312.16,868,312.16Z"/></g></g></svg>