<svg xmlns="http://www.w3.org/2000/svg" viewBox="0 0 390.09 95.34"><defs><style>.cls-1{fill:red;}.cls-2{fill:#fff;}</style></defs><g id="Layer_2" data-name="Layer 2"><g id="Layer_1-2" data-name="Layer 1"><path class="cls-1" d="M151.56,73.87,156,66.73h35.88l-4.45,7.14H176.18l-13.4,21.47H152l13.45-21.47Z"/><path class="cls-1" d="M212,95.34H200.91l-4-9h-2.56l-5.63,9H178l17.89-28.61h25l2,5.38L217.38,81l-8.11,5.37H208.1ZM198.81,79.25h6.72l3.57-2.14,2-3.24h-9Z"/><path class="cls-1" d="M223.17,95.34H212.46L227,72.11l6.93-5.38h21.47l2,5.38L242.87,95.34H232.12l5.59-9H228.8Zm10.08-16.09h8.95l3.36-5.38h-8.95Z"/><path class="cls-1" d="M246.9,95.34l17.89-28.61h25l2,5.38s-8.24,13.11-12.31,19.66l-5.8,3.57Zm15.2-7.14h8.95L280,73.87h-8.95Z"/><path class="cls-1" d="M281.34,95.34l14.53-23.23,6.93-5.38h48.66L347,73.87H305.49l-2.22,3.57h40.59l-4.45,7.19H298.77l-2.23,3.57h41.52l-4.45,7.14Z"/><path class="cls-2" d="M159.44,58.83l17.9-28.61h10.71l-13.4,21.47H193.8l-4.49,7.14Z"/><path class="cls-2" d="M193.34,58.83,207.87,35.6l6.93-5.38H238l-4.45,7.14H217.49l-2.23,3.57h15.17L226,48.12H210.77l-2.23,3.57h16.09l-4.45,7.14Z"/><path class="cls-2" d="M224.16,58.83,238.7,35.6l6.93-5.38h25.92l-4.46,7.14H248.32l-8.95,14.33h6.26l4-2.14c.55-.93.46-.8.88-1.43h-4l3.57-7.19H262.6l.5,4.29-.71,1.09-5.59,8.95L251,58.83Z"/><path class="cls-2" d="M268.39,58.83H257.68L272.21,35.6l6.93-5.38h21.47l2,5.38L288.09,58.83H277.34l5.59-8.95H274Zm10.08-16.09h8.95l3.36-5.38h-8.95Z"/><path class="cls-2" d="M292.12,58.83,306.65,35.6l6.93-5.38h23.23l-4.45,7.14H316.27l-8.95,14.33h16.09L319,58.83Z"/><path class="cls-2" d="M331.89,44.5l8.95-14.28h10.71l-7.81,12.52h8.95l7.81-12.52h10.75L362.31,44.5l-6.93,5.38h-5.84L344,58.83H333.24l5.58-8.95h-4.91Z"/><path class="cls-2" d="M0,95.34,59.64,0h35.7L50.68,71.54h63.84l-15,23.8Z"/><path class="cls-1" d="M87.26,23.8,102.1,0H221.66L206.82,23.8H169.3L124.64,95.34H88.8L133.6,23.8Z"/><path class="cls-1" d="M259.4,23.8H213.06L227.9,0H390.09L375.25,23.8H295.1"/></g></g></svg>