<svg xmlns="http://www.w3.org/2000/svg" viewBox="0 0 505.23 108.96"><defs><style>.cls-1{fill:#fff;}</style></defs><g id="Layer_2" data-name="Layer 2"><g id="Layer_1-2" data-name="Layer 1"><path d="M329.61,27.2h-53L293.6,0H505.23l-17,27.2H370.41"/><path d="M0,109,68.16,0H109l-51,81.76h73L113.76,109Z"/><path class="cls-1" d="M106.06,109l55.36-88.48L187.82,0h98.72l-17,27.2H198.06L164,81.76h23.84l15.36-8.16c2.08-3.52,1.76-3,3.36-5.44h-15.2l13.6-27.36h47.52l1.92,16.32-2.72,4.16L230.38,95.36,208.3,109Z"/><path d="M256.45,65.88l19.17-30.65h11.47l-14.35,23h20.52l-4.82,7.65Z"/><path d="M292.76,65.88,308.33,41l7.43-5.76h24.88l-4.77,7.65H318.64l-2.39,3.83H332.5l-4.77,7.69H311.44l-2.39,3.83h17.24l-4.77,7.65Z"/><path d="M325.79,65.88,341.36,41l7.43-5.76h27.76l-4.77,7.65H351.67l-9.59,15.35h6.71l4.32-2.3c.58-1,.49-.85.94-1.53h-4.27l3.82-7.69H367l.54,4.59-.77,1.17-6,9.58-6.21,3.83Z"/><path d="M373.18,65.88H361.7L377.27,41l7.43-5.76h23L409.85,41,394.28,65.88H382.76l6-9.59h-9.54ZM384,48.64h9.58l3.6-5.76h-9.58Z"/><path d="M398.6,65.88,414.17,41l7.43-5.76h24.88l-4.77,7.65H424.48l-9.59,15.35h17.23l-4.76,7.65Z"/><path d="M441.22,50.53l9.58-15.3h11.47l-8.36,13.41h9.58l8.37-13.41h11.52l-9.59,15.3-7.42,5.76h-6.25l-6,9.59H442.66l6-9.59h-5.26Z"/><path class="cls-1" d="M229.89,109l15.57-24.88,7.43-5.76h27.76L275.88,86H255.77l-9.59,15.34h6.71L257.21,99c.58-1,.49-.86.94-1.53h-4.27l3.82-7.69h13.37l.54,4.59-.77,1.16-6,9.59L258.65,109Z"/><path class="cls-1" d="M302.25,109H290.33l-4.28-9.58h-2.74l-6,9.58H265.8L285,78.32h26.82L314,84.08l-6,9.54-8.69,5.76H298ZM288.08,91.73h7.2l3.82-2.3L301.26,86h-9.58Z"/><path class="cls-1" d="M306.3,103.2c4-6.39,8-12.77,12-19.12l7.43-5.76h23l2.16,5.76c-4.41,7-8.77,14-13.18,21.06L331.46,109h-23ZM319,101.31h9.59L338.16,86h-9.58Z"/><path class="cls-1" d="M343.2,103.2l15.57-24.88h11.48l-14.36,23H399l14.36-23H424.9L409.33,103.2,401.9,109H345.36Z"/><path class="cls-1" d="M412,109l19.17-30.64H458l2.16,5.76-6,9.54-8.68,5.76h-16l-6,9.58Zm22.27-17.23h7.2l3.83-2.3L447.42,86h-9.59Z"/><polygon points="372.9 98.37 363.02 98.37 369.68 88.1 379.56 88.1 372.9 98.37"/><polygon points="383.92 98.37 374.03 98.37 383.8 83.31 393.69 83.31 383.92 98.37"/><polygon points="395.35 98.37 385.46 98.37 398.13 78.84 408.01 78.84 395.35 98.37"/></g></g></svg>