<svg xmlns="http://www.w3.org/2000/svg" viewBox="0 0 876.5 302.97"><defs><style>.cls-1{fill:#79d1ee;}.cls-2{fill:#f05454;}.cls-3{fill:#fde343;}.cls-4{fill:#231f20;}.cls-5{fill:#fff;}</style></defs><g id="Layer_2" data-name="Layer 2"><g id="Layer_1-2" data-name="Layer 1"><g id="Layer_1-2-2" data-name="Layer 1-2"><path class="cls-1" d="M811,235.28v17.79h0a21.44,21.44,0,0,0-.27-3,20.06,20.06,0,0,0-1.78-5.76,21.83,21.83,0,0,0,2-9Z"/><path class="cls-1" d="M810.68,231.67a21.75,21.75,0,0,1-1.78,12.62q-6.09-13-31.08-25.42l-10.14-5.08v-18l.15-.3,10,5Q808.35,215.67,810.68,231.67Z"/><path class="cls-2" d="M810.94,253.07q.36,18-29.4,33.08a149.23,149.23,0,0,1-40.18,13.73l-.07-.39v-18h0a149.4,149.4,0,0,0,40.25-13.7q21.65-11,27.35-23.48a20.06,20.06,0,0,1,1.78,5.76A21.44,21.44,0,0,1,810.94,253.07Z"/><path class="cls-3" d="M676.29,272.32a70.69,70.69,0,0,0,28.41,6,88,88,0,0,0,38.84-10q18.15-9.21,18.43-18.93V231a11.62,11.62,0,0,0-.52-3.66q-2.69-7.81-17.64-15.26l-15.4-7.68a4.64,4.64,0,0,0-4.17,0l-29,14.72L659.36,237.4a4.61,4.61,0,0,0-2.52,4.49v17.66a4.6,4.6,0,0,0,2.56,4.5l11.75,5.85C672.85,270.79,674.57,271.59,676.29,272.32Zm-30.51-4.84-.12-.06-41-20.38,111.61-56.69a4.64,4.64,0,0,1,4.17,0l47.24,23.44,10.16,5.05q25,12.43,31.07,25.42-5.71,12.53-27.35,23.53a149.11,149.11,0,0,1-40.2,13.72,155.48,155.48,0,0,1-31.2,2.61Q678.36,283.68,645.78,267.48Z"/><path class="cls-1" d="M767.83,195.52l-.15.3v18l-47.23-23.49a4.68,4.68,0,0,0-2-.49V171.48a4.68,4.68,0,0,1,2,.49Z"/><path class="cls-1" d="M762,231q-.15,4.54-4.19,9-4.54-4.84-14-9.53l-15.41-7.71a4.62,4.62,0,0,0-4.16,0l-29,14.71V219.18l29-14.72a4.62,4.62,0,0,1,4.16,0l15.4,7.68q15,7.44,17.64,15.26A11.47,11.47,0,0,1,762,231Z"/><path class="cls-2" d="M762,248.89v.52q-.27,9.71-18.43,18.93a88,88,0,0,1-38.84,10,70.86,70.86,0,0,1-28.41-6v-18.4a70.86,70.86,0,0,0,28.41,6,88,88,0,0,0,38.84-10q9.66-4.91,14.26-9.94a16.31,16.31,0,0,1,3.67,5.79A12.09,12.09,0,0,1,762,248.89Z"/><path class="cls-2" d="M762,231v17.86a11.53,11.53,0,0,0-.52-3.14,16.21,16.21,0,0,0-3.67-5.73Q761.84,235.58,762,231Z"/><path class="cls-2" d="M741.36,299.48l.07.39a155.45,155.45,0,0,1-31.27,2.62q-31.75-.45-64.33-16.63V267.48q32.58,16.17,64.33,16.62a154.75,154.75,0,0,0,31.2-2.6h0Z"/><path class="cls-1" d="M718.43,171.48v18.38a4.65,4.65,0,0,0-2.14.51L604.67,247l-10-5a4.62,4.62,0,0,1,0-8.29l121.66-61.82A4.73,4.73,0,0,1,718.43,171.48Z"/><path class="cls-1" d="M710.05,138.84v21.53a4.82,4.82,0,0,1-.56,2.2L693.1,152.13a4.71,4.71,0,0,0,.6-2.26V139.38l9.68-4.7a4.64,4.64,0,0,1,6.2,2.14A4.57,4.57,0,0,1,710.05,138.84Z"/><path class="cls-2" d="M709.49,162.58a4.76,4.76,0,0,1-2,2l-71.32,34.55h0L621.26,188,691.09,154a4.53,4.53,0,0,0,2-1.92Z"/><path class="cls-1" d="M705,19.31a4.61,4.61,0,0,1,3,4.34V45.18a4.78,4.78,0,0,1-.44,2h-.09L691.06,37a4.69,4.69,0,0,0,.55-2.2V24.19l9.75-4.7A4.6,4.6,0,0,1,705,19.31Z"/><path class="cls-1" d="M692.2,124.93l15.74,10a4.59,4.59,0,0,0-4.56-.29l-9.69,4.7v-11A4.62,4.62,0,0,0,692.2,124.93Z"/><path class="cls-2" d="M707.47,47.11h.09a4.57,4.57,0,0,1-2.17,2.21L684.05,59.69,667.51,49.36v-.07l21.56-10.46a4.63,4.63,0,0,0,2.06-2Z"/><path class="cls-1" d="M690.26,9.84,705,19.31a4.6,4.6,0,0,0-3.62.18l-9.69,4.7v-11A4.63,4.63,0,0,0,690.26,9.84Z"/><path class="cls-1" d="M698,79.65a4.64,4.64,0,0,1,2.46,4.09v20.05a4.66,4.66,0,0,1-.39,1.88L683.73,95.24a4.86,4.86,0,0,0,.43-1.95V84.24l9.69-4.7a4.61,4.61,0,0,1,4.17.06Z"/><path class="cls-2" d="M683.72,95.27l16.37,10.43a4.73,4.73,0,0,1-2.21,2.31l-60.32,29.28-.08-.16-14.77-11.07,58.82-28.55A4.76,4.76,0,0,0,683.72,95.27Z"/><path class="cls-1" d="M682.36,69.57,698,79.63a4.63,4.63,0,0,0-4.18-.06l-9.68,4.7v-11A4.64,4.64,0,0,0,682.36,69.57Z"/><path class="cls-1" d="M656.81,241.92a4.61,4.61,0,0,1,2.52-4.49l35.93-18.25v18.38l-25.9,13.14-10-5A4.6,4.6,0,0,1,656.81,241.92Z"/><path class="cls-3" d="M621.25,188l-43.53,21.12V82.4a4.63,4.63,0,0,1,2.64-4.17L687.08,26.39l4.57-2.2V34.68A4.65,4.65,0,0,1,689,38.86L667.47,49.33l-61,29.61a4.64,4.64,0,0,0-2.61,4.17V97.4a4.6,4.6,0,0,0,2.71,4.23h0l15.1,9.66a4.64,4.64,0,0,0,5.2.77l32.72-15.89,24.53-11.9v9a4.68,4.68,0,0,1-2.61,4.17L622.72,126l-16.22,7.88a4.62,4.62,0,0,0-2.61,4.17v19a4.6,4.6,0,0,0,1.92,3.76,2.45,2.45,0,0,0,.38.24h0l15.92,10.25h0l.39.24h0a4.6,4.6,0,0,0,4.34.15l50-24.26,16.83-8.17v10.49a4.68,4.68,0,0,1-2.61,4.17Z"/><path class="cls-2" d="M693.7,128.34v11l-16.83,8.17-.1-.2-14.73-11,25-12.14a4.62,4.62,0,0,1,3.8-.11l1.36.87A4.65,4.65,0,0,1,693.7,128.34Z"/><path class="cls-2" d="M691.65,13.16v11l-4.58,2.23V26.3L670.8,15.87,685,9a4.54,4.54,0,0,1,3.73-.14l1.53,1A4.65,4.65,0,0,1,691.65,13.16Z"/><path class="cls-2" d="M687,26.33v.08L580.36,78.24a4.84,4.84,0,0,0-1.64,1.34L562,69.68h0a4.58,4.58,0,0,1,2-1.92L670.79,15.92Z"/><path class="cls-2" d="M684.15,73.24v11L659.62,96.15l-.13-.27-14.67-11L677.48,69a4.64,4.64,0,0,1,4.17,0h0l.68.44A4.65,4.65,0,0,1,684.15,73.24Z"/><path class="cls-2" d="M667.51,49.39l16.54,10.33-61.2,29.71A4.52,4.52,0,0,0,621,91L604.64,80.57a4.61,4.61,0,0,1,1.86-1.64l61-29.6Z"/><path class="cls-2" d="M676.77,147.35l.1.2-50,24.24a4.6,4.6,0,0,1-4.34-.15h0l-.38-.24h0a4.6,4.6,0,0,1-1.92-3.76v-11l41.82-20.3Z"/><path class="cls-2" d="M656.81,259.59a4.55,4.55,0,0,1,2.55-3.8l10-5.09,1.74.86c1.72.86,3.43,1.65,5.15,2.38v18.38q-2.57-1.1-5.15-2.38l-11.74-5.85A4.62,4.62,0,0,1,656.81,259.59Z"/><path class="cls-2" d="M669.36,250.7l-10,5.09a4.52,4.52,0,0,0-2.52,3.78V241.93a4.53,4.53,0,0,0,2.56,3.79Z"/><path class="cls-2" d="M659.49,95.92l.13.26L626.9,112.07a4.58,4.58,0,0,1-3.78.12l-1.42-.91a4.56,4.56,0,0,1-1.46-3.38v-11L644.81,85Z"/><path class="cls-2" d="M645.78,267.48v18.39l-.12-.06-51-25.38a4.63,4.63,0,0,1,0-8.28L604.71,247l41,20.39Z"/><path class="cls-2" d="M637.57,137.28l-14.72,7.14a4.58,4.58,0,0,0-1.73,1.45l-.35-.12-15.88-10.54a4.49,4.49,0,0,1,1.61-1.29l16.22-7.87,14.78,11.07Z"/><path class="cls-2" d="M578.88,223.19a4.58,4.58,0,0,1-1.15-3.07v-11L621.26,188l14.9,11.16h0l-51.8,25.15A4.62,4.62,0,0,1,578.88,223.19Z"/><path class="cls-2" d="M622.14,171.4,606.2,161.16a4.6,4.6,0,0,0,4.34.15l9.68-4.7v11A4.63,4.63,0,0,0,622.14,171.4Z"/><path class="cls-2" d="M621.7,111.28l-15.1-9.66h0a4.59,4.59,0,0,0,3.95-.05l9.67-4.71v11A4.58,4.58,0,0,0,621.7,111.28Z"/><path class="cls-3" d="M621.12,145.87a4.63,4.63,0,0,0-.88,2.73v8l-9.69,4.7a4.62,4.62,0,0,1-4.35-.15h0l-.38-.25a4.58,4.58,0,0,1-1.92-3.75v-19a4.51,4.51,0,0,1,1-2.88l15.87,10.52Z"/><path class="cls-3" d="M604.64,80.57,621,91a4.5,4.5,0,0,0-.77,2.56v3.26l-9.69,4.7a4.64,4.64,0,0,1-6.2-2.13h0a4.61,4.61,0,0,1-.46-2V83.1A4.46,4.46,0,0,1,604.64,80.57Z"/><path class="cls-2" d="M604.67,247l-10,5.11a4.56,4.56,0,0,0-2.54,4.13V237.91a4.58,4.58,0,0,0,2.57,4.15Z"/><path class="cls-1" d="M578.88,223.19l-15.21-9.57a4.59,4.59,0,0,0,4.36.17l9.69-4.71v11A4.5,4.5,0,0,0,578.88,223.19Z"/><path class="cls-1" d="M562,69.67l16.74,9.91a4.56,4.56,0,0,0-1,2.83v48.81l-16.25-9.63h-.08V71.91a4.64,4.64,0,0,1,.58-2.24Z"/><path class="cls-1" d="M563.65,213.62a4.61,4.61,0,0,1-2.3-4v-88h.07l16.29,9.63v77.86l-9.7,4.68A4.59,4.59,0,0,1,563.65,213.62Z"/><path class="cls-4" d="M712.84,303h-2.72c-21.14-.3-42.85-5.91-64.52-16.68l-.13-.06-51-25.37a5.09,5.09,0,0,1-2.3-6.82h0a5.13,5.13,0,0,1,2.23-2.24l10.06-5.1L716.08,190a5.17,5.17,0,0,1,4.57,0L778,218.54c16.67,8.25,27.19,16.85,31.32,25.55a20.65,20.65,0,0,1,1.82,5.89,22.59,22.59,0,0,1,.27,3.07c.12,6.08-2.33,12-7.28,17.56s-12.44,10.89-22.37,15.93a149.29,149.29,0,0,1-40.28,13.77A155.94,155.94,0,0,1,712.84,303Zm5.52-112.67a4.18,4.18,0,0,0-1.9.45L604.88,247.44l-10.06,5.11a4.18,4.18,0,0,0,0,7.48L646,285.46c21.55,10.71,43.13,16.29,64.14,16.58a154.23,154.23,0,0,0,31.22-2.61,148.76,148.76,0,0,0,40-13.64c19.58-10,29.39-20.94,29.16-32.67a22.45,22.45,0,0,0-.26-3,20.18,20.18,0,0,0-1.74-5.64c-4-8.52-14.39-17-30.88-25.2l-57.38-28.55A4.21,4.21,0,0,0,718.36,190.3Z"/><path class="cls-4" d="M704.13,278.72a71.79,71.79,0,0,1-28-6c-1.72-.73-3.46-1.53-5.19-2.39l-11.75-5.85a5.08,5.08,0,0,1,0-9.09l64.9-33a5.1,5.1,0,0,1,4.57,0l15.4,7.67c6.3,3.14,11,6.37,14.1,9.62a16.9,16.9,0,0,1,3.77,5.86,12.25,12.25,0,0,1,.55,3.29v.52c-.19,6.64-6.47,13.14-18.68,19.34a89,89,0,0,1-39,10Zm22.23-55.93a4.19,4.19,0,0,0-1.88.44l-64.9,33a4.18,4.18,0,0,0-1.84,5.62h0a4.09,4.09,0,0,0,1.86,1.84l11.75,5.8c1.71.85,3.43,1.65,5.13,2.37a70.7,70.7,0,0,0,28.2,5.92,88,88,0,0,0,38.67-9.89c11.89-6,18-12.27,18.18-18.54v-.5a10.89,10.89,0,0,0-.5-3,15.7,15.7,0,0,0-3.56-5.52h0c-3-3.17-7.64-6.34-13.84-9.43l-15.4-7.68A4.25,4.25,0,0,0,726.36,222.79Z"/><path class="cls-4" d="M712.82,284.6H710.1c-21.14-.3-42.85-5.9-64.53-16.67l-.12-.07-51-25.39a5.07,5.07,0,0,1,0-9.07l121.67-61.83a5.1,5.1,0,0,1,4.57,0l47.38,23.58,10,5c20.38,10.14,31.52,20.74,33.1,31.51a21.64,21.64,0,0,1,.28,3.68,22.14,22.14,0,0,1-2.1,9.19c-3.83,8.38-13.11,16.36-27.56,23.7A149.16,149.16,0,0,1,741.36,282,155.36,155.36,0,0,1,712.82,284.6Zm5.54-112.69a4.06,4.06,0,0,0-1.87.45L594.82,234.18a4.15,4.15,0,0,0-2.29,3.73h0a4.16,4.16,0,0,0,2.32,3.73L646,267.1c21.55,10.71,43.13,16.28,64.14,16.58a156.06,156.06,0,0,0,31.11-2.6,149.1,149.1,0,0,0,40.1-13.7c14.27-7.25,23.4-15.08,27.16-23.28a21.33,21.33,0,0,0,2-8.82,20.9,20.9,0,0,0-.26-3.53c-1.54-10.47-12.51-20.84-32.61-30.84l-10-5-47.37-23.57A4.11,4.11,0,0,0,718.36,171.91Z"/><path class="cls-4" d="M704.14,260.35a71.79,71.79,0,0,1-28-6c-1.72-.73-3.46-1.53-5.19-2.39l-11.75-5.85a5.1,5.1,0,0,1,0-9.1l35.9-18.22,29-14.72a5.1,5.1,0,0,1,4.57,0l15.4,7.68c10,5,16,10.21,17.87,15.52a11.71,11.71,0,0,1,.54,3.81h0c-.09,3.13-1.53,6.24-4.28,9.26-3.1,3.38-7.94,6.76-14.39,10a89,89,0,0,1-39,10Zm22.18-56a4.19,4.19,0,0,0-1.88.44l-29,14.72-35.9,18.28a4.2,4.2,0,0,0-1.83,5.64,4.24,4.24,0,0,0,1.86,1.84l11.79,5.86c1.7.85,3.43,1.65,5.13,2.37a70.35,70.35,0,0,0,28.23,5.94,88.12,88.12,0,0,0,38.64-9.9c6.36-3.23,11.11-6.54,14.13-9.85,2.6-2.85,4-5.77,4-8.68h0a10.63,10.63,0,0,0-.5-3.5c-1.74-5.06-7.6-10.11-17.41-15l-15.4-7.67a4.19,4.19,0,0,0-1.87-.45Z"/><path class="cls-4" d="M563.43,214a5.07,5.07,0,0,1-2.53-4.39V71.91a5.05,5.05,0,0,1,2.86-4.58L670.58,15.49l14.21-6.91a5.1,5.1,0,0,1,6.8,2.36,5.31,5.31,0,0,1,.51,2.22V34.68a5.13,5.13,0,0,1-2.87,4.58L667.67,49.73l-61,29.62a4.19,4.19,0,0,0-2.31,3.76V97.4a4.19,4.19,0,0,0,4.18,4.19,4.3,4.3,0,0,0,1.83-.42l9.68-4.72,24.57-11.93,32.67-15.86a5,5,0,0,1,4.57.06l-.42.8a4.15,4.15,0,0,0-3.76,0L645,85.33,620.42,97.27,610.75,102a5.23,5.23,0,0,1-2.23.51h0a5.09,5.09,0,0,1-5.09-5.09V83.11a5.13,5.13,0,0,1,2.87-4.58l61-29.61,21.56-10.47a4.2,4.2,0,0,0,2.35-3.76V13.16A4.2,4.2,0,0,0,687,9a4.13,4.13,0,0,0-1.8.41L671,16.31,564.16,68.14a4.18,4.18,0,0,0-2.36,3.77V209.62a4.17,4.17,0,0,0,2.08,3.61Z"/><path class="cls-4" d="M566,214.7a5,5,0,0,1-2.56-.7l.45-.78a4.15,4.15,0,0,0,3.93.15l53.23-25.83,69.83-33.9a4.2,4.2,0,0,0,2.36-3.77V128.34a4.19,4.19,0,0,0-1.35-3.08,4.42,4.42,0,0,0-1.23-.78,4.15,4.15,0,0,0-3.43.1L620.42,157l-9.68,4.7a5,5,0,0,1-4.76-.17l.45-.77a4.13,4.13,0,0,0,3.92.13l9.68-4.7,66.81-32.41a5,5,0,0,1,4.17-.12,4.83,4.83,0,0,1,1.5,1,5,5,0,0,1,1.64,3.75v21.52a5.09,5.09,0,0,1-2.86,4.58l-69.84,33.89-53.22,25.82A5,5,0,0,1,566,214.7Z"/><path class="cls-4" d="M606,161.53a3.12,3.12,0,0,1-.43-.27,5,5,0,0,1-2.11-4.12v-19a5.08,5.08,0,0,1,2.87-4.58l16.22-7.87,58.84-28.61a4.19,4.19,0,0,0,2.36-3.76V73.24a4.18,4.18,0,0,0-1.62-3.31,5.93,5.93,0,0,0-.62-.4l.42-.8a6,6,0,0,1,.75.48,5.1,5.1,0,0,1,2,4V93.29a5.09,5.09,0,0,1-.47,2.14,5.19,5.19,0,0,1-2.39,2.44l-58.88,28.58-16.22,7.88a4.17,4.17,0,0,0-2.33,3.76v19a4.18,4.18,0,0,0,1.73,3.39l.27.31Z"/><path class="cls-4" d="M582.36,225.2a5.07,5.07,0,0,1-5.07-5.09h0V82.4a5,5,0,0,1,1.07-3.12,5.12,5.12,0,0,1,1.8-1.46L686.91,26l4.56-2.19,9.69-4.71a5.08,5.08,0,0,1,7.31,4.56V45.18a5.13,5.13,0,0,1-2.86,4.57L684.27,60.12,623,89.79a4.2,4.2,0,0,0-2.35,3.77v14.33a4.19,4.19,0,0,0,4.18,4.19h0a4.26,4.26,0,0,0,1.82-.42l32.73-15.87,34.22-16.61a5,5,0,0,1,4.58.08l-.42.79A4.17,4.17,0,0,0,694,80l-66.94,32.5a5.15,5.15,0,0,1-2.21.51h0a5.1,5.1,0,0,1-5.09-5.09V93.6A5.08,5.08,0,0,1,622.66,89l61.2-29.71L705.2,48.94a4.23,4.23,0,0,0,2.36-3.77V23.65a4.45,4.45,0,0,0-.42-1.83,4.18,4.18,0,0,0-5.59-1.93h0l-9.69,4.7-4.57,2.19L580.54,78.63a4.21,4.21,0,0,0-2.36,3.77V220.11a4.08,4.08,0,0,0,1,2.77,4.15,4.15,0,0,0,5,1L636,198.73l71.27-34.59a4.2,4.2,0,0,0,2.36-3.76V138.84a4.42,4.42,0,0,0-.43-1.82,4.18,4.18,0,0,0-5.59-1.93h0L627.1,172.22a5.07,5.07,0,0,1-4.77-.17l.46-.78a4.14,4.14,0,0,0,3.91.14l50-24.27,26.52-12.87a5.11,5.11,0,0,1,6.8,2.35,5.31,5.31,0,0,1,.51,2.22v21.53a5.1,5.1,0,0,1-2.87,4.57l-71.3,34.59-51.78,25.15A5,5,0,0,1,582.36,225.2Z"/><path class="cls-4" d="M622.36,172l-.42-.27.51-.74.35.22Z"/><path class="cls-4" d="M621.89,171.79a5.08,5.08,0,0,1-2.11-4.12v-19a5.13,5.13,0,0,1,2.87-4.58l14.71-7.22,60.32-29.28a4.22,4.22,0,0,0,2.36-3.77v-20a4.16,4.16,0,0,0-2.22-3.69l.42-.8a5.08,5.08,0,0,1,2.7,4.49v20a5.1,5.1,0,0,1-2.87,4.58l-60.3,29.31L623,144.79a4.2,4.2,0,0,0-2.35,3.77v19a4.12,4.12,0,0,0,1.73,3.39Z"/><rect class="cls-4" x="645.33" y="267.24" width="0.9" height="18.9"/><rect class="cls-4" x="740.86" y="281.52" width="0.9" height="17.97"/><rect class="cls-4" x="767.22" y="195.82" width="0.9" height="17.97"/><rect class="cls-4" x="717.97" y="171.66" width="0.9" height="17.97"/><rect class="cls-4" x="810.5" y="235.28" width="0.9" height="17.97"/><rect class="cls-4" x="694.81" y="219.18" width="0.9" height="18.68"/><rect class="cls-4" x="675.83" y="253.94" width="0.9" height="18.62"/><rect class="cls-4" x="761.51" y="230.86" width="0.9" height="19.02"/><rect class="cls-4" x="656.36" y="241.31" width="0.9" height="18.47"/><rect class="cls-4" x="591.63" y="237.47" width="0.9" height="18.9"/><rect class="cls-4" x="569.87" y="64.89" width="0.9" height="19.45" transform="translate(215.78 527.53) rotate(-59.4)"/><rect class="cls-4" x="569.12" y="116.95" width="0.9" height="18.92" transform="translate(170.83 552.32) rotate(-59.4)"/><polygon class="cls-4" points="580.84 224.96 563.24 213.89 563.73 213.13 563.91 213.24 581.32 224.19 580.84 224.96"/><rect class="cls-4" x="668.86" y="132.4" width="0.9" height="18.66" transform="translate(154.5 592.32) rotate(-53.15)"/><polygon class="cls-4" points="637.22 137.48 622.29 126.29 622.83 125.57 622.99 125.69 637.76 136.76 637.22 137.48"/><polygon class="cls-4" points="659.22 96.28 644.28 85.09 644.83 84.37 645.09 84.57 659.76 95.55 659.22 96.28"/><polygon class="cls-4" points="620.52 146.13 604.59 135.56 605.1 134.81 605.14 134.84 621.02 145.38 620.52 146.13"/><polygon class="cls-4" points="622.87 112.57 621.46 111.66 606.36 102 606.84 101.24 623.36 111.81 622.87 112.57"/><polygon class="cls-4" points="620.83 91.46 620.78 91.43 604.3 80.88 604.8 80.13 604.89 80.19 621.3 90.69 620.83 91.46"/><polygon class="cls-4" points="622.34 172.05 622.3 172.04 621.86 171.75 605.56 161.27 606.05 160.52 606.44 160.77 622.78 171.27 622.34 172.05"/><polygon class="cls-4" points="635.89 199.49 620.95 188.29 621.51 187.58 621.53 187.6 636.43 198.77 635.89 199.49"/><polygon class="cls-4" points="704.73 19.7 688.47 9.23 688.96 8.47 705.23 18.95 704.73 19.7"/><polygon class="cls-4" points="686.79 26.72 670.52 16.24 671.02 15.49 671.05 15.5 687.28 25.96 686.79 26.72"/><polygon class="cls-4" points="707.24 47.49 690.68 37.16 691.15 36.39 691.33 36.5 707.71 46.73 707.24 47.49"/><polygon class="cls-4" points="683.86 60.13 683.81 60.1 667.27 49.77 667.75 49.01 684.29 59.34 684.09 59.66 683.86 60.13"/><polygon class="cls-4" points="698.41 80.42 681.42 69.51 681.88 68.73 681.9 68.75 682.59 69.19 698.89 79.66 698.41 80.42"/><polygon class="cls-4" points="700.52 106.51 683.07 95.39 683.55 94.63 683.96 94.89 701.01 105.75 700.52 106.51"/><polygon class="cls-4" points="708.05 135.56 707.71 135.35 690.59 124.44 691.08 123.68 708.53 134.8 708.05 135.56"/><polygon class="cls-4" points="709.8 163.32 709.25 162.96 692.35 152.19 692.84 151.43 693.34 151.76 710.29 162.56 709.8 163.32"/><path class="cls-2" d="M876,65.16V199.32a7.35,7.35,0,0,1-7.36,7.32,7.22,7.22,0,0,1-3.29-.79l-1.43-.74V72a7.33,7.33,0,0,0-4-6.53L749.36,8.79v-1A7.31,7.31,0,0,1,760,1.26L872,58.67A7.36,7.36,0,0,1,876,65.16Z"/><path class="cls-1" d="M863.91,205.1v1.07a7.31,7.31,0,0,1-7.28,7.34,7.2,7.2,0,0,1-3.38-.81l-.85-.44v-13Z"/><path class="cls-3" d="M863.91,72V205.1l-11.55-5.9V78.79a7.37,7.37,0,0,0-4-6.53l-99-50.76V8.79L859.9,65.47A7.32,7.32,0,0,1,863.91,72Z"/><path class="cls-3" d="M852.36,212.25V213a7.34,7.34,0,0,1-7.32,7.33,7.19,7.19,0,0,1-3.35-.8l-112-57.42a7.28,7.28,0,0,1-4-6.52V21.42a7.31,7.31,0,0,1,10.66-6.53l.85.44V148.79a7.35,7.35,0,0,0,4,6.53Z"/><path class="cls-2" d="M852.36,199.2v13l-111.12-57a7.35,7.35,0,0,1-4-6.53V15.34l12.1,6.2V141.91a7.29,7.29,0,0,0,4,6.53Z"/><path class="cls-1" d="M852.36,78.79V199.2l-99-50.76a7.29,7.29,0,0,1-4-6.53V21.54l99,50.78A7.31,7.31,0,0,1,852.36,78.79Z"/><path class="cls-1" d="M749.36,8.79V21.51l-12.1-6.2v-.74A7.34,7.34,0,0,1,747.93,8Z"/><path class="cls-4" d="M845.07,220.79a7.77,7.77,0,0,1-3.54-.86l-112-57.41a7.72,7.72,0,0,1-4.22-6.93V21.42a7.77,7.77,0,0,1,7.76-7.79h0a7.84,7.84,0,0,1,3.55.86l13,6.64,99,50.77a7.78,7.78,0,0,1,4.23,6.93V213a7.81,7.81,0,0,1-7.77,7.79Zm-112-206.24h0a6.87,6.87,0,0,0-6.86,6.88h0V155.58A6.83,6.83,0,0,0,730,161.7l112,57.42a6.94,6.94,0,0,0,3.13.75h0a6.88,6.88,0,0,0,6.86-6.88h0V78.79a6.83,6.83,0,0,0-3.73-6.12l-112-57.42a7,7,0,0,0-3.11-.71Z"/><path class="cls-4" d="M868.68,207.11a7.77,7.77,0,0,1-3.54-.86l-12.95-6.64-99-50.77a7.7,7.7,0,0,1-4.23-6.93V7.79A7.77,7.77,0,0,1,756.72,0h0a7.84,7.84,0,0,1,3.55.86l112,57.41a7.78,7.78,0,0,1,4.23,6.93V199.32a7.79,7.79,0,0,1-7.76,7.79ZM756.68.87h0a6.87,6.87,0,0,0-6.84,6.92h0V141.91a6.83,6.83,0,0,0,3.74,6.13l110.54,56.67,1.43.74a6.94,6.94,0,0,0,3.13.75h0a6.88,6.88,0,0,0,6.87-6.88V65.16A6.84,6.84,0,0,0,871.81,59l-112-57.42a7,7,0,0,0-3.1-.75Z"/><path class="cls-4" d="M856.59,214a7.81,7.81,0,0,1-3.55-.86l-.85-.43-111.12-57a7.74,7.74,0,0,1-4.23-6.93V14.6a7.78,7.78,0,0,1,7.75-7.81h0a7.79,7.79,0,0,1,3.54.85l1.44.74L860.12,65.07A7.76,7.76,0,0,1,864.35,72V205.1h0v1.07a7.79,7.79,0,0,1-7.77,7.79h0ZM744.59,7.72h0a6.88,6.88,0,0,0-6.86,6.88V148.79a6.8,6.8,0,0,0,3.73,6.12l112,57.43a7.12,7.12,0,0,0,3.14.76h0a6.88,6.88,0,0,0,6.86-6.89V72a6.86,6.86,0,0,0-3.73-6.13L749.18,9.21l-1.43-.73a6.82,6.82,0,0,0-3.13-.76Z"/><path class="cls-5" d="M0,156.6l7.32-40.38a2.44,2.44,0,0,1,.89-1.56,2.66,2.66,0,0,1,1.7-.62H42.27a10.34,10.34,0,0,1,5,1.21,8.57,8.57,0,0,1,3.47,3.31A9.33,9.33,0,0,1,52,123.34a10.38,10.38,0,0,1-.2,2l-1.87,10.32a12.81,12.81,0,0,1-2.6,5.85,15.23,15.23,0,0,1-5,4.21,13.12,13.12,0,0,1-6.15,1.41H15.41a1,1,0,0,0-.65.27,1,1,0,0,0-.39.57l-1.52,8.44A2.53,2.53,0,0,1,12,158a2.62,2.62,0,0,1-1.7.62H1.72A1.54,1.54,0,0,1,0,157.27,2.71,2.71,0,0,1,0,157Zm38.56-29.31v-.49a2.18,2.18,0,0,0-.69-1.59,2.26,2.26,0,0,0-1.65-.67H19.51a1.07,1.07,0,0,0-.66.26,1,1,0,0,0-.35.61L16.63,135.7v.19a.89.89,0,0,0,.84.85H34.26a3,3,0,0,0,2-.76,3.1,3.1,0,0,0,1.14-1.83Z"/><path class="cls-5" d="M93.71,117.62a9.68,9.68,0,0,1,4.74,1.14,8.2,8.2,0,0,1,3.19,3.21,8.87,8.87,0,0,1,1.14,4.48,8.78,8.78,0,0,1-.19,1.84L99,148a12.2,12.2,0,0,1-2.4,5.35,14.09,14.09,0,0,1-4.54,3.87,12.33,12.33,0,0,1-5.71,1.4H62.72A9.56,9.56,0,0,1,58,157.46a7.93,7.93,0,0,1-3.2-3.14,8.79,8.79,0,0,1-1.14-4.48,8.89,8.89,0,0,1,.18-1.86l3.54-19.68A12.2,12.2,0,0,1,59.75,123a13.82,13.82,0,0,1,4.63-3.86,12.14,12.14,0,0,1,5.69-1.41ZM66.37,146.8a1.24,1.24,0,0,0,.34.82,1.15,1.15,0,0,0,.86.38H85.33A1.91,1.91,0,0,0,87,146.59l3.08-17v-.21a1.2,1.2,0,0,0-1.19-1.2H71.14a1.7,1.7,0,0,0-1.07.43,1.57,1.57,0,0,0-.62.95L66.37,146.6Z"/><path class="cls-5" d="M176.27,118.93a1.54,1.54,0,0,1-.21.72l-20.58,37.48a2.88,2.88,0,0,1-1,1.07,2.57,2.57,0,0,1-1.4.41H145a1.73,1.73,0,0,1-1.86-1.41l-3.64-18.61a.63.63,0,0,0-.24-.36.6.6,0,0,0-.28-.13h0a.62.62,0,0,0-.35.1.53.53,0,0,0-.23.24l-10.44,18.79a2.84,2.84,0,0,1-2.42,1.41h-8.12a1.74,1.74,0,0,1-1.86-1.41l-7-37.49v-.22a1.48,1.48,0,0,1,.45-1.19,1.57,1.57,0,0,1,1.18-.45h9.54a1.74,1.74,0,0,1,1.86,1.4l3.66,19a.56.56,0,0,0,.26.36.76.76,0,0,0,.29.13h0a.65.65,0,0,0,.58-.3l10.58-19.31a2.71,2.71,0,0,1,2.42-1.4h6.62a1.69,1.69,0,0,1,1.87,1.4l3.57,19.07a.51.51,0,0,0,.28.38.7.7,0,0,0,.34.12.53.53,0,0,0,.57-.34l10.62-19.13a2.7,2.7,0,0,1,2.41-1.49h9.56a1,1,0,0,1,1,.52A1.17,1.17,0,0,1,176.27,118.93Z"/><path class="cls-5" d="M218.07,117.74a1,1,0,0,1,1.13.87.81.81,0,0,1,0,.22.74.74,0,0,1,0,.21l-1.41,7.73a1.56,1.56,0,0,1-.56,1,1.53,1.53,0,0,1-1,.37H192.31a.57.57,0,0,0-.35.18.46.46,0,0,0-.23.34l-.84,4.69h19.75a1,1,0,0,1,1.11.86.74.74,0,0,1,0,.21,1,1,0,0,1,0,.24l-1.28,7a1.57,1.57,0,0,1-1.6,1.4H189.55a.74.74,0,0,0-.36.19.44.44,0,0,0-.21.35l-.79,4.38H212.6a1.12,1.12,0,0,1,.85.3,1,1,0,0,1,.29.78.89.89,0,0,1,0,.23l-1.4,8a1.46,1.46,0,0,1-.55,1,1.62,1.62,0,0,1-1.06.36H176.27a1.92,1.92,0,0,1-1.41-.5,1.81,1.81,0,0,1-.53-1.41,2,2,0,0,1,0-.35l6.61-36.4a2.8,2.8,0,0,1,.94-1.62,2.62,2.62,0,0,1,1.73-.65Z"/><path class="cls-5" d="M257.69,117.79a9.58,9.58,0,0,1,4.72,1.14,8.11,8.11,0,0,1,3.2,3.11,9.57,9.57,0,0,1,.95,6.36l-1.69,9.28a12,12,0,0,1-2.47,5.44,14.42,14.42,0,0,1-4.88,3.92.14.14,0,0,0-.14.13s.09,0,.26-.1l4.37,9a1.46,1.46,0,0,1,.22.81,1.56,1.56,0,0,1-1.51,1.61h-9.16a8.73,8.73,0,0,1-2.33-.22,1.62,1.62,0,0,1-1-.87L243.88,149a1.25,1.25,0,0,0-1.09-.63h-9.33a.48.48,0,0,0-.32.13.63.63,0,0,0-.23.28l-1.4,7.61a2.58,2.58,0,0,1-.93,1.62,2.76,2.76,0,0,1-1.74.62h-7.72a1.85,1.85,0,0,1-1.4-.51,1.76,1.76,0,0,1-.51-1.32,2.41,2.41,0,0,1,0-.38L225.82,120a2.59,2.59,0,0,1,.92-1.6,2.68,2.68,0,0,1,1.75-.64ZM254,130v-.38a1.59,1.59,0,0,0-.51-1.18,1.7,1.7,0,0,0-1.26-.51h-15a.56.56,0,0,0-.35.13.63.63,0,0,0-.23.28l-1.77,9.84h15.58a2.4,2.4,0,0,0,1.57-.62,2.51,2.51,0,0,0,.9-1.41Z"/><path class="cls-5" d="M312.65,117.74a1,1,0,0,1,1.12.85,1,1,0,0,1,0,.24.37.37,0,0,1,0,.21l-1.4,7.73a1.59,1.59,0,0,1-1.61,1.34H286.87a.54.54,0,0,0-.36.18.49.49,0,0,0-.22.34l-.84,4.69h19.68a1,1,0,0,1,1.13.88,1.21,1.21,0,0,1,0,.19v.24l-1.28,7a1.74,1.74,0,0,1-.56,1,1.53,1.53,0,0,1-1,.37H284.13a.72.72,0,0,0-.37.18.46.46,0,0,0-.22.35l-.79,4.39h24.37a1.19,1.19,0,0,1,.85.29,1.05,1.05,0,0,1,.29.79.89.89,0,0,1,0,.23l-1.4,8a1.37,1.37,0,0,1-.54,1,1.71,1.71,0,0,1-1.06.37H270.83a1.92,1.92,0,0,1-1.4-.51,1.78,1.78,0,0,1-.52-1.4,2,2,0,0,1,0-.35l6.59-36.41a2.75,2.75,0,0,1,1-1.61,2.54,2.54,0,0,1,1.72-.65Z"/><path class="cls-5" d="M350.53,117.62a9.67,9.67,0,0,1,4.71,1.14,8.37,8.37,0,0,1,3.21,3.15,8.71,8.71,0,0,1,1.14,4.45,9.71,9.71,0,0,1-.17,1.87l-3.58,19.68a11.82,11.82,0,0,1-2.33,5.41,14.56,14.56,0,0,1-4.64,3.87,12.33,12.33,0,0,1-5.71,1.4H315.73a1.88,1.88,0,0,1-1.41-.5,1.86,1.86,0,0,1-.51-1.32,2.41,2.41,0,0,1,0-.38l6.6-36.55a2.75,2.75,0,0,1,2.72-2.22ZM329.14,148h13a1.75,1.75,0,0,0,1.05-.42,1.55,1.55,0,0,0,.61-1l3.1-17.27a1,1,0,0,0-.35-.81,1.24,1.24,0,0,0-.85-.36h-13a1.75,1.75,0,0,0-1.09.43,1.58,1.58,0,0,0-.6.95l-3.08,17.06v.17a1.5,1.5,0,0,0,.23.82A1.44,1.44,0,0,0,329.14,148Z"/><path class="cls-5" d="M375.29,158.61a1.53,1.53,0,0,1-1.7-1.34.93.93,0,0,1,0-.29,2,2,0,0,1,0-.35l7.35-40.41a2.34,2.34,0,0,1,.9-1.53,2.53,2.53,0,0,1,1.66-.62h32.39a10.28,10.28,0,0,1,5,1.21,8.8,8.8,0,0,1,3.43,3.31,9.31,9.31,0,0,1,1.2,4.78,9.65,9.65,0,0,1-.19,2l-.61,3.49a.8.8,0,0,0-.1.43,9,9,0,0,1-1.32,3.26,17.61,17.61,0,0,1-2.92,3.35,1.82,1.82,0,0,1,1.41.9,9.6,9.6,0,0,1,1,1.57,7.15,7.15,0,0,1,.52,2.81,14.68,14.68,0,0,1-.31,2.56l-.67,4.08a12.24,12.24,0,0,1-2.43,5.42,13.84,13.84,0,0,1-4.68,3.92,12.33,12.33,0,0,1-5.77,1.41Zm13.17-11.25a.82.82,0,0,0,.62.28H407a3,3,0,0,0,2-.77,3,3,0,0,0,1.12-1.84,1.15,1.15,0,0,1,.09-.49,8.75,8.75,0,0,0,.18-1.25,2.18,2.18,0,0,0-.69-1.6A2.25,2.25,0,0,0,408,141H390.12a1,1,0,0,0-.65.26,1.25,1.25,0,0,0-.39.59l-.87,4.76v.12a.93.93,0,0,0,.25.67Zm3-16.48a.8.8,0,0,0,.59.25h16.76a3.13,3.13,0,0,0,2-.76,3.07,3.07,0,0,0,1.14-1.83,1.31,1.31,0,0,1,0-.28c.09-.46.15-.93.2-1.4a2.22,2.22,0,0,0-.69-1.61,2.32,2.32,0,0,0-1.63-.66H393.09a1,1,0,0,0-.65.26.86.86,0,0,0-.37.62l-.87,4.73v.07A.83.83,0,0,0,391.46,130.88Z"/><path class="cls-5" d="M454.31,143.61l-.49,1.1-2.12,11.66a2.61,2.61,0,0,1-.93,1.62,2.76,2.76,0,0,1-1.74.62h-7.71a1.88,1.88,0,0,1-1.4-.51,1.8,1.8,0,0,1-.51-1.32,2.41,2.41,0,0,1,0-.38l2.1-11.66c0-.31-.07-.72-.12-1.21l-10-23.73a1.31,1.31,0,0,1-.08-.43,1.46,1.46,0,0,1,.46-1.1,1.65,1.65,0,0,1,1.17-.45h9.77a1.69,1.69,0,0,1,1.74,1.11l5.06,12a.48.48,0,0,0,.26.31.77.77,0,0,0,.29.1.6.6,0,0,0,.49-.21l9.55-12.23a2.69,2.69,0,0,1,2.17-1.08h9.77a1.19,1.19,0,0,1,.85.29,1.05,1.05,0,0,1,.29.79,1.48,1.48,0,0,1-.35.9Z"/></g></g></g></svg>