<svg xmlns="http://www.w3.org/2000/svg" viewBox="0 0 346.64 382.18"><defs><style>.cls-1{fill:#79d1ee;}.cls-2{fill:#f05454;}.cls-3{fill:#fde343;}.cls-4{fill:#231f20;}.cls-5{isolation:isolate;}</style></defs><g id="Layer_2" data-name="Layer 2"><g id="Layer_1-2" data-name="Layer 1"><path class="cls-1" d="M265.59,314.49v17.79h0a21.86,21.86,0,0,0-.27-3,20.06,20.06,0,0,0-1.78-5.76,21.73,21.73,0,0,0,2-9Z"/><path class="cls-1" d="M265.32,310.88a21.68,21.68,0,0,1-1.78,12.62q-6.09-13-31.08-25.42L222.32,293V275l.15-.3,10,5Q263,294.88,265.32,310.88Z"/><path class="cls-2" d="M265.58,332.28q.36,18-29.4,33.08A149.21,149.21,0,0,1,196,379.09l-.07-.39v-18h0A149.38,149.38,0,0,0,236.18,347q21.65-11,27.35-23.48a20.06,20.06,0,0,1,1.78,5.76A21.86,21.86,0,0,1,265.58,332.28Z"/><path class="cls-3" d="M130.93,351.53a70.77,70.77,0,0,0,28.41,6,88,88,0,0,0,38.84-10q18.16-9.21,18.43-18.93V310.24a11.34,11.34,0,0,0-.52-3.66q-2.68-7.81-17.64-15.26l-15.4-7.68a4.64,4.64,0,0,0-4.17,0l-29,14.72L114,316.61a4.62,4.62,0,0,0-2.52,4.49v17.66a4.61,4.61,0,0,0,2.56,4.5l11.75,5.85C127.49,350,129.21,350.8,130.93,351.53Zm-30.51-4.84-.12-.06-41-20.38,111.61-56.69a4.61,4.61,0,0,1,4.17,0L222.32,293l10.16,5.05q25,12.44,31.07,25.42Q257.84,336,236.2,347A149.35,149.35,0,0,1,196,360.72a155.48,155.48,0,0,1-31.2,2.61Q133,362.9,100.42,346.69Z"/><path class="cls-1" d="M222.47,274.73l-.15.3v18l-47.23-23.49a4.68,4.68,0,0,0-2-.49V250.69a4.66,4.66,0,0,1,2,.49Z"/><path class="cls-1" d="M216.6,310.24q-.14,4.54-4.19,9-4.54-4.85-14-9.53L183,302a4.62,4.62,0,0,0-4.16,0l-29,14.71V298.39l29-14.72a4.62,4.62,0,0,1,4.16,0l15.4,7.68q15,7.44,17.64,15.26A11.16,11.16,0,0,1,216.6,310.24Z"/><path class="cls-2" d="M216.6,328.1v.52q-.27,9.7-18.43,18.93a88,88,0,0,1-38.84,10,71,71,0,0,1-28.41-6V333.15a70.94,70.94,0,0,0,28.41,6,88,88,0,0,0,38.84-10q9.66-4.91,14.26-9.94A16.35,16.35,0,0,1,216.1,325,11.57,11.57,0,0,1,216.6,328.1Z"/><path class="cls-2" d="M216.6,310.24V328.1a11.22,11.22,0,0,0-.52-3.14,16.08,16.08,0,0,0-3.67-5.73Q216.48,314.79,216.6,310.24Z"/><path class="cls-2" d="M196,378.69l.07.39a155.39,155.39,0,0,1-31.27,2.62q-31.75-.45-64.33-16.63V346.69q32.58,16.17,64.33,16.62a154.75,154.75,0,0,0,31.2-2.6h0Z"/><path class="cls-1" d="M173.07,250.69v18.38a4.71,4.71,0,0,0-2.14.51L59.31,326.25l-10-5a4.63,4.63,0,0,1,0-8.29l121.66-61.82A4.71,4.71,0,0,1,173.07,250.69Z"/><path class="cls-1" d="M164.69,218.05v21.53a4.7,4.7,0,0,1-.56,2.2l-16.39-10.44a4.6,4.6,0,0,0,.6-2.26V218.59l9.68-4.7a4.64,4.64,0,0,1,6.2,2.14A4.57,4.57,0,0,1,164.69,218.05Z"/><path class="cls-2" d="M164.13,241.79a4.7,4.7,0,0,1-2,2L90.81,278.34h0L75.9,267.16l69.83-33.91a4.52,4.52,0,0,0,2-1.92Z"/><path class="cls-1" d="M159.6,98.52a4.61,4.61,0,0,1,3,4.34v21.53a4.63,4.63,0,0,1-.44,2l-.09,0-16.37-10.23a4.69,4.69,0,0,0,.55-2.2V103.4L156,98.7A4.6,4.6,0,0,1,159.6,98.52Z"/><path class="cls-1" d="M146.84,204.14l15.74,10a4.59,4.59,0,0,0-4.56-.29l-9.69,4.7v-11A4.58,4.58,0,0,0,146.84,204.14Z"/><path class="cls-2" d="M162.11,126.32l.09,0a4.57,4.57,0,0,1-2.17,2.21l-21.34,10.37-16.54-10.33,0-.07,21.56-10.46a4.64,4.64,0,0,0,2.06-2Z"/><path class="cls-1" d="M144.9,89.05l14.7,9.47a4.6,4.6,0,0,0-3.62.18l-9.69,4.7v-11A4.64,4.64,0,0,0,144.9,89.05Z"/><path class="cls-1" d="M152.68,158.86a4.62,4.62,0,0,1,2.46,4.09V183a4.66,4.66,0,0,1-.39,1.88l-16.38-10.43a4.7,4.7,0,0,0,.43-1.95v-9.05l9.69-4.7a4.61,4.61,0,0,1,4.17.06Z"/><path class="cls-2" d="M138.36,174.48l16.37,10.43a4.68,4.68,0,0,1-2.21,2.31L92.2,216.5l-.08-.16L77.35,205.27l58.82-28.55A4.71,4.71,0,0,0,138.36,174.48Z"/><path class="cls-1" d="M137,148.78l15.66,10.06a4.63,4.63,0,0,0-4.18-.06l-9.68,4.7v-11A4.62,4.62,0,0,0,137,148.78Z"/><path class="cls-1" d="M111.45,321.13a4.62,4.62,0,0,1,2.52-4.49l35.93-18.25v18.38L124,329.91l-10-5A4.6,4.6,0,0,1,111.45,321.13Z"/><path class="cls-3" d="M75.89,267.16,32.36,288.28V161.61A4.63,4.63,0,0,1,35,157.44L141.72,105.6l4.57-2.2v10.49a4.65,4.65,0,0,1-2.62,4.18l-21.56,10.47-61,29.61a4.64,4.64,0,0,0-2.61,4.17v14.29a4.61,4.61,0,0,0,2.71,4.23h0l15.1,9.66a4.65,4.65,0,0,0,5.2.77l32.72-15.89,24.53-11.9v9.05a4.66,4.66,0,0,1-2.61,4.17L77.36,205.25l-16.22,7.88a4.49,4.49,0,0,0-1.61,1.29,4.56,4.56,0,0,0-1,2.88v19a4.6,4.6,0,0,0,1.92,3.76,3,3,0,0,0,.38.24l0,0,15.92,10.25h0l.39.24,0,0a4.6,4.6,0,0,0,4.34.15l50-24.26,16.83-8.17v10.49a4.68,4.68,0,0,1-2.61,4.17Z"/><path class="cls-2" d="M148.34,207.55v11l-16.83,8.17-.1-.2-14.73-11,25-12.14a4.62,4.62,0,0,1,3.8-.11l1.36.87A4.61,4.61,0,0,1,148.34,207.55Z"/><path class="cls-2" d="M146.29,92.37v11l-4.58,2.23,0-.09L125.44,95.08l14.2-6.91a4.54,4.54,0,0,1,3.73-.14l1.53,1A4.63,4.63,0,0,1,146.29,92.37Z"/><path class="cls-2" d="M141.68,105.54l0,.08L35,157.45a4.73,4.73,0,0,0-1.64,1.34l-16.74-9.9h0a4.54,4.54,0,0,1,2-1.92L125.43,95.13Z"/><path class="cls-2" d="M138.79,152.45v11l-24.53,11.91-.13-.27-14.67-11,32.66-15.86a4.61,4.61,0,0,1,4.17,0h0l.68.44A4.64,4.64,0,0,1,138.79,152.45Z"/><path class="cls-2" d="M122.15,128.6l16.54,10.33-61.2,29.71a4.52,4.52,0,0,0-1.83,1.61L59.28,159.78a4.61,4.61,0,0,1,1.86-1.64l61-29.6Z"/><path class="cls-2" d="M131.41,226.56l.1.2L81.54,251a4.6,4.6,0,0,1-4.34-.15l0,0-.38-.24h0a4.62,4.62,0,0,1-1.92-3.76v-11l41.82-20.3Z"/><path class="cls-2" d="M111.45,338.8A4.56,4.56,0,0,1,114,335L124,329.91l1.74.86q2.58,1.29,5.15,2.38v18.38q-2.56-1.09-5.15-2.38L114,343.3A4.61,4.61,0,0,1,111.45,338.8Z"/><path class="cls-2" d="M124,329.91,114,335a4.56,4.56,0,0,0-2.52,3.78V321.14a4.55,4.55,0,0,0,2.56,3.79Z"/><path class="cls-2" d="M114.13,175.13l.13.26L81.54,191.28a4.58,4.58,0,0,1-3.78.12l-1.42-.91a4.56,4.56,0,0,1-1.46-3.38v-11l24.57-11.93Z"/><path class="cls-2" d="M100.42,346.69v18.39l-.12-.06-51-25.38a4.63,4.63,0,0,1,0-8.28l10.05-5.11,41,20.39Z"/><path class="cls-2" d="M92.21,216.49l-14.72,7.14a4.68,4.68,0,0,0-1.73,1.45l-.35-.12L59.53,214.42a4.49,4.49,0,0,1,1.61-1.29l16.22-7.87,14.78,11.07Z"/><path class="cls-2" d="M33.52,302.4a4.56,4.56,0,0,1-1.15-3.07v-11L75.9,267.18l14.9,11.16h0L39,303.49A4.62,4.62,0,0,1,33.52,302.4Z"/><path class="cls-2" d="M76.78,250.61,60.84,240.37a4.6,4.6,0,0,0,4.34.15l9.68-4.7v11A4.65,4.65,0,0,0,76.78,250.61Z"/><path class="cls-2" d="M76.34,190.49l-15.1-9.66h0a4.59,4.59,0,0,0,3.95-.05l9.67-4.71v11A4.6,4.6,0,0,0,76.34,190.49Z"/><path class="cls-3" d="M75.76,225.08a4.68,4.68,0,0,0-.88,2.73v8l-9.69,4.7a4.62,4.62,0,0,1-4.35-.15l0,0-.38-.25a4.59,4.59,0,0,1-1.92-3.75v-19a4.59,4.59,0,0,1,1-2.88L75.41,225Z"/><path class="cls-3" d="M59.28,159.78l16.38,10.47a4.5,4.5,0,0,0-.77,2.56v3.26l-9.69,4.7a4.63,4.63,0,0,1-6.2-2.14,4.71,4.71,0,0,1-.46-2V162.31A4.53,4.53,0,0,1,59.28,159.78Z"/><path class="cls-2" d="M59.31,326.25l-10.05,5.11a4.57,4.57,0,0,0-2.54,4.13V317.12a4.59,4.59,0,0,0,2.57,4.15Z"/><path class="cls-1" d="M33.52,302.4l-15.21-9.57a4.59,4.59,0,0,0,4.36.17l9.69-4.71v11A4.57,4.57,0,0,0,33.52,302.4Z"/><path class="cls-1" d="M16.59,148.88l16.74,9.91a4.6,4.6,0,0,0-1,2.83v48.81L16.08,200.8H16V151.12a4.62,4.62,0,0,1,.58-2.24Z"/><path class="cls-1" d="M18.29,292.83a4.64,4.64,0,0,1-2.3-4v-88h.07l16.29,9.63v77.86L22.65,293a4.59,4.59,0,0,1-4.36-.17Z"/><path class="cls-4" d="M167.48,382.18l-2.72,0c-21.14-.3-42.85-5.91-64.52-16.68l-.13-.06-51-25.37a5.09,5.09,0,0,1-2.29-6.83A5.14,5.14,0,0,1,49.05,331l10.06-5.1,111.61-56.7a5.14,5.14,0,0,1,4.57,0l57.39,28.55C249.35,306,259.87,314.6,264,323.3a20.56,20.56,0,0,1,1.82,5.89,22.45,22.45,0,0,1,.27,3.07c.12,6.08-2.33,12-7.28,17.56s-12.44,10.89-22.37,15.93a149.17,149.17,0,0,1-40.28,13.77A155.35,155.35,0,0,1,167.48,382.18ZM173,269.51a4.18,4.18,0,0,0-1.9.45L59.52,326.65l-10.06,5.11a4.21,4.21,0,0,0-1.85,1.86,4.2,4.2,0,0,0,1.88,5.62l51.15,25.43c21.55,10.71,43.13,16.29,64.14,16.58A154.56,154.56,0,0,0,196,378.64,148.61,148.61,0,0,0,236,365c19.58-9.95,29.39-20.94,29.16-32.67a22.3,22.3,0,0,0-.26-2.95,20.18,20.18,0,0,0-1.74-5.64c-4-8.52-14.39-17-30.88-25.2l-57.38-28.55A4.22,4.22,0,0,0,173,269.51Z"/><path class="cls-4" d="M158.77,357.93a71.84,71.84,0,0,1-28-6c-1.72-.73-3.46-1.53-5.19-2.39l-11.75-5.85a5.09,5.09,0,0,1,0-9.09l64.9-33a5.1,5.1,0,0,1,4.57,0l15.4,7.67c6.3,3.14,11,6.37,14.1,9.62a16.76,16.76,0,0,1,3.77,5.86,12,12,0,0,1,.55,3.29v.52c-.19,6.64-6.47,13.14-18.68,19.34a88.85,88.85,0,0,1-39,10ZM181,302a4.25,4.25,0,0,0-1.88.44l-64.9,33a4.18,4.18,0,0,0-1.83,5.63,4.14,4.14,0,0,0,1.86,1.84L126,348.71c1.71.85,3.43,1.65,5.13,2.37A70.73,70.73,0,0,0,159.33,357,88,88,0,0,0,198,347.11c11.89-6,18-12.27,18.18-18.54v-.5a10.66,10.66,0,0,0-.5-3,15.6,15.6,0,0,0-3.56-5.52h0c-3-3.17-7.64-6.34-13.84-9.43l-15.4-7.68A4.29,4.29,0,0,0,181,302Z"/><path class="cls-4" d="M167.46,363.81l-2.72,0c-21.14-.3-42.85-5.9-64.53-16.67l-.12-.07-51-25.39a5.07,5.07,0,0,1,0-9.07l121.67-61.83a5.1,5.1,0,0,1,4.57,0l47.38,23.58,10,5c20.38,10.14,31.52,20.74,33.1,31.51a21.57,21.57,0,0,1,.28,3.68,22.1,22.1,0,0,1-2.1,9.19c-3.83,8.38-13.11,16.36-27.56,23.7A149.2,149.2,0,0,1,196,361.17,155.41,155.41,0,0,1,167.46,363.81ZM173,251.12a4.09,4.09,0,0,0-1.87.45L49.46,313.39a4.16,4.16,0,0,0-2.29,3.73h0a4.17,4.17,0,0,0,2.32,3.73l51.12,25.46c21.55,10.71,43.13,16.28,64.14,16.58a156,156,0,0,0,31.11-2.6,149,149,0,0,0,40.1-13.7c14.27-7.25,23.4-15.08,27.16-23.28a21.17,21.17,0,0,0,2-8.82,19.91,19.91,0,0,0-.26-3.53c-1.54-10.47-12.51-20.84-32.61-30.84l-10-5-47.37-23.57A4.17,4.17,0,0,0,173,251.12Z"/><path class="cls-4" d="M158.78,339.56a71.93,71.93,0,0,1-28-6c-1.72-.73-3.46-1.53-5.19-2.39l-11.75-5.85a5.15,5.15,0,0,1-2.26-2.24,5.1,5.1,0,0,1,2.22-6.86L149.7,298l29-14.72a5.1,5.1,0,0,1,4.57,0l15.4,7.68c10,5,16,10.21,17.87,15.52a11.49,11.49,0,0,1,.54,3.81h0c-.09,3.13-1.53,6.24-4.28,9.26-3.1,3.38-7.94,6.76-14.39,10a88.89,88.89,0,0,1-39,10Zm22.18-56a4.25,4.25,0,0,0-1.88.44l-29,14.72L114.18,317a4.2,4.2,0,0,0-1.83,5.64,4.29,4.29,0,0,0,1.86,1.84L126,330.34c1.7.85,3.43,1.65,5.13,2.37a70.43,70.43,0,0,0,28.23,5.94,88,88,0,0,0,38.64-9.9c6.36-3.23,11.11-6.54,14.13-9.85,2.6-2.85,4-5.77,4.05-8.68h0a10.67,10.67,0,0,0-.5-3.5c-1.74-5.06-7.6-10.11-17.41-15l-15.4-7.67A4.16,4.16,0,0,0,181,283.6Z"/><path class="cls-4" d="M18.07,293.22a5.1,5.1,0,0,1-2.53-4.39V151.12a5.07,5.07,0,0,1,2.86-4.58L125.22,94.7l14.21-6.91a5.1,5.1,0,0,1,6.8,2.36,5.16,5.16,0,0,1,.51,2.22v21.52a5.12,5.12,0,0,1-2.87,4.58l-21.56,10.47-61,29.62A4.2,4.2,0,0,0,59,162.32v14.29a4.19,4.19,0,0,0,4.18,4.19,4.3,4.3,0,0,0,1.83-.42l9.68-4.72,24.57-11.93,32.67-15.86a5,5,0,0,1,4.57.06l-.42.8a4.18,4.18,0,0,0-3.76,0L99.64,164.54,75.06,176.48l-9.67,4.71a5.2,5.2,0,0,1-2.23.51h0a5.09,5.09,0,0,1-5.09-5.09V162.32a5.16,5.16,0,0,1,2.87-4.58l61-29.61,21.56-10.47a4.18,4.18,0,0,0,2.35-3.76V92.37a4.19,4.19,0,0,0-6-3.77l-14.2,6.92L18.8,147.35a4.2,4.2,0,0,0-2.36,3.77V288.83a4.2,4.2,0,0,0,2.08,3.61Z"/><path class="cls-4" d="M20.65,293.91a5.08,5.08,0,0,1-2.56-.7l.45-.78a4.15,4.15,0,0,0,3.93.15L75.7,266.75l69.83-33.9a4.19,4.19,0,0,0,2.36-3.77V207.55a4.15,4.15,0,0,0-1.35-3.08,4.28,4.28,0,0,0-1.23-.78,4.15,4.15,0,0,0-3.43.1L75.06,236.22l-9.68,4.7a5,5,0,0,1-4.76-.17l.45-.77a4.13,4.13,0,0,0,3.92.13l9.68-4.7L141.48,203a5,5,0,0,1,4.17-.12,4.83,4.83,0,0,1,1.5.95,5,5,0,0,1,1.64,3.75v21.52a5.09,5.09,0,0,1-2.86,4.58L76.09,267.57,22.87,293.39A5.12,5.12,0,0,1,20.65,293.91Z"/><path class="cls-4" d="M60.61,240.74a3.87,3.87,0,0,1-.43-.27,5.06,5.06,0,0,1-2.11-4.12v-19a5.09,5.09,0,0,1,2.87-4.58l16.22-7.87L136,176.29a4.18,4.18,0,0,0,2.36-3.76V152.45a4.15,4.15,0,0,0-1.62-3.31,4.38,4.38,0,0,0-.62-.4l.42-.8a5.31,5.31,0,0,1,.75.48,5.08,5.08,0,0,1,2,4v20.08a5,5,0,0,1-.47,2.14,5.14,5.14,0,0,1-2.39,2.44L77.55,205.66l-16.22,7.88A4.18,4.18,0,0,0,59,217.3v19a4.2,4.2,0,0,0,1.73,3.39L61,240Z"/><path class="cls-4" d="M37,304.41a5.08,5.08,0,0,1-5.07-5.1V161.61A5.09,5.09,0,0,1,33,158.49a5.21,5.21,0,0,1,1.8-1.46l106.75-51.84,4.56-2.19,9.69-4.71a5.08,5.08,0,0,1,7.31,4.56v21.54a5.13,5.13,0,0,1-2.86,4.57l-21.34,10.37L77.68,169a4.21,4.21,0,0,0-2.35,3.77V187.1a4.19,4.19,0,0,0,4.18,4.19h0a4.22,4.22,0,0,0,1.82-.42L114.06,175l34.22-16.61a5.06,5.06,0,0,1,4.58.08l-.42.79a4.17,4.17,0,0,0-3.77-.06l-66.94,32.5a5.11,5.11,0,0,1-2.21.51h0a5.1,5.1,0,0,1-5.09-5.09V172.81a5.1,5.1,0,0,1,2.87-4.58l61.2-29.71,21.34-10.37a4.22,4.22,0,0,0,2.36-3.77V102.86a4.3,4.3,0,0,0-.42-1.83,4.18,4.18,0,0,0-5.6-1.92l-9.69,4.7L141.92,106,35.18,157.84a4.22,4.22,0,0,0-2.36,3.77V299.32a4.11,4.11,0,0,0,1,2.77,4.16,4.16,0,0,0,5,1l51.79-25.15,71.27-34.59a4.2,4.2,0,0,0,2.36-3.76V218.05a4.23,4.23,0,0,0-.43-1.82,4.18,4.18,0,0,0-5.59-1.93L81.74,251.43a5.07,5.07,0,0,1-4.77-.17l.46-.78a4.14,4.14,0,0,0,3.91.14l50-24.27,26.52-12.87a5.1,5.1,0,0,1,6.8,2.35,5.19,5.19,0,0,1,.51,2.22v21.53a5.11,5.11,0,0,1-2.87,4.57L91,278.74,39.22,303.89A5,5,0,0,1,37,304.41Z"/><path class="cls-4" d="M77,251.25l-.42-.27.51-.74.35.22Z"/><path class="cls-4" d="M76.53,251a5.09,5.09,0,0,1-2.11-4.12v-19a5.13,5.13,0,0,1,2.87-4.58L92,216.08l60.32-29.28a4.2,4.2,0,0,0,2.36-3.77V163a4.16,4.16,0,0,0-2.22-3.69l.42-.8a5.05,5.05,0,0,1,2.7,4.49V183a5.08,5.08,0,0,1-2.87,4.58L92.41,216.89,77.68,224a4.21,4.21,0,0,0-2.35,3.77v19a4.14,4.14,0,0,0,1.73,3.39Z"/><rect class="cls-4" x="99.97" y="346.45" width="0.9" height="18.9"/><rect class="cls-4" x="195.5" y="360.73" width="0.9" height="17.97"/><rect class="cls-4" x="221.86" y="275.03" width="0.9" height="17.97"/><rect class="cls-4" x="172.61" y="250.87" width="0.9" height="17.97"/><rect class="cls-4" x="265.14" y="314.49" width="0.9" height="17.97"/><rect class="cls-4" x="149.45" y="298.39" width="0.9" height="18.68"/><rect class="cls-4" x="130.47" y="333.15" width="0.9" height="18.62"/><rect class="cls-4" x="216.15" y="310.07" width="0.9" height="19.02"/><rect class="cls-4" x="111" y="320.52" width="0.9" height="18.47"/><rect class="cls-4" x="46.27" y="316.68" width="0.9" height="18.9"/><rect class="cls-4" x="24.51" y="144.11" width="0.9" height="19.45" transform="translate(-120.15 97) rotate(-59.4)"/><rect class="cls-4" x="23.77" y="196.16" width="0.9" height="18.92" transform="translate(-165.1 121.8) rotate(-59.4)"/><polygon class="cls-4" points="35.48 304.17 17.88 293.1 18.37 292.34 18.55 292.45 35.96 303.4 35.48 304.17"/><rect class="cls-4" x="123.5" y="211.63" width="0.9" height="18.66" transform="translate(-127.2 187.61) rotate(-53.15)"/><polygon class="cls-4" points="91.86 216.69 76.93 205.5 77.47 204.78 77.63 204.9 92.4 215.97 91.86 216.69"/><polygon class="cls-4" points="113.86 175.49 98.92 164.3 99.47 163.58 99.73 163.78 114.4 174.76 113.86 175.49"/><polygon class="cls-4" points="75.16 225.34 59.23 214.77 59.74 214.02 59.78 214.05 75.66 224.59 75.16 225.34"/><polygon class="cls-4" points="77.51 191.78 76.1 190.87 61 181.21 61.48 180.45 78 191.02 77.51 191.78"/><polygon class="cls-4" points="75.47 170.67 75.42 170.64 58.94 160.09 59.44 159.34 59.53 159.4 75.94 169.9 75.47 170.67"/><polygon class="cls-4" points="76.98 251.26 76.94 251.25 76.5 250.96 60.2 240.48 60.69 239.73 61.08 239.98 77.42 250.48 76.98 251.26"/><polygon class="cls-4" points="90.53 278.7 75.59 267.5 76.15 266.79 76.17 266.81 91.07 277.98 90.53 278.7"/><polygon class="cls-4" points="159.37 98.91 143.11 88.44 143.6 87.68 159.87 98.16 159.37 98.91"/><polygon class="cls-4" points="141.43 105.93 125.16 95.45 125.66 94.7 125.69 94.71 141.92 105.17 141.43 105.93"/><polygon class="cls-4" points="161.88 126.7 145.32 116.37 145.79 115.6 145.97 115.71 162.35 125.94 161.88 126.7"/><polygon class="cls-4" points="138.5 139.34 138.45 139.31 121.91 128.98 122.39 128.22 138.93 138.55 138.73 138.87 138.5 139.34"/><polygon class="cls-4" points="153.05 159.63 136.06 148.72 136.52 147.94 136.54 147.96 137.23 148.4 153.53 158.87 153.05 159.63"/><polygon class="cls-4" points="155.16 185.72 137.71 174.6 138.19 173.84 138.6 174.1 155.65 184.96 155.16 185.72"/><polygon class="cls-4" points="162.69 214.77 162.35 214.56 145.23 203.65 145.72 202.89 163.17 214.01 162.69 214.77"/><polygon class="cls-4" points="164.44 242.53 163.89 242.17 146.99 231.4 147.48 230.64 147.98 230.97 164.93 241.77 164.44 242.53"/><path class="cls-2" d="M330.65,144.37V278.53A7.34,7.34,0,0,1,320,285.06l-1.43-.74V151.24a7.32,7.32,0,0,0-4-6.53L204,88V87a7.31,7.31,0,0,1,10.66-6.53l112,57.41A7.35,7.35,0,0,1,330.65,144.37Z"/><path class="cls-1" d="M318.55,284.31v1.07a7.31,7.31,0,0,1-10.66,6.53l-.85-.44V278.42Z"/><path class="cls-3" d="M318.55,151.24V284.31L307,278.41V158a7.35,7.35,0,0,0-4-6.53l-99-50.76V88l110.54,56.68A7.32,7.32,0,0,1,318.55,151.24Z"/><path class="cls-3" d="M307,291.46v.74a7.33,7.33,0,0,1-7.32,7.33,7.25,7.25,0,0,1-3.35-.8l-112-57.42a7.29,7.29,0,0,1-4-6.52V100.63a7.31,7.31,0,0,1,10.66-6.53l.85.44V228a7.35,7.35,0,0,0,4,6.53Z"/><path class="cls-2" d="M307,278.41v13l-111.12-57a7.35,7.35,0,0,1-4-6.53V94.55l12.1,6.2V221.12a7.32,7.32,0,0,0,4,6.53Z"/><path class="cls-1" d="M307,158V278.41l-99-50.76a7.32,7.32,0,0,1-4-6.53V100.75l99,50.78A7.3,7.3,0,0,1,307,158Z"/><path class="cls-1" d="M204,88v12.72l-12.1-6.2v-.74a7.34,7.34,0,0,1,10.67-6.53Z"/><path class="cls-4" d="M299.71,300a7.8,7.8,0,0,1-3.54-.86l-112-57.41a7.73,7.73,0,0,1-4.22-6.93V100.63a7.78,7.78,0,0,1,7.76-7.79h0a7.81,7.81,0,0,1,3.55.86l13,6.64,99,50.77a7.76,7.76,0,0,1,4.23,6.93V292.2a7.8,7.8,0,0,1-7.77,7.79Zm-112-206.24h0a6.87,6.87,0,0,0-6.86,6.88V234.79a6.84,6.84,0,0,0,3.74,6.12l112,57.42a6.94,6.94,0,0,0,3.13.75h0a6.87,6.87,0,0,0,6.86-6.88V158a6.82,6.82,0,0,0-3.73-6.12l-112-57.42A7,7,0,0,0,187.74,93.75Z"/><path class="cls-4" d="M323.32,286.32a7.8,7.8,0,0,1-3.54-.86l-12.95-6.64-99-50.77a7.71,7.71,0,0,1-4.23-6.93V87a7.78,7.78,0,0,1,7.76-7.79h0a7.81,7.81,0,0,1,3.55.86l112,57.41a7.76,7.76,0,0,1,4.23,6.93V278.53a7.79,7.79,0,0,1-7.76,7.79Zm-112-206.24h0A6.88,6.88,0,0,0,204.48,87V221.12a6.85,6.85,0,0,0,3.74,6.13l110.54,56.67,1.43.74a7,7,0,0,0,3.13.75h0a6.88,6.88,0,0,0,6.87-6.88V144.37a6.84,6.84,0,0,0-3.74-6.12l-112-57.42A7,7,0,0,0,211.35,80.08Z"/><path class="cls-4" d="M311.23,293.17a7.81,7.81,0,0,1-3.55-.86l-.85-.43-111.12-57a7.76,7.76,0,0,1-4.23-6.93V93.81A7.78,7.78,0,0,1,199.24,86h0a7.79,7.79,0,0,1,3.54.85l1.44.74,110.54,56.69a7.75,7.75,0,0,1,4.23,6.93V284.31h0v1.07a7.78,7.78,0,0,1-7.77,7.79Zm-112-206.24h0a6.88,6.88,0,0,0-6.86,6.88V228a6.8,6.8,0,0,0,3.73,6.12l112,57.43a7,7,0,0,0,3.14.76h0a6.88,6.88,0,0,0,6.86-6.89V151.24a6.85,6.85,0,0,0-3.73-6.13L203.82,88.42l-1.43-.73A6.82,6.82,0,0,0,199.26,86.93Z"/><g class="cls-5"><path class="cls-3" d="M.47,30.73,5.68,2A1.72,1.72,0,0,1,6.31.89,1.88,1.88,0,0,1,7.52.45h23a7.34,7.34,0,0,1,3.57.86,6.19,6.19,0,0,1,2.45,2.36,6.74,6.74,0,0,1,.86,3.4,7.07,7.07,0,0,1-.14,1.43L36,15.84A9.32,9.32,0,0,1,34.11,20a10.86,10.86,0,0,1-3.55,3A9.35,9.35,0,0,1,26.18,24l-14.77,0a.67.67,0,0,0-.46.19.78.78,0,0,0-.28.41l-1.08,6A1.8,1.8,0,0,1,9,31.72a1.84,1.84,0,0,1-1.21.44H1.67A1.09,1.09,0,0,1,.45,31,2.29,2.29,0,0,1,.47,30.73ZM27.9,9.88c0-.12,0-.24,0-.35a1.54,1.54,0,0,0-.49-1.13,1.59,1.59,0,0,0-1.17-.48H14.33a.75.75,0,0,0-.47.19.67.67,0,0,0-.25.43l-1.33,7.32V16a.63.63,0,0,0,.6.6H24.82a2.18,2.18,0,0,0,1.4-.54,2.25,2.25,0,0,0,.81-1.3Z"/><path class="cls-3" d="M67.12,3a6.89,6.89,0,0,1,3.37.81,5.82,5.82,0,0,1,2.27,2.24,6.31,6.31,0,0,1,.81,3.19,7.34,7.34,0,0,1-.12,1.31l-2.55,14a8.75,8.75,0,0,1-1.71,3.81,9.88,9.88,0,0,1-3.27,2.75,8.75,8.75,0,0,1-4.06,1H45.07a6.78,6.78,0,0,1-3.35-.81,5.69,5.69,0,0,1-2.28-2.23,6.33,6.33,0,0,1-.81-3.19,7.38,7.38,0,0,1,.13-1.32l2.52-14A8.66,8.66,0,0,1,43,6.8a9.83,9.83,0,0,1,3.29-2.75,8.68,8.68,0,0,1,4.05-1ZM47.67,23.76a.85.85,0,0,0,.24.58.78.78,0,0,0,.61.27H61.16a1.12,1.12,0,0,0,.74-.31,1.14,1.14,0,0,0,.44-.68L64.53,11.5v-.15a.85.85,0,0,0-.85-.85H51.06a1.2,1.2,0,0,0-.76.3,1.09,1.09,0,0,0-.43.68l-2.2,12.14Z"/><path class="cls-3" d="M125.86,3.93a1.06,1.06,0,0,1-.15.51L111.07,31.11a2.13,2.13,0,0,1-.73.76,1.87,1.87,0,0,1-1,.29H103.6a1.22,1.22,0,0,1-1.32-1L99.69,17.89a.39.39,0,0,0-.17-.26.45.45,0,0,0-.2-.09l0,0a.47.47,0,0,0-.25.07.36.36,0,0,0-.16.17L91.44,31.13a2,2,0,0,1-1.72,1H84a1.24,1.24,0,0,1-1.32-1l-5-26.67,0-.16a1.08,1.08,0,0,1,.32-.78,1.17,1.17,0,0,1,.84-.32h6.79a1.24,1.24,0,0,1,1.32,1l2.61,13.5a.4.4,0,0,0,.18.26.52.52,0,0,0,.21.09l0,0a.46.46,0,0,0,.41-.21L97.85,4.15a1.94,1.94,0,0,1,1.72-1h4.72a1.19,1.19,0,0,1,1.32,1l2.54,13.57a.38.38,0,0,0,.2.27.48.48,0,0,0,.24.08c.22,0,.36-.08.41-.24l7.55-13.61a1.94,1.94,0,0,1,1.72-1.06h6.8a.74.74,0,0,1,.69.37A1,1,0,0,1,125.86,3.93Z"/><path class="cls-3" d="M155.6,3.08a.71.71,0,0,1,.81.78.89.89,0,0,1,0,.15l-1,5.5a1.15,1.15,0,0,1-.4.69,1.06,1.06,0,0,1-.74.26h-17a.42.42,0,0,0-.26.13.31.31,0,0,0-.16.24l-.6,3.34h14.05a.71.71,0,0,1,.8.76.5.5,0,0,1,0,.17l-.91,5a1.12,1.12,0,0,1-1.14,1H135.31a.52.52,0,0,0-.26.13.33.33,0,0,0-.15.25l-.56,3.12h17.37a.78.78,0,0,1,.6.21.73.73,0,0,1,.21.56.88.88,0,0,1,0,.16l-1,5.69a1,1,0,0,1-.39.69,1.16,1.16,0,0,1-.75.26H125.86a1.35,1.35,0,0,1-1-.36,1.27,1.27,0,0,1-.38-1,2,2,0,0,1,0-.25l4.7-25.9a2,2,0,0,1,.67-1.15,1.86,1.86,0,0,1,1.23-.46Z"/><path class="cls-3" d="M183.8,3.12a6.83,6.83,0,0,1,3.35.81,5.68,5.68,0,0,1,2.27,2.21,6.33,6.33,0,0,1,.81,3.21,6.56,6.56,0,0,1-.13,1.32l-1.2,6.6a8.51,8.51,0,0,1-1.76,3.87,10.29,10.29,0,0,1-3.47,2.79c-.07,0-.1.06-.1.09s.06,0,.18-.07l3.11,6.41a1.08,1.08,0,0,1,.16.58,1.09,1.09,0,0,1-.32.81,1.14,1.14,0,0,1-.86.33c-1,0-2.18,0-3.47,0l-2.94,0a6.17,6.17,0,0,1-1.66-.15,1.18,1.18,0,0,1-.72-.62L174,25.29a.88.88,0,0,0-.77-.45l-6.63,0a.36.36,0,0,0-.24.09.49.49,0,0,0-.16.2l-1,5.42a1.85,1.85,0,0,1-.66,1.15,1.92,1.92,0,0,1-1.24.44H157.8a1.34,1.34,0,0,1-1-.36,1.28,1.28,0,0,1-.36-.94,2.13,2.13,0,0,1,0-.27l4.7-25.88a1.91,1.91,0,0,1,.66-1.14,1.88,1.88,0,0,1,1.24-.45Zm-2.63,8.69c0-.1,0-.19,0-.27a1.15,1.15,0,0,0-.36-.84,1.22,1.22,0,0,0-.9-.36H169.21a.45.45,0,0,0-.25.09.49.49,0,0,0-.16.2l-1.26,7,11.08,0a1.93,1.93,0,0,0,1.76-1.45Z"/><path class="cls-3" d="M222.89,3.08a.71.71,0,0,1,.8.78.41.41,0,0,1,0,.15l-1,5.5a1.09,1.09,0,0,1-.39.69,1.11,1.11,0,0,1-.75.26h-17a.45.45,0,0,0-.26.13.33.33,0,0,0-.15.24l-.6,3.34h14a.72.72,0,0,1,.81.76,1,1,0,0,1,0,.17l-.91,5a1.23,1.23,0,0,1-.4.71,1.11,1.11,0,0,1-.74.26H202.6a.48.48,0,0,0-.26.13.34.34,0,0,0-.16.25l-.56,3.12H219a.81.81,0,0,1,.6.21.73.73,0,0,1,.21.56.88.88,0,0,1,0,.16l-1,5.69a1,1,0,0,1-.38.69,1.19,1.19,0,0,1-.76.26H193.14a1.37,1.37,0,0,1-1-.36,1.27,1.27,0,0,1-.37-1,2,2,0,0,1,0-.25l4.7-25.9a1.9,1.9,0,0,1,.67-1.15,1.83,1.83,0,0,1,1.23-.46Z"/><path class="cls-3" d="M249.84,3a6.83,6.83,0,0,1,3.35.81,5.94,5.94,0,0,1,2.29,2.24,6.26,6.26,0,0,1,.81,3.17,7.48,7.48,0,0,1-.12,1.33l-2.55,14a8.4,8.4,0,0,1-1.7,3.81,10.08,10.08,0,0,1-3.3,2.75,8.74,8.74,0,0,1-4.05,1H225.08a1.33,1.33,0,0,1-1-.36,1.28,1.28,0,0,1-.36-.94,1.14,1.14,0,0,1,0-.27l4.69-26A1.95,1.95,0,0,1,230.36,3ZM234.62,24.59h9.26a1.2,1.2,0,0,0,.75-.3,1.07,1.07,0,0,0,.43-.67l2.21-12.29a.79.79,0,0,0-.25-.58.9.9,0,0,0-.61-.25h-9.25a1.23,1.23,0,0,0-.77.3,1.14,1.14,0,0,0-.43.68l-2.19,12.14v.12a1.08,1.08,0,0,0,.16.58A1,1,0,0,0,234.62,24.59Z"/><path class="cls-3" d="M267.46,32.16A1.09,1.09,0,0,1,266.24,31a2.29,2.29,0,0,1,0-.25L271.48,2a1.64,1.64,0,0,1,.63-1.09A1.81,1.81,0,0,1,273.3.45h23a7.38,7.38,0,0,1,3.58.86,6.23,6.23,0,0,1,2.44,2.36,6.64,6.64,0,0,1,.87,3.4,7.09,7.09,0,0,1-.15,1.43L302.65,11a.53.53,0,0,0-.07.31,6.49,6.49,0,0,1-.94,2.32,12.5,12.5,0,0,1-2.08,2.38,1.29,1.29,0,0,1,1,.64,6.68,6.68,0,0,1,.73,1.12,5.16,5.16,0,0,1,.37,2,10.17,10.17,0,0,1-.22,1.82L301,24.49a8.69,8.69,0,0,1-1.73,3.86,9.87,9.87,0,0,1-3.33,2.79,8.8,8.8,0,0,1-4.1,1Zm9.37-8a.6.6,0,0,0,.44.2H290a2.21,2.21,0,0,0,1.42-.55,2.17,2.17,0,0,0,.79-1.31,3.48,3.48,0,0,0,.06-.35,5.67,5.67,0,0,0,.13-.89,1.53,1.53,0,0,0-.49-1.14,1.62,1.62,0,0,0-1.17-.47H278a.7.7,0,0,0-.46.18.84.84,0,0,0-.28.42l-.62,3.39v.08A.68.68,0,0,0,276.83,24.2ZM279,12.43a.59.59,0,0,0,.42.18h11.93a2.41,2.41,0,0,0,2.24-1.84.87.87,0,0,1,0-.2,10,10,0,0,0,.14-1,1.53,1.53,0,0,0-.49-1.14,1.62,1.62,0,0,0-1.16-.47H280.12a.75.75,0,0,0-.46.18.61.61,0,0,0-.26.44l-.62,3.37V12A.59.59,0,0,0,279,12.43Z"/><path class="cls-3" d="M323.68,21.49l-.35.78-1.51,8.3a1.85,1.85,0,0,1-.66,1.15,1.92,1.92,0,0,1-1.24.44h-5.48a1.34,1.34,0,0,1-1-.36,1.28,1.28,0,0,1-.36-.94,2.13,2.13,0,0,1,0-.27l1.49-8.3c0-.22-.05-.51-.08-.86l-7.1-16.88a.81.81,0,0,1-.06-.31,1,1,0,0,1,.33-.78,1.16,1.16,0,0,1,.83-.32h7a1.2,1.2,0,0,1,1.24.79l3.6,8.54a.36.36,0,0,0,.18.22.63.63,0,0,0,.21.07.49.49,0,0,0,.36-.15l6.78-8.7a1.92,1.92,0,0,1,1.55-.77h6.95a.81.81,0,0,1,.6.21.75.75,0,0,1,.21.56,1.06,1.06,0,0,1-.25.64Z"/></g><g class="cls-5"><path class="cls-4" d="M7.75,32.61H1.67A1.54,1.54,0,0,1,0,31a1.75,1.75,0,0,1,0-.35H0L5.24,1.9A2.13,2.13,0,0,1,6,.54,2.26,2.26,0,0,1,7.52,0h23a7.89,7.89,0,0,1,3.79.91A6.65,6.65,0,0,1,37,3.44a7.23,7.23,0,0,1,.93,3.63,7.93,7.93,0,0,1-.16,1.52l-1.32,7.33a9.72,9.72,0,0,1-1.94,4.31,11.31,11.31,0,0,1-3.7,3.11,9.84,9.84,0,0,1-4.59,1.14l-14.77,0a.26.26,0,0,0-.17.08.41.41,0,0,0-.13.18L10,30.69a2.33,2.33,0,0,1-2.29,1.92ZM.92,30.81A1,1,0,0,0,.9,31c0,.53.24.73.77.73H7.75a1.43,1.43,0,0,0,1.4-1.17l1.08-6a1.3,1.3,0,0,1,.42-.63,1.15,1.15,0,0,1,.76-.3l14.77,0a9,9,0,0,0,4.17-1,10.43,10.43,0,0,0,3.41-2.86,8.91,8.91,0,0,0,1.76-3.92l1.33-7.34A7,7,0,0,0,37,7.07a6.24,6.24,0,0,0-.81-3.18,5.72,5.72,0,0,0-2.26-2.18A6.87,6.87,0,0,0,30.55.9h-23a1.4,1.4,0,0,0-.92.33,1.3,1.3,0,0,0-.47.82ZM24.82,17H12.88A1.09,1.09,0,0,1,11.83,16v-.18l1.32-7.3a1,1,0,0,1,.42-.71,1.16,1.16,0,0,1,.75-.3H26.26a2,2,0,0,1,1.49.62,2,2,0,0,1,.62,1.44c0,.13,0,.26,0,.4v0l-.87,4.84A2.87,2.87,0,0,1,24.82,17ZM12.73,15.9V16s0,.05.06.1.08.05.09.05H24.82a1.73,1.73,0,0,0,1.12-.44,1.79,1.79,0,0,0,.65-1l.86-4.82c0-.1,0-.2,0-.29a1.12,1.12,0,0,0-.36-.81,1.15,1.15,0,0,0-.85-.35H14.33a.33.33,0,0,0-.18.09c-.07.07-.09.11-.09.12v0Z"/><path class="cls-4" d="M61.86,32.61H45.07a7.34,7.34,0,0,1-3.57-.86,6.18,6.18,0,0,1-2.45-2.41,6.76,6.76,0,0,1-.87-3.41,8.29,8.29,0,0,1,.13-1.4l2.53-14a9.06,9.06,0,0,1,1.8-4,10.28,10.28,0,0,1,3.44-2.88,9.08,9.08,0,0,1,4.26-1.06H67.12a7.31,7.31,0,0,1,3.59.87,6.26,6.26,0,0,1,2.44,2.4A6.77,6.77,0,0,1,74,9.28a7.34,7.34,0,0,1-.13,1.39l-2.54,14a9.22,9.22,0,0,1-1.8,4,10.26,10.26,0,0,1-3.43,2.88A9.17,9.17,0,0,1,61.86,32.61ZM50.34,3.49a8.19,8.19,0,0,0-3.84,1,9.39,9.39,0,0,0-3.14,2.63,8.15,8.15,0,0,0-1.63,3.61l-2.53,14a6.57,6.57,0,0,0-.11,1.24,6,6,0,0,0,.74,3A5.4,5.4,0,0,0,41.93,31a6.42,6.42,0,0,0,3.14.75H61.86a8.25,8.25,0,0,0,3.85-1,9.57,9.57,0,0,0,3.13-2.63,8.36,8.36,0,0,0,1.62-3.61l2.54-14a6.57,6.57,0,0,0,.12-1.23,5.88,5.88,0,0,0-.75-3,5.34,5.34,0,0,0-2.1-2.06,6.36,6.36,0,0,0-3.15-.76ZM61.16,25.06H48.52a1.22,1.22,0,0,1-1-.42,1.31,1.31,0,0,1-.35-.88v-.22L49.42,11.4a1.53,1.53,0,0,1,.6-1,1.68,1.68,0,0,1,1-.4H63.68a1.3,1.3,0,0,1,1.3,1.3v.23L62.78,23.7a1.61,1.61,0,0,1-.59.95A1.63,1.63,0,0,1,61.16,25.06Zm-13-1.4v.1a.42.42,0,0,0,.13.28.33.33,0,0,0,.27.12H61.16a.71.71,0,0,0,.45-.21.65.65,0,0,0,.28-.41l2.19-12.08v-.11a.38.38,0,0,0-.12-.28.36.36,0,0,0-.28-.11H51.06a.76.76,0,0,0-.48.2.61.61,0,0,0-.27.39Z"/><path class="cls-4" d="M109.35,32.61H103.6a1.68,1.68,0,0,1-1.76-1.38L99.25,18,91.83,31.35a2.42,2.42,0,0,1-2.11,1.26H84a1.69,1.69,0,0,1-1.76-1.4l-5-26.68,0-.25a1.5,1.5,0,0,1,.45-1.1,1.59,1.59,0,0,1,1.16-.45h6.79a1.68,1.68,0,0,1,1.76,1.38l2.6,13.5h0l7.5-13.68a2.38,2.38,0,0,1,2.11-1.27h4.72a1.64,1.64,0,0,1,1.76,1.4l2.54,13.54h0L116.16,4a2.4,2.4,0,0,1,2.11-1.29h6.8a1.18,1.18,0,0,1,1.08.6,1.25,1.25,0,0,1,.16.62,1.58,1.58,0,0,1-.2.73L111.47,31.32a2.51,2.51,0,0,1-.9.93A2.25,2.25,0,0,1,109.35,32.61Zm-9.88-15.5a1,1,0,0,1,.66.67L102.72,31a.78.78,0,0,0,.88.67h5.75a1.39,1.39,0,0,0,.75-.22,1.79,1.79,0,0,0,.58-.61L125.32,4.23a.64.64,0,0,0,.09-.3.41.41,0,0,0,0-.18c0-.07-.09-.14-.29-.14h-6.8a1.48,1.48,0,0,0-1.33.84L109.41,18a.82.82,0,0,1-.82.52,1,1,0,0,1-.45-.14.86.86,0,0,1-.43-.57L105.17,4.24a.76.76,0,0,0-.88-.67H99.57a1.48,1.48,0,0,0-1.33.82L90.69,18.15a1,1,0,0,1-.78.4h-.19l-.07-.07-.21-.12a.82.82,0,0,1-.38-.53L86.45,4.3a.78.78,0,0,0-.88-.67H78.78a.69.69,0,0,0-.52.19.58.58,0,0,0-.18.43v.14l5,26.63a.79.79,0,0,0,.88.69h5.75a1.54,1.54,0,0,0,1.34-.83l7.4-13.32a.84.84,0,0,1,.34-.36,1,1,0,0,1,.48-.14h.11Z"/><path class="cls-4" d="M150.35,32.61H125.86a1.8,1.8,0,0,1-1.31-.49,1.71,1.71,0,0,1-.51-1.28,1.84,1.84,0,0,1,0-.33l4.7-25.9a2.33,2.33,0,0,1,.82-1.41,2.3,2.3,0,0,1,1.52-.57H155.6a1.16,1.16,0,0,1,1.26,1.22,1.31,1.31,0,0,1,0,.27l-1,5.47a1.61,1.61,0,0,1-.55,1,1.58,1.58,0,0,1-1,.36h-17l0,0-.5,2.77h13.51a1.17,1.17,0,0,1,1.25,1.2,1.29,1.29,0,0,1,0,.29l-.9,5a1.66,1.66,0,0,1-.55,1,1.55,1.55,0,0,1-1,.38H135.37l0,0-.46,2.57h16.83A1.17,1.17,0,0,1,153,25.36a1.24,1.24,0,0,1,0,.27l-1,5.66a1.44,1.44,0,0,1-.54,1A1.62,1.62,0,0,1,150.35,32.61ZM131.11,3.53a1.42,1.42,0,0,0-.94.36,1.52,1.52,0,0,0-.52.88L125,30.67a.88.88,0,0,0,0,.17.81.81,0,0,0,.24.63.91.91,0,0,0,.68.24h24.49a.69.69,0,0,0,.47-.16.64.64,0,0,0,.22-.41l1-5.7a.37.37,0,0,0,0-.08c0-.17,0-.22-.08-.24a.37.37,0,0,0-.28-.08H133.8l.65-3.62a.75.75,0,0,1,.32-.55.9.9,0,0,1,.54-.23H149a.62.62,0,0,0,.45-.16.75.75,0,0,0,.25-.44l.91-5a.39.39,0,0,0,0-.09c0-.25-.08-.31-.35-.31H135.68l.69-3.84a.78.78,0,0,1,.32-.55.88.88,0,0,1,.55-.22h17a.68.68,0,0,0,.45-.15.69.69,0,0,0,.24-.43l1-5.5s0-.06,0-.07c0-.26-.08-.33-.36-.33Z"/><path class="cls-4" d="M163.28,32.61H157.8a1.77,1.77,0,0,1-1.31-.49,1.74,1.74,0,0,1-.49-1.26,2,2,0,0,1,0-.35l4.69-25.88a2.33,2.33,0,0,1,.82-1.4,2.31,2.31,0,0,1,1.53-.56H183.8a7.32,7.32,0,0,1,3.56.86,6.19,6.19,0,0,1,2.45,2.39,6.73,6.73,0,0,1,.87,3.43,8.29,8.29,0,0,1-.13,1.4l-1.2,6.6a9.09,9.09,0,0,1-1.86,4.07,10.77,10.77,0,0,1-3.17,2.67l2.93,6.05a1.53,1.53,0,0,1,.22.8,1.58,1.58,0,0,1-.44,1.12,1.6,1.6,0,0,1-1.19.47c-1,0-2.17,0-3.46,0l-2.95,0a6.87,6.87,0,0,1-1.8-.16,1.64,1.64,0,0,1-1-.85l-3.07-6.06a.43.43,0,0,0-.38-.23l-6.6,0h0l-1,5.34a2.28,2.28,0,0,1-.81,1.41A2.32,2.32,0,0,1,163.28,32.61Zm-.21-29a1.45,1.45,0,0,0-.95.35,1.4,1.4,0,0,0-.51.87l-4.69,25.88a1,1,0,0,0,0,.19.82.82,0,0,0,.23.62.92.92,0,0,0,.67.23h5.48a1.44,1.44,0,0,0,.95-.34,1.38,1.38,0,0,0,.5-.88l1-5.51a1,1,0,0,1,.29-.38.82.82,0,0,1,.53-.19l6.63,0a1.31,1.31,0,0,1,1.15.66l0,0,3.08,6.08a.72.72,0,0,0,.45.39,5.57,5.57,0,0,0,1.53.13l2.93,0c1.3,0,2.47,0,3.48,0a.67.67,0,0,0,.54-.2.66.66,0,0,0,.19-.49.59.59,0,0,0-.1-.34l0,0-2.94-6.08a.3.3,0,0,1-.15-.05l-.24-.13V24a.53.53,0,0,1,.36-.5,9.77,9.77,0,0,0,3.3-2.66,8.13,8.13,0,0,0,1.68-3.67l1.2-6.6a6.59,6.59,0,0,0,.12-1.24,5.9,5.9,0,0,0-.75-3,5.35,5.35,0,0,0-2.1-2,6.41,6.41,0,0,0-3.13-.75ZM167,18.09l1.38-7.63a.94.94,0,0,1,.83-.57h10.72a1.66,1.66,0,0,1,1.22.49,1.63,1.63,0,0,1,.49,1.16c0,.1,0,.21,0,.33v0l-.78,4.36a2.28,2.28,0,0,1-.8,1.28,2.15,2.15,0,0,1-1.41.54Zm2.23-7.29-1.15,6.39,10.54,0a1.25,1.25,0,0,0,.83-.33,1.37,1.37,0,0,0,.49-.76l.78-4.34a1.5,1.5,0,0,0,0-.2.73.73,0,0,0-.23-.52.76.76,0,0,0-.58-.23h-10.7Z"/><path class="cls-4" d="M217.63,32.61H193.14a1.76,1.76,0,0,1-1.3-.49,1.71,1.71,0,0,1-.51-1.28c0-.11,0-.22,0-.33l4.7-25.9a2.34,2.34,0,0,1,.83-1.41,2.28,2.28,0,0,1,1.52-.57h24.49a1.16,1.16,0,0,1,1.26,1.22.84.84,0,0,1,0,.27l-1,5.47a1.61,1.61,0,0,1-.55,1,1.59,1.59,0,0,1-1,.36h-17l0,0-.5,2.77h13.5a1.17,1.17,0,0,1,1.26,1.2,1.29,1.29,0,0,1,0,.29l-.91,5a1.65,1.65,0,0,1-.54,1,1.55,1.55,0,0,1-1,.38H202.65l0,0-.46,2.57H219a1.25,1.25,0,0,1,.92.34,1.21,1.21,0,0,1,.34.88,1.07,1.07,0,0,1,0,.25l-1,5.68a1.45,1.45,0,0,1-.55,1A1.59,1.59,0,0,1,217.63,32.61ZM198.4,3.53a1.4,1.4,0,0,0-.94.36,1.42,1.42,0,0,0-.52.88l-4.7,25.9s0,.11,0,.17a.81.81,0,0,0,.24.63.9.9,0,0,0,.67.24h24.49a.73.73,0,0,0,.48-.16.64.64,0,0,0,.22-.41l1-5.73v-.05c0-.17,0-.22-.07-.24A.39.39,0,0,0,219,25H201.09l.64-3.62a.8.8,0,0,1,.33-.55.85.85,0,0,1,.54-.23h13.69a.65.65,0,0,0,.45-.16A.69.69,0,0,0,217,20l.91-5a.81.81,0,0,0,0-.09c0-.25-.09-.31-.36-.31H203l.69-3.84a.78.78,0,0,1,.32-.55.86.86,0,0,1,.54-.22h17a.71.71,0,0,0,.46-.15.74.74,0,0,0,.24-.43l1-5.5a.26.26,0,0,0,0-.07c0-.26-.07-.33-.35-.33Z"/><path class="cls-4" d="M244.57,32.61H225.08a1.75,1.75,0,0,1-1.3-.49,1.71,1.71,0,0,1-.5-1.26,2,2,0,0,1,0-.35l4.7-26a2.34,2.34,0,0,1,.83-1.41,2.29,2.29,0,0,1,1.52-.55h19.48a7.23,7.23,0,0,1,3.57.87,6.38,6.38,0,0,1,2.46,2.4,6.75,6.75,0,0,1,.87,3.4,7.47,7.47,0,0,1-.13,1.41l-2.54,14a8.89,8.89,0,0,1-1.8,4,10.4,10.4,0,0,1-3.44,2.88A9.23,9.23,0,0,1,244.57,32.61ZM230.36,3.49a1.5,1.5,0,0,0-1.46,1.22l-4.7,26a1.09,1.09,0,0,0,0,.19.82.82,0,0,0,.23.62.9.9,0,0,0,.66.23h19.49a8.21,8.21,0,0,0,3.84-1,9.74,9.74,0,0,0,3.15-2.63,8.07,8.07,0,0,0,1.62-3.61l2.54-14a6.69,6.69,0,0,0,.12-1.25,5.86,5.86,0,0,0-.75-2.95A5.52,5.52,0,0,0,253,4.25a6.31,6.31,0,0,0-3.13-.76ZM243.88,25h-9.26a1.39,1.39,0,0,1-1-.39l0,0,0-.05a1.59,1.59,0,0,1-.23-.82v-.2l2.2-12.14a1.55,1.55,0,0,1,.59-1,1.68,1.68,0,0,1,1-.4h9.25a1.31,1.31,0,0,1,.92.38,1.23,1.23,0,0,1,.4.9v.08L245.51,23.7a1.53,1.53,0,0,1-.6.94A1.6,1.6,0,0,1,243.88,25Zm-9.59-1a.52.52,0,0,0,.33.11h9.26a.77.77,0,0,0,.46-.2.72.72,0,0,0,.28-.4l2.2-12.24a.31.31,0,0,0-.12-.22.36.36,0,0,0-.29-.12h-9.25a.74.74,0,0,0-.48.2.61.61,0,0,0-.27.39l-2.19,12.11v.08A.59.59,0,0,0,234.29,24Z"/><path class="cls-4" d="M291.79,32.61H267.46a1.54,1.54,0,0,1-1.67-1.6,1.83,1.83,0,0,1,0-.35L271,1.9a2.17,2.17,0,0,1,.79-1.36A2.25,2.25,0,0,1,273.3,0h23a7.89,7.89,0,0,1,3.79.91,6.65,6.65,0,0,1,2.62,2.53,7.23,7.23,0,0,1,.93,3.63,7.21,7.21,0,0,1-.16,1.52l-.44,2.61,0,.07v.17a6.91,6.91,0,0,1-1,2.47,11.61,11.61,0,0,1-1.62,2,2.53,2.53,0,0,1,.55.54,9,9,0,0,1,.78,1.19v0a5.76,5.76,0,0,1,.41,2.18,12.28,12.28,0,0,1-.24,1.91l-.52,2.85a9.3,9.3,0,0,1-1.81,4.06,10.41,10.41,0,0,1-3.48,2.91A9.32,9.32,0,0,1,291.79,32.61ZM273.3.9a1.4,1.4,0,0,0-.91.33,1.3,1.3,0,0,0-.47.82l-5.21,28.76a1,1,0,0,0,0,.17c0,.53.24.73.77.73h24.33a8.49,8.49,0,0,0,3.9-1,9.61,9.61,0,0,0,3.18-2.66,8.45,8.45,0,0,0,1.64-3.67l.51-2.86a9.69,9.69,0,0,0,.22-1.75,4.86,4.86,0,0,0-.33-1.81,7.73,7.73,0,0,0-.68-1c-.17-.21-.42-.47-.65-.46l-1.22.05.9-.83a12.25,12.25,0,0,0,2-2.29,6,6,0,0,0,.87-2.12,1.24,1.24,0,0,1,.08-.41l.43-2.48a7,7,0,0,0,.13-1.35,6.34,6.34,0,0,0-.8-3.18,5.81,5.81,0,0,0-2.27-2.18A6.87,6.87,0,0,0,296.34.9Zm16.71,24H277.27a1,1,0,0,1-.77-.35h0a1.09,1.09,0,0,1-.31-.74V23.6l.63-3.43a1.33,1.33,0,0,1,.42-.64,1.19,1.19,0,0,1,.76-.29h12.74a2.06,2.06,0,0,1,1.49.6,2,2,0,0,1,.62,1.46,6.68,6.68,0,0,1-.13,1c0,.15-.05.26-.06.34a2.54,2.54,0,0,1-1,1.58A2.62,2.62,0,0,1,290,24.85Zm-12.84-1c.05.06.08.06.1.06H290a1.77,1.77,0,0,0,1.13-.45,1.75,1.75,0,0,0,.64-1q0-.13.06-.36a8,8,0,0,0,.12-.81,1.1,1.1,0,0,0-.35-.81,1.15,1.15,0,0,0-.86-.35H278a.26.26,0,0,0-.17.08.39.39,0,0,0-.13.17l-.61,3.37a.19.19,0,0,0,.07.13Zm14.14-10.83H279.38a1,1,0,0,1-.74-.31h0a1.07,1.07,0,0,1-.31-.74v-.18L279,8.48a1,1,0,0,1,.43-.73,1.18,1.18,0,0,1,.74-.28h11.94a2.05,2.05,0,0,1,1.48.6,2,2,0,0,1,.62,1.46,8.06,8.06,0,0,1-.15,1.11.72.72,0,0,0,0,.13v.09a2.7,2.7,0,0,1-1,1.56A2.63,2.63,0,0,1,291.31,13.06Zm-12-1c.06.05.08.05.1.05h11.93a1.76,1.76,0,0,0,1.13-.44,1.82,1.82,0,0,0,.66-1c0-.05,0-.13,0-.22a7.08,7.08,0,0,0,.14-1,1.06,1.06,0,0,0-.35-.81,1.15,1.15,0,0,0-.85-.35H280.12a.35.35,0,0,0-.19.09c-.08.06-.08.1-.08.12v0L279.23,12S279.23,12.05,279.28,12.11Z"/><path class="cls-4" d="M319.92,32.61h-5.48a1.77,1.77,0,0,1-1.31-.49,1.74,1.74,0,0,1-.49-1.26,2,2,0,0,1,0-.35l1.48-8.23c0-.2,0-.44-.08-.75L307,4.72a1.12,1.12,0,0,1-.1-.48,1.47,1.47,0,0,1,.47-1.1,1.58,1.58,0,0,1,1.14-.45h7a1.64,1.64,0,0,1,1.66,1.07l3.6,8.54,6.75-8.67a2.36,2.36,0,0,1,1.91-.94h6.95a1.25,1.25,0,0,1,.92.34,1.21,1.21,0,0,1,.34.88,1.47,1.47,0,0,1-.35.92L324.07,21.72l-.31.69-1.5,8.24a2.28,2.28,0,0,1-.81,1.41A2.32,2.32,0,0,1,319.92,32.61Zm-11.4-29a.66.66,0,0,0-.51.2.59.59,0,0,0-.2.45.28.28,0,0,0,0,.13l7.12,17v.07c0,.36,0,.64.08.85v.07l-1.5,8.36a1,1,0,0,0,0,.19.86.86,0,0,0,.23.62.92.92,0,0,0,.67.23h5.48a1.47,1.47,0,0,0,1.46-1.22l1.52-8.35.43-.93L336.54,4.27a.57.57,0,0,0,.16-.36.29.29,0,0,0-.08-.24.39.39,0,0,0-.28-.08h-6.95a1.49,1.49,0,0,0-1.2.6l-6.82,8.74a.93.93,0,0,1-.67.28.88.88,0,0,1-.43-.13.75.75,0,0,1-.38-.46L316.3,4.1a.77.77,0,0,0-.83-.51Z"/></g><g class="cls-5"><path class="cls-1" d="M4.63,30.73,9.84,2A1.69,1.69,0,0,1,10.48.89,1.84,1.84,0,0,1,11.69.45h23a7.4,7.4,0,0,1,3.58.86,6.23,6.23,0,0,1,2.44,2.36,6.64,6.64,0,0,1,.86,3.4,7.07,7.07,0,0,1-.14,1.43l-1.32,7.34A9.41,9.41,0,0,1,38.28,20a11,11,0,0,1-3.56,3A9.35,9.35,0,0,1,30.34,24l-14.77,0a.67.67,0,0,0-.46.19.78.78,0,0,0-.28.41l-1.08,6a1.8,1.8,0,0,1-.63,1.11,1.84,1.84,0,0,1-1.21.44H5.83A1.09,1.09,0,0,1,4.61,31,2.29,2.29,0,0,1,4.63,30.73ZM32.06,9.88c0-.12,0-.24,0-.35a1.54,1.54,0,0,0-.49-1.13,1.59,1.59,0,0,0-1.16-.48H18.49a.71.71,0,0,0-.46.19.65.65,0,0,0-.26.43l-1.33,7.32V16a.63.63,0,0,0,.6.6H29a2.39,2.39,0,0,0,2.21-1.84Z"/><path class="cls-1" d="M71.28,3a6.86,6.86,0,0,1,3.37.81,5.76,5.76,0,0,1,2.27,2.24,6.31,6.31,0,0,1,.81,3.19,7.34,7.34,0,0,1-.12,1.31l-2.55,14a8.85,8.85,0,0,1-1.7,3.81,10,10,0,0,1-3.28,2.75,8.75,8.75,0,0,1-4.06,1H49.23a6.81,6.81,0,0,1-3.35-.81,5.69,5.69,0,0,1-2.28-2.23,6.33,6.33,0,0,1-.81-3.19,7.38,7.38,0,0,1,.13-1.32l2.52-14A8.66,8.66,0,0,1,47.16,6.8a9.93,9.93,0,0,1,3.29-2.75,8.71,8.71,0,0,1,4-1ZM51.83,23.76a.85.85,0,0,0,.24.58.78.78,0,0,0,.61.27H65.32a1.12,1.12,0,0,0,.74-.31,1.14,1.14,0,0,0,.44-.68L68.69,11.5v-.15a.85.85,0,0,0-.85-.85H55.23a1.21,1.21,0,0,0-.77.3,1.09,1.09,0,0,0-.43.68l-2.2,12.14Z"/><path class="cls-1" d="M130,3.93a1.06,1.06,0,0,1-.15.51L115.23,31.11a2.13,2.13,0,0,1-.73.76,1.87,1.87,0,0,1-1,.29h-5.75a1.23,1.23,0,0,1-1.32-1l-2.59-13.24a.39.39,0,0,0-.17-.26.45.45,0,0,0-.2-.09l0,0a.5.5,0,0,0-.25.07.36.36,0,0,0-.16.17L95.6,31.13a2,2,0,0,1-1.72,1H88.13a1.24,1.24,0,0,1-1.32-1l-5-26.67,0-.16a1.08,1.08,0,0,1,.32-.78,1.17,1.17,0,0,1,.84-.32h6.79a1.23,1.23,0,0,1,1.32,1l2.61,13.5a.4.4,0,0,0,.18.26.52.52,0,0,0,.21.09l0,0a.46.46,0,0,0,.41-.21L102,4.15a1.94,1.94,0,0,1,1.72-1h4.72a1.19,1.19,0,0,1,1.32,1l2.54,13.57a.38.38,0,0,0,.2.27.48.48,0,0,0,.24.08c.22,0,.36-.08.41-.24l7.55-13.61a1.94,1.94,0,0,1,1.72-1.06h6.8a.74.74,0,0,1,.69.37A.82.82,0,0,1,130,3.93Z"/><path class="cls-1" d="M159.76,3.08a.71.71,0,0,1,.81.78.89.89,0,0,1,0,.15l-1,5.5a1.15,1.15,0,0,1-.4.69,1.06,1.06,0,0,1-.74.26h-17a.42.42,0,0,0-.26.13.31.31,0,0,0-.16.24l-.6,3.34h14.05a.71.71,0,0,1,.8.76.5.5,0,0,1,0,.17l-.91,5a1.17,1.17,0,0,1-.39.71,1.15,1.15,0,0,1-.74.26h-13.7a.52.52,0,0,0-.26.13.33.33,0,0,0-.15.25l-.56,3.12h17.37a.78.78,0,0,1,.6.21.73.73,0,0,1,.21.56.88.88,0,0,1,0,.16l-1,5.69a1,1,0,0,1-.39.69,1.16,1.16,0,0,1-.75.26H130a1.37,1.37,0,0,1-1-.36,1.27,1.27,0,0,1-.38-1,1,1,0,0,1,0-.25l4.69-25.9A2,2,0,0,1,134,3.54a1.86,1.86,0,0,1,1.23-.46Z"/><path class="cls-1" d="M188,3.12a6.83,6.83,0,0,1,3.35.81,5.68,5.68,0,0,1,2.27,2.21,6.33,6.33,0,0,1,.81,3.21,6.56,6.56,0,0,1-.13,1.32l-1.2,6.6a8.51,8.51,0,0,1-1.76,3.87,10.2,10.2,0,0,1-3.47,2.79c-.07,0-.1.06-.1.09s.06,0,.18-.07L191,30.36a1.08,1.08,0,0,1,.16.58,1.09,1.09,0,0,1-.32.81,1.14,1.14,0,0,1-.86.33c-1,0-2.18,0-3.47,0l-2.94,0a6.17,6.17,0,0,1-1.66-.15,1.18,1.18,0,0,1-.72-.62l-3.08-6.08a.87.87,0,0,0-.76-.45l-6.64,0a.36.36,0,0,0-.24.09.49.49,0,0,0-.16.2l-1,5.42a1.85,1.85,0,0,1-.66,1.15,1.92,1.92,0,0,1-1.24.44H162a1.34,1.34,0,0,1-1-.36,1.28,1.28,0,0,1-.36-.94,2.13,2.13,0,0,1,0-.27l4.7-25.88A1.91,1.91,0,0,1,166,3.57a1.88,1.88,0,0,1,1.24-.45Zm-2.63,8.69c0-.1,0-.19,0-.27a1.15,1.15,0,0,0-.36-.84,1.22,1.22,0,0,0-.9-.36H173.37a.4.4,0,0,0-.24.09.45.45,0,0,0-.17.2l-1.26,7,11.08,0a1.93,1.93,0,0,0,1.76-1.45Z"/><path class="cls-1" d="M227.05,3.08a.72.72,0,0,1,.81.78.89.89,0,0,1,0,.15l-1,5.5a1.09,1.09,0,0,1-.39.69,1.11,1.11,0,0,1-.75.26h-17a.45.45,0,0,0-.26.13.33.33,0,0,0-.15.24l-.6,3.34h14a.72.72,0,0,1,.81.76,1,1,0,0,1,0,.17l-.91,5a1.28,1.28,0,0,1-.39.71,1.16,1.16,0,0,1-.75.26H206.76a.48.48,0,0,0-.26.13.34.34,0,0,0-.16.25l-.55,3.12h17.37a.81.81,0,0,1,.6.21.73.73,0,0,1,.21.56.88.88,0,0,1,0,.16l-1,5.69a1,1,0,0,1-.38.69,1.18,1.18,0,0,1-.75.26H197.31a1.38,1.38,0,0,1-1-.36,1.27,1.27,0,0,1-.37-1,2,2,0,0,1,0-.25l4.7-25.9a1.9,1.9,0,0,1,.67-1.15,1.83,1.83,0,0,1,1.23-.46Z"/><path class="cls-1" d="M254,3a6.81,6.81,0,0,1,3.35.81,5.94,5.94,0,0,1,2.29,2.24,6.26,6.26,0,0,1,.81,3.17,7.48,7.48,0,0,1-.12,1.33l-2.54,14a8.53,8.53,0,0,1-1.71,3.81,10.08,10.08,0,0,1-3.3,2.75,8.74,8.74,0,0,1-4.05,1H229.24a1.33,1.33,0,0,1-1-.36,1.28,1.28,0,0,1-.36-.94,1.14,1.14,0,0,1,0-.27l4.69-26a1.91,1.91,0,0,1,.68-1.14A1.87,1.87,0,0,1,234.52,3ZM238.78,24.59H248a1.2,1.2,0,0,0,.75-.3,1.07,1.07,0,0,0,.43-.67l2.22-12.29a.8.8,0,0,0-.26-.58.9.9,0,0,0-.61-.25h-9.25a1.18,1.18,0,0,0-.76.3,1.11,1.11,0,0,0-.44.68l-2.19,12.14v.12a1.08,1.08,0,0,0,.16.58A1,1,0,0,0,238.78,24.59Z"/><path class="cls-1" d="M271.62,32.16A1.09,1.09,0,0,1,270.4,31a2.29,2.29,0,0,1,0-.25L275.64,2a1.72,1.72,0,0,1,.63-1.09,1.81,1.81,0,0,1,1.19-.44h23a7.38,7.38,0,0,1,3.58.86,6.23,6.23,0,0,1,2.44,2.36,6.64,6.64,0,0,1,.87,3.4,7.09,7.09,0,0,1-.15,1.43L306.81,11a.63.63,0,0,0-.06.31,6.7,6.7,0,0,1-.95,2.32,12.41,12.41,0,0,1-2.07,2.38,1.29,1.29,0,0,1,1,.64,6.68,6.68,0,0,1,.73,1.12,5.17,5.17,0,0,1,.38,2,11.29,11.29,0,0,1-.23,1.82l-.52,2.86a8.69,8.69,0,0,1-1.73,3.86,9.87,9.87,0,0,1-3.33,2.79,8.8,8.8,0,0,1-4.1,1Zm9.37-8a.6.6,0,0,0,.44.2h12.74a2.36,2.36,0,0,0,2.21-1.86,3.48,3.48,0,0,0,.06-.35,5.67,5.67,0,0,0,.13-.89,1.53,1.53,0,0,0-.49-1.14,1.62,1.62,0,0,0-1.17-.47H282.17a.7.7,0,0,0-.46.18.84.84,0,0,0-.28.42l-.62,3.39v.08A.68.68,0,0,0,281,24.2Zm2.13-11.77a.61.61,0,0,0,.42.18h11.93a2.41,2.41,0,0,0,2.24-1.84.87.87,0,0,1,0-.2,10,10,0,0,0,.14-1,1.56,1.56,0,0,0-.48-1.14,1.66,1.66,0,0,0-1.17-.47H284.28a.75.75,0,0,0-.46.18.61.61,0,0,0-.26.44l-.62,3.37V12A.59.59,0,0,0,283.12,12.43Z"/><path class="cls-1" d="M327.84,21.49l-.35.78L326,30.57a1.85,1.85,0,0,1-.66,1.15,1.92,1.92,0,0,1-1.24.44H318.6a1.35,1.35,0,0,1-1-.36,1.28,1.28,0,0,1-.36-.94,2.13,2.13,0,0,1,0-.27l1.49-8.3c0-.22-.05-.51-.08-.86L311.59,4.55a.67.67,0,0,1-.07-.31,1,1,0,0,1,.33-.78,1.16,1.16,0,0,1,.83-.32h6.95a1.2,1.2,0,0,1,1.24.79l3.6,8.54a.36.36,0,0,0,.18.22.63.63,0,0,0,.21.07.49.49,0,0,0,.36-.15L332,3.91a1.92,1.92,0,0,1,1.55-.77h6.95a.81.81,0,0,1,.6.21.75.75,0,0,1,.21.56,1,1,0,0,1-.25.64Z"/></g><g class="cls-5"><path class="cls-4" d="M11.91,32.61H5.83A1.54,1.54,0,0,1,4.16,31a1.75,1.75,0,0,1,0-.35h0L9.4,1.9A2.13,2.13,0,0,1,10.19.54,2.29,2.29,0,0,1,11.69,0h23A7.89,7.89,0,0,1,38.5.91a6.65,6.65,0,0,1,2.62,2.53,7.23,7.23,0,0,1,.93,3.63,7.93,7.93,0,0,1-.16,1.52l-1.32,7.33a9.72,9.72,0,0,1-1.94,4.31,11.31,11.31,0,0,1-3.7,3.11,9.84,9.84,0,0,1-4.59,1.14l-14.77,0a.26.26,0,0,0-.17.08.41.41,0,0,0-.13.18L14.2,30.69a2.33,2.33,0,0,1-2.29,1.92Zm-6.83-1.8a1,1,0,0,0,0,.17c0,.53.24.73.77.73h6.08a1.36,1.36,0,0,0,.92-.34,1.32,1.32,0,0,0,.48-.83l1.08-6a1.3,1.3,0,0,1,.42-.63,1.15,1.15,0,0,1,.76-.3l14.77,0a9,9,0,0,0,4.17-1,10.43,10.43,0,0,0,3.41-2.86,8.91,8.91,0,0,0,1.76-3.92L41,8.42a7,7,0,0,0,.13-1.35,6.34,6.34,0,0,0-.8-3.18,5.81,5.81,0,0,0-2.27-2.18A6.87,6.87,0,0,0,34.71.9h-23a1.43,1.43,0,0,0-.93.33,1.3,1.3,0,0,0-.47.82ZM29,17H17A1.09,1.09,0,0,1,16,16v-.18l1.32-7.3a1,1,0,0,1,.42-.71,1.16,1.16,0,0,1,.75-.3H30.43a2,2,0,0,1,1.48.62,2,2,0,0,1,.62,1.44c0,.13,0,.26,0,.4v0l-.86,4.84a2.67,2.67,0,0,1-1,1.56A2.58,2.58,0,0,1,29,17ZM16.89,15.9V16s0,.05.06.1.08.05.09.05H29a1.73,1.73,0,0,0,1.12-.44,1.79,1.79,0,0,0,.65-1l.86-4.82c0-.1,0-.2,0-.29a1.12,1.12,0,0,0-.36-.81,1.15,1.15,0,0,0-.84-.35H18.49a.33.33,0,0,0-.18.09c-.07.07-.09.11-.09.12v0Z"/><path class="cls-4" d="M66,32.61H49.23a7.34,7.34,0,0,1-3.57-.86,6.24,6.24,0,0,1-2.45-2.41,6.76,6.76,0,0,1-.87-3.41,8.29,8.29,0,0,1,.13-1.4l2.53-14a9.06,9.06,0,0,1,1.8-4,10.28,10.28,0,0,1,3.44-2.88A9.08,9.08,0,0,1,54.5,2.59H71.28a7.31,7.31,0,0,1,3.59.87,6.28,6.28,0,0,1,2.45,2.4,6.87,6.87,0,0,1,.86,3.42,7.34,7.34,0,0,1-.13,1.39l-2.54,14a9.22,9.22,0,0,1-1.8,4,10.33,10.33,0,0,1-3.42,2.88A9.24,9.24,0,0,1,66,32.61ZM54.5,3.49a8.21,8.21,0,0,0-3.84,1,9.39,9.39,0,0,0-3.14,2.63,8.15,8.15,0,0,0-1.63,3.61l-2.53,14a7.52,7.52,0,0,0-.11,1.24,6,6,0,0,0,.74,3A5.4,5.4,0,0,0,46.09,31a6.45,6.45,0,0,0,3.14.75H66a8.25,8.25,0,0,0,3.85-1A9.57,9.57,0,0,0,73,28.12a8.36,8.36,0,0,0,1.62-3.61l2.54-14a6.57,6.57,0,0,0,.12-1.23,5.88,5.88,0,0,0-.75-3,5.34,5.34,0,0,0-2.1-2.06,6.36,6.36,0,0,0-3.15-.76ZM65.32,25.06H52.68a1.22,1.22,0,0,1-1-.42,1.31,1.31,0,0,1-.35-.88v-.22L53.58,11.4a1.53,1.53,0,0,1,.6-1,1.68,1.68,0,0,1,1-.4H67.84a1.26,1.26,0,0,1,.92.38,1.28,1.28,0,0,1,.38.92v.23L66.94,23.7a1.56,1.56,0,0,1-.59.95A1.63,1.63,0,0,1,65.32,25.06Zm-13-1.4v.1a.42.42,0,0,0,.13.28.33.33,0,0,0,.27.12H65.32a.75.75,0,0,0,.46-.21.67.67,0,0,0,.27-.41l2.19-12.08v-.11a.38.38,0,0,0-.12-.28.36.36,0,0,0-.28-.11H55.23a.76.76,0,0,0-.49.2.61.61,0,0,0-.27.39Z"/><path class="cls-4" d="M113.51,32.61h-5.75A1.68,1.68,0,0,1,106,31.23L103.42,18,96,31.35a2.45,2.45,0,0,1-2.12,1.26H88.13a1.69,1.69,0,0,1-1.76-1.4l-5-26.68,0-.25a1.51,1.51,0,0,1,.46-1.1,1.57,1.57,0,0,1,1.15-.45h6.79a1.68,1.68,0,0,1,1.76,1.38l2.6,13.5h0l7.5-13.68a2.38,2.38,0,0,1,2.11-1.27h4.72a1.63,1.63,0,0,1,1.76,1.4l2.54,13.54h0L120.32,4a2.4,2.4,0,0,1,2.11-1.29h6.8a1.18,1.18,0,0,1,1.08.6,1.25,1.25,0,0,1,.16.62,1.58,1.58,0,0,1-.2.73L115.63,31.32a2.51,2.51,0,0,1-.9.93A2.25,2.25,0,0,1,113.51,32.61Zm-9.88-15.5a1,1,0,0,1,.66.67L106.88,31a.78.78,0,0,0,.88.67h5.75a1.36,1.36,0,0,0,.75-.22,1.7,1.7,0,0,0,.58-.61L129.48,4.23a.64.64,0,0,0,.09-.3.41.41,0,0,0,0-.18c0-.07-.09-.14-.29-.14h-6.8a1.48,1.48,0,0,0-1.33.84L113.57,18a.82.82,0,0,1-.82.52,1,1,0,0,1-.45-.14.86.86,0,0,1-.43-.57L109.33,4.24a.76.76,0,0,0-.88-.67h-4.72a1.48,1.48,0,0,0-1.33.82L94.85,18.15a.93.93,0,0,1-.78.4h-.19l-.07-.07-.21-.12a.86.86,0,0,1-.38-.53L90.61,4.3a.78.78,0,0,0-.88-.67H82.94a.69.69,0,0,0-.52.19.58.58,0,0,0-.18.43v.14l5,26.63a.79.79,0,0,0,.88.69h5.75a1.53,1.53,0,0,0,1.34-.83l7.4-13.32a.84.84,0,0,1,.34-.36,1,1,0,0,1,.48-.14h.11Z"/><path class="cls-4" d="M154.51,32.61H130a1.8,1.8,0,0,1-1.31-.49,1.71,1.71,0,0,1-.51-1.28,1.84,1.84,0,0,1,0-.33l4.7-25.9a2.38,2.38,0,0,1,.82-1.41,2.3,2.3,0,0,1,1.52-.57h24.49A1.16,1.16,0,0,1,161,3.85a1.31,1.31,0,0,1,0,.27l-1,5.47a1.57,1.57,0,0,1-1.58,1.32h-17l0,0-.5,2.77h13.51a1.17,1.17,0,0,1,1.25,1.2.89.89,0,0,1,0,.29l-.9,5a1.7,1.7,0,0,1-.54,1,1.55,1.55,0,0,1-1,.38H139.53l0,0L139,24.14h16.83a1.21,1.21,0,0,1,.92.34,1.17,1.17,0,0,1,.34.88,1.24,1.24,0,0,1,0,.27l-1,5.66a1.44,1.44,0,0,1-.54,1A1.62,1.62,0,0,1,154.51,32.61ZM135.27,3.53a1.44,1.44,0,0,0-.94.36,1.52,1.52,0,0,0-.52.88l-4.69,25.9a.91.91,0,0,0,0,.17.8.8,0,0,0,.23.63.92.92,0,0,0,.68.24h24.49a.69.69,0,0,0,.47-.16.56.56,0,0,0,.22-.41l1-5.7a.37.37,0,0,0,0-.08c0-.17,0-.22-.07-.24a.41.41,0,0,0-.29-.08H138l.65-3.62a.75.75,0,0,1,.32-.55.9.9,0,0,1,.54-.23h13.7a.61.61,0,0,0,.44-.16.75.75,0,0,0,.25-.44l.91-5a.39.39,0,0,0,0-.09c0-.25-.08-.31-.35-.31H139.84l.69-3.84a.87.87,0,0,1,.32-.55.88.88,0,0,1,.55-.22h17a.68.68,0,0,0,.45-.15.69.69,0,0,0,.24-.43l1-5.5a.35.35,0,0,1,0-.07c0-.26-.08-.33-.36-.33Z"/><path class="cls-4" d="M167.44,32.61H162a1.77,1.77,0,0,1-1.31-.49,1.74,1.74,0,0,1-.49-1.26,2,2,0,0,1,0-.35l4.69-25.88a2.38,2.38,0,0,1,.82-1.4,2.31,2.31,0,0,1,1.53-.56H188a7.32,7.32,0,0,1,3.56.86A6.19,6.19,0,0,1,194,5.92a6.73,6.73,0,0,1,.87,3.43,7.37,7.37,0,0,1-.13,1.4l-1.2,6.6a9.09,9.09,0,0,1-1.86,4.07,10.73,10.73,0,0,1-3.16,2.67l2.92,6.05a1.53,1.53,0,0,1,.22.8,1.58,1.58,0,0,1-.44,1.12,1.6,1.6,0,0,1-1.19.47c-1,0-2.17,0-3.46,0l-2.95,0a6.87,6.87,0,0,1-1.8-.16,1.67,1.67,0,0,1-1-.85l-3.07-6.06a.42.42,0,0,0-.37-.23l-6.61,0h0l-1,5.34a2.28,2.28,0,0,1-.81,1.41A2.32,2.32,0,0,1,167.44,32.61Zm-.21-29a1.5,1.5,0,0,0-1.46,1.22l-4.69,25.88a1,1,0,0,0,0,.19.86.86,0,0,0,.23.62.92.92,0,0,0,.67.23h5.48a1.47,1.47,0,0,0,1.46-1.22l1-5.51a1,1,0,0,1,.29-.38.82.82,0,0,1,.53-.19l6.63,0a1.3,1.3,0,0,1,1.15.66l0,0,3.09,6.08a.7.7,0,0,0,.44.39,5.57,5.57,0,0,0,1.53.13l2.93,0c1.3,0,2.47,0,3.48,0a.67.67,0,0,0,.54-.2.66.66,0,0,0,.19-.49.59.59,0,0,0-.1-.34l0,0-2.94-6.08a.3.3,0,0,1-.15-.05l-.24-.13V24a.53.53,0,0,1,.36-.5,9.77,9.77,0,0,0,3.3-2.66,8.13,8.13,0,0,0,1.68-3.67l1.2-6.6a6.59,6.59,0,0,0,.12-1.24,5.9,5.9,0,0,0-.75-3,5.35,5.35,0,0,0-2.1-2A6.41,6.41,0,0,0,188,3.57Zm3.93,14.52,1.38-7.63a.94.94,0,0,1,.83-.57h10.72a1.66,1.66,0,0,1,1.22.49,1.63,1.63,0,0,1,.49,1.16c0,.1,0,.21,0,.33v0L185,16.25a2.28,2.28,0,0,1-.8,1.28,2.13,2.13,0,0,1-1.4.54Zm2.23-7.29-1.15,6.39,10.54,0a1.25,1.25,0,0,0,.83-.33,1.37,1.37,0,0,0,.49-.76l.78-4.34a1.5,1.5,0,0,0,0-.2.69.69,0,0,0-.23-.52.76.76,0,0,0-.58-.23h-10.7Z"/><path class="cls-4" d="M221.8,32.61H197.31a1.77,1.77,0,0,1-1.31-.49,1.71,1.71,0,0,1-.51-1.28,1.84,1.84,0,0,1,0-.33l4.69-25.9A2.34,2.34,0,0,1,201,3.2a2.28,2.28,0,0,1,1.52-.57h24.49a1.16,1.16,0,0,1,1.26,1.22.84.84,0,0,1,0,.27l-1,5.47a1.61,1.61,0,0,1-.55,1,1.59,1.59,0,0,1-1,.36h-17l0,0-.5,2.77h13.5a1.17,1.17,0,0,1,1.26,1.2,1.29,1.29,0,0,1,0,.29l-.91,5a1.6,1.6,0,0,1-.54,1,1.55,1.55,0,0,1-1,.38H206.81l0,0-.46,2.57h16.84a1.23,1.23,0,0,1,.92.34,1.21,1.21,0,0,1,.34.88,1.07,1.07,0,0,1,0,.25l-1,5.68a1.45,1.45,0,0,1-.55,1A1.58,1.58,0,0,1,221.8,32.61ZM202.56,3.53a1.4,1.4,0,0,0-.94.36,1.42,1.42,0,0,0-.52.88l-4.7,25.9s0,.11,0,.17a.81.81,0,0,0,.24.63.91.91,0,0,0,.68.24H221.8a.72.72,0,0,0,.47-.16.64.64,0,0,0,.22-.41l1-5.73a.43.43,0,0,1,0-.05.29.29,0,0,0-.08-.24.39.39,0,0,0-.28-.08H205.25l.64-3.62a.8.8,0,0,1,.33-.55.88.88,0,0,1,.54-.23h13.69a.65.65,0,0,0,.45-.16.75.75,0,0,0,.25-.44l.9-5a.2.2,0,0,0,0-.09c0-.25-.09-.31-.36-.31H207.13l.69-3.84a.78.78,0,0,1,.32-.55.88.88,0,0,1,.54-.22h17a.71.71,0,0,0,.46-.15.74.74,0,0,0,.24-.43l1-5.5a.26.26,0,0,0,0-.07c0-.26-.07-.33-.35-.33Z"/><path class="cls-4" d="M248.73,32.61H229.24a1.76,1.76,0,0,1-1.3-.49,1.7,1.7,0,0,1-.49-1.26,2,2,0,0,1,0-.35l4.7-26A2.34,2.34,0,0,1,233,3.14a2.29,2.29,0,0,1,1.52-.55H254a7.23,7.23,0,0,1,3.57.87A6.38,6.38,0,0,1,260,5.86a6.76,6.76,0,0,1,.88,3.4,7.49,7.49,0,0,1-.14,1.41l-2.54,14a9,9,0,0,1-1.79,4A10.53,10.53,0,0,1,253,31.55,9.23,9.23,0,0,1,248.73,32.61ZM234.52,3.49a1.5,1.5,0,0,0-1.46,1.22l-4.7,26a1.09,1.09,0,0,0,0,.19.82.82,0,0,0,.23.62.9.9,0,0,0,.66.23h19.49a8.21,8.21,0,0,0,3.84-1,9.74,9.74,0,0,0,3.15-2.63,8,8,0,0,0,1.62-3.61l2.55-14A7.64,7.64,0,0,0,260,9.26a5.86,5.86,0,0,0-.75-2.95,5.52,5.52,0,0,0-2.12-2.06A6.28,6.28,0,0,0,254,3.49ZM248,25h-9.26a1.41,1.41,0,0,1-1-.39l0,0,0-.05a1.59,1.59,0,0,1-.23-.82v-.2l2.2-12.14a1.55,1.55,0,0,1,.59-1,1.7,1.7,0,0,1,1-.4h9.25a1.29,1.29,0,0,1,.92.38,1.23,1.23,0,0,1,.4.9v.08L249.67,23.7a1.53,1.53,0,0,1-.6.94A1.6,1.6,0,0,1,248,25Zm-9.59-1a.52.52,0,0,0,.33.11H248a.77.77,0,0,0,.46-.2.67.67,0,0,0,.28-.4L251,11.3a.31.31,0,0,0-.12-.22.36.36,0,0,0-.29-.12h-9.25a.74.74,0,0,0-.48.2.61.61,0,0,0-.27.39l-2.19,12.11v.08A.59.59,0,0,0,238.45,24Z"/><path class="cls-4" d="M296,32.61H271.62A1.55,1.55,0,0,1,270,31a1.83,1.83,0,0,1,0-.35L275.19,1.9A2.17,2.17,0,0,1,276,.54,2.25,2.25,0,0,1,277.46,0h23a7.87,7.87,0,0,1,3.79.91,6.65,6.65,0,0,1,2.62,2.53,7.23,7.23,0,0,1,.93,3.63,7.21,7.21,0,0,1-.16,1.52l-.44,2.61,0,.07v.17a6.91,6.91,0,0,1-1,2.47,11.61,11.61,0,0,1-1.62,2,2.53,2.53,0,0,1,.55.54,8.12,8.12,0,0,1,.78,1.19v0a5.76,5.76,0,0,1,.41,2.18,12.28,12.28,0,0,1-.24,1.91l-.51,2.85a9.2,9.2,0,0,1-1.82,4.06,10.41,10.41,0,0,1-3.48,2.91A9.32,9.32,0,0,1,296,32.61ZM277.46.9a1.4,1.4,0,0,0-.91.33,1.3,1.3,0,0,0-.47.82l-5.21,28.76a1,1,0,0,0,0,.17c0,.53.24.73.77.73H296a8.49,8.49,0,0,0,3.9-1A9.61,9.61,0,0,0,303,28.08a8.45,8.45,0,0,0,1.64-3.67l.51-2.86a9.69,9.69,0,0,0,.22-1.75,4.86,4.86,0,0,0-.33-1.81,7.73,7.73,0,0,0-.68-1c-.17-.21-.41-.47-.65-.46l-1.22.05.9-.83a11.9,11.9,0,0,0,2-2.29,6,6,0,0,0,.87-2.12,1.24,1.24,0,0,1,.08-.41l.43-2.48a7,7,0,0,0,.13-1.35,6.34,6.34,0,0,0-.8-3.18,5.81,5.81,0,0,0-2.27-2.18A6.87,6.87,0,0,0,300.5.9Zm16.71,24H281.43a1,1,0,0,1-.77-.35h0a1.08,1.08,0,0,1-.3-.74V23.6l.63-3.43a1.33,1.33,0,0,1,.42-.64,1.19,1.19,0,0,1,.76-.29h12.74a2.06,2.06,0,0,1,1.49.6A2,2,0,0,1,297,21.3a6.68,6.68,0,0,1-.13,1c0,.15-.05.26-.06.34a2.54,2.54,0,0,1-1,1.58A2.6,2.6,0,0,1,294.17,24.85Zm-12.84-1a.13.13,0,0,0,.1.05h12.74a1.77,1.77,0,0,0,1.13-.45,1.75,1.75,0,0,0,.64-1q0-.13.06-.36a5.43,5.43,0,0,0,.12-.81,1.1,1.1,0,0,0-.35-.81,1.15,1.15,0,0,0-.86-.35H282.17a.26.26,0,0,0-.17.08.39.39,0,0,0-.13.17l-.61,3.37a.23.23,0,0,0,.07.14Zm14.14-10.84H283.54a1,1,0,0,1-.74-.31h0a1.07,1.07,0,0,1-.31-.74v-.18l.62-3.35a1,1,0,0,1,.43-.73,1.18,1.18,0,0,1,.74-.28h11.94a2.05,2.05,0,0,1,1.48.6,2,2,0,0,1,.62,1.46,6.51,6.51,0,0,1-.15,1.11.72.72,0,0,0,0,.13v.09a2.7,2.7,0,0,1-1,1.56A2.63,2.63,0,0,1,295.47,13.06Zm-12-1c.06.05.09.05.1.05h11.93a1.72,1.72,0,0,0,1.13-.44,1.82,1.82,0,0,0,.66-1c0-.06,0-.13,0-.22a7.32,7.32,0,0,0,.14-1,1.06,1.06,0,0,0-.35-.81,1.15,1.15,0,0,0-.85-.35H284.28a.39.39,0,0,0-.19.09c-.08.06-.08.1-.08.12v0L283.39,12S283.39,12.05,283.44,12.11Z"/><path class="cls-4" d="M324.08,32.61H318.6a1.73,1.73,0,0,1-1.3-.49,1.71,1.71,0,0,1-.5-1.26,2,2,0,0,1,0-.35l1.48-8.23c0-.2-.05-.45-.07-.75L311.17,4.72a1.12,1.12,0,0,1-.1-.48,1.47,1.47,0,0,1,.47-1.1,1.58,1.58,0,0,1,1.14-.45h6.95a1.64,1.64,0,0,1,1.66,1.07l3.6,8.54,6.75-8.67a2.36,2.36,0,0,1,1.91-.94h6.95a1.23,1.23,0,0,1,.92.34,1.21,1.21,0,0,1,.34.88,1.47,1.47,0,0,1-.35.92L328.23,21.72l-.3.69-1.5,8.24a2.38,2.38,0,0,1-2.35,2Zm-11.4-29a.66.66,0,0,0-.51.2.59.59,0,0,0-.2.45.28.28,0,0,0,0,.13l7.12,17v.07c0,.35.05.64.08.85v.07l-1.5,8.36a1,1,0,0,0,0,.19.86.86,0,0,0,.23.62.94.94,0,0,0,.67.23h5.48a1.47,1.47,0,0,0,1.46-1.22l1.52-8.35.43-.93L340.7,4.27a.57.57,0,0,0,.16-.36.29.29,0,0,0-.08-.24.37.37,0,0,0-.28-.08h-6.95a1.49,1.49,0,0,0-1.2.6l-6.81,8.74a1,1,0,0,1-.68.28.88.88,0,0,1-.43-.13.79.79,0,0,1-.38-.46L320.46,4.1a.77.77,0,0,0-.83-.51Z"/></g><g class="cls-5"><path class="cls-2" d="M9.51,30.73,14.72,2A1.72,1.72,0,0,1,15.35.89,1.88,1.88,0,0,1,16.56.45h23a7.34,7.34,0,0,1,3.57.86A6.1,6.1,0,0,1,45.6,3.67a6.64,6.64,0,0,1,.87,3.4,7.87,7.87,0,0,1-.14,1.43L45,15.84A9.19,9.19,0,0,1,43.15,20a10.86,10.86,0,0,1-3.55,3A9.35,9.35,0,0,1,35.22,24l-14.77,0a.67.67,0,0,0-.46.19.78.78,0,0,0-.28.41l-1.08,6A1.8,1.8,0,0,1,18,31.72a1.84,1.84,0,0,1-1.21.44H10.71A1.09,1.09,0,0,1,9.49,31,2.29,2.29,0,0,1,9.51,30.73ZM36.94,9.88c0-.12,0-.24,0-.35a1.54,1.54,0,0,0-.49-1.13,1.59,1.59,0,0,0-1.17-.48H23.37a.75.75,0,0,0-.47.19.67.67,0,0,0-.25.43l-1.33,7.32V16a.63.63,0,0,0,.6.6H33.86a2.18,2.18,0,0,0,1.4-.54,2.25,2.25,0,0,0,.81-1.3Z"/><path class="cls-2" d="M76.16,3a6.89,6.89,0,0,1,3.37.81A5.82,5.82,0,0,1,81.8,6.09a6.31,6.31,0,0,1,.81,3.19,6.54,6.54,0,0,1-.13,1.31l-2.54,14a8.75,8.75,0,0,1-1.71,3.81A10,10,0,0,1,75,31.15a8.75,8.75,0,0,1-4.06,1H54.11a6.78,6.78,0,0,1-3.35-.81,5.69,5.69,0,0,1-2.28-2.23,6.33,6.33,0,0,1-.81-3.19,6.56,6.56,0,0,1,.13-1.32l2.52-14A8.66,8.66,0,0,1,52,6.8a9.83,9.83,0,0,1,3.29-2.75,8.68,8.68,0,0,1,4.05-1ZM56.71,23.76a.85.85,0,0,0,.24.58.78.78,0,0,0,.61.27H70.2a1.36,1.36,0,0,0,1.18-1L73.57,11.5v-.15a.85.85,0,0,0-.85-.85H60.1a1.2,1.2,0,0,0-.76.3,1.15,1.15,0,0,0-.44.68L56.71,23.62Z"/><path class="cls-2" d="M134.9,3.93a1.06,1.06,0,0,1-.15.51L120.11,31.11a2.07,2.07,0,0,1-.74.76,1.83,1.83,0,0,1-1,.29h-5.75a1.22,1.22,0,0,1-1.32-1l-2.59-13.24a.43.43,0,0,0-.17-.26.45.45,0,0,0-.2-.09l0,0a.47.47,0,0,0-.25.07.36.36,0,0,0-.16.17l-7.43,13.37a2,2,0,0,1-1.72,1H93a1.23,1.23,0,0,1-1.32-1l-5-26.67,0-.16A1.08,1.08,0,0,1,87,3.5a1.17,1.17,0,0,1,.84-.32h6.79a1.24,1.24,0,0,1,1.32,1l2.61,13.5a.4.4,0,0,0,.18.26.52.52,0,0,0,.21.09l0,0a.46.46,0,0,0,.41-.21l7.53-13.74a1.94,1.94,0,0,1,1.72-1h4.71a1.2,1.2,0,0,1,1.33,1l2.54,13.57a.38.38,0,0,0,.2.27.48.48,0,0,0,.24.08c.22,0,.36-.08.41-.24l7.55-13.61a1.94,1.94,0,0,1,1.72-1.06h6.8a.72.72,0,0,1,.68.37A.83.83,0,0,1,134.9,3.93Z"/><path class="cls-2" d="M164.64,3.08a.72.72,0,0,1,.81.78.89.89,0,0,1,0,.15l-1,5.5a1.15,1.15,0,0,1-.4.69,1.06,1.06,0,0,1-.74.26h-17a.43.43,0,0,0-.25.13.31.31,0,0,0-.16.24l-.6,3.34h14.05a.71.71,0,0,1,.8.76.5.5,0,0,1,0,.17l-.91,5a1.12,1.12,0,0,1-1.14,1H144.35a.52.52,0,0,0-.26.13.33.33,0,0,0-.15.25l-.56,3.12h17.37a.78.78,0,0,1,.6.21.73.73,0,0,1,.21.56.88.88,0,0,1,0,.16l-1,5.69a1,1,0,0,1-.39.69,1.16,1.16,0,0,1-.75.26H134.9a1.34,1.34,0,0,1-1-.36,1.27,1.27,0,0,1-.38-1,2,2,0,0,1,0-.25l4.7-25.9a2,2,0,0,1,.67-1.15,1.86,1.86,0,0,1,1.23-.46Z"/><path class="cls-2" d="M192.83,3.12a6.85,6.85,0,0,1,3.36.81,5.75,5.75,0,0,1,2.27,2.21,6.33,6.33,0,0,1,.81,3.21,6.56,6.56,0,0,1-.13,1.32l-1.2,6.6a8.51,8.51,0,0,1-1.76,3.87,10.29,10.29,0,0,1-3.47,2.79c-.07,0-.1.06-.1.09s.06,0,.18-.07l3.11,6.41a1.08,1.08,0,0,1,.16.58,1.11,1.11,0,0,1-1.18,1.14c-1,0-2.18,0-3.47,0l-2.94,0a6.17,6.17,0,0,1-1.66-.15,1.16,1.16,0,0,1-.72-.62L183,25.29a.88.88,0,0,0-.77-.45l-6.64,0a.35.35,0,0,0-.23.09.49.49,0,0,0-.16.2l-1,5.42a1.85,1.85,0,0,1-.66,1.15,1.94,1.94,0,0,1-1.24.44h-5.49a1.33,1.33,0,0,1-1-.36,1.28,1.28,0,0,1-.36-.94,2.13,2.13,0,0,1,0-.27l4.7-25.88a1.91,1.91,0,0,1,.66-1.14,1.88,1.88,0,0,1,1.24-.45Zm-2.62,8.69c0-.1,0-.19,0-.27a1.15,1.15,0,0,0-.36-.84,1.22,1.22,0,0,0-.9-.36H178.25a.45.45,0,0,0-.25.09.49.49,0,0,0-.16.2l-1.26,7,11.08,0a1.71,1.71,0,0,0,1.12-.44,1.76,1.76,0,0,0,.64-1Z"/><path class="cls-2" d="M231.93,3.08a.71.71,0,0,1,.8.78.41.41,0,0,1,0,.15l-1,5.5a1.14,1.14,0,0,1-.39.69,1.11,1.11,0,0,1-.75.26h-17a.42.42,0,0,0-.26.13.33.33,0,0,0-.15.24l-.6,3.34h14a.72.72,0,0,1,.81.76,1,1,0,0,1,0,.17l-.91,5a1.23,1.23,0,0,1-.4.71,1.11,1.11,0,0,1-.74.26H211.64a.48.48,0,0,0-.26.13.31.31,0,0,0-.16.25l-.56,3.12H228a.81.81,0,0,1,.6.21.73.73,0,0,1,.21.56.88.88,0,0,1,0,.16l-1,5.69a1,1,0,0,1-.38.69,1.21,1.21,0,0,1-.76.26H202.18a1.37,1.37,0,0,1-1-.36,1.27,1.27,0,0,1-.37-1,2,2,0,0,1,0-.25l4.69-25.9a2,2,0,0,1,.68-1.15,1.83,1.83,0,0,1,1.23-.46Z"/><path class="cls-2" d="M258.88,3a6.83,6.83,0,0,1,3.35.81,5.94,5.94,0,0,1,2.29,2.24,6.26,6.26,0,0,1,.81,3.17,7.48,7.48,0,0,1-.12,1.33l-2.55,14A8.4,8.4,0,0,1,261,28.4a10.29,10.29,0,0,1-3.3,2.75,8.75,8.75,0,0,1-4.06,1H234.12a1.33,1.33,0,0,1-1-.36,1.28,1.28,0,0,1-.36-.94,1.14,1.14,0,0,1,0-.27l4.69-26A1.95,1.95,0,0,1,239.39,3ZM243.66,24.59h9.26a1.2,1.2,0,0,0,.75-.3,1.11,1.11,0,0,0,.43-.67l2.21-12.29a.79.79,0,0,0-.25-.58.9.9,0,0,0-.61-.25H246.2a1.23,1.23,0,0,0-.77.3,1.14,1.14,0,0,0-.43.68l-2.19,12.14v.12a1.08,1.08,0,0,0,.16.58A1,1,0,0,0,243.66,24.59Z"/><path class="cls-2" d="M276.5,32.16A1.09,1.09,0,0,1,275.28,31a2.29,2.29,0,0,1,0-.25L280.51,2a1.69,1.69,0,0,1,.64-1.09,1.8,1.8,0,0,1,1.18-.44h23.05a7.4,7.4,0,0,1,3.58.86,6.23,6.23,0,0,1,2.44,2.36,6.64,6.64,0,0,1,.86,3.4,7.07,7.07,0,0,1-.14,1.43L311.69,11a.53.53,0,0,0-.07.31,6.49,6.49,0,0,1-.94,2.32,12.5,12.5,0,0,1-2.08,2.38,1.29,1.29,0,0,1,1,.64,6.68,6.68,0,0,1,.73,1.12,5.16,5.16,0,0,1,.37,2,11.17,11.17,0,0,1-.22,1.82L310,24.49a8.69,8.69,0,0,1-1.73,3.86,9.87,9.87,0,0,1-3.33,2.79,8.8,8.8,0,0,1-4.1,1Zm9.37-8a.6.6,0,0,0,.44.2h12.74a2.17,2.17,0,0,0,1.41-.55,2.14,2.14,0,0,0,.8-1.31c0-.08,0-.2.06-.35a5.67,5.67,0,0,0,.13-.89,1.57,1.57,0,0,0-.49-1.14,1.62,1.62,0,0,0-1.17-.47H287.05a.7.7,0,0,0-.46.18.84.84,0,0,0-.28.42l-.62,3.39v.08A.68.68,0,0,0,285.87,24.2ZM288,12.43a.59.59,0,0,0,.42.18h11.93a2.23,2.23,0,0,0,1.42-.54,2.16,2.16,0,0,0,.81-1.3,1.06,1.06,0,0,1,0-.2,10,10,0,0,0,.14-1,1.53,1.53,0,0,0-.49-1.14,1.62,1.62,0,0,0-1.16-.47H289.16a.75.75,0,0,0-.46.18.61.61,0,0,0-.26.44l-.62,3.37V12A.59.59,0,0,0,288,12.43Z"/><path class="cls-2" d="M332.72,21.49l-.35.78-1.51,8.3a1.85,1.85,0,0,1-.66,1.15,1.92,1.92,0,0,1-1.24.44h-5.48a1.34,1.34,0,0,1-1-.36,1.28,1.28,0,0,1-.36-.94,2.13,2.13,0,0,1,0-.27l1.49-8.3c0-.22-.05-.51-.08-.86l-7.1-16.88a.81.81,0,0,1-.06-.31,1,1,0,0,1,.33-.78,1.16,1.16,0,0,1,.83-.32h6.95a1.2,1.2,0,0,1,1.24.79l3.6,8.54a.36.36,0,0,0,.18.22.63.63,0,0,0,.21.07.45.45,0,0,0,.35-.15l6.79-8.7a1.92,1.92,0,0,1,1.55-.77h6.95a.81.81,0,0,1,.6.21.75.75,0,0,1,.21.56,1.06,1.06,0,0,1-.25.64Z"/></g><g class="cls-5"><path class="cls-4" d="M16.79,32.61H10.71A1.54,1.54,0,0,1,9,31a1.75,1.75,0,0,1,0-.35h0L14.28,1.9A2.13,2.13,0,0,1,15.07.54,2.26,2.26,0,0,1,16.56,0h23a7.89,7.89,0,0,1,3.79.91A6.65,6.65,0,0,1,46,3.44a7.23,7.23,0,0,1,.92,3.63,8.07,8.07,0,0,1-.15,1.52l-1.32,7.33a9.72,9.72,0,0,1-1.94,4.31,11.25,11.25,0,0,1-3.71,3.11,9.77,9.77,0,0,1-4.58,1.14l-14.77,0a.26.26,0,0,0-.17.08.41.41,0,0,0-.13.18l-1.07,5.93a2.22,2.22,0,0,1-.79,1.37A2.24,2.24,0,0,1,16.79,32.61ZM10,30.81a1,1,0,0,0,0,.17c0,.53.24.73.77.73h6.08a1.43,1.43,0,0,0,1.4-1.17l1.08-6a1.3,1.3,0,0,1,.42-.63,1.15,1.15,0,0,1,.76-.3l14.77,0a9,9,0,0,0,4.17-1,10.43,10.43,0,0,0,3.41-2.86,8.91,8.91,0,0,0,1.76-3.92l1.32-7.34A6.32,6.32,0,0,0,46,7.07a6.24,6.24,0,0,0-.81-3.18A5.72,5.72,0,0,0,43,1.71,6.87,6.87,0,0,0,39.59.9h-23a1.4,1.4,0,0,0-.92.33,1.3,1.3,0,0,0-.47.82ZM33.86,17H21.92A1.09,1.09,0,0,1,20.87,16v-.18l1.32-7.3a1,1,0,0,1,.42-.71,1.16,1.16,0,0,1,.75-.3H35.3a2,2,0,0,1,1.49.62,2,2,0,0,1,.62,1.44c0,.13,0,.26,0,.4v0l-.87,4.84A2.87,2.87,0,0,1,33.86,17ZM21.77,15.9V16s0,.05.06.1.08.05.09.05H33.86A1.69,1.69,0,0,0,35,15.67a1.76,1.76,0,0,0,.66-1l.86-4.82c0-.1,0-.2,0-.29a1.12,1.12,0,0,0-.36-.81,1.15,1.15,0,0,0-.85-.35H23.37a.33.33,0,0,0-.18.09.89.89,0,0,0-.1.12v0Z"/><path class="cls-4" d="M70.9,32.61H54.11a7.34,7.34,0,0,1-3.57-.86,6.18,6.18,0,0,1-2.45-2.41,6.76,6.76,0,0,1-.87-3.41,8.29,8.29,0,0,1,.13-1.4l2.53-14a9.06,9.06,0,0,1,1.8-4,10.28,10.28,0,0,1,3.44-2.88,9.08,9.08,0,0,1,4.26-1.06H76.16a7.31,7.31,0,0,1,3.59.87,6.26,6.26,0,0,1,2.44,2.4,6.77,6.77,0,0,1,.87,3.42,7.34,7.34,0,0,1-.13,1.39l-2.55,14a9.2,9.2,0,0,1-1.79,4,10.26,10.26,0,0,1-3.43,2.88A9.17,9.17,0,0,1,70.9,32.61ZM59.38,3.49a8.25,8.25,0,0,0-3.85,1,9.59,9.59,0,0,0-3.14,2.63,8.38,8.38,0,0,0-1.63,3.61l-2.52,14a6.59,6.59,0,0,0-.12,1.24,6,6,0,0,0,.75,3A5.4,5.4,0,0,0,51,31a6.42,6.42,0,0,0,3.14.75H70.9a8.25,8.25,0,0,0,3.85-1,9.57,9.57,0,0,0,3.13-2.63,8.36,8.36,0,0,0,1.62-3.61l2.54-14a6.57,6.57,0,0,0,.12-1.23,5.88,5.88,0,0,0-.75-3,5.34,5.34,0,0,0-2.1-2.06,6.36,6.36,0,0,0-3.15-.76ZM70.2,25.06H57.56a1.22,1.22,0,0,1-1-.42,1.31,1.31,0,0,1-.35-.88v-.22L58.46,11.4a1.53,1.53,0,0,1,.6-1,1.68,1.68,0,0,1,1-.4H72.72a1.3,1.3,0,0,1,1.3,1.3v.23L71.82,23.7a1.61,1.61,0,0,1-.59.95A1.63,1.63,0,0,1,70.2,25.06Zm-13-1.4v.1a.42.42,0,0,0,.13.28.33.33,0,0,0,.27.12H70.2a.71.71,0,0,0,.45-.21.65.65,0,0,0,.28-.41l2.19-12.08v-.11a.38.38,0,0,0-.12-.28.36.36,0,0,0-.28-.11H60.1a.76.76,0,0,0-.48.2.61.61,0,0,0-.27.39Z"/><path class="cls-4" d="M118.39,32.61h-5.75a1.68,1.68,0,0,1-1.76-1.38L108.29,18l-7.42,13.36a2.42,2.42,0,0,1-2.11,1.26H93a1.69,1.69,0,0,1-1.76-1.4l-5-26.68,0-.25a1.5,1.5,0,0,1,.45-1.1,1.58,1.58,0,0,1,1.16-.45h6.79a1.68,1.68,0,0,1,1.76,1.38L99,17.61h0l7.5-13.68a2.4,2.4,0,0,1,2.11-1.27h4.71a1.64,1.64,0,0,1,1.77,1.4l2.54,13.54h0L125.2,4a2.4,2.4,0,0,1,2.11-1.29h6.8a1.18,1.18,0,0,1,1.08.6,1.25,1.25,0,0,1,.16.62,1.58,1.58,0,0,1-.2.73L120.5,31.32a2.41,2.41,0,0,1-.89.93A2.25,2.25,0,0,1,118.39,32.61Zm-9.88-15.5a1,1,0,0,1,.66.67L111.76,31a.78.78,0,0,0,.88.67h5.75a1.39,1.39,0,0,0,.75-.22,1.79,1.79,0,0,0,.58-.61L134.36,4.23a.64.64,0,0,0,.09-.3.41.41,0,0,0,0-.18c0-.07-.09-.14-.29-.14h-6.8a1.48,1.48,0,0,0-1.33.84L118.45,18a.82.82,0,0,1-.82.52,1,1,0,0,1-.45-.14.84.84,0,0,1-.43-.57L114.2,4.24c-.09-.47-.34-.67-.88-.67h-4.71a1.48,1.48,0,0,0-1.33.82L99.73,18.15a1,1,0,0,1-.78.4h-.19l-.07-.07-.21-.12a.82.82,0,0,1-.38-.53L95.49,4.3a.78.78,0,0,0-.88-.67H87.82a.69.69,0,0,0-.52.19.63.63,0,0,0-.19.43l0,.14,5,26.63a.79.79,0,0,0,.88.69h5.75a1.54,1.54,0,0,0,1.34-.83l7.4-13.32a.84.84,0,0,1,.34-.36,1,1,0,0,1,.48-.14h.11Z"/><path class="cls-4" d="M159.39,32.61H134.9a1.77,1.77,0,0,1-1.31-.49,1.71,1.71,0,0,1-.51-1.28,1.84,1.84,0,0,1,0-.33l4.69-25.9a2.39,2.39,0,0,1,.83-1.41,2.3,2.3,0,0,1,1.52-.57h24.49a1.16,1.16,0,0,1,1.26,1.22,1.24,1.24,0,0,1,0,.27l-1,5.47a1.61,1.61,0,0,1-.55,1,1.58,1.58,0,0,1-1,.36h-17l0,0-.5,2.77h13.51a1.17,1.17,0,0,1,1.25,1.2,1.29,1.29,0,0,1,0,.29l-.9,5a1.66,1.66,0,0,1-.55,1,1.55,1.55,0,0,1-1,.38H144.41l0,0-.46,2.57h16.83A1.17,1.17,0,0,1,162,25.36a1.24,1.24,0,0,1,0,.27l-1,5.66a1.48,1.48,0,0,1-.54,1A1.62,1.62,0,0,1,159.39,32.61ZM140.15,3.53a1.42,1.42,0,0,0-.94.36,1.52,1.52,0,0,0-.52.88L134,30.67a.88.88,0,0,0,0,.17.81.81,0,0,0,.24.63.91.91,0,0,0,.68.24h24.49a.69.69,0,0,0,.47-.16.64.64,0,0,0,.22-.41l1-5.7a.37.37,0,0,0,0-.08.29.29,0,0,0-.08-.24.37.37,0,0,0-.28-.08H142.84l.65-3.62a.75.75,0,0,1,.32-.55.9.9,0,0,1,.54-.23H158a.62.62,0,0,0,.45-.16.75.75,0,0,0,.25-.44l.91-5a.39.39,0,0,0,0-.09c0-.25-.08-.31-.35-.31H144.72l.69-3.84a.78.78,0,0,1,.32-.55.88.88,0,0,1,.54-.22h17a.68.68,0,0,0,.45-.15.69.69,0,0,0,.24-.43l1-5.5s0-.06,0-.07c0-.26-.08-.33-.36-.33Z"/><path class="cls-4" d="M172.32,32.61h-5.49a1.76,1.76,0,0,1-1.3-.49,1.74,1.74,0,0,1-.49-1.26,2,2,0,0,1,0-.35l4.69-25.88a2.33,2.33,0,0,1,.82-1.4,2.31,2.31,0,0,1,1.53-.56h20.72a7.34,7.34,0,0,1,3.57.86,6.26,6.26,0,0,1,2.45,2.39,6.73,6.73,0,0,1,.87,3.43,8.29,8.29,0,0,1-.13,1.4l-1.2,6.6a9.09,9.09,0,0,1-1.86,4.07,10.77,10.77,0,0,1-3.17,2.67l2.93,6.05a1.6,1.6,0,0,1-.23,1.92,1.57,1.57,0,0,1-1.18.47c-1,0-2.17,0-3.46,0l-2.95,0a6.87,6.87,0,0,1-1.8-.16,1.64,1.64,0,0,1-1-.85l-3.07-6.06a.43.43,0,0,0-.38-.23l-6.6,0h0l-1,5.34a2.25,2.25,0,0,1-.82,1.41A2.29,2.29,0,0,1,172.32,32.61Zm-.21-29a1.45,1.45,0,0,0-1,.35,1.4,1.4,0,0,0-.51.87L166,30.67s0,.12,0,.19a.82.82,0,0,0,.23.62.91.91,0,0,0,.66.23h5.49a1.44,1.44,0,0,0,1-.34,1.38,1.38,0,0,0,.5-.88l1-5.51a1,1,0,0,1,.29-.38.82.82,0,0,1,.52-.19l6.64,0a1.31,1.31,0,0,1,1.15.66l0,0,3.08,6.08a.72.72,0,0,0,.45.39,5.57,5.57,0,0,0,1.53.13l2.93,0c1.3,0,2.47,0,3.48,0a.67.67,0,0,0,.54-.2.66.66,0,0,0,.19-.49.61.61,0,0,0-.1-.34l0,0-2.94-6.08a.3.3,0,0,1-.15-.05l-.24-.13V24a.53.53,0,0,1,.36-.5,9.77,9.77,0,0,0,3.3-2.66,8.13,8.13,0,0,0,1.68-3.67l1.2-6.6a6.59,6.59,0,0,0,.12-1.24,6,6,0,0,0-.75-3,5.35,5.35,0,0,0-2.1-2,6.42,6.42,0,0,0-3.14-.75ZM176,18.09l1.38-7.63a.94.94,0,0,1,.83-.57H189a1.66,1.66,0,0,1,1.22.49,1.63,1.63,0,0,1,.49,1.16,2,2,0,0,1,0,.33v0l-.78,4.36a2.28,2.28,0,0,1-.8,1.28,2.15,2.15,0,0,1-1.41.54Zm2.23-7.29-1.15,6.39,10.54,0a1.25,1.25,0,0,0,.83-.33,1.37,1.37,0,0,0,.49-.76l.78-4.34a1.5,1.5,0,0,0,0-.2.73.73,0,0,0-.23-.52.76.76,0,0,0-.58-.23h-10.7Z"/><path class="cls-4" d="M226.67,32.61H202.18a1.76,1.76,0,0,1-1.3-.49,1.71,1.71,0,0,1-.51-1.28c0-.11,0-.22,0-.33l4.7-25.9a2.38,2.38,0,0,1,.82-1.41,2.31,2.31,0,0,1,1.53-.57h24.49a1.16,1.16,0,0,1,1.26,1.22,1.26,1.26,0,0,1,0,.27l-1,5.47a1.55,1.55,0,0,1-.54,1,1.59,1.59,0,0,1-1,.36h-17l0,0-.5,2.77h13.5a1.17,1.17,0,0,1,1.26,1.2,1.29,1.29,0,0,1,0,.29l-.91,5a1.65,1.65,0,0,1-.54,1,1.55,1.55,0,0,1-1,.38H211.69l0,0-.46,2.57H228a1.25,1.25,0,0,1,.92.34,1.21,1.21,0,0,1,.34.88.84.84,0,0,1,0,.27l-1,5.66a1.45,1.45,0,0,1-.55,1A1.59,1.59,0,0,1,226.67,32.61ZM207.44,3.53a1.4,1.4,0,0,0-.94.36,1.42,1.42,0,0,0-.52.88l-4.7,25.9a.91.91,0,0,0,0,.17.77.77,0,0,0,.24.63.9.9,0,0,0,.67.24h24.49a.73.73,0,0,0,.48-.16.59.59,0,0,0,.21-.41l1-5.7a.37.37,0,0,0,0-.08c0-.17,0-.22-.07-.24A.39.39,0,0,0,228,25H210.13l.64-3.62a.8.8,0,0,1,.33-.55.85.85,0,0,1,.54-.23h13.69a.65.65,0,0,0,.45-.16A.69.69,0,0,0,226,20l.91-5a.81.81,0,0,0,0-.09c0-.25-.09-.31-.36-.31H212l.69-3.84a.78.78,0,0,1,.32-.55.86.86,0,0,1,.54-.22h17a.71.71,0,0,0,.46-.15.74.74,0,0,0,.24-.43l1-5.5a.26.26,0,0,0,0-.07c0-.26-.07-.33-.35-.33Z"/><path class="cls-4" d="M253.6,32.61H234.12a1.75,1.75,0,0,1-1.3-.49,1.71,1.71,0,0,1-.5-1.26,2,2,0,0,1,0-.35l4.7-26a2.34,2.34,0,0,1,.83-1.41,2.29,2.29,0,0,1,1.51-.55h19.49a7.23,7.23,0,0,1,3.57.87,6.38,6.38,0,0,1,2.46,2.4,6.75,6.75,0,0,1,.87,3.4,7.47,7.47,0,0,1-.13,1.41l-2.54,14a8.89,8.89,0,0,1-1.8,4,10.5,10.5,0,0,1-3.44,2.88A9.24,9.24,0,0,1,253.6,32.61ZM239.39,3.49a1.43,1.43,0,0,0-.94.35,1.4,1.4,0,0,0-.51.87l-4.7,26a1.09,1.09,0,0,0,0,.19.82.82,0,0,0,.23.62.9.9,0,0,0,.66.23H253.6a8.22,8.22,0,0,0,3.85-1,9.74,9.74,0,0,0,3.15-2.63,8.07,8.07,0,0,0,1.62-3.61l2.54-14a6.69,6.69,0,0,0,.12-1.25,5.76,5.76,0,0,0-.76-2.95A5.43,5.43,0,0,0,262,4.25a6.31,6.31,0,0,0-3.13-.76ZM252.92,25h-9.26a1.39,1.39,0,0,1-1-.39l0,0,0-.05a1.5,1.5,0,0,1-.23-.82v-.2l2.2-12.14a1.51,1.51,0,0,1,.59-1,1.68,1.68,0,0,1,1-.4h9.25a1.31,1.31,0,0,1,.92.38,1.23,1.23,0,0,1,.4.9v.08L254.55,23.7a1.53,1.53,0,0,1-.6.94A1.62,1.62,0,0,1,252.92,25Zm-9.59-1a.52.52,0,0,0,.33.11h9.26a.77.77,0,0,0,.46-.2.72.72,0,0,0,.28-.4l2.2-12.24a.31.31,0,0,0-.12-.22.38.38,0,0,0-.29-.12H246.2a.72.72,0,0,0-.48.2.61.61,0,0,0-.27.39l-2.19,12.11v.08A.59.59,0,0,0,243.33,24Z"/><path class="cls-4" d="M300.83,32.61H276.5a1.54,1.54,0,0,1-1.67-1.6,1.83,1.83,0,0,1,0-.35L280.07,1.9a2.17,2.17,0,0,1,.79-1.36A2.25,2.25,0,0,1,282.34,0h23a7.89,7.89,0,0,1,3.79.91,6.65,6.65,0,0,1,2.62,2.53,7.23,7.23,0,0,1,.93,3.63,7.93,7.93,0,0,1-.16,1.52l-.44,2.61,0,.07a.15.15,0,0,0,0,.08v.09a6.91,6.91,0,0,1-1,2.47,11.61,11.61,0,0,1-1.62,2,2.53,2.53,0,0,1,.55.54,9,9,0,0,1,.78,1.19v0a5.76,5.76,0,0,1,.41,2.18,12.28,12.28,0,0,1-.24,1.91l-.52,2.85a9.3,9.3,0,0,1-1.81,4.06,10.41,10.41,0,0,1-3.48,2.91A9.35,9.35,0,0,1,300.83,32.61ZM282.34.9a1.4,1.4,0,0,0-.91.33,1.3,1.3,0,0,0-.47.82l-5.21,28.76a1,1,0,0,0,0,.17c0,.53.24.73.77.73h24.33a8.42,8.42,0,0,0,3.89-1,9.55,9.55,0,0,0,3.19-2.66,8.45,8.45,0,0,0,1.64-3.67l.51-2.86a9.69,9.69,0,0,0,.22-1.75A4.86,4.86,0,0,0,310,18a7.73,7.73,0,0,0-.68-1c-.17-.21-.41-.47-.65-.46l-1.22.05.9-.83a12.25,12.25,0,0,0,2-2.29,6,6,0,0,0,.87-2.12,1.24,1.24,0,0,1,.08-.41l.43-2.48a7,7,0,0,0,.13-1.35,6.34,6.34,0,0,0-.8-3.18,5.81,5.81,0,0,0-2.27-2.18A6.87,6.87,0,0,0,305.38.9Zm16.71,24H286.31a1,1,0,0,1-.77-.35h0a1.09,1.09,0,0,1-.31-.74V23.6l.63-3.43a1.33,1.33,0,0,1,.42-.64,1.19,1.19,0,0,1,.76-.29h12.74a2.06,2.06,0,0,1,1.49.6,2,2,0,0,1,.62,1.46,6.68,6.68,0,0,1-.13,1c0,.15,0,.26-.06.34a2.54,2.54,0,0,1-1,1.58A2.62,2.62,0,0,1,299.05,24.85Zm-12.84-1c.05.06.08.06.1.06h12.74a1.77,1.77,0,0,0,1.13-.45,1.75,1.75,0,0,0,.64-1q0-.13.06-.36a8,8,0,0,0,.12-.81,1.1,1.1,0,0,0-.35-.81,1.15,1.15,0,0,0-.86-.35H287.05a.26.26,0,0,0-.17.08.39.39,0,0,0-.13.17l-.61,3.37a.19.19,0,0,0,.07.13Zm14.14-10.83H288.42a1,1,0,0,1-.74-.31h0a1,1,0,0,1-.32-.74v-.18L288,8.48a1,1,0,0,1,.43-.73,1.18,1.18,0,0,1,.74-.28H301.1a2.05,2.05,0,0,1,1.48.6,2,2,0,0,1,.62,1.46,8.06,8.06,0,0,1-.15,1.11.72.72,0,0,0,0,.13v.09a2.7,2.7,0,0,1-1,1.56A2.65,2.65,0,0,1,300.35,13.06Zm-12-1c.06.05.08.05.1.05h11.93a1.76,1.76,0,0,0,1.13-.44,1.82,1.82,0,0,0,.66-1c0-.06,0-.13,0-.22a7.32,7.32,0,0,0,.14-1,1.06,1.06,0,0,0-.35-.81,1.15,1.15,0,0,0-.85-.35H289.16a.35.35,0,0,0-.19.09c-.08.06-.08.1-.08.12v0L288.27,12S288.27,12.05,288.32,12.11Z"/><path class="cls-4" d="M329,32.61h-5.48a1.77,1.77,0,0,1-1.31-.49,1.74,1.74,0,0,1-.49-1.26,2,2,0,0,1,0-.35l1.47-8.23c0-.2,0-.44-.07-.75L316.05,4.72a1.12,1.12,0,0,1-.1-.48,1.47,1.47,0,0,1,.47-1.1,1.58,1.58,0,0,1,1.14-.45h6.95a1.64,1.64,0,0,1,1.66,1.07l3.6,8.54,6.75-8.67a2.36,2.36,0,0,1,1.91-.94h6.95a1.25,1.25,0,0,1,.92.34,1.21,1.21,0,0,1,.34.88,1.47,1.47,0,0,1-.35.92L333.11,21.72l-.31.69-1.5,8.24a2.28,2.28,0,0,1-.81,1.41A2.32,2.32,0,0,1,329,32.61Zm-11.4-29a.66.66,0,0,0-.51.2.56.56,0,0,0-.2.45.28.28,0,0,0,0,.13l7.12,17v.07c0,.36.05.64.08.85v.07l-1.5,8.36a1,1,0,0,0,0,.19.86.86,0,0,0,.23.62.92.92,0,0,0,.67.23H329a1.47,1.47,0,0,0,1.46-1.22l1.52-8.35.43-.93L345.58,4.27a.57.57,0,0,0,.16-.36.29.29,0,0,0-.08-.24.39.39,0,0,0-.28-.08h-6.95a1.49,1.49,0,0,0-1.2.6l-6.82,8.74a.93.93,0,0,1-.67.28.88.88,0,0,1-.43-.13.75.75,0,0,1-.38-.46L325.34,4.1a.77.77,0,0,0-.83-.51Z"/></g></g></g></svg>