<svg xmlns="http://www.w3.org/2000/svg" viewBox="0 0 336.67 381.73"><defs><style>.cls-1{fill:#79d1ee;}.cls-2{fill:#f05454;}.cls-3{fill:#fde343;}.cls-4{fill:#231f20;}.cls-5{fill:#fff;}</style></defs><g id="Layer_2" data-name="Layer 2"><g id="Layer_1-2" data-name="Layer 1"><g id="Layer_2-2" data-name="Layer 2"><g id="Layer_1-2-2" data-name="Layer 1-2"><path class="cls-1" d="M256.1,314v17.79h0a21.58,21.58,0,0,0-.27-3,20.06,20.06,0,0,0-1.78-5.76,21.52,21.52,0,0,0,2-9Z"/><path class="cls-1" d="M255.83,310.43a21.59,21.59,0,0,1-1.78,12.62Q248,310,223,297.63l-10.14-5.08v-18l.15-.3,10,5Q253.52,294.43,255.83,310.43Z"/><path class="cls-2" d="M256.09,331.83q.36,18-29.4,33.08a149.23,149.23,0,0,1-40.18,13.73l-.07-.39v-18h0a149.28,149.28,0,0,0,40.25-13.7q21.66-11,27.35-23.48a20.06,20.06,0,0,1,1.78,5.76A21.58,21.58,0,0,1,256.09,331.83Z"/><path class="cls-3" d="M121.44,351.08a70.76,70.76,0,0,0,28.41,6,88,88,0,0,0,38.84-10q18.17-9.21,18.43-18.93V309.79a11.07,11.07,0,0,0-.52-3.66q-2.67-7.81-17.64-15.26l-15.4-7.68a4.64,4.64,0,0,0-4.17,0l-29,14.72-35.88,18.25a4.63,4.63,0,0,0-2.52,4.49v17.66a4.61,4.61,0,0,0,2.56,4.5l11.75,5.85C118,349.55,119.72,350.35,121.44,351.08Zm-30.51-4.84-.12-.06-41-20.38,111.61-56.69a4.64,4.64,0,0,1,4.17,0l47.24,23.44L223,297.6Q248,310,254.06,323q-5.7,12.53-27.35,23.53a149,149,0,0,1-40.2,13.72,155.42,155.42,0,0,1-31.2,2.61Q123.51,362.44,90.93,346.24Z"/><path class="cls-1" d="M213,274.28l-.15.3v18L165.6,269.09a4.61,4.61,0,0,0-2-.49V250.24a4.61,4.61,0,0,1,2,.49Z"/><path class="cls-1" d="M207.11,309.79q-.13,4.54-4.19,9-4.53-4.85-14-9.53l-15.41-7.71a4.62,4.62,0,0,0-4.16,0l-29,14.71V297.94l29-14.72a4.62,4.62,0,0,1,4.16,0l15.4,7.68q15,7.44,17.64,15.26A10.93,10.93,0,0,1,207.11,309.79Z"/><path class="cls-2" d="M207.11,327.65v.52q-.27,9.7-18.43,18.93a88,88,0,0,1-38.84,10,70.93,70.93,0,0,1-28.41-6V332.7a70.93,70.93,0,0,0,28.41,6,88,88,0,0,0,38.84-10q9.66-4.9,14.26-9.94a16.31,16.31,0,0,1,3.67,5.79A11.28,11.28,0,0,1,207.11,327.65Z"/><path class="cls-2" d="M207.11,309.79v17.86a11.16,11.16,0,0,0-.52-3.14,16.08,16.08,0,0,0-3.67-5.73Q207,314.34,207.11,309.79Z"/><path class="cls-2" d="M186.51,378.24l.07.39a154.67,154.67,0,0,1-31.27,2.62Q123.57,380.8,91,364.62V346.24q32.58,16.17,64.33,16.62a154.69,154.69,0,0,0,31.2-2.6h0Z"/><path class="cls-1" d="M163.58,250.24v18.38a4.71,4.71,0,0,0-2.14.51L49.82,325.8l-10-5a4.63,4.63,0,0,1,0-8.29l121.66-61.82A4.78,4.78,0,0,1,163.58,250.24Z"/><path class="cls-1" d="M155.2,217.6v21.53a4.58,4.58,0,0,1-.56,2.2l-16.39-10.44a4.6,4.6,0,0,0,.6-2.26V218.14l9.68-4.7a4.64,4.64,0,0,1,6.2,2.14A4.57,4.57,0,0,1,155.2,217.6Z"/><path class="cls-2" d="M154.64,241.34a4.6,4.6,0,0,1-2,2L81.32,277.89h0L66.41,266.71l69.83-33.91a4.53,4.53,0,0,0,2-1.92Z"/><path class="cls-1" d="M150.11,98.07a4.62,4.62,0,0,1,3,4.34v21.53a4.46,4.46,0,0,1-.44,2h-.09l-16.37-10.23a4.69,4.69,0,0,0,.55-2.2V103l9.75-4.7A4.6,4.6,0,0,1,150.11,98.07Z"/><path class="cls-1" d="M137.35,203.69l15.74,10a4.59,4.59,0,0,0-4.56-.29l-9.69,4.7v-11A4.57,4.57,0,0,0,137.35,203.69Z"/><path class="cls-2" d="M152.62,125.87h.09a4.53,4.53,0,0,1-2.17,2.21L129.2,138.45l-16.54-10.33v-.07l21.56-10.46a4.63,4.63,0,0,0,2.06-2Z"/><path class="cls-1" d="M135.41,88.6l14.7,9.47a4.6,4.6,0,0,0-3.62.18L136.8,103V92A4.63,4.63,0,0,0,135.41,88.6Z"/><path class="cls-1" d="M143.19,158.41a4.6,4.6,0,0,1,2.46,4.09v20.05a4.66,4.66,0,0,1-.39,1.88L128.88,174a4.7,4.7,0,0,0,.43-1.95V163l9.69-4.7a4.64,4.64,0,0,1,4.17.06Z"/><path class="cls-2" d="M128.87,174l16.37,10.43a4.64,4.64,0,0,1-2.21,2.31L82.71,216.05l-.08-.16L67.86,204.82l58.82-28.55A4.63,4.63,0,0,0,128.87,174Z"/><path class="cls-1" d="M127.51,148.33l15.66,10.06a4.66,4.66,0,0,0-4.18-.06l-9.68,4.7V152A4.58,4.58,0,0,0,127.51,148.33Z"/><path class="cls-1" d="M102,320.68a4.63,4.63,0,0,1,2.52-4.49l35.93-18.25v18.38l-25.9,13.14-10-5A4.6,4.6,0,0,1,102,320.68Z"/><path class="cls-3" d="M66.4,266.71,22.87,287.83V161.16A4.65,4.65,0,0,1,25.51,157l106.72-51.84,4.57-2.2v10.49a4.65,4.65,0,0,1-2.62,4.18l-21.56,10.47-61,29.61A4.66,4.66,0,0,0,49,161.87v14.29a4.61,4.61,0,0,0,2.71,4.23h0l15.1,9.66a4.65,4.65,0,0,0,5.2.77l32.72-15.89L129.27,163v9.05a4.64,4.64,0,0,1-2.61,4.17L67.87,204.8l-16.22,7.88A4.49,4.49,0,0,0,50,214a4.62,4.62,0,0,0-1,2.88v19A4.62,4.62,0,0,0,51,239.61a3,3,0,0,0,.38.24h0L67.26,250.1h0l.39.24h0a4.6,4.6,0,0,0,4.34.15l50-24.26,16.83-8.17v10.49a4.68,4.68,0,0,1-2.61,4.17Z"/><path class="cls-2" d="M138.85,207.1v11L122,226.27l-.1-.2-14.73-11,25-12.14a4.62,4.62,0,0,1,3.8-.11l1.36.87A4.61,4.61,0,0,1,138.85,207.1Z"/><path class="cls-2" d="M136.8,91.92v11l-4.58,2.23v-.09L116,94.63l14.2-6.91a4.54,4.54,0,0,1,3.73-.14l1.53,1A4.63,4.63,0,0,1,136.8,91.92Z"/><path class="cls-2" d="M132.19,105.09v.08L25.51,157a4.84,4.84,0,0,0-1.64,1.34l-16.74-9.9h0a4.58,4.58,0,0,1,2-1.92L115.94,94.68Z"/><path class="cls-2" d="M129.3,152v11l-24.53,11.91-.13-.27L90,163.64l32.66-15.86a4.64,4.64,0,0,1,4.17,0h0l.68.44A4.62,4.62,0,0,1,129.3,152Z"/><path class="cls-2" d="M112.66,128.15l16.54,10.33L68,168.19a4.59,4.59,0,0,0-1.83,1.61L49.79,159.33a4.61,4.61,0,0,1,1.86-1.64l61-29.6Z"/><path class="cls-2" d="M121.92,226.11l.1.2-50,24.24a4.6,4.6,0,0,1-4.34-.15h0l-.38-.24h0a4.62,4.62,0,0,1-1.92-3.76v-11l41.82-20.3Z"/><path class="cls-2" d="M102,338.35a4.57,4.57,0,0,1,2.55-3.8l10-5.09,1.74.86q2.58,1.29,5.15,2.38v18.38q-2.55-1.09-5.15-2.38l-11.74-5.85A4.62,4.62,0,0,1,102,338.35Z"/><path class="cls-2" d="M114.51,329.46l-10,5.09a4.56,4.56,0,0,0-2.52,3.78V320.69a4.55,4.55,0,0,0,2.56,3.79Z"/><path class="cls-2" d="M104.64,174.68l.13.26L72.05,190.83a4.58,4.58,0,0,1-3.78.12L66.85,190a4.56,4.56,0,0,1-1.46-3.38v-11L90,163.73Z"/><path class="cls-2" d="M90.93,346.24v18.39l-.12-.06-51-25.38a4.64,4.64,0,0,1,0-8.28l10-5.11,41,20.39Z"/><path class="cls-2" d="M82.72,216,68,223.18a4.76,4.76,0,0,0-1.73,1.45l-.35-.12L50,214a4.49,4.49,0,0,1,1.61-1.29l16.22-7.87,14.78,11.07Z"/><path class="cls-2" d="M24,302a4.56,4.56,0,0,1-1.15-3.07v-11l43.53-21.15,14.9,11.16h0L29.51,303A4.62,4.62,0,0,1,24,302Z"/><path class="cls-2" d="M67.29,250.16,51.35,239.92a4.6,4.6,0,0,0,4.34.15l9.68-4.7v11A4.65,4.65,0,0,0,67.29,250.16Z"/><path class="cls-2" d="M66.85,190l-15.1-9.66h0a4.59,4.59,0,0,0,4,0l9.67-4.71v11A4.61,4.61,0,0,0,66.85,190Z"/><path class="cls-3" d="M66.27,224.63a4.7,4.7,0,0,0-.88,2.73v8l-9.69,4.7a4.63,4.63,0,0,1-4.35-.15h0l-.38-.25a4.59,4.59,0,0,1-1.92-3.75v-19a4.64,4.64,0,0,1,1-2.88l15.87,10.52Z"/><path class="cls-3" d="M49.79,159.33,66.17,169.8a4.5,4.5,0,0,0-.77,2.56v3.26l-9.69,4.7a4.63,4.63,0,0,1-6.19-2.12v0a4.76,4.76,0,0,1-.46-2V161.86A4.53,4.53,0,0,1,49.79,159.33Z"/><path class="cls-2" d="M49.82,325.8l-10,5.11A4.59,4.59,0,0,0,37.23,335V316.67a4.59,4.59,0,0,0,2.57,4.15Z"/><path class="cls-1" d="M24,302,8.82,292.38a4.59,4.59,0,0,0,4.36.17l9.69-4.71v11A4.6,4.6,0,0,0,24,302Z"/><path class="cls-1" d="M7.1,148.43l16.74,9.91a4.63,4.63,0,0,0-1,2.83V210L6.59,200.35H6.51V150.67a4.64,4.64,0,0,1,.58-2.24Z"/><path class="cls-1" d="M8.8,292.38a4.66,4.66,0,0,1-2.3-4v-88h.07L22.86,210v77.86l-9.7,4.68A4.59,4.59,0,0,1,8.8,292.38Z"/><path class="cls-4" d="M158,381.73h-2.72c-21.14-.3-42.85-5.91-64.52-16.68l-.13-.06-51-25.37a5.09,5.09,0,0,1-2.29-6.82h0a5.13,5.13,0,0,1,2.23-2.24l10.06-5.1,111.61-56.7a5.17,5.17,0,0,1,4.57,0l57.39,28.55c16.67,8.25,27.19,16.85,31.32,25.55a20.34,20.34,0,0,1,1.82,5.89,22.59,22.59,0,0,1,.27,3.07c.12,6.08-2.33,12-7.28,17.56S236.88,360.26,227,365.3a149.17,149.17,0,0,1-40.28,13.77A155.86,155.86,0,0,1,158,381.73Zm5.52-112.67a4.18,4.18,0,0,0-1.9.45L50,326.2,40,331.31a4.26,4.26,0,0,0-1.85,1.86A4.21,4.21,0,0,0,40,338.79l51.15,25.43c21.55,10.71,43.13,16.29,64.14,16.58a154.17,154.17,0,0,0,31.22-2.61,148.52,148.52,0,0,0,40-13.64c19.58-9.95,29.39-20.94,29.16-32.67a22.45,22.45,0,0,0-.26-2.95,20.05,20.05,0,0,0-1.74-5.64c-4-8.52-14.39-17-30.88-25.2l-57.38-28.55A4.15,4.15,0,0,0,163.51,269.06Z"/><path class="cls-4" d="M149.28,357.48a71.82,71.82,0,0,1-28-6c-1.72-.73-3.46-1.53-5.19-2.39l-11.75-5.85a5.09,5.09,0,0,1,0-9.09l64.9-33a5.1,5.1,0,0,1,4.57,0l15.4,7.67c6.3,3.14,11,6.37,14.1,9.62a16.71,16.71,0,0,1,3.77,5.86,11.87,11.87,0,0,1,.55,3.29v.52c-.19,6.64-6.47,13.14-18.68,19.34a88.8,88.8,0,0,1-39,10Zm22.23-55.93a4.25,4.25,0,0,0-1.88.44l-64.9,33a4.17,4.17,0,0,0-1.83,5.62h0a4.19,4.19,0,0,0,1.86,1.84l11.75,5.8c1.71.85,3.43,1.65,5.13,2.37a70.78,70.78,0,0,0,28.2,5.92,87.9,87.9,0,0,0,38.67-9.89c11.89-6,18-12.27,18.18-18.54v-.5a10.53,10.53,0,0,0-.5-3,15.56,15.56,0,0,0-3.56-5.52h0c-3-3.17-7.64-6.34-13.84-9.43L173.39,302A4.22,4.22,0,0,0,171.51,301.55Z"/><path class="cls-4" d="M158,363.36h-2.72c-21.14-.3-42.85-5.9-64.53-16.67l-.12-.07-51-25.39a5.07,5.07,0,0,1-2.27-6.8,5.14,5.14,0,0,1,2.27-2.27l121.67-61.83a5.1,5.1,0,0,1,4.57,0l47.38,23.58,10,5c20.38,10.14,31.52,20.74,33.1,31.51a21.64,21.64,0,0,1,.28,3.68,22,22,0,0,1-2.1,9.19c-3.83,8.38-13.11,16.36-27.56,23.7a149,149,0,0,1-40.43,13.73A155.2,155.2,0,0,1,158,363.36Zm5.54-112.69a4.06,4.06,0,0,0-1.87.45L40,312.94a4.16,4.16,0,0,0-2.29,3.73h0A4.18,4.18,0,0,0,40,320.4l51.12,25.46c21.55,10.71,43.13,16.28,64.14,16.58a155.26,155.26,0,0,0,31.11-2.6,149,149,0,0,0,40.1-13.7c14.27-7.25,23.4-15.08,27.16-23.28a21,21,0,0,0,2-8.82,19.91,19.91,0,0,0-.26-3.53c-1.54-10.47-12.51-20.84-32.61-30.84l-10-5L165.39,251.1A4.21,4.21,0,0,0,163.51,250.67Z"/><path class="cls-4" d="M149.29,339.11a71.82,71.82,0,0,1-28-6c-1.72-.73-3.46-1.53-5.19-2.39l-11.75-5.85a5.1,5.1,0,0,1,0-9.1l35.9-18.22,29-14.72a5.1,5.1,0,0,1,4.57,0l15.4,7.68c10,5,16,10.21,17.87,15.52a11.2,11.2,0,0,1,.54,3.81h0c-.09,3.13-1.53,6.24-4.28,9.26-3.1,3.38-7.94,6.76-14.39,10a88.93,88.93,0,0,1-39,10Zm22.18-56a4.25,4.25,0,0,0-1.88.44l-29,14.72-35.9,18.28a4.2,4.2,0,0,0-1.83,5.64,4.35,4.35,0,0,0,1.86,1.84l11.79,5.86c1.7.85,3.43,1.65,5.13,2.37a70.35,70.35,0,0,0,28.23,5.94,87.92,87.92,0,0,0,38.64-9.9c6.36-3.23,11.11-6.54,14.13-9.85,2.6-2.85,4-5.77,4.05-8.68h0a10.63,10.63,0,0,0-.5-3.5c-1.74-5.06-7.6-10.11-17.41-15l-15.4-7.67a4.19,4.19,0,0,0-1.87-.45Z"/><path class="cls-4" d="M8.58,292.77a5.11,5.11,0,0,1-2.53-4.39V150.67a5.09,5.09,0,0,1,2.86-4.58L115.73,94.25l14.21-6.91a5.1,5.1,0,0,1,6.8,2.36,5,5,0,0,1,.51,2.22v21.52a5.11,5.11,0,0,1-2.87,4.58l-21.56,10.47-61,29.62a4.21,4.21,0,0,0-2.31,3.76v14.29a4.19,4.19,0,0,0,4.18,4.19,4.27,4.27,0,0,0,1.83-.42l9.68-4.72,24.57-11.93,32.67-15.86a5,5,0,0,1,4.57.06l-.42.8a4.21,4.21,0,0,0-3.76,0L90.15,164.09,65.57,176l-9.67,4.71a5.2,5.2,0,0,1-2.23.51h0a5.09,5.09,0,0,1-5.09-5.09V161.87a5.18,5.18,0,0,1,2.87-4.58l61-29.61L134,117.21a4.18,4.18,0,0,0,2.35-3.76V91.92a4.19,4.19,0,0,0-6-3.77l-14.2,6.92L9.31,146.9A4.2,4.2,0,0,0,7,150.67V288.38A4.21,4.21,0,0,0,9,292Z"/><path class="cls-4" d="M11.16,293.46a5,5,0,0,1-2.56-.7l.45-.78a4.15,4.15,0,0,0,3.93.15L66.21,266.3,136,232.4a4.17,4.17,0,0,0,2.36-3.77V207.1a4.11,4.11,0,0,0-1.35-3.08,4.28,4.28,0,0,0-1.23-.78,4.15,4.15,0,0,0-3.43.1L65.57,235.77l-9.68,4.7a5,5,0,0,1-4.76-.17l.45-.77a4.13,4.13,0,0,0,3.92.13l9.68-4.7L132,202.55a5,5,0,0,1,4.17-.12,4.61,4.61,0,0,1,1.5.95,5,5,0,0,1,1.64,3.75v21.52a5.09,5.09,0,0,1-2.86,4.58L66.6,267.12,13.38,292.94A5,5,0,0,1,11.16,293.46Z"/><path class="cls-4" d="M51.12,240.29a3.87,3.87,0,0,1-.43-.27,5.09,5.09,0,0,1-2.11-4.12v-19a5.1,5.1,0,0,1,2.87-4.58l16.22-7.87,58.84-28.61a4.17,4.17,0,0,0,2.36-3.76V152a4.14,4.14,0,0,0-1.62-3.31,4.38,4.38,0,0,0-.62-.4l.42-.8a4.79,4.79,0,0,1,.75.48,5.07,5.07,0,0,1,2,4v20.08a4.81,4.81,0,0,1-.47,2.14,5.14,5.14,0,0,1-2.39,2.44L68.06,205.21l-16.22,7.88a4.2,4.2,0,0,0-2.33,3.76v19a4.24,4.24,0,0,0,1.73,3.39l.27.31Z"/><path class="cls-4" d="M27.51,304a5.08,5.08,0,0,1-5.07-5.09h0V161.16A5.1,5.1,0,0,1,23.51,158a5.42,5.42,0,0,1,1.8-1.46l106.75-51.84,4.56-2.19,9.69-4.71a5.08,5.08,0,0,1,6.8,2.34,5,5,0,0,1,.51,2.22v21.54a5.13,5.13,0,0,1-2.86,4.57l-21.34,10.37L68.19,168.55a4.24,4.24,0,0,0-2.35,3.77v14.33A4.19,4.19,0,0,0,70,190.84h0a4.08,4.08,0,0,0,1.82-.42l32.73-15.87,34.22-16.61a5.09,5.09,0,0,1,4.58.08l-.42.79a4.17,4.17,0,0,0-3.77-.06l-66.94,32.5a5.11,5.11,0,0,1-2.21.51h0a5.1,5.1,0,0,1-5.09-5.09V172.36a5.12,5.12,0,0,1,2.87-4.58L129,138.07l21.34-10.37a4.21,4.21,0,0,0,2.36-3.77V102.41a4.17,4.17,0,0,0-6-3.75h0l-9.69,4.7-4.57,2.19L25.69,157.39a4.23,4.23,0,0,0-2.36,3.77V298.87a4.14,4.14,0,0,0,6,3.77l51.79-25.15,71.27-34.59a4.19,4.19,0,0,0,2.36-3.76V217.6a4.13,4.13,0,0,0-.43-1.82,4.17,4.17,0,0,0-5.58-1.93h0L72.25,251a5.07,5.07,0,0,1-4.77-.17l.46-.78a4.14,4.14,0,0,0,3.91.14l50-24.27L148.37,213a5.1,5.1,0,0,1,6.8,2.35,5,5,0,0,1,.51,2.22v21.53a5.1,5.1,0,0,1-2.87,4.57l-71.3,34.59L29.73,303.44A5,5,0,0,1,27.51,304Z"/><path class="cls-4" d="M67.51,250.8l-.42-.27.51-.74L68,250Z"/><path class="cls-4" d="M67,250.55a5.09,5.09,0,0,1-2.11-4.12v-19a5.13,5.13,0,0,1,2.87-4.58l14.71-7.22,60.32-29.28a4.19,4.19,0,0,0,2.36-3.77v-20a4.14,4.14,0,0,0-2.22-3.69l.42-.8a5,5,0,0,1,2.7,4.49v20a5.06,5.06,0,0,1-2.87,4.58l-60.3,29.31-14.73,7.11a4.24,4.24,0,0,0-2.35,3.77v19a4.17,4.17,0,0,0,1.73,3.39Z"/><rect class="cls-4" x="90.48" y="346" width="0.9" height="18.9"/><rect class="cls-4" x="186.01" y="360.28" width="0.9" height="17.97"/><rect class="cls-4" x="212.37" y="274.58" width="0.9" height="17.97"/><rect class="cls-4" x="163.12" y="250.42" width="0.9" height="17.97"/><rect class="cls-4" x="255.65" y="314.04" width="0.9" height="17.97"/><rect class="cls-4" x="139.96" y="297.94" width="0.9" height="18.68"/><rect class="cls-4" x="120.98" y="332.7" width="0.9" height="18.62"/><rect class="cls-4" x="206.66" y="309.62" width="0.9" height="19.02"/><rect class="cls-4" x="101.51" y="320.07" width="0.9" height="18.47"/><rect class="cls-4" x="36.78" y="316.23" width="0.9" height="18.9"/><rect class="cls-4" x="15.03" y="143.65" width="0.9" height="19.45" transform="translate(-124.42 88.63) rotate(-59.4)"/><rect class="cls-4" x="14.28" y="195.71" width="0.9" height="18.92" transform="translate(-169.37 113.41) rotate(-59.4)"/><polygon class="cls-4" points="25.99 303.72 8.39 292.65 8.88 291.89 9.06 292 26.47 302.95 25.99 303.72"/><rect class="cls-4" x="114.01" y="211.16" width="0.9" height="18.66" transform="translate(-130.62 179.85) rotate(-53.15)"/><polygon class="cls-4" points="82.37 216.24 67.44 205.05 67.98 204.33 68.14 204.45 82.91 215.52 82.37 216.24"/><polygon class="cls-4" points="104.37 175.04 89.43 163.85 89.98 163.13 90.24 163.33 104.91 174.31 104.37 175.04"/><polygon class="cls-4" points="65.67 224.89 49.74 214.32 50.25 213.57 50.29 213.6 66.17 224.14 65.67 224.89"/><polygon class="cls-4" points="68.02 191.33 66.61 190.42 51.51 180.76 51.99 180 68.51 190.57 68.02 191.33"/><polygon class="cls-4" points="65.98 170.22 65.93 170.19 49.45 159.64 49.95 158.89 50.04 158.95 66.45 169.45 65.98 170.22"/><polygon class="cls-4" points="67.49 250.81 67.45 250.8 67.01 250.51 50.71 240.03 51.2 239.28 51.59 239.53 67.93 250.03 67.49 250.81"/><polygon class="cls-4" points="81.04 278.25 66.1 267.05 66.66 266.34 66.68 266.36 81.58 277.53 81.04 278.25"/><polygon class="cls-4" points="149.88 98.46 133.62 87.99 134.11 87.23 150.38 97.71 149.88 98.46"/><polygon class="cls-4" points="131.94 105.48 115.67 95 116.17 94.25 116.2 94.26 132.43 104.72 131.94 105.48"/><polygon class="cls-4" points="152.39 126.25 135.83 115.92 136.3 115.15 136.48 115.26 152.86 125.49 152.39 126.25"/><polygon class="cls-4" points="129.01 138.89 128.96 138.86 112.42 128.53 112.9 127.77 129.44 138.1 129.24 138.42 129.01 138.89"/><polygon class="cls-4" points="143.56 159.18 126.57 148.27 127.03 147.49 127.05 147.51 127.74 147.95 144.04 158.42 143.56 159.18"/><polygon class="cls-4" points="145.67 185.27 128.22 174.15 128.7 173.39 129.11 173.65 146.16 184.51 145.67 185.27"/><polygon class="cls-4" points="153.2 214.32 152.86 214.11 135.74 203.2 136.23 202.44 153.68 213.56 153.2 214.32"/><polygon class="cls-4" points="154.95 242.08 154.4 241.72 137.5 230.95 137.99 230.19 138.49 230.52 155.44 241.32 154.95 242.08"/><path class="cls-2" d="M321.16,143.92V278.08a7.34,7.34,0,0,1-7.36,7.32,7.25,7.25,0,0,1-3.29-.79l-1.43-.74V150.79a7.29,7.29,0,0,0-4-6.53L194.51,87.55v-1a7.31,7.31,0,0,1,7.28-7.34,7.2,7.2,0,0,1,3.38.81l112,57.41A7.32,7.32,0,0,1,321.16,143.92Z"/><path class="cls-1" d="M309.06,283.86v1.07a7.31,7.31,0,0,1-10.66,6.53l-.85-.44V278Z"/><path class="cls-3" d="M309.06,150.79V283.86L297.51,278V157.55a7.35,7.35,0,0,0-4-6.53l-99-50.76V87.55l110.54,56.68A7.32,7.32,0,0,1,309.06,150.79Z"/><path class="cls-3" d="M297.51,291v.74a7.34,7.34,0,0,1-10.67,6.53l-112-57.42a7.29,7.29,0,0,1-4-6.52V100.18a7.31,7.31,0,0,1,7.28-7.34,7.2,7.2,0,0,1,3.38.81l.85.44V227.55a7.35,7.35,0,0,0,4,6.53Z"/><path class="cls-2" d="M297.51,278v13L186.39,234a7.35,7.35,0,0,1-4-6.53V94.1l12.1,6.2V220.67a7.33,7.33,0,0,0,4,6.53Z"/><path class="cls-1" d="M297.51,157.55V278l-99-50.76a7.33,7.33,0,0,1-4-6.53V100.3l99,50.78A7.3,7.3,0,0,1,297.51,157.55Z"/><path class="cls-1" d="M194.51,87.55v12.72l-12.1-6.2v-.74a7.34,7.34,0,0,1,10.67-6.53Z"/><path class="cls-4" d="M290.22,299.55a7.8,7.8,0,0,1-3.54-.86l-112-57.41a7.75,7.75,0,0,1-4.22-6.93V100.18a7.79,7.79,0,0,1,7.76-7.79h0a7.81,7.81,0,0,1,3.55.86l13,6.64,99,50.77a7.74,7.74,0,0,1,4.23,6.93V291.75a7.8,7.8,0,0,1-7.77,7.79Zm-112-206.24h0a6.88,6.88,0,0,0-6.86,6.88h0V234.34a6.84,6.84,0,0,0,3.74,6.12l112,57.42a7,7,0,0,0,3.13.75h0a6.86,6.86,0,0,0,6.86-6.88h0V157.55a6.82,6.82,0,0,0-3.73-6.12L181.36,94a7.12,7.12,0,0,0-3.11-.71Z"/><path class="cls-4" d="M313.83,285.87a7.8,7.8,0,0,1-3.54-.86l-13-6.64-99-50.77a7.7,7.7,0,0,1-4.23-6.93V86.55a7.79,7.79,0,0,1,7.76-7.79h0a7.81,7.81,0,0,1,3.55.86l112,57.41a7.74,7.74,0,0,1,4.23,6.93V278.08a7.79,7.79,0,0,1-7.76,7.79Zm-112-206.24h0A6.88,6.88,0,0,0,195,86.55h0V220.67a6.85,6.85,0,0,0,3.74,6.13l110.54,56.67,1.43.74a7,7,0,0,0,3.13.75h0a6.87,6.87,0,0,0,6.87-6.88V143.92A6.84,6.84,0,0,0,317,137.8L205,80.38a7.08,7.08,0,0,0-3.1-.75Z"/><path class="cls-4" d="M301.74,292.72a7.84,7.84,0,0,1-3.55-.86l-.85-.43-111.12-57A7.78,7.78,0,0,1,182,227.5V93.36a7.79,7.79,0,0,1,7.75-7.81h0a7.76,7.76,0,0,1,3.54.85l1.44.74,110.54,56.69a7.74,7.74,0,0,1,4.23,6.93v133.1h0v1.07a7.77,7.77,0,0,1-7.77,7.79h0Zm-112-206.24h0a6.88,6.88,0,0,0-6.86,6.88V227.55a6.82,6.82,0,0,0,3.73,6.12l112,57.43a6.89,6.89,0,0,0,3.14.76h0a6.87,6.87,0,0,0,6.86-6.89V150.79a6.86,6.86,0,0,0-3.73-6.13L194.33,88l-1.43-.73a6.79,6.79,0,0,0-3.13-.76Z"/><path class="cls-5" d="M0,30.28,5.23,1.55A1.74,1.74,0,0,1,5.86.44,1.91,1.91,0,0,1,7.07,0h23a7.38,7.38,0,0,1,3.57.86,6.17,6.17,0,0,1,2.47,2.36A6.65,6.65,0,0,1,37,6.62a7.62,7.62,0,0,1-.14,1.43l-1.33,7.34a9.17,9.17,0,0,1-1.85,4.16,10.7,10.7,0,0,1-3.55,3,9.23,9.23,0,0,1-4.38,1H11a.68.68,0,0,0-.46.19.84.84,0,0,0-.28.41l-1.08,6a1.77,1.77,0,0,1-.63,1.12,1.82,1.82,0,0,1-1.21.44H1.22A1.09,1.09,0,0,1,0,30.76a1.48,1.48,0,0,1,0-.21A2.45,2.45,0,0,1,0,30.28ZM27.45,9.43V9.08A1.51,1.51,0,0,0,27,8a1.59,1.59,0,0,0-1.17-.48H13.88a.82.82,0,0,0-.47.19.73.73,0,0,0-.25.43l-1.33,7.32v.14a.63.63,0,0,0,.6.6H24.37a2.39,2.39,0,0,0,2.21-1.84Z"/><path class="cls-5" d="M66.67,2.55A6.91,6.91,0,0,1,70,3.36a5.72,5.72,0,0,1,2.27,2.28,6.24,6.24,0,0,1,.81,3.19A6.4,6.4,0,0,1,73,10.14l-2.54,14A8.67,8.67,0,0,1,68.74,28a9.84,9.84,0,0,1-3.23,2.75,8.68,8.68,0,0,1-4.06,1H44.62a6.77,6.77,0,0,1-3.35-.81A5.69,5.69,0,0,1,39,28.66a6.44,6.44,0,0,1-.81-3.19,6.56,6.56,0,0,1,.13-1.32l2.52-14a8.75,8.75,0,0,1,1.68-3.8A9.81,9.81,0,0,1,45.8,3.6a8.67,8.67,0,0,1,4.05-1ZM47.22,23.31a.87.87,0,0,0,.24.58.77.77,0,0,0,.61.27H60.71a1.33,1.33,0,0,0,1.18-1l2.19-12.11V10.9a.85.85,0,0,0-.85-.85H50.61a1.25,1.25,0,0,0-.76.3,1.19,1.19,0,0,0-.44.68L47.22,23.17Z"/><path class="cls-5" d="M125.41,3.48a.92.92,0,0,1-.15.51L110.62,30.66a2,2,0,0,1-.74.76,1.85,1.85,0,0,1-1,.29h-5.75a1.22,1.22,0,0,1-1.32-1L99.22,17.47a.41.41,0,0,0-.17-.26.37.37,0,0,0-.2-.09h0a.45.45,0,0,0-.25.07.44.44,0,0,0-.16.17L91,30.73a2,2,0,0,1-1.72,1H83.51a1.23,1.23,0,0,1-1.32-1l-5-26.67V3.9a1.11,1.11,0,0,1,.32-.85,1.19,1.19,0,0,1,.84-.32h6.79a1.24,1.24,0,0,1,1.32,1l2.61,13.5a.4.4,0,0,0,.18.26.48.48,0,0,0,.21.09h0a.45.45,0,0,0,.41-.21L97.4,3.63a2,2,0,0,1,1.72-1h4.71a1.19,1.19,0,0,1,1.33,1L107.7,17.2a.37.37,0,0,0,.2.27.43.43,0,0,0,.24.08c.22,0,.36-.08.41-.24L116.1,3.7a1.94,1.94,0,0,1,1.72-1.06h6.8a.72.72,0,0,1,.68.37A.78.78,0,0,1,125.41,3.48Z"/><path class="cls-5" d="M155.15,2.63a.72.72,0,0,1,.81.62.43.43,0,0,1,0,.16.38.38,0,0,1,0,.15l-1,5.5a1.11,1.11,0,0,1-.4.69,1.05,1.05,0,0,1-.74.26h-17a.5.5,0,0,0-.25.13.31.31,0,0,0-.16.24l-.6,3.34h14.05a.71.71,0,0,1,.8.61.38.38,0,0,1,0,.15.49.49,0,0,1,0,.17l-.91,5a1.12,1.12,0,0,1-1.14,1H134.86a.58.58,0,0,0-.26.13.37.37,0,0,0-.15.25l-.56,3.12h17.37a.78.78,0,0,1,.6.21.7.7,0,0,1,.21.56.43.43,0,0,1,0,.16l-1,5.69a1,1,0,0,1-.39.69,1.12,1.12,0,0,1-.75.26H125.41a1.36,1.36,0,0,1-1-.36,1.32,1.32,0,0,1-.38-1v-.25l4.7-25.9a2,2,0,0,1,.67-1.15,1.86,1.86,0,0,1,1.23-.46Z"/><path class="cls-5" d="M183.34,2.67a6.89,6.89,0,0,1,3.36.81A5.74,5.74,0,0,1,189,5.69a6.33,6.33,0,0,1,.81,3.21,6.49,6.49,0,0,1-.13,1.32l-1.2,6.6a8.45,8.45,0,0,1-1.76,3.87,10.22,10.22,0,0,1-3.47,2.79.1.1,0,0,0-.1.09s.06,0,.18-.07l3.11,6.41a1,1,0,0,1,.16.58,1.11,1.11,0,0,1-1.07,1.14H179a5.84,5.84,0,0,1-1.66-.15,1.16,1.16,0,0,1-.72-.62l-3.09-6a.87.87,0,0,0-.77-.45H166.1a.35.35,0,0,0-.23.09.53.53,0,0,0-.16.2l-1,5.42a1.83,1.83,0,0,1-.66,1.15,1.94,1.94,0,0,1-1.24.44h-5.49a1.32,1.32,0,0,1-1-.36,1.3,1.3,0,0,1-.36-.94v-.27l4.7-25.88a1.9,1.9,0,0,1,.66-1.14,2,2,0,0,1,1.24-.45Zm-2.62,8.69v-.27a1.16,1.16,0,0,0-.36-.84,1.2,1.2,0,0,0-.9-.36h-10.7a.58.58,0,0,0-.25.09.53.53,0,0,0-.16.2l-1.26,7h11.08a1.69,1.69,0,0,0,1.12-.44,1.71,1.71,0,0,0,.64-1Z"/><path class="cls-5" d="M222.44,2.63a.71.71,0,0,1,.8.61.49.49,0,0,1,0,.17.38.38,0,0,1,0,.15l-1,5.5a1.1,1.1,0,0,1-.39.69,1.08,1.08,0,0,1-.75.26h-17a.43.43,0,0,0-.26.13.33.33,0,0,0-.15.24l-.6,3.34h14a.72.72,0,0,1,.81.62.65.65,0,0,1,0,.14.49.49,0,0,1,0,.17l-.91,5a1.21,1.21,0,0,1-.4.71,1.1,1.1,0,0,1-.74.26h-13.7a.5.5,0,0,0-.26.13.33.33,0,0,0-.16.25l-.56,3.12h17.34a.82.82,0,0,1,.6.21.7.7,0,0,1,.21.56.43.43,0,0,1,0,.16l-1,5.69a1,1,0,0,1-.38.69,1.21,1.21,0,0,1-.76.26H192.69a1.36,1.36,0,0,1-1-.36,1.28,1.28,0,0,1-.37-1v-.25L196,4.18A2,2,0,0,1,196.69,3a1.86,1.86,0,0,1,1.23-.46Z"/><path class="cls-5" d="M249.39,2.55a6.86,6.86,0,0,1,3.35.81A5.87,5.87,0,0,1,255,5.6a6.19,6.19,0,0,1,.81,3.17,7.39,7.39,0,0,1-.12,1.33l-2.55,14A8.41,8.41,0,0,1,251.51,28a10.19,10.19,0,0,1-3.3,2.75,8.68,8.68,0,0,1-4.06,1H224.63a1.32,1.32,0,0,1-1-.36,1.3,1.3,0,0,1-.36-.94,1.22,1.22,0,0,1,0-.27l4.69-26a2,2,0,0,1,1.94-1.58ZM234.17,24.14h9.26a1.22,1.22,0,0,0,.75-.3,1.08,1.08,0,0,0,.43-.67l2.21-12.29a.79.79,0,0,0-.25-.58.86.86,0,0,0-.61-.25h-9.25a1.3,1.3,0,0,0-.77.3,1.18,1.18,0,0,0-.43.68l-2.19,12.14v.12a1.15,1.15,0,0,0,.16.58A1,1,0,0,0,234.17,24.14Z"/><path class="cls-5" d="M267,31.71a1.09,1.09,0,0,1-1.21-.95,1.48,1.48,0,0,1,0-.21V30.3L271,1.55a1.76,1.76,0,0,1,.64-1.09A1.83,1.83,0,0,1,272.84,0h23.05a7.42,7.42,0,0,1,3.58.86,6.22,6.22,0,0,1,2.44,2.36,6.55,6.55,0,0,1,.86,3.4,6.87,6.87,0,0,1-.14,1.43l-.43,2.48a.55.55,0,0,0-.07.31,6.45,6.45,0,0,1-.94,2.32,12.43,12.43,0,0,1-2.08,2.38,1.3,1.3,0,0,1,1,.64,6.33,6.33,0,0,1,.73,1.12,5.11,5.11,0,0,1,.37,2,10.17,10.17,0,0,1-.22,1.82l-.48,2.9a8.62,8.62,0,0,1-1.73,3.86,9.76,9.76,0,0,1-3.33,2.79,8.72,8.72,0,0,1-4.1,1Zm9.37-8a.57.57,0,0,0,.44.2h12.74a2.17,2.17,0,0,0,1.41-.55,2.11,2.11,0,0,0,.8-1.31.87.87,0,0,1,.06-.35,5.31,5.31,0,0,0,.13-.89,1.55,1.55,0,0,0-.49-1.14,1.6,1.6,0,0,0-1.17-.47H277.56a.72.72,0,0,0-.46.18.92.92,0,0,0-.28.42l-.62,3.39v.08a.7.7,0,0,0,.18.48ZM278.51,12a.6.6,0,0,0,.42.18h11.93a2.24,2.24,0,0,0,1.42-.54,2.14,2.14,0,0,0,.81-1.3v-.2a8.3,8.3,0,0,0,.14-1A1.5,1.5,0,0,0,292.74,8a1.66,1.66,0,0,0-1.16-.47H279.67a.78.78,0,0,0-.46.18.63.63,0,0,0-.26.44l-.62,3.37v.05A.62.62,0,0,0,278.51,12Z"/><path class="cls-5" d="M323.23,21l-.35.78-1.51,8.3a1.83,1.83,0,0,1-.66,1.15,1.92,1.92,0,0,1-1.24.44H314a1.36,1.36,0,0,1-1-.36,1.3,1.3,0,0,1-.36-.94v-.27l1.49-8.3c0-.22-.05-.51-.08-.86L306.94,4.1a.81.81,0,0,1-.06-.31,1,1,0,0,1,.33-.78,1.17,1.17,0,0,1,.83-.32H315a1.2,1.2,0,0,1,1.24.79l3.6,8.54a.37.37,0,0,0,.18.22.58.58,0,0,0,.21.07.42.42,0,0,0,.35-.15l6.79-8.7a1.93,1.93,0,0,1,1.55-.77h6.95a.82.82,0,0,1,.6.21.73.73,0,0,1,.21.56,1.06,1.06,0,0,1-.25.64Z"/></g></g></g></g></svg>