<svg xmlns="http://www.w3.org/2000/svg" viewBox="0 0 2396.39 789.75"><defs><style>.cls-1{fill:#78d1ef;}.cls-2{fill:#f05253;}.cls-3{fill:#fee341;}.cls-4{fill:#231f20;}.cls-5{isolation:isolate;}</style></defs><g id="Layer_2" data-name="Layer 2"><g id="Layer_1-2" data-name="Layer 1"><g id="Layer_2-2" data-name="Layer 2"><g id="Layer_1-2-2" data-name="Layer 1-2"><path class="cls-1" d="M2225.47,613.15v46.32h0a57.38,57.38,0,0,0-.7-7.85,53.31,53.31,0,0,0-4.64-15,56.93,56.93,0,0,0,5.34-23.45Z"/><path class="cls-1" d="M2224.77,603.75a55.82,55.82,0,0,1,.7,9.4,56.93,56.93,0,0,1-5.34,23.45q-15.87-33.81-80.93-66.18l-26.43-13.16V510.39l.39-.78,26,12.95Q2218.62,562.09,2224.77,603.75Z"/><path class="cls-2" d="M2225.45,659.47q.93,46.77-76.58,86.15a388.53,388.53,0,0,1-104.58,35.76l-.19-1V733.56h0a388.7,388.7,0,0,0,104.77-35.79q56.36-28.62,71.24-61.16a53.31,53.31,0,0,1,4.64,15A57.53,57.53,0,0,1,2225.45,659.47Z"/><path class="cls-3" d="M1874.77,709.6q37.57,15.92,74,15.58,51.69-.82,101.14-25.93,47.3-24,48-49.31V602.07a28.94,28.94,0,0,0-1.36-9.51q-7-20.37-45.94-39.75l-40.11-20a12,12,0,0,0-10.84,0l-75.45,38.33-93.57,47.52a12,12,0,0,0-6.56,11.69v46a12,12,0,0,0,6.65,11.72l30.62,15.24Q1868.07,706.78,1874.77,709.6ZM1795.32,697l-.32-.16-106.73-53.07,290.66-147.64a12.08,12.08,0,0,1,10.85-.05l123,61.18,26.45,13.16q65.05,32.39,80.93,66.18-14.91,32.53-71.24,61.16a388.7,388.7,0,0,1-104.77,35.79,404.6,404.6,0,0,1-81.24,6.79Q1880.14,739.19,1795.32,697Z"/><path class="cls-1" d="M2113.16,509.61l-.39.78v46.87l-123-61.18a12,12,0,0,0-5.29-1.26V447a12.2,12.2,0,0,1,5.26,1.27Z"/><path class="cls-1" d="M2097.89,602.07q-.36,11.85-10.91,23.41-11.85-12.6-36.39-24.81l-40.11-20a12,12,0,0,0-10.84,0L1924.19,619V571.22l75.45-38.33a12,12,0,0,1,10.84,0l40.11,20q39,19.38,45.94,39.75A29,29,0,0,1,2097.89,602.07Z"/><path class="cls-2" d="M2097.89,648.6v1.34q-.73,25.27-48,49.31-49.44,25.11-101.14,25.93-36.37.33-74-15.58V661.74q37.57,15.9,74,15.57,51.69-.81,101.14-25.93,25.14-12.76,37.13-25.9a42.17,42.17,0,0,1,9.55,14.94A29.45,29.45,0,0,1,2097.89,648.6Z"/><path class="cls-2" d="M2097.89,602.07V648.6a29.5,29.5,0,0,0-1.36-8.18,42.17,42.17,0,0,0-9.55-14.94Q2097.54,613.92,2097.89,602.07Z"/><path class="cls-2" d="M2044.1,780.35l.19,1a404.38,404.38,0,0,1-81.43,6.83q-82.71-1.17-167.54-43.31V697q84.84,42.13,167.54,43.3a404.6,404.6,0,0,0,81.24-6.79h0Z"/><path class="cls-1" d="M1984.52,447v47.87a12.19,12.19,0,0,0-5.56,1.31L1688.27,643.77l-26.1-13a12.06,12.06,0,0,1-.09-21.57l316.85-161A12.14,12.14,0,0,1,1984.52,447Z"/><path class="cls-1" d="M1962.69,362v56.06a12.11,12.11,0,0,1-1.45,5.74l-42.68-27.2a11.94,11.94,0,0,0,1.55-5.89v-27.3l25.23-12.25A12.07,12.07,0,0,1,1962.69,362Z"/><path class="cls-2" d="M1961.24,423.82a12.2,12.2,0,0,1-5.35,5.12L1770.3,519h0l-38.84-29.11,181.87-88.3a12,12,0,0,0,5.25-5Z"/><path class="cls-1" d="M1949.43,50.7a12,12,0,0,1,7.93,11.3v56.07a12,12,0,0,1-1.14,5.11l-.23-.11-42.65-26.63a12.06,12.06,0,0,0,1.44-5.73V63.43L1940,51.18A12,12,0,0,1,1949.43,50.7Z"/><path class="cls-1" d="M1916.21,325.77l41,26.14a12,12,0,0,0-11.89-.75l-25.23,12.25V334.66A12,12,0,0,0,1916.21,325.77Z"/><path class="cls-2" d="M1956,123.11l.23.11a12.06,12.06,0,0,1-5.66,5.75L1895,156l-43.08-26.9-.08-.17L1908,101.64a12.11,12.11,0,0,0,5.36-5.14Z"/><path class="cls-1" d="M1911.15,26.05l38.28,24.65a12,12,0,0,0-9.42.48l-25.24,12.25V34.69A12,12,0,0,0,1911.15,26.05Z"/><path class="cls-1" d="M1931.42,207.85a12,12,0,0,1,6.4,10.65v52.3a12.14,12.14,0,0,1-1,4.9l-42.67-27.18a12,12,0,0,0,1.12-5.07V219.89l25.23-12.25a12,12,0,0,1,10.88.17Z"/><path class="cls-2" d="M1894.12,248.52l42.65,27.18a12.16,12.16,0,0,1-5.77,6L1773.92,358l-.2-.41-38.48-28.83,153.18-74.37A12.09,12.09,0,0,0,1894.12,248.52Z"/><path class="cls-1" d="M1890.56,181.6l40.79,26.21a12,12,0,0,0-10.88-.17l-25.23,12.25V191.15A12,12,0,0,0,1890.56,181.6Z"/><path class="cls-1" d="M1824.06,630.43a12,12,0,0,1,6.56-11.69l93.57-47.52v47.86l-67.37,34.22-26.11-13A11.89,11.89,0,0,1,1824.06,630.43Z"/><path class="cls-3" d="M1731.44,489.89l-113.36,55V215a12,12,0,0,1,2.53-7.38,11.83,11.83,0,0,1,4.27-3.48l278-135,11.89-5.71V90.75a12.08,12.08,0,0,1-6.8,10.87l-56.15,27.26L1693,206a12.08,12.08,0,0,0-6.8,10.86v37.22a12,12,0,0,0,7.07,11h0l39.33,25.17a12.09,12.09,0,0,0,13.53,2l85.21-41.37,63.88-31v23.56a12.09,12.09,0,0,1-6.8,10.86l-153.18,74.37L1693,349.17a11.72,11.72,0,0,0-4.18,3.37,12,12,0,0,0-2.62,7.5v49.6a12,12,0,0,0,5,9.78,9.35,9.35,0,0,0,1,.63l.08.05,41.47,26.68h0c.32.22.64.43,1,.63l.09,0a12,12,0,0,0,11.3.4l130.14-63.19,43.82-21.27v27.32a12.16,12.16,0,0,1-6.8,10.86Z"/><path class="cls-2" d="M1920.11,334.66v28.75l-43.82,21.27-.25-.52-38.37-28.76,65.1-31.6a12,12,0,0,1,9.9-.29l3.55,2.26A12,12,0,0,1,1920.11,334.66Z"/><path class="cls-2" d="M1914.77,34.69V63.43l-11.92,5.79-.08-.22-42.3-27.25,37-18a11.89,11.89,0,0,1,9.7-.37l4,2.59A12,12,0,0,1,1914.77,34.69Z"/><path class="cls-2" d="M1902.77,69l.09.19-278,135a11.83,11.83,0,0,0-4.27,3.48L1577,181.88h0a12,12,0,0,1,5.29-5l278.18-135Z"/><path class="cls-2" d="M1895.24,191.15v28.74l-63.88,31-.34-.7-38.2-28.62,85.07-41.3a11.94,11.94,0,0,1,10.84.14h0l1.78,1.14A12,12,0,0,1,1895.24,191.15Z"/><path class="cls-2" d="M1851.91,129.05,1895,156,1735.6,233.33a11.92,11.92,0,0,0-4.77,4.19l-42.64-27.28A12,12,0,0,1,1693,206l158.81-77.1Z"/><path class="cls-2" d="M1876,384.16l.25.52-130.14,63.19a12,12,0,0,1-11.3-.4l-.09-.05-1-.63h0a12,12,0,0,1-5-9.78V408.26l108.91-52.86Z"/><path class="cls-2" d="M1824.06,676.46a11.86,11.86,0,0,1,6.56-9.85l26.2-13.31,4.51,2.25q6.74,3.35,13.43,6.19V709.6q-6.69-2.82-13.43-6.18l-30.62-15.24A12,12,0,0,1,1824.06,676.46Z"/><path class="cls-2" d="M1856.82,653.3l-26.2,13.31a11.86,11.86,0,0,0-6.56,9.85v-46a11.88,11.88,0,0,0,6.65,9.89Z"/><path class="cls-2" d="M1831,250.21l.34.7-85.21,41.37a11.93,11.93,0,0,1-9.85.31l-3.68-2.36a11.89,11.89,0,0,1-3.82-8.81V252.67l64-31.08Z"/><path class="cls-2" d="M1795.32,697v47.9l-.32-.16-132.83-66.09a12.08,12.08,0,0,1-.09-21.58l26.19-13.3L1795,696.88Z"/><path class="cls-2" d="M1773.94,357.92l-38.34,18.62a12,12,0,0,0-4.49,3.76l-.92-.3-41.35-27.45a11.72,11.72,0,0,1,4.18-3.37l42.24-20.5,38.51,28.83Z"/><path class="cls-2" d="M1621.1,581.67a11.84,11.84,0,0,1-3-8V544.93l113.36-55L1770.28,519h0L1635.4,584.49A12,12,0,0,1,1621.1,581.67Z"/><path class="cls-2" d="M1733.77,446.78l-41.52-26.67a11.94,11.94,0,0,0,11.31.4l25.21-12.25V437A12,12,0,0,0,1733.77,446.78Z"/><path class="cls-2" d="M1732.62,290.23l-39.33-25.17h0a12,12,0,0,0,10.28-.13l25.2-12.26v28.75A11.85,11.85,0,0,0,1732.62,290.23Z"/><path class="cls-3" d="M1731.11,380.3a12.07,12.07,0,0,0-2.31,7.1v20.86l-25.23,12.25a11.91,11.91,0,0,1-11.31-.4l-.08-.05-1-.63a12,12,0,0,1-5-9.78v-49.6a12,12,0,0,1,2.62-7.5L1730.19,380Z"/><path class="cls-3" d="M1688.19,210.24l42.64,27.28a12,12,0,0,0-2,6.67v8.48l-25.23,12.25a12.06,12.06,0,0,1-17.35-10.86V216.84A12,12,0,0,1,1688.19,210.24Z"/><path class="cls-2" d="M1688.27,643.77l-26.19,13.3a11.9,11.9,0,0,0-6.6,10.76V620a11.93,11.93,0,0,0,6.69,10.81Z"/><path class="cls-1" d="M1621.1,581.67l-39.61-24.92a12,12,0,0,0,11.35.43l25.24-12.25v28.74A11.86,11.86,0,0,0,1621.1,581.67Z"/><path class="cls-1" d="M1577,181.87l43.6,25.79a12,12,0,0,0-2.53,7.38V342.16l-42.41-25.08h-.18V187.69a12,12,0,0,1,1.51-5.83Z"/><path class="cls-1" d="M1581.45,556.73a12,12,0,0,1-6-10.41V317.08h.18L1618,342.16V544.93l-25.24,12.25a12,12,0,0,1-11.35-.43Z"/><path class="cls-4" d="M1970,789.75c-2.36,0-4.73,0-7.09-.06-55.1-.78-111.69-15.4-168.18-43.47l-.32-.16L1661.5,680a13.58,13.58,0,0,1-.1-24.26l316.85-160.94a13.65,13.65,0,0,1,12.19-.05l149.46,74.34c43.48,21.64,70.94,44.15,81.61,66.88a54.39,54.39,0,0,1,4.77,15.41,60.19,60.19,0,0,1,.72,8c.63,31.66-25.41,61.1-77.4,87.52a389.86,389.86,0,0,1-105,35.89A406.3,406.3,0,0,1,1970,789.75ZM1689,645.11l-26.19,13.3a10.57,10.57,0,0,0,.08,18.9L1796,743.54c56.08,27.86,112.23,42.38,166.89,43.15a404.2,404.2,0,0,0,81.13-6.8,386.56,386.56,0,0,0,104.17-35.63c50.88-25.84,76.37-54.37,75.77-84.78a55.61,55.61,0,0,0-.68-7.64,51.71,51.71,0,0,0-4.51-14.59c-10.39-22.12-37.39-44.15-80.25-65.49l-149.45-74.34a10.62,10.62,0,0,0-9.5.05Z"/><path class="cls-4" d="M1947.27,726.6c-23.91,0-48.49-5.28-73.1-15.71-4.47-1.89-9-4-13.51-6.22L1830,689.43a13.67,13.67,0,0,1-6-6,13.58,13.58,0,0,1,5.93-18.27l169-85.85a13.62,13.62,0,0,1,12.19,0l40.11,20c16.43,8.17,28.81,16.62,36.8,25.11a43.31,43.31,0,0,1,9.88,15.36,30.9,30.9,0,0,1,1.46,8.68v1.37c-.48,17.43-16.91,34.45-48.82,50.65-33,16.76-67.27,25.54-101.8,26.09Zm57.79-145.71a10.56,10.56,0,0,0-4.75,1.12l-169,85.85a10.57,10.57,0,0,0-4.62,14.23,10.69,10.69,0,0,0,4.7,4.66L1862,702c4.44,2.2,8.93,4.27,13.34,6.14,24.75,10.48,49.48,15.7,73.4,15.46,34.06-.54,67.87-9.21,100.48-25.77,30.86-15.65,46.73-31.81,47.18-48v-1.3a28.06,28.06,0,0,0-1.29-7.73,40.29,40.29,0,0,0-9.19-14.24l0,0c-7.74-8.23-19.84-16.47-36-24.5l-40.11-20A10.56,10.56,0,0,0,2005.06,580.89Z"/><path class="cls-4" d="M1969.9,741.92q-3.56,0-7.09-.06c-55.1-.77-111.69-15.39-168.18-43.46l-.32-.16L1661.5,632.11a13.54,13.54,0,0,1-.09-24.21l316.84-161a13.54,13.54,0,0,1,12.21,0l123.37,61.39,26,12.95c53.17,26.46,82.24,54.15,86.38,82.31a57.87,57.87,0,0,1-4.76,33.7c-10,21.9-34.23,42.71-71.92,61.87A390.15,390.15,0,0,1,2044.36,735,406.92,406.92,0,0,1,1969.9,741.92Zm14.45-293.47a10.5,10.5,0,0,0-4.74,1.13l-316.85,161A10.47,10.47,0,0,0,1657,620v0a10.49,10.49,0,0,0,5.85,9.41L1796,695.72c56.08,27.86,112.23,42.38,166.89,43.14a403.75,403.75,0,0,0,80.94-6.76,387.38,387.38,0,0,0,104.37-35.66c37.07-18.84,60.81-39.18,70.55-60.44a54.94,54.94,0,0,0,4.53-32c-4-27.15-32.51-54.09-84.76-80.09l-26-12.95-123.38-61.39A10.61,10.61,0,0,0,1984.35,448.45Z"/><path class="cls-4" d="M1947.31,678.76c-23.92,0-48.51-5.28-73.14-15.7-4.46-1.89-9-4-13.51-6.23L1830,641.58a13.59,13.59,0,0,1-.1-24.26l169-85.85a13.62,13.62,0,0,1,12.19,0l40.11,20c26.2,13,41.91,26.7,46.69,40.6a30.64,30.64,0,0,1,1.44,10h0c-.25,8.24-4,16.42-11.26,24.32-8.07,8.85-20.71,17.68-37.55,26.23-33,16.77-67.27,25.55-101.8,26.09ZM2005.06,533a10.56,10.56,0,0,0-4.75,1.12l-75.44,38.33L1831.3,620a10.59,10.59,0,0,0,.08,18.9L1862,654.15c4.45,2.21,8.94,4.28,13.34,6.15,24.75,10.47,49.44,15.69,73.4,15.45,34.06-.53,67.87-9.2,100.48-25.77,16.52-8.38,28.87-17,36.7-25.57,6.72-7.36,10.25-14.89,10.47-22.38a27.54,27.54,0,0,0-1.29-9c-4.5-13.1-19.71-26.19-45.18-38.87l-40.11-20A10.56,10.56,0,0,0,2005.06,533Z"/><path class="cls-4" d="M1580.7,558a13.54,13.54,0,0,1-6.75-11.71V187.69a13.53,13.53,0,0,1,7.64-12.21l278.18-135,37-18a13.57,13.57,0,0,1,19.5,12.21V90.75a13.66,13.66,0,0,1-7.65,12.22l-56.15,27.26-158.8,77.12a10.65,10.65,0,0,0-6,9.51v37.22a10.57,10.57,0,0,0,10.56,10.58h0a10.57,10.57,0,0,0,4.62-1.07l25.2-12.27,149.07-72.38a13.52,13.52,0,0,1,12.2.16l-1.4,2.66a10.46,10.46,0,0,0-9.48-.12L1729.42,254l-25.2,12.27a13.67,13.67,0,0,1-5.93,1.37h0a13.57,13.57,0,0,1-13.56-13.58V216.86a13.7,13.7,0,0,1,7.64-12.21l158.8-77.12,56.15-27.26a10.64,10.64,0,0,0,6-9.52V34.69a10.71,10.71,0,0,0-1.06-4.62,10.59,10.59,0,0,0-14.13-4.89l-37,18-278.18,135a10.54,10.54,0,0,0-6,9.51V546.32a10.5,10.5,0,0,0,5.25,9.11Z"/><path class="cls-4" d="M1587.57,559.87a13.48,13.48,0,0,1-6.83-1.87l1.52-2.58a10.5,10.5,0,0,0,9.93.37l320.47-155.55a10.58,10.58,0,0,0,6-9.52V334.66a10.58,10.58,0,0,0-15.19-9.51l-174,84.46-25.2,12.25a13.41,13.41,0,0,1-12.72-.45l1.51-2.59a10.45,10.45,0,0,0,9.89.35l25.21-12.26,174-84.46a13.57,13.57,0,0,1,19.51,12.22v56.06a13.58,13.58,0,0,1-7.64,12.21l-181.88,88.3-138.6,67.25A13.49,13.49,0,0,1,1587.57,559.87Z"/><path class="cls-4" d="M1691.48,421.37a9.88,9.88,0,0,1-1.14-.72,13.52,13.52,0,0,1-5.63-11v-49.6a13.59,13.59,0,0,1,7.65-12.22l42.23-20.5L1887.77,253a10.58,10.58,0,0,0,6-9.51v-52.3a10.56,10.56,0,0,0-4.1-8.36,11.16,11.16,0,0,0-1.56-1l1.4-2.66a15,15,0,0,1,2,1.28,13.61,13.61,0,0,1,5.27,10.74v52.3a13.59,13.59,0,0,1-7.65,12.21L1735.9,330l-42.24,20.5a10.63,10.63,0,0,0-6,9.52v49.6a10.5,10.5,0,0,0,4.37,8.56,7.61,7.61,0,0,0,.85.54Z"/><path class="cls-4" d="M1630.14,587.22a13.52,13.52,0,0,1-10.17-4.6,13.37,13.37,0,0,1-3.37-9V215a13.61,13.61,0,0,1,7.64-12.21l278-135,11.88-5.71,25.22-12.25a13.58,13.58,0,0,1,18.15,6.25,13.81,13.81,0,0,1,1.37,5.92v56.07a13.69,13.69,0,0,1-7.65,12.21l-55.57,27-159.39,77.38a10.59,10.59,0,0,0-6,9.52V281.4A10.57,10.57,0,0,0,1740.88,292h0a10.62,10.62,0,0,0,4.6-1.06l85.21-41.37,89.11-43.25a13.54,13.54,0,0,1,12.24.19l-1.4,2.66a10.51,10.51,0,0,0-9.52-.15L1746.8,293.61a13.61,13.61,0,0,1-5.91,1.36h0a13.57,13.57,0,0,1-13.58-13.57V244.17a13.59,13.59,0,0,1,7.64-12.21l159.39-77.38,55.57-27a10.67,10.67,0,0,0,6-9.51V62a10.77,10.77,0,0,0-1.07-4.6,10.57,10.57,0,0,0-14.13-4.87l-25.24,12.25-11.87,5.71-278,135a10.62,10.62,0,0,0-6,9.51V573.63a10.39,10.39,0,0,0,2.62,7,10.5,10.5,0,0,0,12.54,2.51l134.88-65.49,185.59-90.08a10.63,10.63,0,0,0,6-9.51V362a10.57,10.57,0,0,0-15.2-9.49L1746.8,449.22a13.5,13.5,0,0,1-12.71-.45l1.51-2.6a10.45,10.45,0,0,0,9.89.35l199.19-96.71a13.57,13.57,0,0,1,18.14,6.27,13.63,13.63,0,0,1,1.37,5.92v56.06a13.64,13.64,0,0,1-7.65,12.21L1771,520.35l-134.88,65.49A13.42,13.42,0,0,1,1630.14,587.22Z"/><path class="cls-4" d="M1734,448.73c-.4-.22-.76-.46-1.12-.7l1.7-2.48a9.46,9.46,0,0,0,.88.56Z"/><path class="cls-4" d="M1732.92,448a13.54,13.54,0,0,1-5.62-11V387.4a13.66,13.66,0,0,1,7.64-12.21l38.34-18.62,157.08-76.26a10.56,10.56,0,0,0,6-9.5V218.5a10.49,10.49,0,0,0-5.6-9.32l1.4-2.66a13.49,13.49,0,0,1,7.2,12v52.3a13.57,13.57,0,0,1-7.65,12.21l-195.42,94.88a10.65,10.65,0,0,0-6,9.51V437a10.5,10.5,0,0,0,4.37,8.56Z"/><rect class="cls-4" x="1793.82" y="696.39" width="3" height="49.21"/><rect class="cls-4" x="2042.6" y="733.56" width="3" height="46.79"/><rect class="cls-4" x="2111.27" y="510.39" width="3" height="46.8"/><rect class="cls-4" x="1983.01" y="447.47" width="3" height="46.79"/><rect class="cls-4" x="2223.97" y="613.15" width="3" height="46.8"/><rect class="cls-4" x="1922.69" y="571.22" width="3" height="48.65"/><rect class="cls-4" x="1873.26" y="661.74" width="3" height="48.49"/><rect class="cls-4" x="2096.39" y="601.64" width="3" height="49.52"/><rect class="cls-4" x="1822.56" y="628.85" width="3" height="48.11"/><rect class="cls-4" x="1653.98" y="618.86" width="3" height="49.21"/><rect class="cls-4" x="1597.31" y="169.44" width="3" height="50.66" transform="translate(617.19 1471.69) rotate(-59.39)"/><rect class="cls-4" x="1595.37" y="304.98" width="3" height="49.27" transform="translate(500.31 1536.35) rotate(-59.4)"/><polygon class="cls-4" points="1626.03 586.54 1580.2 557.72 1581.82 555.19 1582.29 555.48 1627.63 584 1626.03 586.54"/><rect class="cls-4" x="1855.09" y="345.28" width="3" height="48.6" transform="translate(447.32 1633.5) rotate(-53.15)"/><polygon class="cls-4" points="1772.84 358.71 1733.94 329.57 1735.75 327.17 1736.16 327.48 1774.64 356.31 1772.84 358.71"/><polygon class="cls-4" points="1830.12 251.41 1791.22 222.27 1793.03 219.87 1793.72 220.39 1831.92 249.01 1830.12 251.41"/><rect class="cls-4" x="1707.95" y="341.35" width="3" height="49.78" transform="translate(458.87 1587.87) rotate(-56.42)"/><rect class="cls-4" x="1713.29" y="253.29" width="3" height="51.07" transform="translate(555.52 1572.79) rotate(-57.38)"/><polygon class="cls-4" points="1730.16 238.87 1730.04 238.79 1687.12 211.33 1688.78 208.83 1689.02 208.99 1731.75 236.33 1730.16 238.87"/><polygon class="cls-4" points="1734.12 448.78 1733.94 448.68 1732.83 447.95 1690.39 420.69 1692.02 418.17 1692.99 418.8 1735.58 446.16 1735.57 446.16 1735.57 446.16 1735.57 446.18 1734.12 448.78"/><polygon class="cls-4" points="1769.38 520.2 1730.45 491.02 1732.33 488.68 1732.38 488.72 1771.18 517.8 1769.38 520.2"/><polygon class="cls-4" points="1948.65 51.98 1906.32 24.72 1907.94 22.2 1950.32 49.49 1948.65 51.98"/><polygon class="cls-4" points="1901.95 70.29 1859.65 43.04 1860.41 41.74 1861.23 40.48 1861.29 40.52 1903.58 67.77 1901.95 70.29"/><polygon class="cls-4" points="1955.19 124.38 1912.08 97.47 1913.65 94.91 1914.13 95.2 1956.78 121.84 1955.19 124.38"/><polygon class="cls-4" points="1894.36 157.31 1894.19 157.22 1851.11 130.32 1852.7 127.78 1895.78 154.68 1895.1 155.78 1894.36 157.31"/><polygon class="cls-4" points="1932.2 210.13 1887.97 181.72 1889.5 179.14 1891.37 180.34 1933.82 207.61 1932.2 210.13"/><polygon class="cls-4" points="1937.71 278.07 1935.98 276.97 1892.25 249.1 1893.87 246.58 1894.93 247.26 1939.32 275.53 1937.71 278.07"/><polygon class="cls-4" points="1957.32 353.74 1956.43 353.18 1911.85 324.77 1913.46 322.25 1958.92 351.2 1957.32 353.74"/><polygon class="cls-4" points="1961.88 426.01 1960.43 425.08 1916.43 397.05 1918.04 394.51 1963.5 423.49 1961.88 426.01"/><path class="cls-2" d="M2394.89,170.12V519.5a19.07,19.07,0,0,1-27.77,17l-3.72-1.91V188A19.11,19.11,0,0,0,2353,171L2065.15,23.39V20.6a19.07,19.07,0,0,1,27.77-17l291.6,149.52A19.06,19.06,0,0,1,2394.89,170.12Z"/><path class="cls-1" d="M2363.4,534.56v2.79a19.08,19.08,0,0,1-27.78,17l-2.22-1.14v-34Z"/><path class="cls-3" d="M2363.4,188V534.56l-30-15.38V205.72a19.06,19.06,0,0,0-10.37-17L2065.15,56.52V23.39L2353,171A19.11,19.11,0,0,1,2363.4,188Z"/><path class="cls-3" d="M2333.4,553.18v1.92a19.07,19.07,0,0,1-27.77,17L2014,422.58a19,19,0,0,1-10.37-17V56.2a19.07,19.07,0,0,1,27.77-17l2.22,1.14V387.83a19,19,0,0,0,10.37,17Z"/><path class="cls-2" d="M2333.4,519.18v34L2044,404.8a19,19,0,0,1-10.37-17V40.37l31.5,16.15V370a19.07,19.07,0,0,0,10.37,17Z"/><path class="cls-1" d="M2333.4,205.72V519.18L2075.52,387a19.07,19.07,0,0,1-10.37-17V56.52L2323,188.75A19.05,19.05,0,0,1,2333.4,205.72Z"/><path class="cls-1" d="M2065.15,23.39V56.52l-31.5-16.15V38.45a19.07,19.07,0,0,1,27.77-17Z"/><path class="cls-4" d="M2314.33,575.7a20.58,20.58,0,0,1-9.39-2.27l-291.6-149.51a20.47,20.47,0,0,1-11.18-18.34V56.2a20.59,20.59,0,0,1,20.54-20.6h0a20.55,20.55,0,0,1,9.39,2.27l33.72,17.29,257.88,132.23a20.46,20.46,0,0,1,11.19,18.33V555.1a20.57,20.57,0,0,1-20.54,20.6ZM2022.72,38.6h0a17.59,17.59,0,0,0-17.54,17.6V405.58a17.49,17.49,0,0,0,9.55,15.67l291.6,149.51a17.61,17.61,0,0,0,8,1.94h0a17.58,17.58,0,0,0,17.54-17.6V205.72a17.47,17.47,0,0,0-9.56-15.66L2030.74,40.53A17.72,17.72,0,0,0,2022.72,38.6Z"/><path class="cls-4" d="M2375.82,540.1a20.61,20.61,0,0,1-9.39-2.27l-33.72-17.29L2074.83,388.33A20.47,20.47,0,0,1,2063.65,370V20.6A20.57,20.57,0,0,1,2084.19,0h0a20.54,20.54,0,0,1,9.38,2.27l291.6,149.52a20.46,20.46,0,0,1,11.19,18.33V519.5a20.57,20.57,0,0,1-20.54,20.6ZM2084.22,3h0a17.57,17.57,0,0,0-17.54,17.6V370a17.51,17.51,0,0,0,9.55,15.67l291.6,149.5a17.72,17.72,0,0,0,8,1.93h0a17.58,17.58,0,0,0,17.54-17.6V170.12a17.47,17.47,0,0,0-9.56-15.66L2092.23,4.94A17.6,17.6,0,0,0,2084.22,3Z"/><path class="cls-4" d="M2344.32,558a20.58,20.58,0,0,1-9.39-2.27l-2.22-1.14L2043.33,406.13a20.45,20.45,0,0,1-11.18-18.33V38.45a20.59,20.59,0,0,1,20.54-20.6h0a20.54,20.54,0,0,1,9.38,2.27l3.73,1.9,287.88,147.65A20.49,20.49,0,0,1,2364.9,188V537.35a20.59,20.59,0,0,1-20.56,20.6Zm-291.6-537.1h0a17.57,17.57,0,0,0-17.54,17.6V387.8a17.44,17.44,0,0,0,9.55,15.66L2336.3,553a17.72,17.72,0,0,0,8,1.93h0a17.58,17.58,0,0,0,17.57-17.6V188a17.55,17.55,0,0,0-9.56-15.67L2060.73,22.79A17.6,17.6,0,0,0,2052.72,20.85Z"/><g class="cls-5"><path class="cls-3" d="M1.59,513.61,23.73,391.44a7.33,7.33,0,0,1,2.69-4.66,7.83,7.83,0,0,1,5.14-1.84h97.82a31.2,31.2,0,0,1,15.2,3.64,26.28,26.28,0,0,1,10.38,10,28.33,28.33,0,0,1,3.69,14.46,30.86,30.86,0,0,1-.62,6.06l-5.62,31.21a39.49,39.49,0,0,1-7.87,17.49,45.55,45.55,0,0,1-15.12,12.65,39.57,39.57,0,0,1-18.59,4.66l-62.75.09a3,3,0,0,0-2,.79,3.53,3.53,0,0,0-1.18,1.76l-4.57,25.31a7.53,7.53,0,0,1-2.68,4.7,7.77,7.77,0,0,1-5.15,1.89H6.68q-4.92,0-5.18-5A6.2,6.2,0,0,1,1.59,513.61ZM118.13,425a13.06,13.06,0,0,0,.09-1.49,6.57,6.57,0,0,0-2.07-4.79,6.76,6.76,0,0,0-5-2.07H60.47a3.11,3.11,0,0,0-2,.84,2.65,2.65,0,0,0-1.1,1.8l-5.63,31.11v.44a2.46,2.46,0,0,0,.79,1.76,2.43,2.43,0,0,0,1.76.79H105a9.21,9.21,0,0,0,6-2.33,9.38,9.38,0,0,0,3.43-5.49Z"/><path class="cls-3" d="M284.77,395.92a29.06,29.06,0,0,1,14.33,3.47,24.66,24.66,0,0,1,9.66,9.5,26.89,26.89,0,0,1,3.43,13.57,29.26,29.26,0,0,1-.53,5.54l-10.81,59.5a37,37,0,0,1-7.25,16.18,41.6,41.6,0,0,1-13.93,11.69,36.8,36.8,0,0,1-17.22,4.3H191.08a29,29,0,0,1-14.24-3.43,24.33,24.33,0,0,1-9.67-9.49,27.05,27.05,0,0,1-3.43-13.53,30.65,30.65,0,0,1,.53-5.63L175,428.09a36.8,36.8,0,0,1,7.3-16.17,42.13,42.13,0,0,1,14-11.69,36.82,36.82,0,0,1,17.23-4.31ZM202.15,484a3.66,3.66,0,0,0,1,2.46,3.32,3.32,0,0,0,2.6,1.14h53.7a4.94,4.94,0,0,0,3.16-1.32,4.84,4.84,0,0,0,1.85-2.9l9.31-51.5v-.62a3.6,3.6,0,0,0-3.6-3.6H216.57a5.21,5.21,0,0,0-3.26,1.27,4.68,4.68,0,0,0-1.84,2.86l-9.32,51.59Z"/><path class="cls-3" d="M534.38,399.7a4.66,4.66,0,0,1-.62,2.2L471.54,515.19a9,9,0,0,1-3.12,3.25,7.79,7.79,0,0,1-4.18,1.23H439.81a5.23,5.23,0,0,1-5.63-4.39L423.2,459a1.84,1.84,0,0,0-.75-1.1,1.89,1.89,0,0,0-.83-.4l-.18-.08a2.16,2.16,0,0,0-1.06.3,1.61,1.61,0,0,0-.7.75l-31.55,56.78q-2.82,4.4-7.3,4.39H356.4a5.24,5.24,0,0,1-5.62-4.48L329.51,401.9l-.09-.7a4.49,4.49,0,0,1,1.36-3.3,4.8,4.8,0,0,1,3.56-1.36h28.83a5.22,5.22,0,0,1,5.62,4.39l11.08,57.39a1.74,1.74,0,0,0,.79,1.1,2,2,0,0,0,.88.4l.09.09a2,2,0,0,0,1.75-.88l32-58.36q2.72-4.4,7.29-4.4h20c3.16,0,5,1.47,5.62,4.4l10.81,57.65a1.65,1.65,0,0,0,.84,1.15,2.5,2.5,0,0,0,1,.35,1.63,1.63,0,0,0,1.76-1.06l32.08-57.83c1.81-3,4.25-4.48,7.29-4.48H531a3.07,3.07,0,0,1,2.9,1.58A3.45,3.45,0,0,1,534.38,399.7Z"/><path class="cls-3" d="M660.77,396.1q3.33,0,3.42,3.34a3,3,0,0,1-.08.61l-4.22,23.38a4.94,4.94,0,0,1-1.67,2.95,4.81,4.81,0,0,1-3.17,1.09H582.72a2,2,0,0,0-1.1.53,1.44,1.44,0,0,0-.66,1.06l-2.55,14.15h59.68a3.05,3.05,0,0,1,3.43,3.25,2.8,2.8,0,0,1-.09.7l-3.87,21.36a5.05,5.05,0,0,1-1.67,3,4.67,4.67,0,0,1-3.16,1.14H574.54a2,2,0,0,0-1.09.53,1.42,1.42,0,0,0-.66,1.05l-2.38,13.27h73.83a3.48,3.48,0,0,1,2.55.88,3.21,3.21,0,0,1,.88,2.38,2.8,2.8,0,0,1-.09.7l-4.3,24.17a4.44,4.44,0,0,1-1.63,2.94,4.92,4.92,0,0,1-3.21,1.1H534.38a5.77,5.77,0,0,1-4.22-1.54,5.43,5.43,0,0,1-1.58-4.08,6.32,6.32,0,0,1,.09-1.06l20-110a8.12,8.12,0,0,1,2.85-4.87,7.89,7.89,0,0,1,5.23-2Z"/><path class="cls-3" d="M780.56,396.27a29.15,29.15,0,0,1,14.24,3.43,24.53,24.53,0,0,1,9.67,9.41,26.91,26.91,0,0,1,3.42,13.62,30.53,30.53,0,0,1-.52,5.62l-5.1,28a36.25,36.25,0,0,1-7.52,16.44A43.14,43.14,0,0,1,780,484.69c-.29.12-.44.25-.44.4s.27,0,.79-.31L793.57,512a4.59,4.59,0,0,1,.7,2.46,4.72,4.72,0,0,1-1.36,3.42,4.84,4.84,0,0,1-3.65,1.41q-6.51,0-14.76.18-7.39.07-12.48.08a27.47,27.47,0,0,1-7.08-.61,5,5,0,0,1-3-2.64l-13.1-25.84a3.71,3.71,0,0,0-3.25-1.93l-28.21.09a1.59,1.59,0,0,0-1,.39,2,2,0,0,0-.66.84l-4.22,23a7.9,7.9,0,0,1-2.81,4.88,8.07,8.07,0,0,1-5.28,1.89H670.08a5.6,5.6,0,0,1-4.17-1.54,5.37,5.37,0,0,1-1.54-4,6.84,6.84,0,0,1,.09-1.14L684.41,403a8.06,8.06,0,0,1,2.81-4.83,7.91,7.91,0,0,1,5.27-1.94ZM769.4,433.19a7.93,7.93,0,0,0,.09-1.15,4.89,4.89,0,0,0-1.54-3.55,5.18,5.18,0,0,0-3.82-1.54H718.6a1.78,1.78,0,0,0-1.06.39,2.06,2.06,0,0,0-.7.84L711.48,458l47.11-.09a7.21,7.21,0,0,0,4.74-1.84,7.65,7.65,0,0,0,2.73-4.31Z"/><path class="cls-3" d="M946.67,396.1q3.35,0,3.43,3.34a2.5,2.5,0,0,1-.09.61l-4.22,23.38a4.93,4.93,0,0,1-1.66,2.95,4.81,4.81,0,0,1-3.17,1.09H868.63a2,2,0,0,0-1.1.53,1.44,1.44,0,0,0-.66,1.06l-2.55,14.15H924a3.05,3.05,0,0,1,3.43,3.25,2.8,2.8,0,0,1-.09.7l-3.87,21.36a5.05,5.05,0,0,1-1.67,3,4.67,4.67,0,0,1-3.16,1.14H860.45a2,2,0,0,0-1.1.53,1.44,1.44,0,0,0-.65,1.05l-2.38,13.27h73.83a3.49,3.49,0,0,1,2.55.88,3.25,3.25,0,0,1,.88,2.38,2.8,2.8,0,0,1-.09.7l-4.31,24.17a4.39,4.39,0,0,1-1.62,2.94,4.92,4.92,0,0,1-3.21,1.1H820.29a5.77,5.77,0,0,1-4.22-1.54,5.39,5.39,0,0,1-1.58-4.08,7.56,7.56,0,0,1,.08-1.06l20-110a8.12,8.12,0,0,1,2.85-4.87,7.87,7.87,0,0,1,5.23-2Z"/><path class="cls-3" d="M1061.2,395.92a28.81,28.81,0,0,1,14.23,3.47,25.08,25.08,0,0,1,9.72,9.5,26.55,26.55,0,0,1,3.47,13.49,30.55,30.55,0,0,1-.53,5.62l-10.81,59.5a35.81,35.81,0,0,1-7.25,16.18,42.51,42.51,0,0,1-14,11.69,36.81,36.81,0,0,1-17.23,4.3H956a5.6,5.6,0,0,1-4.17-1.54,5.37,5.37,0,0,1-1.54-4,6.84,6.84,0,0,1,.09-1.14l20-110.3a8.36,8.36,0,0,1,8.08-6.77ZM996.51,487.5h39.37a5.05,5.05,0,0,0,3.17-1.27,4.66,4.66,0,0,0,1.84-2.86l9.41-52.2a3.31,3.31,0,0,0-1.1-2.46,3.61,3.61,0,0,0-2.59-1.06h-39.29a5.18,5.18,0,0,0-3.25,1.27,4.7,4.7,0,0,0-1.85,2.86l-9.32,51.59v.53a4.6,4.6,0,0,0,.71,2.46A4.11,4.11,0,0,0,996.51,487.5Z"/><path class="cls-3" d="M1136.08,519.67q-4.92,0-5.19-5a6.2,6.2,0,0,1,.09-1l22.15-122.17a7.32,7.32,0,0,1,2.68-4.66,7.73,7.73,0,0,1,5-1.84h97.91a31.21,31.21,0,0,1,15.21,3.64,26.25,26.25,0,0,1,10.37,10,28.33,28.33,0,0,1,3.69,14.46,30.84,30.84,0,0,1-.61,6.06l-1.85,10.82a2.55,2.55,0,0,0-.26,1.31,28,28,0,0,1-4,9.85,53.68,53.68,0,0,1-8.84,10.11c1.47-.06,2.92.84,4.36,2.72a32.4,32.4,0,0,1,3.12,4.75,22.36,22.36,0,0,1,1.58,8.52,46.06,46.06,0,0,1-1,7.74l-2.2,12.12A37.11,37.11,0,0,1,1271,503.5a42,42,0,0,1-14.15,11.82,37.42,37.42,0,0,1-17.44,4.35Zm39.81-33.84a2.42,2.42,0,0,0,1.85.88h54.14a9.29,9.29,0,0,0,6-2.37,9.06,9.06,0,0,0,3.38-5.54c.06-.35.15-.85.27-1.49a27.45,27.45,0,0,0,.52-3.78,6.52,6.52,0,0,0-2.06-4.83,6.85,6.85,0,0,0-5-2H1180.9a3,3,0,0,0-2,.79,3.58,3.58,0,0,0-1.18,1.76l-2.64,14.42V484A2.75,2.75,0,0,0,1175.89,485.83Zm9.06-50a2.42,2.42,0,0,0,1.75.8h50.72a10.32,10.32,0,0,0,9.49-7.83,7.08,7.08,0,0,1,.09-.88,36,36,0,0,0,.61-4.39,6.52,6.52,0,0,0-2.06-4.83,6.86,6.86,0,0,0-5-2h-50.71a3.21,3.21,0,0,0-2,.8,2.6,2.6,0,0,0-1.1,1.84l-2.64,14.33v.44A2.42,2.42,0,0,0,1185,435.82Z"/><path class="cls-3" d="M1375,474.32l-1.49,3.34-6.42,35.24a7.85,7.85,0,0,1-2.81,4.88,8,8,0,0,1-5.27,1.89h-23.29a5.64,5.64,0,0,1-4.18-1.54,5.41,5.41,0,0,1-1.54-4,6.84,6.84,0,0,1,.09-1.14l6.33-35.24c-.12-.94-.23-2.17-.35-3.69l-30.15-71.72a3.41,3.41,0,0,1-.26-1.32,4.42,4.42,0,0,1,1.41-3.3,4.85,4.85,0,0,1,3.51-1.36h29.53q4,0,5.28,3.34l15.29,36.3a1.44,1.44,0,0,0,.75.92,1.86,1.86,0,0,0,2.41-.3l28.83-37a8.18,8.18,0,0,1,6.59-3.25h29.53a3.46,3.46,0,0,1,2.55.88,3.2,3.2,0,0,1,.88,2.37,4.34,4.34,0,0,1-1,2.73Z"/></g><g class="cls-5"><path class="cls-4" d="M32.52,521.17H6.68c-4.09,0-6.46-2.28-6.68-6.43a7.42,7.42,0,0,1,.11-1.38v0L22.26,391.17a8.79,8.79,0,0,1,3.2-5.55,9.35,9.35,0,0,1,6.1-2.18h97.82a32.71,32.71,0,0,1,15.92,3.83,27.81,27.81,0,0,1,10.95,10.58,29.87,29.87,0,0,1,3.9,15.21,32.38,32.38,0,0,1-.65,6.36l-5.62,31.17a41,41,0,0,1-8.15,18.15,47.48,47.48,0,0,1-15.61,13.06,41.28,41.28,0,0,1-19.29,4.83l-62.75.09a1.46,1.46,0,0,0-1,.43,2.07,2.07,0,0,0-.7,1l-4.56,25.24a8.94,8.94,0,0,1-3.19,5.58A9.22,9.22,0,0,1,32.52,521.17ZM3.06,513.86a5.49,5.49,0,0,0-.06.8c.13,2.47,1.2,3.51,3.68,3.51H32.52a6.26,6.26,0,0,0,4.18-1.53,6,6,0,0,0,2.16-3.79l4.61-25.48a5,5,0,0,1,1.66-2.5,4.46,4.46,0,0,1,2.95-1.15l62.75-.09a38.31,38.31,0,0,0,17.9-4.49,44.26,44.26,0,0,0,14.62-12.24,38.15,38.15,0,0,0,7.58-16.83l5.63-31.21a30,30,0,0,0,.59-5.8,27,27,0,0,0-3.49-13.71,25,25,0,0,0-9.8-9.45,29.84,29.84,0,0,0-14.48-3.46H31.56a6.36,6.36,0,0,0-4.19,1.5,5.8,5.8,0,0,0-2.15,3.73Zm102-59H54.32a4.21,4.21,0,0,1-4-4l0-.7,5.61-31.06a4.15,4.15,0,0,1,1.63-2.75,4.59,4.59,0,0,1,2.93-1.18h50.72a8.26,8.26,0,0,1,6,2.51,8.06,8.06,0,0,1,2.51,5.85,14.16,14.16,0,0,1-.1,1.66v.1l-3.7,20.56A11.68,11.68,0,0,1,105,454.9Zm-51.76-4.35v.3a1,1,0,0,0,.35.7,1,1,0,0,0,.7.35H105a7.72,7.72,0,0,0,5-2,7.86,7.86,0,0,0,2.92-4.63l3.67-20.49a12,12,0,0,0,.08-1.28,5.11,5.11,0,0,0-1.63-3.73,5.29,5.29,0,0,0-3.9-1.63H60.47a1.88,1.88,0,0,0-1,.49,1.45,1.45,0,0,0-.56.78l0,.14Z"/><path class="cls-4" d="M262.45,521.17H191.08a30.66,30.66,0,0,1-15-3.61,25.86,25.86,0,0,1-10.25-10.07,28.54,28.54,0,0,1-3.63-14.27,31.77,31.77,0,0,1,.56-5.9l10.72-59.5A38.36,38.36,0,0,1,181.1,411a43.78,43.78,0,0,1,14.47-12.1,38.47,38.47,0,0,1,17.92-4.48h71.28a30.54,30.54,0,0,1,15.05,3.66,26.3,26.3,0,0,1,10.25,10.06,28.64,28.64,0,0,1,3.62,14.32,31.39,31.39,0,0,1-.55,5.82l-10.81,59.49a38.63,38.63,0,0,1-7.54,16.82,43.33,43.33,0,0,1-14.42,12.11A38.46,38.46,0,0,1,262.45,521.17Zm-49-123.75A35.4,35.4,0,0,0,197,401.56a40.66,40.66,0,0,0-13.48,11.28,35.33,35.33,0,0,0-7,15.52l-10.72,59.5a28.61,28.61,0,0,0-.51,5.36A25.6,25.6,0,0,0,168.48,506a22.92,22.92,0,0,0,9.08,8.92,27.78,27.78,0,0,0,13.52,3.24h71.37A35.54,35.54,0,0,0,279,514a40.38,40.38,0,0,0,13.43-11.28,35.65,35.65,0,0,0,7-15.52l10.81-59.51a29,29,0,0,0,.5-5.27,25.6,25.6,0,0,0-3.23-12.83,23.44,23.44,0,0,0-9.09-8.93,27.73,27.73,0,0,0-13.6-3.28Zm46,91.67h-53.7a4.82,4.82,0,0,1-3.72-1.65,5.1,5.1,0,0,1-1.39-3.45l0-.88,9.31-51.6a6.17,6.17,0,0,1,2.38-3.75,6.63,6.63,0,0,1,4.2-1.61h53.61a5,5,0,0,1,3.61,1.49,5,5,0,0,1,1.49,3.61l0,.89-9.32,51.5a6.31,6.31,0,0,1-2.36,3.79A6.44,6.44,0,0,1,259.46,489.09Zm-55.81-5.58V484a2.17,2.17,0,0,0,.64,1.46,1.78,1.78,0,0,0,1.47.64h53.7a3.5,3.5,0,0,0,2.2-1,3.42,3.42,0,0,0,1.33-2l9.29-51.4v-.48a2.1,2.1,0,0,0-2.1-2.1H216.57a3.71,3.71,0,0,0-2.32.94A3.22,3.22,0,0,0,213,432Z"/><path class="cls-4" d="M464.24,521.17H439.81c-3.77,0-6.21-1.92-7.08-5.54l-11-56.32a.37.37,0,0,0-.13-.15l-.2-.13-.19,0-.07,0a.27.27,0,0,0-.1.07l-.05.11L389.44,516c-2.21,3.45-5.09,5.16-8.61,5.16H356.4a6.69,6.69,0,0,1-7.08-5.64L328,402.17l-.11-1a5.93,5.93,0,0,1,1.8-4.36,6.25,6.25,0,0,1,4.62-1.8h28.83c3.76,0,6.21,1.91,7.08,5.54L381.34,458s0,.06.13.12l.26.16H382a.32.32,0,0,0,.1-.1L414.06,400c2.14-3.46,5-5.18,8.61-5.18h20c3.85,0,6.37,2,7.09,5.6l10.82,57.68c0,.07,0,.08.06.09a4.1,4.1,0,0,0,.38.18.84.84,0,0,0,.3-.05l.08-.23,32.08-57.84c2.12-3.5,5-5.25,8.6-5.25H531a4.52,4.52,0,0,1,4.21,2.35,4.86,4.86,0,0,1,.63,2.4,6.12,6.12,0,0,1-.8,2.91l-62.23,113.3a10.45,10.45,0,0,1-3.64,3.8A9.25,9.25,0,0,1,464.24,521.17Zm-42.16-65.08a3.79,3.79,0,0,1,1.22.6,3.31,3.31,0,0,1,1.35,2l11,56.33c.52,2.18,1.81,3.18,4.15,3.18h24.43a6.27,6.27,0,0,0,3.38-1,7.32,7.32,0,0,0,2.61-2.72l62.22-113.27a3.24,3.24,0,0,0,.43-1.48,1.87,1.87,0,0,0-.25-.94A1.57,1.57,0,0,0,531,398H502.12c-2.51,0-4.47,1.23-6,3.76l-32,57.68a3.12,3.12,0,0,1-3.13,1.93,3.72,3.72,0,0,1-1.72-.53,3.08,3.08,0,0,1-1.59-2.14l-10.82-57.71c-.44-2.21-1.69-3.17-4.15-3.17h-20c-2.51,0-4.48,1.21-6,3.69l-32,58.43a3.5,3.5,0,0,1-3,1.52H381l-.23-.24a4.17,4.17,0,0,1-.92-.49,3.27,3.27,0,0,1-1.44-2l-11.09-57.47c-.52-2.18-1.81-3.18-4.15-3.18H334.34a3.35,3.35,0,0,0-2.5.92,3,3,0,0,0-.92,2.15l.07.6,21.26,113.2a3.76,3.76,0,0,0,4.15,3.26h24.43c2.47,0,4.44-1.21,6-3.7l31.46-56.63a3.07,3.07,0,0,1,1.3-1.38,3.55,3.55,0,0,1,1.81-.51h.35Z"/><path class="cls-4" d="M638.44,521.17H534.38a7.29,7.29,0,0,1-5.27-2,6.9,6.9,0,0,1-2-5.16,7.06,7.06,0,0,1,.11-1.3l19.95-110.06a9.71,9.71,0,0,1,3.36-5.76,9.37,9.37,0,0,1,6.2-2.33H660.77c3.05,0,4.84,1.75,4.92,4.8a4.06,4.06,0,0,1-.13,1l-4.2,23.29a6.36,6.36,0,0,1-2.18,3.83,6.26,6.26,0,0,1-4.13,1.44H582.84l-.28.2-.11.1v.05l-2.23,12.39h57.88a4.53,4.53,0,0,1,4.93,4.67,5,5,0,0,1-.13,1.14L639,468.79a6.53,6.53,0,0,1-2.17,3.85,6.14,6.14,0,0,1-4.14,1.51H574.67a2.62,2.62,0,0,0-.29.2l-.11.1L572.21,486h72a4.91,4.91,0,0,1,3.61,1.32,4.66,4.66,0,0,1,1.32,3.44,4.33,4.33,0,0,1-.13,1.06l-4.29,24.07a5.85,5.85,0,0,1-2.16,3.85A6.44,6.44,0,0,1,638.44,521.17ZM556.7,397.6a6.38,6.38,0,0,0-4.26,1.62,6.64,6.64,0,0,0-2.35,4l-20,110a5.06,5.06,0,0,0-.06.79,4,4,0,0,0,1.13,3,4.3,4.3,0,0,0,3.17,1.11H638.44a3.5,3.5,0,0,0,2.27-.76,3,3,0,0,0,1.08-2l4.32-24.22a1.83,1.83,0,0,0,.06-.44,1.69,1.69,0,0,0-.44-1.32,2.07,2.07,0,0,0-1.49-.44H568.62l2.67-14.93a2.87,2.87,0,0,1,1.22-2.06,3.28,3.28,0,0,1,2-.86h58.19a3.15,3.15,0,0,0,2.18-.78,3.55,3.55,0,0,0,1.18-2.13L640,446.89a1.84,1.84,0,0,0,.07-.43c-.08-1.29-.56-1.75-1.93-1.75H576.62l2.85-15.82a2.9,2.9,0,0,1,1.21-2.06,3.29,3.29,0,0,1,2-.86h72.33a3.29,3.29,0,0,0,2.21-.75,3.36,3.36,0,0,0,1.15-2.07l4.22-23.36a2.06,2.06,0,0,0,.06-.35c0-1.37-.52-1.84-1.92-1.84Z"/><path class="cls-4" d="M693.37,521.17H670.08a7.07,7.07,0,0,1-5.23-2,6.84,6.84,0,0,1-2-5.06,8.58,8.58,0,0,1,.11-1.38l19.95-110a9.58,9.58,0,0,1,3.32-5.71,9.43,9.43,0,0,1,6.24-2.29h88.07a30.66,30.66,0,0,1,15,3.62,26.08,26.08,0,0,1,10.25,10,28.56,28.56,0,0,1,3.62,14.37,31.84,31.84,0,0,1-.55,5.9l-5.09,28a38,38,0,0,1-7.82,17.1,44.74,44.74,0,0,1-13.67,11.46l12.63,26.09A6.37,6.37,0,0,1,794,519a6.34,6.34,0,0,1-4.73,1.86c-4.3,0-9.26.06-14.73.18-4.92,0-9.13.08-12.51.08a28.31,28.31,0,0,1-7.53-.68,6.51,6.51,0,0,1-3.91-3.37l-13.07-25.79a2.17,2.17,0,0,0-2-1.18l-28.2.09-.07.05a1.61,1.61,0,0,0-.18.17l-4.18,22.8a9.39,9.39,0,0,1-3.33,5.77A9.54,9.54,0,0,1,693.37,521.17Zm-.88-123.4a6.42,6.42,0,0,0-4.3,1.58,6.55,6.55,0,0,0-2.31,4l-20,110a5.66,5.66,0,0,0-.06.87,3.94,3.94,0,0,0,1.1,2.94,4.17,4.17,0,0,0,3.11,1.1h23.29a6.52,6.52,0,0,0,4.32-1.54,6.42,6.42,0,0,0,2.29-4l4.31-23.32a3.62,3.62,0,0,1,1.1-1.44,3.06,3.06,0,0,1,2-.73l28.21-.09a5.18,5.18,0,0,1,4.52,2.63l.07.12,13.1,25.84a3.54,3.54,0,0,0,2.14,1.89,25.21,25.21,0,0,0,6.63.54c3.37,0,7.57,0,12.46-.08,5.48-.12,10.45-.18,14.78-.18a3.38,3.38,0,0,0,2.57-1,3.23,3.23,0,0,0,.94-2.38,3.15,3.15,0,0,0-.48-1.68l-.07-.13-12.59-26a1.66,1.66,0,0,1-.72-.18l-.79-.43,0-1a1.89,1.89,0,0,1,1.32-1.76,42,42,0,0,0,14.17-11.44,34.84,34.84,0,0,0,7.21-15.76l5.1-28.05a28.57,28.57,0,0,0,.5-5.35,25.57,25.57,0,0,0-3.22-12.88,23.19,23.19,0,0,0-9.09-8.83,27.68,27.68,0,0,0-13.52-3.25Zm17.19,61.71,5.77-31.86a3.51,3.51,0,0,1,1.19-1.48,3.25,3.25,0,0,1,2-.69h45.53a6.67,6.67,0,0,1,4.88,2,6.39,6.39,0,0,1,2,4.62,9.67,9.67,0,0,1-.11,1.36v.05L767.53,452a9.21,9.21,0,0,1-3.23,5.19,8.73,8.73,0,0,1-5.71,2.19Zm8.59-30.79-5,27.78,45.32-.09a5.71,5.71,0,0,0,3.78-1.49,6.18,6.18,0,0,0,2.22-3.47L767.92,433A7.86,7.86,0,0,0,768,432a3.4,3.4,0,0,0-1.1-2.49,3.72,3.72,0,0,0-2.76-1.1H718.6a.5.5,0,0,0-.16.09Z"/><path class="cls-4" d="M924.35,521.17H820.29a7.28,7.28,0,0,1-5.27-2,6.9,6.9,0,0,1-2-5.16,8,8,0,0,1,.1-1.3l20-110.06a9.62,9.62,0,0,1,3.36-5.76,9.35,9.35,0,0,1,6.2-2.33H946.67c3.06,0,4.85,1.75,4.93,4.8a4.06,4.06,0,0,1-.13,1l-4.2,23.29a6.41,6.41,0,0,1-2.18,3.83A6.26,6.26,0,0,1,941,429H868.75a2.88,2.88,0,0,0-.28.2l-.11.1v.05l-2.24,12.39H924a4.52,4.52,0,0,1,4.92,4.67,4.06,4.06,0,0,1-.13,1.14L925,468.79a6.53,6.53,0,0,1-2.17,3.85,6.14,6.14,0,0,1-4.14,1.51H860.58a2.62,2.62,0,0,0-.29.2l-.11.1L858.11,486h72a4.93,4.93,0,0,1,3.61,1.32,4.7,4.7,0,0,1,1.32,3.44,4.88,4.88,0,0,1-.13,1.06l-4.29,24.07a5.85,5.85,0,0,1-2.16,3.85A6.44,6.44,0,0,1,924.35,521.17ZM842.61,397.6a6.38,6.38,0,0,0-4.26,1.62,6.64,6.64,0,0,0-2.35,4l-20,110a5.06,5.06,0,0,0-.06.79,4,4,0,0,0,1.12,3,4.32,4.32,0,0,0,3.18,1.11H924.35a3.5,3.5,0,0,0,2.27-.76,3,3,0,0,0,1.08-2L932,491.2a2,2,0,0,0,.07-.44,1.69,1.69,0,0,0-.44-1.32,2.07,2.07,0,0,0-1.49-.44H854.53l2.67-14.93a2.87,2.87,0,0,1,1.22-2.06,3.26,3.26,0,0,1,2-.86h58.19a3.15,3.15,0,0,0,2.18-.78,3.55,3.55,0,0,0,1.18-2.13l3.86-21.35a1.84,1.84,0,0,0,.07-.43c-.08-1.29-.56-1.75-1.93-1.75H862.53l2.85-15.82a2.9,2.9,0,0,1,1.21-2.06,3.29,3.29,0,0,1,2-.86H941a3.25,3.25,0,0,0,2.2-.75,3.37,3.37,0,0,0,1.16-2.07l4.22-23.36a2.06,2.06,0,0,0,.06-.35c0-1.37-.52-1.84-1.93-1.84Z"/><path class="cls-4" d="M1038.78,521.17H956a7.1,7.1,0,0,1-5.24-2,6.87,6.87,0,0,1-2-5.06,7.57,7.57,0,0,1,.11-1.38l20-110.33a9.85,9.85,0,0,1,9.56-8h82.8a30.36,30.36,0,0,1,15,3.66,26.58,26.58,0,0,1,10.28,10.06,28.05,28.05,0,0,1,3.68,14.24,31.85,31.85,0,0,1-.56,5.9l-10.8,59.49a37.56,37.56,0,0,1-7.55,16.83,44.12,44.12,0,0,1-14.51,12.1A38.43,38.43,0,0,1,1038.78,521.17ZM978.4,397.42a6.86,6.86,0,0,0-6.61,5.54l-19.95,110.3a5.66,5.66,0,0,0-.06.87,3.94,3.94,0,0,0,1.1,2.94,4.14,4.14,0,0,0,3.11,1.1h82.79a35.55,35.55,0,0,0,16.54-4.13,41.26,41.26,0,0,0,13.53-11.29,34.43,34.43,0,0,0,7-15.5l10.81-59.52a28.59,28.59,0,0,0,.51-5.35,25.21,25.21,0,0,0-3.27-12.75,23.73,23.73,0,0,0-9.15-8.93,27.5,27.5,0,0,0-13.5-3.28ZM1035.88,489H996.51a5.6,5.6,0,0,1-3.92-1.54l-.15-.14-.11-.17a6.16,6.16,0,0,1-.93-3.25l0-.79,9.31-51.6a6.14,6.14,0,0,1,2.39-3.75,6.59,6.59,0,0,1,4.19-1.61h39.29a5.12,5.12,0,0,1,3.63,1.47,4.85,4.85,0,0,1,1.56,3.55l0,.26-9.4,52.21a6.19,6.19,0,0,1-2.38,3.76A6.57,6.57,0,0,1,1035.88,489Zm-41.1-3.6a2.62,2.62,0,0,0,1.73.6h39.37a3.57,3.57,0,0,0,2.23-.94,3.2,3.2,0,0,0,1.3-1.93l9.38-52.08a1.81,1.81,0,0,0-.63-1.26,2.11,2.11,0,0,0-1.55-.64h-39.29a3.69,3.69,0,0,0-2.31.94,3.2,3.2,0,0,0-1.31,1.94l-9.3,51.48v.39A3.12,3.12,0,0,0,994.78,485.4Z"/><path class="cls-4" d="M1239.44,521.17H1136.08c-4.09,0-6.47-2.28-6.69-6.43a8.39,8.39,0,0,1,.11-1.38l22.15-122.19a8.85,8.85,0,0,1,3.21-5.55,9.22,9.22,0,0,1,6-2.18h97.91a32.78,32.78,0,0,1,15.93,3.83,27.81,27.81,0,0,1,11,10.58,30,30,0,0,1,3.89,15.21,33.14,33.14,0,0,1-.64,6.36l-1.89,11-.14.24h0a2.09,2.09,0,0,0,0,.55l0,.28a29.38,29.38,0,0,1-4.21,10.38,51.26,51.26,0,0,1-7.2,8.61A10,10,0,0,1,1278,453a33.67,33.67,0,0,1,3.27,5l0,.11a23.81,23.81,0,0,1,1.7,9.09,48,48,0,0,1-1,8l-2.19,12.1a38.9,38.9,0,0,1-7.63,17.09,43.74,43.74,0,0,1-14.65,12.23A39,39,0,0,1,1239.44,521.17Zm-78.58-134.73a6.24,6.24,0,0,0-4.1,1.5,5.85,5.85,0,0,0-2.15,3.73l-22.15,122.21a4.81,4.81,0,0,0-.07.78c.13,2.47,1.2,3.51,3.69,3.51h103.36a36.17,36.17,0,0,0,16.75-4.18,40.82,40.82,0,0,0,13.66-11.41,35.88,35.88,0,0,0,7.05-15.78l2.19-12.13a45,45,0,0,0,1-7.51,20.9,20.9,0,0,0-1.45-7.86,30.51,30.51,0,0,0-2.95-4.46c-1.11-1.45-2.16-2.19-3.1-2.14l-4.06.16,3-2.76a52,52,0,0,0,8.58-9.81,26.51,26.51,0,0,0,3.77-9.19,4.16,4.16,0,0,1,.32-1.64l1.81-10.59a30.22,30.22,0,0,0,.59-5.81,26.93,26.93,0,0,0-3.49-13.71,25,25,0,0,0-9.79-9.45,29.88,29.88,0,0,0-14.49-3.46Zm71,101.77h-54.14a3.91,3.91,0,0,1-3-1.37,4.22,4.22,0,0,1-1.18-2.85l0-.62,2.66-14.54a5,5,0,0,1,1.66-2.5,4.42,4.42,0,0,1,3-1.16H1235a8.36,8.36,0,0,1,6,2.45,8,8,0,0,1,2.51,5.91,24.32,24.32,0,0,1-.55,4.05c-.11.63-.2,1.12-.26,1.46a10.54,10.54,0,0,1-3.9,6.45A10.76,10.76,0,0,1,1231.88,488.21Zm-55.28-4.44V484a1.21,1.21,0,0,0,.41.84h0a.9.9,0,0,0,.73.38h54.14a7.79,7.79,0,0,0,5.06-2,7.57,7.57,0,0,0,2.86-4.63c.06-.36.15-.86.27-1.52a24.49,24.49,0,0,0,.5-3.51,5,5,0,0,0-1.61-3.76,5.38,5.38,0,0,0-3.92-1.6H1180.9a1.51,1.51,0,0,0-1,.43,2.1,2.1,0,0,0-.7,1Zm60.82-45.65H1186.7a4.23,4.23,0,0,1-4-4.05l0-.71,2.62-14.27a4.15,4.15,0,0,1,1.67-2.82,4.69,4.69,0,0,1,2.9-1.11h50.71a8.34,8.34,0,0,1,6,2.45,8,8,0,0,1,2.52,5.91,31.17,31.17,0,0,1-.64,4.65c0,.27-.06.49-.06.62l0,.29a11.83,11.83,0,0,1-11,9Zm-51.77-4.36v.31a1.3,1.3,0,0,0,1,1.05h50.72a7.89,7.89,0,0,0,5.07-2,7.78,7.78,0,0,0,2.92-4.5c0-.23,0-.53.1-.92a35.2,35.2,0,0,0,.6-4.18,5,5,0,0,0-1.61-3.76,5.38,5.38,0,0,0-3.92-1.6h-50.71a1.77,1.77,0,0,0-1,.48c-.5.38-.53.67-.53.78l0,.15Z"/><path class="cls-4" d="M1359,521.17h-23.29a7.07,7.07,0,0,1-5.24-2,6.88,6.88,0,0,1-2-5.06,8.58,8.58,0,0,1,.11-1.38l6.29-35c-.1-.87-.2-1.95-.31-3.3l-30-71.49a4.85,4.85,0,0,1-.38-1.9,5.9,5.9,0,0,1,1.86-4.37,6.31,6.31,0,0,1,4.56-1.79h29.53c3.26,0,5.56,1.48,6.67,4.29l15.34,36.44a1.43,1.43,0,0,0,.32.15.51.51,0,0,0,.29-.14l28.76-36.91a9.63,9.63,0,0,1,7.77-3.83h29.53a4.87,4.87,0,0,1,3.61,1.32,4.65,4.65,0,0,1,1.32,3.43,5.79,5.79,0,0,1-1.38,3.67l-56,71.82-1.35,3-6.38,35.06a9.39,9.39,0,0,1-3.33,5.77A9.54,9.54,0,0,1,1359,521.17Zm-48.43-123.31a3.38,3.38,0,0,0-2.47.94,2.91,2.91,0,0,0-1,2.22,1.94,1.94,0,0,0,.14.73l30.25,71.95v.24c.12,1.54.24,2.72.35,3.62l0,.23-6.37,35.47a5.57,5.57,0,0,0-.07.87,3.94,3.94,0,0,0,1.1,2.94,4.18,4.18,0,0,0,3.12,1.1H1359a6.52,6.52,0,0,0,4.32-1.54,6.42,6.42,0,0,0,2.29-4l6.45-35.43,1.75-3.81,56.16-72a2.89,2.89,0,0,0,.74-1.81,1.68,1.68,0,0,0-.44-1.31,2.07,2.07,0,0,0-1.49-.44h-29.53a6.64,6.64,0,0,0-5.42,2.7l-28.94,37.12a3.53,3.53,0,0,1-2.55,1.05,3.46,3.46,0,0,1-1.64-.49,2.94,2.94,0,0,1-1.44-1.73L1344,400.28c-.66-1.68-1.86-2.42-3.89-2.42Z"/></g><g class="cls-5"><path class="cls-1" d="M19.27,513.61,41.41,391.44a7.33,7.33,0,0,1,2.69-4.66,7.83,7.83,0,0,1,5.14-1.84h97.82a31.2,31.2,0,0,1,15.2,3.64,26.28,26.28,0,0,1,10.38,10,28.33,28.33,0,0,1,3.69,14.46,30.86,30.86,0,0,1-.62,6.06l-5.62,31.21a39.49,39.49,0,0,1-7.87,17.49,45.55,45.55,0,0,1-15.12,12.65,39.57,39.57,0,0,1-18.59,4.66l-62.75.09a3,3,0,0,0-2,.79,3.53,3.53,0,0,0-1.18,1.76L58,513.08a7.53,7.53,0,0,1-2.68,4.7,7.77,7.77,0,0,1-5.15,1.89H24.36q-4.92,0-5.18-5A6.2,6.2,0,0,1,19.27,513.61ZM135.81,425a13.06,13.06,0,0,0,.09-1.49,6.57,6.57,0,0,0-2.07-4.79,6.76,6.76,0,0,0-5-2.07H78.15a3.11,3.11,0,0,0-2,.84,2.65,2.65,0,0,0-1.1,1.8l-5.63,31.11v.44A2.71,2.71,0,0,0,72,453.4h50.71a9.21,9.21,0,0,0,6-2.33,9.38,9.38,0,0,0,3.43-5.49Z"/><path class="cls-1" d="M302.45,395.92a29.06,29.06,0,0,1,14.33,3.47,24.66,24.66,0,0,1,9.66,9.5,26.89,26.89,0,0,1,3.43,13.57,29.26,29.26,0,0,1-.53,5.54l-10.81,59.5a37,37,0,0,1-7.25,16.18,41.6,41.6,0,0,1-13.93,11.69,36.8,36.8,0,0,1-17.22,4.3H208.76a29,29,0,0,1-14.24-3.43,24.33,24.33,0,0,1-9.67-9.49,27.05,27.05,0,0,1-3.43-13.53,30.65,30.65,0,0,1,.53-5.63l10.72-59.5a36.8,36.8,0,0,1,7.3-16.17,42.13,42.13,0,0,1,14-11.69,36.82,36.82,0,0,1,17.23-4.31ZM219.83,484a3.66,3.66,0,0,0,1,2.46,3.32,3.32,0,0,0,2.6,1.14h53.7a4.94,4.94,0,0,0,3.16-1.32,4.84,4.84,0,0,0,1.85-2.9l9.31-51.5v-.62a3.6,3.6,0,0,0-3.6-3.6H234.25a5.21,5.21,0,0,0-3.26,1.27,4.68,4.68,0,0,0-1.84,2.86l-9.32,51.59Z"/><path class="cls-1" d="M552.06,399.7a4.66,4.66,0,0,1-.62,2.2L489.22,515.19a8.92,8.92,0,0,1-3.12,3.25,7.79,7.79,0,0,1-4.18,1.23H457.49a5.23,5.23,0,0,1-5.63-4.39l-11-56.25a1.84,1.84,0,0,0-.75-1.1,1.89,1.89,0,0,0-.83-.4l-.18-.08a2.1,2.1,0,0,0-1.05.3,1.58,1.58,0,0,0-.71.75l-31.55,56.78q-2.82,4.4-7.3,4.39H374.08a5.24,5.24,0,0,1-5.62-4.48L347.19,401.9l-.09-.7a4.49,4.49,0,0,1,1.36-3.3,4.8,4.8,0,0,1,3.56-1.36h28.83a5.22,5.22,0,0,1,5.62,4.39l11.08,57.39a1.74,1.74,0,0,0,.79,1.1,2,2,0,0,0,.88.4l.09.09a2,2,0,0,0,1.75-.88l32-58.36q2.71-4.4,7.29-4.4h20c3.16,0,5,1.47,5.62,4.4l10.81,57.65a1.65,1.65,0,0,0,.84,1.15,2.5,2.5,0,0,0,1,.35,1.63,1.63,0,0,0,1.76-1.06l32.08-57.83c1.81-3,4.25-4.48,7.29-4.48h28.92a3.07,3.07,0,0,1,2.9,1.58A3.45,3.45,0,0,1,552.06,399.7Z"/><path class="cls-1" d="M678.45,396.1c2.22,0,3.37,1.11,3.42,3.34a3,3,0,0,1-.08.61l-4.22,23.38a4.94,4.94,0,0,1-1.67,2.95,4.81,4.81,0,0,1-3.17,1.09H600.4a2,2,0,0,0-1.1.53,1.44,1.44,0,0,0-.66,1.06l-2.55,14.15h59.68a3.05,3.05,0,0,1,3.43,3.25,2.8,2.8,0,0,1-.09.7l-3.87,21.36a5.05,5.05,0,0,1-1.67,3,4.67,4.67,0,0,1-3.16,1.14H592.23a2,2,0,0,0-1.1.53,1.42,1.42,0,0,0-.66,1.05l-2.38,13.27h73.83a3.48,3.48,0,0,1,2.55.88,3.21,3.21,0,0,1,.88,2.38,2.8,2.8,0,0,1-.09.7L661,515.63a4.44,4.44,0,0,1-1.63,2.94,4.92,4.92,0,0,1-3.21,1.1H552.06a5.78,5.78,0,0,1-4.22-1.54,5.43,5.43,0,0,1-1.58-4.08,6.32,6.32,0,0,1,.09-1.06L566.3,403a8.12,8.12,0,0,1,2.85-4.87,7.89,7.89,0,0,1,5.23-2Z"/><path class="cls-1" d="M798.24,396.27a29.15,29.15,0,0,1,14.24,3.43,24.53,24.53,0,0,1,9.67,9.41,26.91,26.91,0,0,1,3.42,13.62,30.53,30.53,0,0,1-.52,5.62l-5.1,28a36.23,36.23,0,0,1-7.51,16.44,43.27,43.27,0,0,1-14.73,11.86c-.29.12-.44.25-.44.4s.27,0,.8-.31L811.25,512a4.59,4.59,0,0,1,.7,2.46,4.72,4.72,0,0,1-1.36,3.42,4.84,4.84,0,0,1-3.65,1.41c-4.33,0-9.26.06-14.76.18q-7.39.07-12.48.08a27.47,27.47,0,0,1-7.08-.61,5,5,0,0,1-3-2.64l-13.1-25.84a3.71,3.71,0,0,0-3.25-1.93l-28.21.09a1.59,1.59,0,0,0-1,.39,2.09,2.09,0,0,0-.66.84l-4.22,23a7.9,7.9,0,0,1-2.81,4.88,8.07,8.07,0,0,1-5.28,1.89H687.76a5.6,5.6,0,0,1-4.17-1.54,5.37,5.37,0,0,1-1.54-4,6.84,6.84,0,0,1,.09-1.14l20-109.95a8.06,8.06,0,0,1,2.81-4.83,7.91,7.91,0,0,1,5.27-1.94Zm-11.16,36.92a7.93,7.93,0,0,0,.09-1.15,4.89,4.89,0,0,0-1.54-3.55,5.18,5.18,0,0,0-3.82-1.54H736.28a1.78,1.78,0,0,0-1.06.39,2.06,2.06,0,0,0-.7.84L729.16,458l47.11-.09A7.21,7.21,0,0,0,781,456a7.65,7.65,0,0,0,2.73-4.31Z"/><path class="cls-1" d="M964.35,396.1q3.35,0,3.43,3.34a2.5,2.5,0,0,1-.09.61l-4.21,23.38a5,5,0,0,1-1.67,2.95,4.81,4.81,0,0,1-3.17,1.09H886.31a2,2,0,0,0-1.1.53,1.44,1.44,0,0,0-.66,1.06L882,443.21h59.68a3.05,3.05,0,0,1,3.43,3.25,2.8,2.8,0,0,1-.09.7l-3.87,21.36a5.05,5.05,0,0,1-1.67,3,4.67,4.67,0,0,1-3.16,1.14H878.13a2,2,0,0,0-1.1.53,1.44,1.44,0,0,0-.65,1.05L874,487.5h73.83a3.49,3.49,0,0,1,2.55.88,3.25,3.25,0,0,1,.88,2.38,2.8,2.8,0,0,1-.09.7l-4.31,24.17a4.39,4.39,0,0,1-1.62,2.94,4.92,4.92,0,0,1-3.21,1.1H838a5.77,5.77,0,0,1-4.22-1.54,5.39,5.39,0,0,1-1.58-4.08,7.56,7.56,0,0,1,.08-1.06l20-110a8.12,8.12,0,0,1,2.85-4.87,7.87,7.87,0,0,1,5.23-2Z"/><path class="cls-1" d="M1078.88,395.92a28.81,28.81,0,0,1,14.23,3.47,25.08,25.08,0,0,1,9.72,9.5,26.55,26.55,0,0,1,3.47,13.49,30.55,30.55,0,0,1-.53,5.62L1095,487.5a35.81,35.81,0,0,1-7.25,16.18,42.51,42.51,0,0,1-14,11.69,36.81,36.81,0,0,1-17.23,4.3H973.67a5.6,5.6,0,0,1-4.17-1.54,5.37,5.37,0,0,1-1.54-4,6.84,6.84,0,0,1,.09-1.14l20-110.3a8.36,8.36,0,0,1,8.08-6.77Zm-64.69,91.58h39.37a5.05,5.05,0,0,0,3.17-1.27,4.66,4.66,0,0,0,1.84-2.86l9.41-52.2a3.31,3.31,0,0,0-1.1-2.46,3.6,3.6,0,0,0-2.59-1.06H1025a5.18,5.18,0,0,0-3.25,1.27,4.7,4.7,0,0,0-1.85,2.86l-9.32,51.59v.53a4.6,4.6,0,0,0,.71,2.46A4.11,4.11,0,0,0,1014.19,487.5Z"/><path class="cls-1" d="M1153.76,519.67q-4.92,0-5.19-5a6.2,6.2,0,0,1,.09-1l22.15-122.17a7.32,7.32,0,0,1,2.68-4.66,7.73,7.73,0,0,1,5-1.84h97.91a31.21,31.21,0,0,1,15.21,3.64,26.25,26.25,0,0,1,10.37,10,28.33,28.33,0,0,1,3.69,14.46,31.61,31.61,0,0,1-.61,6.06l-1.85,10.82a2.55,2.55,0,0,0-.26,1.31,28,28,0,0,1-4,9.85,53.68,53.68,0,0,1-8.84,10.11c1.47-.06,2.92.84,4.35,2.72a30.82,30.82,0,0,1,3.12,4.75,22.18,22.18,0,0,1,1.59,8.52,46.06,46.06,0,0,1-1,7.74l-2.2,12.12a37.11,37.11,0,0,1-7.34,16.44,42,42,0,0,1-14.15,11.82,37.42,37.42,0,0,1-17.44,4.35Zm39.81-33.84a2.42,2.42,0,0,0,1.85.88h54.14a9.31,9.31,0,0,0,6-2.37,9.06,9.06,0,0,0,3.38-5.54c.06-.35.15-.85.27-1.49a27.45,27.45,0,0,0,.52-3.78,6.52,6.52,0,0,0-2.06-4.83,6.85,6.85,0,0,0-5-2h-54.14a3,3,0,0,0-2,.79,3.53,3.53,0,0,0-1.19,1.76l-2.64,14.42V484A2.75,2.75,0,0,0,1193.57,485.83Zm9.06-50a2.42,2.42,0,0,0,1.75.8h50.72a10.32,10.32,0,0,0,9.49-7.83,7.08,7.08,0,0,1,.09-.88,36,36,0,0,0,.61-4.39,6.52,6.52,0,0,0-2.06-4.83,6.86,6.86,0,0,0-5-2h-50.71a3.21,3.21,0,0,0-2,.8,2.6,2.6,0,0,0-1.1,1.84l-2.64,14.33v.44A2.42,2.42,0,0,0,1202.63,435.82Z"/><path class="cls-1" d="M1392.64,474.32l-1.49,3.34-6.42,35.24a7.85,7.85,0,0,1-2.81,4.88,8,8,0,0,1-5.27,1.89h-23.29a5.64,5.64,0,0,1-4.18-1.54,5.41,5.41,0,0,1-1.54-4,6.84,6.84,0,0,1,.09-1.14l6.33-35.24c-.12-.94-.23-2.17-.35-3.69l-30.15-71.72a3.41,3.41,0,0,1-.26-1.32,4.42,4.42,0,0,1,1.41-3.3,4.85,4.85,0,0,1,3.51-1.36h29.53q4,0,5.28,3.34l15.29,36.3a1.44,1.44,0,0,0,.75.92,1.86,1.86,0,0,0,2.41-.3l28.83-37a8.18,8.18,0,0,1,6.59-3.25h29.53a3.46,3.46,0,0,1,2.55.88,3.2,3.2,0,0,1,.88,2.37,4.34,4.34,0,0,1-1,2.73Z"/></g><g class="cls-5"><path class="cls-4" d="M50.2,521.17H24.36c-4.09,0-6.46-2.28-6.68-6.43a7.42,7.42,0,0,1,.11-1.38v0L39.94,391.17a8.79,8.79,0,0,1,3.2-5.55,9.37,9.37,0,0,1,6.1-2.18h97.82A32.71,32.71,0,0,1,163,387.27a27.81,27.81,0,0,1,11,10.58,29.87,29.87,0,0,1,3.9,15.21,32.38,32.38,0,0,1-.65,6.36l-5.62,31.17a41,41,0,0,1-8.15,18.15A47.48,47.48,0,0,1,147.8,481.8a41.28,41.28,0,0,1-19.29,4.83l-62.75.09a1.46,1.46,0,0,0-1,.43,2.07,2.07,0,0,0-.7,1L59.5,513.35a8.94,8.94,0,0,1-3.19,5.58A9.22,9.22,0,0,1,50.2,521.17Zm-29.46-7.31a5.49,5.49,0,0,0-.06.8c.13,2.47,1.2,3.51,3.68,3.51H50.2a6.26,6.26,0,0,0,4.18-1.53,6,6,0,0,0,2.16-3.79l4.61-25.48a5,5,0,0,1,1.66-2.5,4.46,4.46,0,0,1,3-1.15l62.75-.09a38.31,38.31,0,0,0,17.9-4.49A44.26,44.26,0,0,0,161,466.9a38.15,38.15,0,0,0,7.58-16.83l5.63-31.21a30,30,0,0,0,.59-5.8,27,27,0,0,0-3.49-13.71,25,25,0,0,0-9.8-9.45,29.84,29.84,0,0,0-14.48-3.46H49.24a6.36,6.36,0,0,0-4.19,1.5,5.8,5.8,0,0,0-2.15,3.73Zm102-59H72a4.21,4.21,0,0,1-4-4l0-.7,5.61-31.06a4.15,4.15,0,0,1,1.63-2.75,4.61,4.61,0,0,1,2.93-1.18h50.72a8.26,8.26,0,0,1,6,2.51,8.06,8.06,0,0,1,2.51,5.85,14.16,14.16,0,0,1-.1,1.66v.1l-3.7,20.56a11.68,11.68,0,0,1-10.88,9.06ZM71,450.55v.3a1,1,0,0,0,.35.7,1,1,0,0,0,.7.35h50.71a7.72,7.72,0,0,0,5-2,7.86,7.86,0,0,0,2.92-4.63l3.67-20.49a12,12,0,0,0,.08-1.28,5.11,5.11,0,0,0-1.63-3.73,5.29,5.29,0,0,0-3.9-1.63H78.15a1.88,1.88,0,0,0-1,.49,1.45,1.45,0,0,0-.56.78l0,.14Z"/><path class="cls-4" d="M280.13,521.17H208.76a30.66,30.66,0,0,1-15-3.61,25.86,25.86,0,0,1-10.25-10.07,28.54,28.54,0,0,1-3.63-14.27,31.77,31.77,0,0,1,.56-5.9l10.72-59.5A38.36,38.36,0,0,1,198.78,411a43.78,43.78,0,0,1,14.47-12.1,38.47,38.47,0,0,1,17.92-4.48h71.28a30.54,30.54,0,0,1,15.05,3.66,26.3,26.3,0,0,1,10.25,10.06,28.64,28.64,0,0,1,3.62,14.32,31.39,31.39,0,0,1-.55,5.82L320,487.77a38.63,38.63,0,0,1-7.54,16.82,43.33,43.33,0,0,1-14.42,12.11A38.46,38.46,0,0,1,280.13,521.17Zm-49-123.75a35.4,35.4,0,0,0-16.53,4.14,40.66,40.66,0,0,0-13.48,11.28,35.33,35.33,0,0,0-7,15.52l-10.72,59.5a28.61,28.61,0,0,0-.51,5.36A25.6,25.6,0,0,0,186.16,506a22.92,22.92,0,0,0,9.08,8.92,27.78,27.78,0,0,0,13.52,3.24h71.37A35.54,35.54,0,0,0,296.66,514a40.38,40.38,0,0,0,13.43-11.28,35.65,35.65,0,0,0,7-15.52l10.81-59.51a29,29,0,0,0,.5-5.27,25.6,25.6,0,0,0-3.23-12.83,23.44,23.44,0,0,0-9.09-8.93,27.73,27.73,0,0,0-13.6-3.28Zm46,91.67h-53.7a4.82,4.82,0,0,1-3.72-1.65,5.1,5.1,0,0,1-1.39-3.45l0-.88,9.31-51.6a6.17,6.17,0,0,1,2.38-3.75,6.63,6.63,0,0,1,4.2-1.61h53.61a5,5,0,0,1,3.61,1.49,5,5,0,0,1,1.49,3.61l0,.89-9.32,51.5a6.31,6.31,0,0,1-2.36,3.79A6.42,6.42,0,0,1,277.14,489.09Zm-55.81-5.58V484a2.17,2.17,0,0,0,.64,1.46,1.78,1.78,0,0,0,1.47.64h53.7a3.5,3.5,0,0,0,2.2-1,3.42,3.42,0,0,0,1.33-2l9.29-51.4v-.48a2.1,2.1,0,0,0-2.1-2.1H234.25a3.67,3.67,0,0,0-2.31.94,3.2,3.2,0,0,0-1.31,1.94Z"/><path class="cls-4" d="M481.92,521.17H457.49a6.68,6.68,0,0,1-7.08-5.54l-11-56.32a.37.37,0,0,0-.13-.15l-.2-.13-.19,0-.07,0a.27.27,0,0,0-.1.07l-.05.11L407.12,516c-2.21,3.45-5.09,5.16-8.61,5.16H374.08a6.69,6.69,0,0,1-7.08-5.64L345.71,402.17l-.11-1a5.93,5.93,0,0,1,1.8-4.36A6.25,6.25,0,0,1,352,395h28.83c3.76,0,6.21,1.91,7.08,5.54L399,458s0,.06.13.12l.26.16h.28a.32.32,0,0,0,.1-.1L431.74,400c2.14-3.46,5-5.18,8.61-5.18h20c3.85,0,6.37,2,7.09,5.6l10.82,57.68c0,.07,0,.08.06.09a4.1,4.1,0,0,0,.38.18.84.84,0,0,0,.3-.05l.08-.23L511.2,400.2c2.12-3.5,5-5.25,8.6-5.25h28.92a4.52,4.52,0,0,1,4.21,2.35,4.86,4.86,0,0,1,.63,2.4,6.12,6.12,0,0,1-.8,2.91l-62.23,113.3a10.45,10.45,0,0,1-3.64,3.8A9.25,9.25,0,0,1,481.92,521.17Zm-42.16-65.08a3.79,3.79,0,0,1,1.22.6,3.31,3.31,0,0,1,1.35,2l11,56.33c.52,2.18,1.81,3.18,4.15,3.18h24.43a6.27,6.27,0,0,0,3.38-1,7.32,7.32,0,0,0,2.61-2.72l62.22-113.27a3.24,3.24,0,0,0,.43-1.48,1.87,1.87,0,0,0-.25-.94,1.57,1.57,0,0,0-1.59-.81H519.8c-2.51,0-4.47,1.23-6,3.76l-32,57.68a3.12,3.12,0,0,1-3.13,1.93,3.72,3.72,0,0,1-1.72-.53,3.08,3.08,0,0,1-1.59-2.14l-10.82-57.71c-.44-2.21-1.69-3.17-4.15-3.17h-20c-2.51,0-4.48,1.21-6,3.69l-32,58.43a3.5,3.5,0,0,1-3,1.52h-.63l-.23-.24a4.17,4.17,0,0,1-.92-.49,3.27,3.27,0,0,1-1.44-2L385,401.22c-.52-2.18-1.81-3.18-4.15-3.18H352a3.35,3.35,0,0,0-2.5.92,3,3,0,0,0-.92,2.15l.07.6,21.26,113.2a3.76,3.76,0,0,0,4.15,3.26h24.43c2.47,0,4.44-1.21,6-3.7L436,457.84a3.07,3.07,0,0,1,1.3-1.38,3.55,3.55,0,0,1,1.81-.51h.35Z"/><path class="cls-4" d="M656.12,521.17H552.06a7.29,7.29,0,0,1-5.27-2,6.9,6.9,0,0,1-2-5.16,7.06,7.06,0,0,1,.11-1.3l20-110.06a9.71,9.71,0,0,1,3.36-5.76,9.37,9.37,0,0,1,6.2-2.33H678.45c3,0,4.84,1.75,4.92,4.8a4.06,4.06,0,0,1-.13,1L679,423.7a6.36,6.36,0,0,1-2.18,3.83,6.26,6.26,0,0,1-4.13,1.44H600.52a2.88,2.88,0,0,0-.28.2l-.11.1v.05l-2.23,12.39h57.88a4.53,4.53,0,0,1,4.93,4.67,5,5,0,0,1-.13,1.14l-3.85,21.27a6.53,6.53,0,0,1-2.17,3.85,6.14,6.14,0,0,1-4.14,1.51H592.35a2.62,2.62,0,0,0-.29.2l-.11.1L589.89,486h72a4.91,4.91,0,0,1,3.61,1.32,4.66,4.66,0,0,1,1.32,3.44,4.33,4.33,0,0,1-.13,1.06l-4.29,24.07a5.85,5.85,0,0,1-2.16,3.85A6.44,6.44,0,0,1,656.12,521.17ZM574.38,397.6a6.34,6.34,0,0,0-4.25,1.62,6.61,6.61,0,0,0-2.36,4l-19.95,110a5.06,5.06,0,0,0-.06.79,4,4,0,0,0,1.13,3,4.3,4.3,0,0,0,3.17,1.11H656.12a3.5,3.5,0,0,0,2.27-.76,3,3,0,0,0,1.08-2l4.32-24.22a1.83,1.83,0,0,0,.06-.44,1.69,1.69,0,0,0-.44-1.32,2.07,2.07,0,0,0-1.49-.44H586.3L589,474.07a2.87,2.87,0,0,1,1.22-2.06,3.29,3.29,0,0,1,2-.86h58.18a3.15,3.15,0,0,0,2.18-.78,3.55,3.55,0,0,0,1.18-2.13l3.86-21.35a1.84,1.84,0,0,0,.07-.43c-.07-1.29-.56-1.75-1.93-1.75H594.3l2.85-15.82a2.9,2.9,0,0,1,1.21-2.06,3.29,3.29,0,0,1,2-.86h72.33a3.29,3.29,0,0,0,2.21-.75,3.36,3.36,0,0,0,1.15-2.07l4.22-23.36a2.06,2.06,0,0,0,.06-.35c0-1.37-.52-1.84-1.92-1.84Z"/><path class="cls-4" d="M711.05,521.17H687.76a7.07,7.07,0,0,1-5.23-2,6.84,6.84,0,0,1-2-5.06,8.58,8.58,0,0,1,.11-1.38l20-110a9.58,9.58,0,0,1,3.32-5.71,9.43,9.43,0,0,1,6.24-2.29h88.07a30.66,30.66,0,0,1,15,3.62,26.08,26.08,0,0,1,10.25,10,28.56,28.56,0,0,1,3.62,14.37,31.84,31.84,0,0,1-.55,5.9l-5.09,28a38,38,0,0,1-7.82,17.1,44.74,44.74,0,0,1-13.67,11.46l12.63,26.09a6.37,6.37,0,0,1-.9,7.65,6.34,6.34,0,0,1-4.73,1.86c-4.3,0-9.26.06-14.73.18-4.92,0-9.13.08-12.51.08a28.31,28.31,0,0,1-7.53-.68,6.51,6.51,0,0,1-3.91-3.37l-13.07-25.79a2.17,2.17,0,0,0-2-1.18l-28.2.09-.07.05a1.61,1.61,0,0,0-.18.17l-4.18,22.8a9.39,9.39,0,0,1-3.33,5.77A9.54,9.54,0,0,1,711.05,521.17Zm-.88-123.4a6.42,6.42,0,0,0-4.3,1.58,6.55,6.55,0,0,0-2.31,4l-19.95,110a5.66,5.66,0,0,0-.06.87,3.94,3.94,0,0,0,1.1,2.94,4.17,4.17,0,0,0,3.11,1.1h23.29a6.52,6.52,0,0,0,4.32-1.54,6.42,6.42,0,0,0,2.29-4L722,489.32a3.62,3.62,0,0,1,1.1-1.44,3.06,3.06,0,0,1,2-.73l28.21-.09a5.18,5.18,0,0,1,4.52,2.63l.07.12,13.1,25.84a3.54,3.54,0,0,0,2.14,1.89,25.21,25.21,0,0,0,6.63.54c3.37,0,7.57,0,12.46-.08,5.48-.12,10.45-.18,14.78-.18a3.38,3.38,0,0,0,2.57-1,3.23,3.23,0,0,0,.94-2.38,3.15,3.15,0,0,0-.48-1.68l-.07-.13-12.59-26a1.66,1.66,0,0,1-.72-.18l-.79-.43,0-1a1.89,1.89,0,0,1,1.32-1.76,42,42,0,0,0,14.17-11.44,34.84,34.84,0,0,0,7.21-15.76l5.1-28.05a28.57,28.57,0,0,0,.5-5.35,25.57,25.57,0,0,0-3.22-12.88,23.19,23.19,0,0,0-9.09-8.83,27.68,27.68,0,0,0-13.52-3.25Zm17.19,61.71,5.77-31.86a3.51,3.51,0,0,1,1.19-1.48,3.25,3.25,0,0,1,2-.69h45.53a6.67,6.67,0,0,1,4.88,2,6.39,6.39,0,0,1,2,4.62,9.67,9.67,0,0,1-.11,1.36v.05L785.21,452a9.21,9.21,0,0,1-3.23,5.19,8.73,8.73,0,0,1-5.71,2.19ZM736,428.69l-5,27.78,45.32-.09a5.71,5.71,0,0,0,3.78-1.49,6.18,6.18,0,0,0,2.22-3.47L785.6,433a7.86,7.86,0,0,0,.07-.91,3.4,3.4,0,0,0-1.1-2.49,3.72,3.72,0,0,0-2.76-1.1H736.28a.5.5,0,0,0-.16.09Z"/><path class="cls-4" d="M942,521.17H838a7.28,7.28,0,0,1-5.27-2,6.9,6.9,0,0,1-2-5.16,8,8,0,0,1,.1-1.3l20-110.06a9.62,9.62,0,0,1,3.36-5.76,9.35,9.35,0,0,1,6.2-2.33H964.35c3.06,0,4.85,1.75,4.93,4.8a4.06,4.06,0,0,1-.13,1L965,423.7a6.41,6.41,0,0,1-2.18,3.83,6.26,6.26,0,0,1-4.13,1.44H886.43a2.88,2.88,0,0,0-.28.2l-.11.1v.05l-2.24,12.39h57.89a4.52,4.52,0,0,1,4.92,4.67,4.06,4.06,0,0,1-.13,1.14l-3.84,21.27a6.53,6.53,0,0,1-2.17,3.85,6.14,6.14,0,0,1-4.14,1.51H878.26a2.62,2.62,0,0,0-.29.2l-.11.1L875.79,486h72a4.93,4.93,0,0,1,3.61,1.32,4.66,4.66,0,0,1,1.32,3.44,4.88,4.88,0,0,1-.13,1.06l-4.29,24.07a5.85,5.85,0,0,1-2.16,3.85A6.44,6.44,0,0,1,942,521.17ZM860.29,397.6a6.38,6.38,0,0,0-4.26,1.62,6.64,6.64,0,0,0-2.35,4l-19.95,110a5.06,5.06,0,0,0-.06.79,4,4,0,0,0,1.12,3,4.34,4.34,0,0,0,3.18,1.11H942a3.5,3.5,0,0,0,2.27-.76,3,3,0,0,0,1.08-2l4.31-24.22a2,2,0,0,0,.07-.44,1.69,1.69,0,0,0-.44-1.32,2.07,2.07,0,0,0-1.49-.44H872.21l2.67-14.93A2.87,2.87,0,0,1,876.1,472a3.26,3.26,0,0,1,2-.86h58.19a3.15,3.15,0,0,0,2.18-.78,3.55,3.55,0,0,0,1.18-2.13l3.86-21.35a1.84,1.84,0,0,0,.07-.43c-.08-1.29-.56-1.75-1.93-1.75H880.21l2.85-15.82a2.9,2.9,0,0,1,1.21-2.06,3.29,3.29,0,0,1,2-.86h72.33a3.25,3.25,0,0,0,2.2-.75,3.37,3.37,0,0,0,1.16-2.07l4.22-23.36a2.06,2.06,0,0,0,.06-.35c0-1.37-.52-1.84-1.93-1.84Z"/><path class="cls-4" d="M1056.46,521.17H973.67a7.1,7.1,0,0,1-5.24-2,6.87,6.87,0,0,1-2-5.06,7.57,7.57,0,0,1,.11-1.38l19.95-110.33a9.87,9.87,0,0,1,9.56-8h82.8a30.36,30.36,0,0,1,15,3.66,26.68,26.68,0,0,1,10.29,10.06,28.15,28.15,0,0,1,3.67,14.24,31.85,31.85,0,0,1-.56,5.9l-10.8,59.49a37.56,37.56,0,0,1-7.55,16.83,44.12,44.12,0,0,1-14.51,12.1A38.4,38.4,0,0,1,1056.46,521.17ZM996.08,397.42a6.86,6.86,0,0,0-6.61,5.54l-20,110.3a5.66,5.66,0,0,0-.06.87,3.94,3.94,0,0,0,1.1,2.94,4.14,4.14,0,0,0,3.11,1.1h82.79A35.55,35.55,0,0,0,1073,514a41.26,41.26,0,0,0,13.53-11.29,34.43,34.43,0,0,0,7-15.5l10.81-59.52a28.59,28.59,0,0,0,.51-5.35,25.21,25.21,0,0,0-3.27-12.75,23.73,23.73,0,0,0-9.15-8.93,27.5,27.5,0,0,0-13.5-3.28ZM1053.56,489h-39.37a5.6,5.6,0,0,1-3.92-1.54l-.15-.14-.11-.17a6.16,6.16,0,0,1-.93-3.25l0-.79,9.31-51.6a6.14,6.14,0,0,1,2.39-3.75,6.59,6.59,0,0,1,4.19-1.61h39.29a5.12,5.12,0,0,1,3.63,1.47,4.85,4.85,0,0,1,1.56,3.55l0,.26-9.4,52.21a6.14,6.14,0,0,1-2.38,3.76A6.57,6.57,0,0,1,1053.56,489Zm-41.1-3.6a2.62,2.62,0,0,0,1.73.6h39.37a3.57,3.57,0,0,0,2.23-.94,3.2,3.2,0,0,0,1.3-1.93l9.38-52.08a1.81,1.81,0,0,0-.63-1.26,2.11,2.11,0,0,0-1.55-.64H1025a3.69,3.69,0,0,0-2.31.94,3.2,3.2,0,0,0-1.31,1.94l-9.3,51.48v.39A3.12,3.12,0,0,0,1012.46,485.4Z"/><path class="cls-4" d="M1257.12,521.17H1153.76c-4.09,0-6.47-2.28-6.69-6.43a8.39,8.39,0,0,1,.11-1.38l22.15-122.19a8.85,8.85,0,0,1,3.21-5.55,9.22,9.22,0,0,1,6-2.18h97.91a32.78,32.78,0,0,1,15.93,3.83,27.87,27.87,0,0,1,10.95,10.58,30,30,0,0,1,3.89,15.21,33.14,33.14,0,0,1-.64,6.36l-1.89,11-.14.24h0a2.09,2.09,0,0,0,0,.55l0,.28a29.38,29.38,0,0,1-4.21,10.38,51.26,51.26,0,0,1-7.2,8.61,10,10,0,0,1,2.65,2.5,33.67,33.67,0,0,1,3.27,5l0,.11a23.81,23.81,0,0,1,1.7,9.09,48,48,0,0,1-1,8l-2.19,12.1a38.9,38.9,0,0,1-7.63,17.09,43.74,43.74,0,0,1-14.65,12.23A39,39,0,0,1,1257.12,521.17Zm-78.58-134.73a6.24,6.24,0,0,0-4.1,1.5,5.85,5.85,0,0,0-2.15,3.73l-22.15,122.21a4.81,4.81,0,0,0-.07.78c.13,2.47,1.2,3.51,3.69,3.51h103.36a36.17,36.17,0,0,0,16.75-4.18,40.82,40.82,0,0,0,13.66-11.41,35.88,35.88,0,0,0,7-15.78l2.19-12.13a45,45,0,0,0,1-7.51,20.9,20.9,0,0,0-1.45-7.86,30.51,30.51,0,0,0-3-4.46c-1.11-1.45-2.15-2.19-3.1-2.14l-4.06.16,3-2.76a52,52,0,0,0,8.58-9.81,26.51,26.51,0,0,0,3.77-9.19,4.16,4.16,0,0,1,.32-1.64l1.81-10.59a30.22,30.22,0,0,0,.59-5.81,26.93,26.93,0,0,0-3.49-13.71,25,25,0,0,0-9.79-9.45,29.88,29.88,0,0,0-14.49-3.46Zm71,101.77h-54.14a3.91,3.91,0,0,1-3-1.37,4.22,4.22,0,0,1-1.18-2.85l0-.62,2.66-14.54a5,5,0,0,1,1.66-2.5,4.42,4.42,0,0,1,2.95-1.16h54.14a8.36,8.36,0,0,1,6,2.45,8,8,0,0,1,2.51,5.91,24.32,24.32,0,0,1-.55,4.05c-.11.63-.2,1.12-.26,1.46a10.54,10.54,0,0,1-3.9,6.45A10.76,10.76,0,0,1,1249.56,488.21Zm-55.28-4.44V484a1.21,1.21,0,0,0,.41.84h0a.9.9,0,0,0,.73.38h54.14a7.79,7.79,0,0,0,5.06-2,7.57,7.57,0,0,0,2.86-4.63c.06-.36.15-.86.27-1.52a24.49,24.49,0,0,0,.5-3.51,5,5,0,0,0-1.61-3.76,5.38,5.38,0,0,0-3.92-1.6h-54.14a1.51,1.51,0,0,0-1,.43,2.1,2.1,0,0,0-.7,1Zm60.82-45.65h-50.72a4.23,4.23,0,0,1-4.05-4.05l0-.71,2.62-14.27a4.16,4.16,0,0,1,1.66-2.82,4.74,4.74,0,0,1,2.91-1.11h50.71a8.34,8.34,0,0,1,6,2.45,8,8,0,0,1,2.52,5.91,31.17,31.17,0,0,1-.64,4.65c0,.27-.06.49-.06.62l0,.29a11.83,11.83,0,0,1-11,9Zm-51.77-4.36v.31a1.3,1.3,0,0,0,1.05,1.05h50.72a7.89,7.89,0,0,0,5.07-2,7.78,7.78,0,0,0,2.92-4.5c0-.23.05-.53.1-.92a35.2,35.2,0,0,0,.6-4.18,5,5,0,0,0-1.61-3.76,5.38,5.38,0,0,0-3.92-1.6h-50.71a1.82,1.82,0,0,0-1.06.48c-.49.38-.52.67-.52.78l0,.15Z"/><path class="cls-4" d="M1376.65,521.17h-23.29a7.07,7.07,0,0,1-5.24-2,6.88,6.88,0,0,1-2-5.06,8.58,8.58,0,0,1,.11-1.38l6.29-35c-.1-.87-.2-1.95-.31-3.3l-30-71.49a4.85,4.85,0,0,1-.38-1.9,5.9,5.9,0,0,1,1.86-4.37,6.31,6.31,0,0,1,4.56-1.79h29.53c3.26,0,5.56,1.48,6.67,4.29l15.34,36.44a1.43,1.43,0,0,0,.32.15.51.51,0,0,0,.29-.14l28.76-36.91a9.62,9.62,0,0,1,7.77-3.83h29.53a4.87,4.87,0,0,1,3.61,1.32,4.65,4.65,0,0,1,1.32,3.43,5.79,5.79,0,0,1-1.38,3.67l-56,71.82-1.35,3-6.38,35.06a9.39,9.39,0,0,1-3.33,5.77A9.54,9.54,0,0,1,1376.65,521.17Zm-48.43-123.31a3.38,3.38,0,0,0-2.47.94,2.91,2.91,0,0,0-1,2.22,1.94,1.94,0,0,0,.14.73l30.25,71.95v.24c.12,1.54.24,2.72.35,3.62l0,.23-6.37,35.47a5.57,5.57,0,0,0-.07.87,3.94,3.94,0,0,0,1.1,2.94,4.18,4.18,0,0,0,3.12,1.1h23.29a6.52,6.52,0,0,0,4.32-1.54,6.42,6.42,0,0,0,2.29-4l6.45-35.43,1.75-3.81,56.16-72a2.89,2.89,0,0,0,.74-1.81,1.68,1.68,0,0,0-.44-1.31,2.07,2.07,0,0,0-1.49-.44H1416.9a6.64,6.64,0,0,0-5.42,2.7l-28.94,37.12a3.53,3.53,0,0,1-2.55,1.05,3.46,3.46,0,0,1-1.64-.49,2.94,2.94,0,0,1-1.44-1.73l-15.27-36.23c-.66-1.68-1.86-2.42-3.89-2.42Z"/></g><g class="cls-5"><path class="cls-2" d="M40,513.61,62.14,391.44a7.33,7.33,0,0,1,2.69-4.66A7.83,7.83,0,0,1,70,384.94h97.82a31.2,31.2,0,0,1,15.2,3.64,26.28,26.28,0,0,1,10.38,10,28.33,28.33,0,0,1,3.69,14.46,30.86,30.86,0,0,1-.62,6.06l-5.62,31.21A39.49,39.49,0,0,1,183,467.82a45.55,45.55,0,0,1-15.12,12.65,39.57,39.57,0,0,1-18.59,4.66l-62.75.09a3,3,0,0,0-2,.79,3.53,3.53,0,0,0-1.18,1.76l-4.57,25.31a7.53,7.53,0,0,1-2.68,4.7,7.77,7.77,0,0,1-5.15,1.89H45.09q-4.92,0-5.18-5A6.2,6.2,0,0,1,40,513.61ZM156.54,425a13.06,13.06,0,0,0,.09-1.49,6.57,6.57,0,0,0-2.07-4.79,6.76,6.76,0,0,0-5-2.07H98.88a3.11,3.11,0,0,0-2,.84,2.65,2.65,0,0,0-1.1,1.8l-5.63,31.11v.44a2.71,2.71,0,0,0,2.55,2.55h50.71a9.21,9.21,0,0,0,6-2.33,9.38,9.38,0,0,0,3.43-5.49Z"/><path class="cls-2" d="M323.18,395.92a29.06,29.06,0,0,1,14.33,3.47,24.66,24.66,0,0,1,9.66,9.5,26.89,26.89,0,0,1,3.43,13.57,29.26,29.26,0,0,1-.53,5.54l-10.81,59.5A37,37,0,0,1,332,503.68a41.6,41.6,0,0,1-13.93,11.69,36.8,36.8,0,0,1-17.22,4.3H229.49a29,29,0,0,1-14.24-3.43,24.33,24.33,0,0,1-9.67-9.49,27.05,27.05,0,0,1-3.43-13.53,30.65,30.65,0,0,1,.53-5.63l10.72-59.5a36.8,36.8,0,0,1,7.3-16.17,42.13,42.13,0,0,1,14-11.69,36.82,36.82,0,0,1,17.23-4.31ZM240.56,484a3.66,3.66,0,0,0,1,2.46,3.32,3.32,0,0,0,2.6,1.14h53.7a4.94,4.94,0,0,0,3.16-1.32,4.84,4.84,0,0,0,1.85-2.9l9.31-51.5v-.62a3.6,3.6,0,0,0-3.6-3.6H255a5.21,5.21,0,0,0-3.26,1.27,4.68,4.68,0,0,0-1.84,2.86l-9.32,51.59Z"/><path class="cls-2" d="M572.79,399.7a4.66,4.66,0,0,1-.62,2.2L510,515.19a8.92,8.92,0,0,1-3.12,3.25,7.79,7.79,0,0,1-4.18,1.23H478.22a5.23,5.23,0,0,1-5.63-4.39l-11-56.25a1.84,1.84,0,0,0-.75-1.1,1.89,1.89,0,0,0-.83-.4l-.18-.08a2.16,2.16,0,0,0-1.06.3,1.61,1.61,0,0,0-.7.75l-31.55,56.78q-2.82,4.4-7.3,4.39H394.81a5.24,5.24,0,0,1-5.62-4.48L367.92,401.9l-.09-.7a4.49,4.49,0,0,1,1.36-3.3,4.8,4.8,0,0,1,3.56-1.36h28.83a5.22,5.22,0,0,1,5.62,4.39l11.08,57.39a1.74,1.74,0,0,0,.79,1.1,2,2,0,0,0,.88.4l.09.09a2,2,0,0,0,1.75-.88l32-58.36q2.71-4.4,7.29-4.4h20c3.16,0,5,1.47,5.62,4.4l10.81,57.65a1.65,1.65,0,0,0,.84,1.15,2.5,2.5,0,0,0,1,.35,1.63,1.63,0,0,0,1.76-1.06l32.08-57.83c1.81-3,4.25-4.48,7.29-4.48h28.92a3.07,3.07,0,0,1,2.9,1.58A3.45,3.45,0,0,1,572.79,399.7Z"/><path class="cls-2" d="M699.18,396.1q3.33,0,3.42,3.34a3,3,0,0,1-.08.61l-4.22,23.38a4.94,4.94,0,0,1-1.67,2.95,4.81,4.81,0,0,1-3.17,1.09H621.13a2,2,0,0,0-1.1.53,1.44,1.44,0,0,0-.66,1.06l-2.55,14.15H676.5a3.05,3.05,0,0,1,3.43,3.25,2.8,2.8,0,0,1-.09.7L676,468.52a5.05,5.05,0,0,1-1.67,3,4.67,4.67,0,0,1-3.16,1.14H613a2,2,0,0,0-1.1.53,1.42,1.42,0,0,0-.66,1.05l-2.38,13.27h73.83a3.48,3.48,0,0,1,2.55.88,3.21,3.21,0,0,1,.88,2.38,2.8,2.8,0,0,1-.09.7l-4.3,24.17a4.44,4.44,0,0,1-1.63,2.94,4.92,4.92,0,0,1-3.21,1.1H572.79a5.78,5.78,0,0,1-4.22-1.54,5.43,5.43,0,0,1-1.58-4.08,6.32,6.32,0,0,1,.09-1.06L587,403a8.12,8.12,0,0,1,2.85-4.87,7.89,7.89,0,0,1,5.23-2Z"/><path class="cls-2" d="M819,396.27a29.15,29.15,0,0,1,14.24,3.43,24.53,24.53,0,0,1,9.67,9.41,26.91,26.91,0,0,1,3.42,13.62,30.53,30.53,0,0,1-.52,5.62l-5.1,28a36.23,36.23,0,0,1-7.51,16.44,43.27,43.27,0,0,1-14.73,11.86c-.29.12-.44.25-.44.4s.27,0,.79-.31L832,512a4.59,4.59,0,0,1,.7,2.46,4.72,4.72,0,0,1-1.36,3.42,4.84,4.84,0,0,1-3.65,1.41c-4.33,0-9.26.06-14.76.18q-7.39.07-12.48.08a27.47,27.47,0,0,1-7.08-.61,5,5,0,0,1-3-2.64l-13.1-25.84a3.71,3.71,0,0,0-3.25-1.93l-28.21.09a1.59,1.59,0,0,0-1,.39,2.09,2.09,0,0,0-.66.84l-4.22,23a7.9,7.9,0,0,1-2.81,4.88,8.07,8.07,0,0,1-5.28,1.89H708.49a5.6,5.6,0,0,1-4.17-1.54,5.37,5.37,0,0,1-1.54-4,6.84,6.84,0,0,1,.09-1.14l20-109.95a8.06,8.06,0,0,1,2.81-4.83,7.91,7.91,0,0,1,5.27-1.94Zm-11.16,36.92a7.93,7.93,0,0,0,.09-1.15,4.89,4.89,0,0,0-1.54-3.55,5.18,5.18,0,0,0-3.82-1.54H757a1.78,1.78,0,0,0-1.06.39,2.06,2.06,0,0,0-.7.84L749.89,458l47.11-.09a7.21,7.21,0,0,0,4.74-1.84,7.65,7.65,0,0,0,2.73-4.31Z"/><path class="cls-2" d="M985.08,396.1q3.34,0,3.43,3.34a2.5,2.5,0,0,1-.09.61l-4.21,23.38a5,5,0,0,1-1.67,2.95,4.81,4.81,0,0,1-3.17,1.09H907a2,2,0,0,0-1.1.53,1.44,1.44,0,0,0-.66,1.06l-2.55,14.15h59.68a3.05,3.05,0,0,1,3.43,3.25,2.8,2.8,0,0,1-.09.7l-3.87,21.36a5.05,5.05,0,0,1-1.67,3,4.67,4.67,0,0,1-3.16,1.14H898.86a2,2,0,0,0-1.1.53,1.44,1.44,0,0,0-.65,1.05l-2.38,13.27h73.83a3.49,3.49,0,0,1,2.55.88,3.25,3.25,0,0,1,.88,2.38,2.8,2.8,0,0,1-.09.7l-4.31,24.17a4.39,4.39,0,0,1-1.62,2.94,4.92,4.92,0,0,1-3.21,1.1H858.7a5.77,5.77,0,0,1-4.22-1.54,5.39,5.39,0,0,1-1.58-4.08A7.56,7.56,0,0,1,853,513l20-110a8.12,8.12,0,0,1,2.85-4.87,7.87,7.87,0,0,1,5.23-2Z"/><path class="cls-2" d="M1099.61,395.92a28.81,28.81,0,0,1,14.23,3.47,25.08,25.08,0,0,1,9.72,9.5,26.55,26.55,0,0,1,3.47,13.49,30.55,30.55,0,0,1-.53,5.62l-10.81,59.5a35.81,35.81,0,0,1-7.25,16.18,42.51,42.51,0,0,1-14,11.69,36.81,36.81,0,0,1-17.23,4.3H994.4a5.6,5.6,0,0,1-4.17-1.54,5.37,5.37,0,0,1-1.54-4,6.84,6.84,0,0,1,.09-1.14l20-110.3a8.36,8.36,0,0,1,8.08-6.77Zm-64.69,91.58h39.37a5.05,5.05,0,0,0,3.17-1.27,4.66,4.66,0,0,0,1.84-2.86l9.41-52.2a3.31,3.31,0,0,0-1.1-2.46,3.6,3.6,0,0,0-2.59-1.06h-39.29a5.18,5.18,0,0,0-3.25,1.27,4.7,4.7,0,0,0-1.85,2.86l-9.32,51.59v.53a4.6,4.6,0,0,0,.71,2.46A4.11,4.11,0,0,0,1034.92,487.5Z"/><path class="cls-2" d="M1174.49,519.67q-4.92,0-5.19-5a6.2,6.2,0,0,1,.09-1l22.15-122.17a7.32,7.32,0,0,1,2.68-4.66,7.73,7.73,0,0,1,5-1.84h97.91a31.21,31.21,0,0,1,15.21,3.64,26.25,26.25,0,0,1,10.37,10,28.33,28.33,0,0,1,3.69,14.46,30.84,30.84,0,0,1-.61,6.06L1324,429.94a2.55,2.55,0,0,0-.26,1.31,28,28,0,0,1-4,9.85,53.68,53.68,0,0,1-8.84,10.11c1.47-.06,2.92.84,4.36,2.72a32.4,32.4,0,0,1,3.12,4.75,22.36,22.36,0,0,1,1.58,8.52,46.06,46.06,0,0,1-1,7.74l-2.2,12.12a37.11,37.11,0,0,1-7.34,16.44,42,42,0,0,1-14.15,11.82,37.42,37.42,0,0,1-17.44,4.35Zm39.81-33.84a2.42,2.42,0,0,0,1.85.88h54.14a9.29,9.29,0,0,0,6-2.37,9.06,9.06,0,0,0,3.38-5.54c.06-.35.15-.85.27-1.49a27.45,27.45,0,0,0,.52-3.78,6.52,6.52,0,0,0-2.06-4.83,6.85,6.85,0,0,0-5-2h-54.14a3,3,0,0,0-2,.79,3.53,3.53,0,0,0-1.19,1.76l-2.64,14.42V484A2.75,2.75,0,0,0,1214.3,485.83Zm9.06-50a2.42,2.42,0,0,0,1.75.8h50.72a10.32,10.32,0,0,0,9.49-7.83,7.08,7.08,0,0,1,.09-.88,36,36,0,0,0,.61-4.39,6.52,6.52,0,0,0-2.06-4.83,6.86,6.86,0,0,0-5-2h-50.71a3.21,3.21,0,0,0-2,.8,2.6,2.6,0,0,0-1.1,1.84l-2.64,14.33v.44A2.42,2.42,0,0,0,1223.36,435.82Z"/><path class="cls-2" d="M1413.38,474.32l-1.5,3.34-6.42,35.24a7.85,7.85,0,0,1-2.81,4.88,8,8,0,0,1-5.27,1.89h-23.29a5.64,5.64,0,0,1-4.18-1.54,5.4,5.4,0,0,1-1.53-4,6.88,6.88,0,0,1,.08-1.14l6.33-35.24c-.12-.94-.23-2.17-.35-3.69l-30.15-71.72A3.41,3.41,0,0,1,1344,401a4.42,4.42,0,0,1,1.41-3.3,4.85,4.85,0,0,1,3.51-1.36h29.53q4,0,5.28,3.34l15.29,36.3a1.44,1.44,0,0,0,.75.92,1.86,1.86,0,0,0,2.41-.3l28.83-37a8.18,8.18,0,0,1,6.59-3.25h29.53a3.46,3.46,0,0,1,2.55.88,3.2,3.2,0,0,1,.88,2.37,4.34,4.34,0,0,1-1,2.73Z"/></g><g class="cls-5"><path class="cls-4" d="M70.93,521.17H45.09c-4.09,0-6.46-2.28-6.68-6.43a7.42,7.42,0,0,1,.11-1.38v0L60.67,391.17a8.79,8.79,0,0,1,3.2-5.55,9.37,9.37,0,0,1,6.1-2.18h97.82a32.71,32.71,0,0,1,15.92,3.83,27.81,27.81,0,0,1,10.95,10.58,29.87,29.87,0,0,1,3.9,15.21,32.38,32.38,0,0,1-.65,6.36l-5.62,31.17a41,41,0,0,1-8.15,18.15,47.48,47.48,0,0,1-15.61,13.06,41.28,41.28,0,0,1-19.29,4.83l-62.75.09a1.46,1.46,0,0,0-1,.43,2.07,2.07,0,0,0-.7,1l-4.56,25.24A8.94,8.94,0,0,1,77,518.93,9.22,9.22,0,0,1,70.93,521.17Zm-29.46-7.31a5.49,5.49,0,0,0-.06.8c.13,2.47,1.2,3.51,3.68,3.51H70.93a6.26,6.26,0,0,0,4.18-1.53,6,6,0,0,0,2.16-3.79l4.61-25.48a5,5,0,0,1,1.66-2.5,4.46,4.46,0,0,1,2.95-1.15l62.75-.09a38.31,38.31,0,0,0,17.9-4.49,44.26,44.26,0,0,0,14.62-12.24,38.15,38.15,0,0,0,7.58-16.83L195,418.86a30,30,0,0,0,.59-5.8,27,27,0,0,0-3.49-13.71,25,25,0,0,0-9.8-9.45,29.84,29.84,0,0,0-14.48-3.46H70a6.36,6.36,0,0,0-4.19,1.5,5.8,5.8,0,0,0-2.15,3.73Zm102-59H92.73a4.21,4.21,0,0,1-4-4l0-.7,5.61-31.06A4.15,4.15,0,0,1,96,416.34a4.61,4.61,0,0,1,2.93-1.18H149.6a8.26,8.26,0,0,1,6,2.51,8.06,8.06,0,0,1,2.51,5.85,14.16,14.16,0,0,1-.1,1.66v.1l-3.7,20.56a11.68,11.68,0,0,1-10.88,9.06Zm-51.76-4.35v.3a1,1,0,0,0,.35.7,1,1,0,0,0,.7.35h50.71a7.72,7.72,0,0,0,5-2,7.86,7.86,0,0,0,2.92-4.63l3.67-20.49a12,12,0,0,0,.08-1.28,5.11,5.11,0,0,0-1.63-3.73,5.29,5.29,0,0,0-3.9-1.63H98.88a1.88,1.88,0,0,0-1,.49,1.45,1.45,0,0,0-.56.78l0,.14Z"/><path class="cls-4" d="M300.86,521.17H229.49a30.66,30.66,0,0,1-15-3.61,25.86,25.86,0,0,1-10.25-10.07,28.54,28.54,0,0,1-3.63-14.27,31.77,31.77,0,0,1,.56-5.9l10.72-59.5A38.36,38.36,0,0,1,219.51,411,43.78,43.78,0,0,1,234,398.9a38.47,38.47,0,0,1,17.92-4.48h71.28a30.54,30.54,0,0,1,15.05,3.66,26.3,26.3,0,0,1,10.25,10.06,28.64,28.64,0,0,1,3.62,14.32,31.39,31.39,0,0,1-.55,5.82l-10.81,59.49a38.63,38.63,0,0,1-7.54,16.82,43.33,43.33,0,0,1-14.42,12.11A38.46,38.46,0,0,1,300.86,521.17Zm-49-123.75a35.4,35.4,0,0,0-16.53,4.14,40.66,40.66,0,0,0-13.48,11.28,35.33,35.33,0,0,0-7,15.52l-10.72,59.5a28.61,28.61,0,0,0-.51,5.36A25.6,25.6,0,0,0,206.89,506a22.92,22.92,0,0,0,9.08,8.92,27.78,27.78,0,0,0,13.52,3.24h71.37A35.54,35.54,0,0,0,317.39,514a40.38,40.38,0,0,0,13.43-11.28,35.65,35.65,0,0,0,7-15.52l10.81-59.51a29,29,0,0,0,.5-5.27,25.6,25.6,0,0,0-3.23-12.83,23.44,23.44,0,0,0-9.09-8.93,27.73,27.73,0,0,0-13.6-3.28Zm46,91.67h-53.7a4.82,4.82,0,0,1-3.72-1.65,5.1,5.1,0,0,1-1.39-3.45l0-.88,9.31-51.6a6.17,6.17,0,0,1,2.38-3.75,6.63,6.63,0,0,1,4.2-1.61h53.61a5,5,0,0,1,3.61,1.49,5,5,0,0,1,1.49,3.61l0,.89-9.32,51.5a6.31,6.31,0,0,1-2.36,3.79A6.42,6.42,0,0,1,297.87,489.09Zm-55.81-5.58V484a2.17,2.17,0,0,0,.64,1.46,1.78,1.78,0,0,0,1.47.64h53.7a3.5,3.5,0,0,0,2.2-1,3.42,3.42,0,0,0,1.33-2l9.29-51.4v-.48a2.1,2.1,0,0,0-2.1-2.1H255a3.67,3.67,0,0,0-2.31.94,3.2,3.2,0,0,0-1.31,1.94Z"/><path class="cls-4" d="M502.65,521.17H478.22a6.68,6.68,0,0,1-7.08-5.54l-11-56.32a.37.37,0,0,0-.13-.15l-.2-.13-.19,0-.07,0a.27.27,0,0,0-.1.07l-.05.11L427.85,516c-2.21,3.45-5.09,5.16-8.61,5.16H394.81a6.69,6.69,0,0,1-7.08-5.64L366.44,402.17l-.11-1a5.93,5.93,0,0,1,1.8-4.36,6.25,6.25,0,0,1,4.62-1.8h28.83c3.76,0,6.21,1.91,7.08,5.54L419.75,458s0,.06.13.12l.26.16h.28a.32.32,0,0,0,.1-.1l32-58.27c2.14-3.46,5-5.18,8.61-5.18h20c3.85,0,6.37,2,7.09,5.6L499,458.05c0,.07,0,.08.06.09a4.1,4.1,0,0,0,.38.18.84.84,0,0,0,.3-.05l.08-.23,32.08-57.84c2.12-3.5,5-5.25,8.6-5.25h28.92a4.52,4.52,0,0,1,4.21,2.35,4.86,4.86,0,0,1,.63,2.4,6.12,6.12,0,0,1-.8,2.91l-62.23,113.3a10.45,10.45,0,0,1-3.64,3.8A9.25,9.25,0,0,1,502.65,521.17Zm-42.16-65.08a3.79,3.79,0,0,1,1.22.6,3.31,3.31,0,0,1,1.35,2l11,56.33c.52,2.18,1.81,3.18,4.15,3.18h24.43a6.27,6.27,0,0,0,3.38-1,7.32,7.32,0,0,0,2.61-2.72l62.22-113.27a3.24,3.24,0,0,0,.43-1.48,1.87,1.87,0,0,0-.25-.94,1.57,1.57,0,0,0-1.59-.81H540.53c-2.51,0-4.47,1.23-6,3.76l-32,57.68a3.12,3.12,0,0,1-3.13,1.93,3.72,3.72,0,0,1-1.72-.53,3.08,3.08,0,0,1-1.59-2.14l-10.82-57.71c-.44-2.21-1.69-3.17-4.15-3.17h-20c-2.51,0-4.48,1.21-6,3.69l-32,58.43a3.5,3.5,0,0,1-3,1.52h-.63l-.23-.24a4.17,4.17,0,0,1-.92-.49,3.27,3.27,0,0,1-1.44-2l-11.09-57.47c-.52-2.18-1.81-3.18-4.15-3.18H372.75a3.35,3.35,0,0,0-2.5.92,3,3,0,0,0-.92,2.15l.07.6,21.26,113.2a3.76,3.76,0,0,0,4.15,3.26h24.43c2.47,0,4.44-1.21,6-3.7l31.46-56.63a3.07,3.07,0,0,1,1.3-1.38,3.55,3.55,0,0,1,1.81-.51h.35Z"/><path class="cls-4" d="M676.85,521.17H572.79a7.29,7.29,0,0,1-5.27-2,6.9,6.9,0,0,1-2-5.16,7.06,7.06,0,0,1,.11-1.3l19.95-110.06a9.71,9.71,0,0,1,3.36-5.76,9.37,9.37,0,0,1,6.2-2.33H699.18c3.05,0,4.84,1.75,4.92,4.8a4.06,4.06,0,0,1-.13,1l-4.2,23.29a6.36,6.36,0,0,1-2.18,3.83,6.26,6.26,0,0,1-4.13,1.44H621.25a2.88,2.88,0,0,0-.28.2l-.11.1v.05l-2.23,12.39H676.5a4.53,4.53,0,0,1,4.93,4.67,5,5,0,0,1-.13,1.14l-3.85,21.27a6.53,6.53,0,0,1-2.17,3.85,6.14,6.14,0,0,1-4.14,1.51H613.08a2.62,2.62,0,0,0-.29.2l-.11.1L610.62,486h72a4.91,4.91,0,0,1,3.61,1.32,4.66,4.66,0,0,1,1.32,3.44,4.33,4.33,0,0,1-.13,1.06l-4.29,24.07a5.85,5.85,0,0,1-2.16,3.85A6.44,6.44,0,0,1,676.85,521.17ZM595.11,397.6a6.34,6.34,0,0,0-4.25,1.62,6.61,6.61,0,0,0-2.36,4l-20,110a5.06,5.06,0,0,0-.06.79,4,4,0,0,0,1.13,3,4.3,4.3,0,0,0,3.17,1.11H676.85a3.5,3.5,0,0,0,2.27-.76,3,3,0,0,0,1.08-2l4.32-24.22a1.83,1.83,0,0,0,.06-.44,1.69,1.69,0,0,0-.44-1.32,2.07,2.07,0,0,0-1.49-.44H607l2.67-14.93a2.87,2.87,0,0,1,1.22-2.06,3.29,3.29,0,0,1,2-.86h58.18a3.15,3.15,0,0,0,2.18-.78,3.55,3.55,0,0,0,1.18-2.13l3.86-21.35a1.84,1.84,0,0,0,.07-.43c-.07-1.29-.56-1.75-1.93-1.75H615l2.85-15.82a2.9,2.9,0,0,1,1.21-2.06,3.29,3.29,0,0,1,2-.86h72.33a3.29,3.29,0,0,0,2.21-.75,3.36,3.36,0,0,0,1.15-2.07L701,399.79a2.06,2.06,0,0,0,.06-.35c0-1.37-.52-1.84-1.92-1.84Z"/><path class="cls-4" d="M731.78,521.17H708.49a7.07,7.07,0,0,1-5.23-2,6.84,6.84,0,0,1-2-5.06,8.58,8.58,0,0,1,.11-1.38l20-110a9.58,9.58,0,0,1,3.32-5.71,9.43,9.43,0,0,1,6.24-2.29H819a30.66,30.66,0,0,1,15,3.62,26.08,26.08,0,0,1,10.25,10,28.56,28.56,0,0,1,3.62,14.37,31.84,31.84,0,0,1-.55,5.9l-5.09,28a38,38,0,0,1-7.82,17.1,44.74,44.74,0,0,1-13.67,11.46l12.63,26.09a6.37,6.37,0,0,1-.9,7.65,6.34,6.34,0,0,1-4.73,1.86c-4.3,0-9.26.06-14.73.18-4.92,0-9.13.08-12.51.08a28.31,28.31,0,0,1-7.53-.68A6.51,6.51,0,0,1,789,517l-13.07-25.79a2.17,2.17,0,0,0-1.95-1.18l-28.2.09-.07.05a1.61,1.61,0,0,0-.18.17l-4.18,22.8a9.39,9.39,0,0,1-3.33,5.77A9.54,9.54,0,0,1,731.78,521.17Zm-.88-123.4a6.42,6.42,0,0,0-4.3,1.58,6.55,6.55,0,0,0-2.31,4l-19.95,110a5.66,5.66,0,0,0-.06.87,3.94,3.94,0,0,0,1.1,2.94,4.17,4.17,0,0,0,3.11,1.1h23.29a6.52,6.52,0,0,0,4.32-1.54,6.42,6.42,0,0,0,2.29-4l4.31-23.32a3.62,3.62,0,0,1,1.1-1.44,3.06,3.06,0,0,1,2-.73l28.21-.09a5.18,5.18,0,0,1,4.52,2.63l.07.12,13.1,25.84a3.54,3.54,0,0,0,2.14,1.89,25.21,25.21,0,0,0,6.63.54c3.37,0,7.57,0,12.46-.08,5.48-.12,10.45-.18,14.78-.18a3.38,3.38,0,0,0,2.57-1,3.23,3.23,0,0,0,.94-2.38,3.15,3.15,0,0,0-.48-1.68l-.07-.13-12.59-26a1.66,1.66,0,0,1-.72-.18l-.79-.43,0-1a1.89,1.89,0,0,1,1.32-1.76A42,42,0,0,0,832,471.89a34.84,34.84,0,0,0,7.21-15.76l5.1-28.05a28.57,28.57,0,0,0,.5-5.35,25.57,25.57,0,0,0-3.22-12.88,23.19,23.19,0,0,0-9.09-8.83A27.68,27.68,0,0,0,819,397.77Zm17.19,61.71,5.77-31.86a3.51,3.51,0,0,1,1.19-1.48,3.25,3.25,0,0,1,2-.69h45.53a6.67,6.67,0,0,1,4.88,2,6.39,6.39,0,0,1,2,4.62,9.67,9.67,0,0,1-.11,1.36v.05L805.94,452a9.21,9.21,0,0,1-3.23,5.19,8.73,8.73,0,0,1-5.71,2.19Zm8.59-30.79-5,27.78,45.32-.09a5.71,5.71,0,0,0,3.78-1.49,6.18,6.18,0,0,0,2.22-3.47L806.33,433a7.86,7.86,0,0,0,.07-.91,3.4,3.4,0,0,0-1.1-2.49,3.72,3.72,0,0,0-2.76-1.1H757a.5.5,0,0,0-.16.09Z"/><path class="cls-4" d="M962.76,521.17H858.7a7.28,7.28,0,0,1-5.27-2,6.9,6.9,0,0,1-2-5.16,8,8,0,0,1,.1-1.3l20-110.06a9.62,9.62,0,0,1,3.36-5.76,9.35,9.35,0,0,1,6.2-2.33H985.08c3.06,0,4.85,1.75,4.93,4.8a4.06,4.06,0,0,1-.13,1l-4.2,23.29a6.41,6.41,0,0,1-2.18,3.83,6.26,6.26,0,0,1-4.13,1.44H907.16a2.88,2.88,0,0,0-.28.2l-.11.1v.05l-2.24,12.39h57.89a4.52,4.52,0,0,1,4.92,4.67,4.06,4.06,0,0,1-.13,1.14l-3.84,21.27a6.53,6.53,0,0,1-2.17,3.85,6.14,6.14,0,0,1-4.14,1.51H899a2.62,2.62,0,0,0-.29.2l-.11.1L896.52,486h72a4.93,4.93,0,0,1,3.61,1.32,4.7,4.7,0,0,1,1.32,3.44,4.88,4.88,0,0,1-.13,1.06l-4.29,24.07a5.85,5.85,0,0,1-2.16,3.85A6.44,6.44,0,0,1,962.76,521.17ZM881,397.6a6.38,6.38,0,0,0-4.26,1.62,6.64,6.64,0,0,0-2.35,4l-19.95,110a5.06,5.06,0,0,0-.06.79,4,4,0,0,0,1.12,3,4.32,4.32,0,0,0,3.18,1.11H962.76a3.5,3.5,0,0,0,2.27-.76,3,3,0,0,0,1.08-2l4.31-24.22a2,2,0,0,0,.07-.44,1.69,1.69,0,0,0-.44-1.32,2.07,2.07,0,0,0-1.49-.44H892.94l2.67-14.93a2.87,2.87,0,0,1,1.22-2.06,3.26,3.26,0,0,1,2-.86h58.19a3.15,3.15,0,0,0,2.18-.78,3.55,3.55,0,0,0,1.18-2.13l3.86-21.35a1.84,1.84,0,0,0,.07-.43c-.08-1.29-.56-1.75-1.93-1.75H900.94l2.85-15.82a2.9,2.9,0,0,1,1.21-2.06,3.29,3.29,0,0,1,2-.86h72.33a3.25,3.25,0,0,0,2.2-.75,3.37,3.37,0,0,0,1.16-2.07L987,399.79a2.06,2.06,0,0,0,.06-.35c0-1.37-.52-1.84-1.93-1.84Z"/><path class="cls-4" d="M1077.19,521.17H994.4a7.1,7.1,0,0,1-5.24-2,6.87,6.87,0,0,1-2-5.06,7.57,7.57,0,0,1,.11-1.38l20-110.33a9.87,9.87,0,0,1,9.56-8h82.8a30.36,30.36,0,0,1,15,3.66,26.68,26.68,0,0,1,10.29,10.06,28.15,28.15,0,0,1,3.67,14.24,31.85,31.85,0,0,1-.56,5.9l-10.8,59.49a37.56,37.56,0,0,1-7.55,16.83,44.12,44.12,0,0,1-14.51,12.1A38.4,38.4,0,0,1,1077.19,521.17Zm-60.38-123.75a6.86,6.86,0,0,0-6.61,5.54l-20,110.3a5.66,5.66,0,0,0-.06.87,3.94,3.94,0,0,0,1.1,2.94,4.14,4.14,0,0,0,3.11,1.1h82.79a35.55,35.55,0,0,0,16.54-4.13,41.26,41.26,0,0,0,13.53-11.29,34.43,34.43,0,0,0,7-15.5L1125,427.73a28.59,28.59,0,0,0,.51-5.35,25.21,25.21,0,0,0-3.27-12.75,23.73,23.73,0,0,0-9.15-8.93,27.5,27.5,0,0,0-13.5-3.28ZM1074.29,489h-39.37a5.6,5.6,0,0,1-3.92-1.54l-.15-.14-.11-.17a6.16,6.16,0,0,1-.93-3.25l0-.79,9.31-51.6a6.14,6.14,0,0,1,2.39-3.75,6.59,6.59,0,0,1,4.19-1.61H1085a5.12,5.12,0,0,1,3.63,1.47,4.85,4.85,0,0,1,1.56,3.55l0,.26-9.4,52.21a6.19,6.19,0,0,1-2.38,3.76A6.57,6.57,0,0,1,1074.29,489Zm-41.1-3.6a2.62,2.62,0,0,0,1.73.6h39.37a3.57,3.57,0,0,0,2.23-.94,3.2,3.2,0,0,0,1.3-1.93l9.38-52.08a1.81,1.81,0,0,0-.63-1.26,2.11,2.11,0,0,0-1.55-.64h-39.29a3.69,3.69,0,0,0-2.31.94,3.2,3.2,0,0,0-1.31,1.94l-9.3,51.48v.39A3.12,3.12,0,0,0,1033.19,485.4Z"/><path class="cls-4" d="M1277.85,521.17H1174.49c-4.09,0-6.47-2.28-6.69-6.43a8.39,8.39,0,0,1,.11-1.38l22.15-122.19a8.85,8.85,0,0,1,3.21-5.55,9.22,9.22,0,0,1,6-2.18h97.91a32.78,32.78,0,0,1,15.93,3.83,27.81,27.81,0,0,1,11,10.58,30,30,0,0,1,3.89,15.21,33.14,33.14,0,0,1-.64,6.36l-1.89,11-.14.24h0a2.09,2.09,0,0,0,0,.55l0,.28a29.38,29.38,0,0,1-4.21,10.38,51.26,51.26,0,0,1-7.2,8.61,9.9,9.9,0,0,1,2.65,2.5,33.67,33.67,0,0,1,3.27,5l0,.11a23.81,23.81,0,0,1,1.7,9.09,48,48,0,0,1-1,8l-2.19,12.1a38.9,38.9,0,0,1-7.63,17.09A43.74,43.74,0,0,1,1296,516.65,39,39,0,0,1,1277.85,521.17Zm-78.58-134.73a6.24,6.24,0,0,0-4.1,1.5,5.85,5.85,0,0,0-2.15,3.73l-22.15,122.21a4.81,4.81,0,0,0-.07.78c.14,2.47,1.2,3.51,3.69,3.51h103.36A36.17,36.17,0,0,0,1294.6,514a40.82,40.82,0,0,0,13.66-11.41,35.88,35.88,0,0,0,7-15.78l2.19-12.13a45,45,0,0,0,1-7.51,20.9,20.9,0,0,0-1.45-7.86,30.51,30.51,0,0,0-3-4.46c-1.11-1.45-2.16-2.19-3.1-2.14l-4.06.16,3-2.76a52,52,0,0,0,8.58-9.81,26.51,26.51,0,0,0,3.77-9.19,4.16,4.16,0,0,1,.32-1.64l1.81-10.59a30.22,30.22,0,0,0,.59-5.81,26.93,26.93,0,0,0-3.49-13.71,25,25,0,0,0-9.79-9.45,29.85,29.85,0,0,0-14.49-3.46Zm71,101.77h-54.14a3.91,3.91,0,0,1-3-1.37A4.22,4.22,0,0,1,1212,484l0-.62,2.66-14.54a5,5,0,0,1,1.66-2.5,4.42,4.42,0,0,1,3-1.16h54.14a8.36,8.36,0,0,1,6,2.45,8,8,0,0,1,2.51,5.91,24.32,24.32,0,0,1-.55,4.05c-.11.63-.2,1.12-.26,1.46a10.54,10.54,0,0,1-3.9,6.45A10.76,10.76,0,0,1,1270.29,488.21ZM1215,483.77V484a1.21,1.21,0,0,0,.41.84h0a.9.9,0,0,0,.73.38h54.14a7.79,7.79,0,0,0,5.06-2,7.57,7.57,0,0,0,2.86-4.63c.06-.36.15-.86.27-1.52a24.49,24.49,0,0,0,.5-3.51,5,5,0,0,0-1.61-3.76,5.38,5.38,0,0,0-3.92-1.6h-54.14a1.51,1.51,0,0,0-1,.43,2.1,2.1,0,0,0-.7,1Zm60.82-45.65h-50.72a4.23,4.23,0,0,1-4-4.05l0-.71,2.62-14.27a4.15,4.15,0,0,1,1.67-2.82,4.69,4.69,0,0,1,2.9-1.11H1279a8.34,8.34,0,0,1,6,2.45,8,8,0,0,1,2.52,5.91,31.17,31.17,0,0,1-.64,4.65c0,.27-.06.49-.06.62l0,.29a11.83,11.83,0,0,1-11,9Zm-51.77-4.36v.31a1.3,1.3,0,0,0,1,1.05h50.72a7.89,7.89,0,0,0,5.07-2,7.78,7.78,0,0,0,2.92-4.5c0-.23,0-.53.1-.92a35.2,35.2,0,0,0,.6-4.18,5,5,0,0,0-1.61-3.76,5.38,5.38,0,0,0-3.92-1.6h-50.71a1.82,1.82,0,0,0-1.06.48c-.49.38-.51.67-.52.78l0,.15Z"/><path class="cls-4" d="M1397.38,521.17h-23.29a7.07,7.07,0,0,1-5.24-2,6.87,6.87,0,0,1-2-5.06,8.61,8.61,0,0,1,.1-1.38l6.29-35c-.1-.87-.2-1.95-.31-3.3l-30-71.49a4.85,4.85,0,0,1-.38-1.9,5.9,5.9,0,0,1,1.86-4.37,6.31,6.31,0,0,1,4.56-1.79h29.53c3.26,0,5.56,1.48,6.67,4.29l15.34,36.44a1.43,1.43,0,0,0,.32.15.51.51,0,0,0,.29-.14l28.76-36.91a9.63,9.63,0,0,1,7.77-3.83h29.53a4.87,4.87,0,0,1,3.61,1.32,4.65,4.65,0,0,1,1.32,3.43,5.79,5.79,0,0,1-1.38,3.67l-56,71.82-1.35,3-6.38,35.06a9.39,9.39,0,0,1-3.33,5.77A9.54,9.54,0,0,1,1397.38,521.17ZM1349,397.86a3.38,3.38,0,0,0-2.47.94,2.91,2.91,0,0,0-1,2.22,1.94,1.94,0,0,0,.14.73l30.25,71.95v.24c.12,1.54.24,2.72.35,3.62l0,.23-6.37,35.47a5.66,5.66,0,0,0-.06.87,3.93,3.93,0,0,0,1.09,2.94,4.18,4.18,0,0,0,3.12,1.1h23.29a6.52,6.52,0,0,0,4.32-1.54,6.42,6.42,0,0,0,2.29-4l6.45-35.43,1.75-3.81,56.16-72a2.89,2.89,0,0,0,.74-1.81,1.68,1.68,0,0,0-.44-1.31,2.07,2.07,0,0,0-1.49-.44h-29.53a6.64,6.64,0,0,0-5.42,2.7l-28.94,37.12a3.53,3.53,0,0,1-2.55,1.05,3.46,3.46,0,0,1-1.64-.49,2.94,2.94,0,0,1-1.44-1.73l-15.27-36.23c-.66-1.68-1.86-2.42-3.89-2.42Z"/></g></g></g></g></g></svg>