<svg xmlns="http://www.w3.org/2000/svg" viewBox="0 0 1013.53 282.23"><defs><style>.cls-1,.cls-3{fill:#fff;}.cls-2{fill:red;}.cls-3{font-size:47.28px;font-family:EnergySpike-Italic, Energy Spike;font-style:italic;}</style></defs><g id="Layer_2" data-name="Layer 2"><g id="Layer_1-2" data-name="Layer 1"><path class="cls-1" d="M650,201.42c-18.24,0-36.49,0-54.73,0-9.63,0-13.13-3.81-12.73-13.42a31.76,31.76,0,0,1,2.54-10.58Q612.68,109,640.22,40.51A43.48,43.48,0,0,1,652,23.77a25.24,25.24,0,0,1,17.72-6.56c35.88.31,71.76.33,107.65.49,10.74.05,14.7,4.43,13,15.25-1.63,10.5-7,19.78-10.74,29.6-3.54,9.37-3.74,9.32-13.59,9.29-6.28,0-12.57-.2-18.85-.17-3.1,0-3.78-.87-2.79-4,2.69-8.46,1.12-10.41-7.61-10.43-19.86-.06-39.74.06-59.6-.3-7-.13-11.31,3.36-13.63,9-11.89,28.82-23.48,57.76-35,86.71-2.49,6.22-.3,9.18,6.29,9.21,20.47.08,41,0,61.42.3,6.75.12,10.66-3.46,13.29-8.62a150.9,150.9,0,0,0,7.06-17.43c2.14-5.93,0-8.79-6.27-8.88-12.16-.15-24.32-.36-36.48-.38-3.46,0-4.84-.53-3.2-4.4,4.4-10.45,8.52-21,12.64-31.57,1-2.44,2.32-3.29,5-3.27,21.08.17,42.17.1,63.25.32,7.16.07,10.24,3.46,10.75,10.52.38,5.21-1,10-2.89,14.77Q746.25,145.58,733.19,178a45.5,45.5,0,0,1-11.49,16.94,25.05,25.05,0,0,1-18.15,7c-17.84-.3-35.68-.1-53.52-.1Z"/><path class="cls-1" d="M215.87,15.91c-5,12.47-9.85,24.63-14.75,36.77-1.26,3.13-4.12,2-6.36,2Q147,54.61,99.3,54.37c-7.87,0-12.12,2.84-15.2,10.22-1.64,3.93-3.35,7.83-4.77,11.83-1.93,5.43.23,8.52,5.86,8.54l85.13.21c10.86,0,15.31,5.57,13.16,16.38-1.27,6.41-4.16,12.25-6.56,18.25q-11.16,27.92-22.38,55.79a46.16,46.16,0,0,1-10.63,16.09c-5.65,5.56-12.08,7.94-20.21,7.86-39.32-.4-78.64-.32-118-.42-6.7,0-6.71,0-4.15-6.43C5.12,183.87,9,175.17,12.1,166.18c1.79-5.22,4.27-7.05,10-7,31.41.45,62.82.42,94.23.54,7.88,0,12.34-3,15.28-10.21,2.14-5.25,4.35-10.46,6.3-15.78,2.23-6.08.3-8.8-6.08-8.83q-42-.23-83.9-.4c-12.3,0-17.07-5.8-13.63-17.84,4.23-14.8,11.16-28.64,16.67-43,3.27-8.5,6.84-16.88,10.19-25.35A44.55,44.55,0,0,1,73.77,20.77,22.7,22.7,0,0,1,89.3,15q61.41.43,122.81.68C213.11,15.65,214.12,15.78,215.87,15.91Z"/><path class="cls-1" d="M586.74,19.71c3.91,6.48,3.39,13.23.75,19.87-8.73,22-17.22,44.14-26.62,65.86-5.19,12-14.58,23.53-33.68,21.38-5.21-.58-10.53-.22-15.8-.22-6.88,0-10,4.7-7.13,11.13,8.58,19.22,16.48,38.75,26.31,57.39,2.29,4.35,2.46,6.17-3.44,6-12.76-.41-25.54-.4-38.3-.22-3.73.06-5.28-1.37-6.55-4.64-8.92-23-18.11-46-27-69-7.67-19.78,7.64-41,28.66-40.36,14.18.41,28.38,0,42.56.14,6,0,9.25-3.78,11.7-8.19a83.4,83.4,0,0,0,5.49-13.47c2.09-6.05-.22-9.13-6.55-9.16-20.87-.07-41.75-.27-62.62-.11-7,0-10.53,5.3-12.86,11.05q-20.3,50.08-40.37,100.25c-3.93,9.76-8,19.47-11.75,29.3-1.13,3-2.72,4-5.81,3.92-7.69-.18-15.41-.36-23.1,0-5.39.29-5.46-1.37-3.69-5.74,12.26-30.18,24.29-60.46,36.4-90.7,8.36-20.85,16.78-41.67,25.09-62.54a48.27,48.27,0,0,1,9.39-15.49c5.78-6.17,12.47-9.58,21.41-9.46,33.84.46,67.69.41,101.54.52,2.63,0,5.26-.16,7.89-.25A14.92,14.92,0,0,1,586.74,19.71Z"/><path class="cls-1" d="M919,18.51c20.87,0,41.75.11,62.62-.08,4.92,0,6.67.75,4.34,6q-6.39,14.43-11.79,29.28c-1.44,3.92-3.42,5.09-7.5,5-32.83-.3-65.66-.36-98.49-.48-7.37,0-12.35,3.39-15.24,10.4-1.55,3.74-3.17,7.45-4.53,11.26-2,5.65.28,8.9,6.21,8.92q34.65.12,69.31.21c6.85,0,6.85,0,4.22,6.61-3.54,8.83-7.32,17.57-10.52,26.52-1.67,4.67-4,6.46-9.19,6.36-22.89-.44-45.79-.25-68.68-.65-7.45-.13-11.67,3.83-14.53,9.72a171.07,171.07,0,0,0-6.6,16.31c-2.22,6,0,9.11,6.47,9.13,32.83.07,65.66.24,98.49.09,5.5,0,6.07,1.42,4,6.11-4.25,9.84-8.21,19.81-12,29.83-1.2,3.14-2.78,4.23-6.19,4.2-41.53-.32-83.07-.45-124.61-.69-9-.06-12.77-4.28-12.23-13.38A39,39,0,0,1,775.77,177Q803,109.39,830.2,41.81a44.89,44.89,0,0,1,11.11-16.47A25.35,25.35,0,0,1,860,18.18c19.66.39,39.32.13,59,.13Z"/><path class="cls-1" d="M274.57,65.28c-11.44,27.9-22.59,55.92-33.81,83.91-3.59,8.95-2,11.17,7.59,11.2q27.36.08,54.72.19c8.85,0,12.8-2.63,16.08-10.79q23.13-57.46,46.23-114.92c1.13-2.82,2.32-5.62,3.46-8.43C373,16.22,373,16.22,383.69,16.22c5.27,0,10.56.26,15.81-.08s6.73.73,4.49,6.22c-15.51,38-30.75,76.2-46.08,114.31-5.21,13-10.48,25.89-15.67,38.86a47.49,47.49,0,0,1-10,15.81c-5.64,5.8-12.17,8.8-20.54,8.7-35.46-.43-70.93-.5-106.4-.73-7.62-.05-11.13-3.51-11.42-11.07-.16-4.36,1.13-8.41,2.72-12.36q31.29-77.73,62.48-155.49c1.61-4,3.65-4.94,7.58-4.82,8.5.25,17,0,25.52,0l1.29.14c-1,8.08-5.54,14.88-8,22.44"/><path class="cls-1" d="M1003,0a10.6,10.6,0,1,1-10.63,10.6A10.6,10.6,0,0,1,1003,0Zm0,19.45a8.86,8.86,0,1,0-8.88-8.82A8.85,8.85,0,0,0,1003,19.45Z"/><path class="cls-1" d="M1001.51,12.64v3.68h-2.62V4.85h5a3.81,3.81,0,0,1,3.76,2.73,3.83,3.83,0,0,1-1.49,4.37l-.18.15,2.5,4.24c-1,0-1.9,0-2.8,0-.11,0-.24-.18-.32-.31-.58-1-1.16-1.91-1.71-2.89a.79.79,0,0,0-.87-.5A10.08,10.08,0,0,1,1001.51,12.64Zm0-2.35.39,0c.71,0,1.43,0,2.13,0a1.19,1.19,0,0,0,.68-.41,1.79,1.79,0,0,0,.1-2.05,1.48,1.48,0,0,0-.86-.61,22,22,0,0,0-2.44,0Z"/><path class="cls-2" d="M892.25,282.23H720.9a4.43,4.43,0,0,1-4.35-5.24l7.76-41.77a4.45,4.45,0,0,1,4.36-3.62H900a4.44,4.44,0,0,1,4.36,5.25l-7.77,41.76A4.44,4.44,0,0,1,892.25,282.23Z"/><text class="cls-3" transform="translate(732.23 271.51)">Egypt</text></g></g></svg>